<svg width="60" height="60" viewBox="0 0 60 60" fill="none" xmlns="http://www.w3.org/2000/svg">
<g filter="url(#filter0_dd)">
<path d="M24 54C12.9543 54 4 45.0457 4 34L4 22C4 10.9543 12.9543 2 24 2L36 2C47.0457 2 56 10.9543 56 22L56 34C56 45.0457 47.0457 54 36 54L24 54Z" fill="url(#paint0_linear)"/>
</g>
<path d="M39.9592 28.5095C38.584 28.5095 37.3677 29.2007 36.6374 30.2534L35.5857 29.8029V29.1436L38.8803 27.7766L39.7261 25.8266H40.1149L42.0638 28.1412C42.139 28.2305 42.2466 28.2766 42.3549 28.2766C42.4414 28.2766 42.5283 28.2473 42.5997 28.1872C42.7604 28.052 42.781 27.812 42.6457 27.6513L41.1093 25.8265H41.3536C41.5638 25.8265 41.7339 25.6563 41.7339 25.4462C41.7339 25.2361 41.5638 25.0659 41.3536 25.0659H40.7823L41.28 24.83C41.5157 24.7182 41.6174 24.4372 41.5075 24.2004L41.2209 23.5825C41.1436 23.416 40.9775 23.3088 40.794 23.3071L35.5185 23.2593C35.517 23.2593 35.5156 23.2593 35.5142 23.2593C35.3822 23.2593 35.2562 23.3142 35.1662 23.4108C35.1564 23.4213 34.0787 24.5371 32.0905 24.7962C31.9605 24.5547 31.7469 24.2148 31.432 23.877C30.6673 23.0568 29.6624 22.6234 28.526 22.6234C28.296 22.6234 28.0571 22.6411 27.816 22.6761C27.8147 22.6762 27.8134 22.6764 27.8121 22.6767C27.7561 22.6853 26.4291 22.8917 24.5921 23.407C24.572 23.4081 24.5431 23.4091 24.5076 23.4091C24.2968 23.4091 23.7852 23.3715 23.5859 23.0234C23.5715 22.9983 23.5576 22.9693 23.5447 22.9364L24.4234 22.7768C24.6688 22.7322 24.8316 22.4971 24.7871 22.2518C24.7425 22.0063 24.5073 21.8437 24.262 21.8881L23.554 22.0167C23.6623 21.5695 23.9084 20.9582 24.3974 20.1247C24.4993 19.951 24.4807 19.7318 24.3508 19.5777C24.2587 19.4684 24.1247 19.4087 23.9873 19.4087C23.931 19.4087 23.8743 19.4186 23.8195 19.4393C23.7668 19.4592 22.5159 19.9401 21.381 21.1263C20.6545 21.8856 19.8832 23.0417 19.6412 24.6596C19.7056 24.5342 19.7856 24.4121 19.8863 24.2984C19.8863 24.2984 21.1841 25.1456 20.4515 26.372H19.5921C19.6127 26.6211 19.6449 26.878 19.6908 27.1434C19.7087 27.2469 19.7603 27.3415 19.8375 27.4125L20.8991 28.388C17.4084 27.9198 16.1529 30.1853 16.1529 30.1853C15.8911 30.5338 16.0228 30.9095 16.4453 30.71C16.1613 31.2624 16 31.8877 16 32.5504C16 34.7786 17.8127 36.5912 20.0407 36.5912C22.2688 36.5912 24.0815 34.7785 24.0815 32.5504C24.0815 32.385 24.0703 32.2223 24.051 32.0622H28.9884L27.0393 30.6093C27.0393 30.6093 24.7264 30.8327 23.0763 29.037C23.249 29.0283 23.4374 29.0228 23.6376 29.0228C24.9756 29.0228 26.8383 29.2636 28.1131 30.4108C28.1296 30.4255 28.1471 30.4392 28.1654 30.4515L32.5388 33.3992C32.6197 33.4538 32.7123 33.4804 32.8044 33.4804C32.9271 33.4804 33.0489 33.4331 33.1407 33.3411L34.9028 31.579L35.9533 32.0289C35.9311 32.1998 35.9185 32.3736 35.9185 32.5504C35.9185 34.7786 37.7312 36.5912 39.9592 36.5912C42.1873 36.5912 43.9999 34.7785 43.9999 32.5504C43.9999 30.3222 42.1873 28.5095 39.9592 28.5095ZM35.5857 27.5298L38.5634 26.118L38.1609 27.0457L35.5857 28.1143V27.5298ZM20.0407 34.6897C18.8612 34.6897 17.9016 33.73 17.9016 32.5504C17.9016 31.3708 18.8612 30.4112 20.0407 30.4112C20.0905 30.4112 20.1397 30.4135 20.1887 30.4168L19.3037 32.2413L21.0146 33.0712L21.8327 31.3843C22.052 31.7201 22.1799 32.1205 22.1799 32.5504C22.1799 33.73 21.2203 34.6897 20.0407 34.6897ZM39.9592 34.6897C38.8769 34.6897 37.9804 33.8815 37.8398 32.8369L39.4582 33.5301L40.207 31.7822L38.4545 31.0316C38.8413 30.6483 39.373 30.4111 39.9592 30.4111C41.1387 30.4111 42.0984 31.3708 42.0984 32.5504C42.0984 33.7299 41.1387 34.6897 39.9592 34.6897Z" fill="white"/>
<defs>
<filter id="filter0_dd" x="0.4" y="1.19209e-07" width="59.2" height="59.2" filterUnits="userSpaceOnUse" color-interpolation-filters="sRGB">
<feFlood flood-opacity="0" result="BackgroundImageFix"/>
<feColorMatrix in="SourceAlpha" type="matrix" values="0 0 0 0 0 0 0 0 0 0 0 0 0 0 0 0 0 0 127 0" result="hardAlpha"/>
<feOffset dy="0.3"/>
<feGaussianBlur stdDeviation="0.45"/>
<feColorMatrix type="matrix" values="0 0 0 0 0 0 0 0 0 0 0 0 0 0 0 0 0 0 0.108 0"/>
<feBlend mode="normal" in2="BackgroundImageFix" result="effect1_dropShadow"/>
<feColorMatrix in="SourceAlpha" type="matrix" values="0 0 0 0 0 0 0 0 0 0 0 0 0 0 0 0 0 0 127 0" result="hardAlpha"/>
<feOffset dy="1.6"/>
<feGaussianBlur stdDeviation="1.8"/>
<feColorMatrix type="matrix" values="0 0 0 0 0 0 0 0 0 0 0 0 0 0 0 0 0 0 0.132 0"/>
<feBlend mode="normal" in2="effect1_dropShadow" result="effect2_dropShadow"/>
<feBlend mode="normal" in="SourceGraphic" in2="effect2_dropShadow" result="shape"/>
</filter>
<linearGradient id="paint0_linear" x1="9" y1="9.5" x2="51" y2="46.5" gradientUnits="userSpaceOnUse">
<stop stop-color="#FFD537"/>
<stop offset="1" stop-color="#F58221"/>
</linearGradient>
</defs>
</svg>
