<svg width="60" height="60" viewBox="0 0 60 60" fill="none" xmlns="http://www.w3.org/2000/svg">
<g filter="url(#filter0_dd)">
<path d="M24 54C12.9543 54 4 45.0457 4 34L4 22C4 10.9543 12.9543 2 24 2L36 2C47.0457 2 56 10.9543 56 22L56 34C56 45.0457 47.0457 54 36 54L24 54Z" fill="url(#paint0_linear)"/>
</g>
<path d="M18.8135 23.1033C18.3215 23.106 17.6457 23.1099 17.229 23.1129C16.6751 23.117 16.2214 23.3701 16.1002 23.7428C16.0586 23.872 16.0252 24.0036 16 24.137L18.2509 24.1175L18.8135 23.1033Z" fill="white"/>
<path d="M34.8426 23.296C34.5939 23.0509 34.2821 22.8795 33.9419 22.801C33.6017 22.7225 33.2463 22.7399 32.9154 22.8512C32.5845 22.9626 32.2909 23.1635 32.0673 23.4317C31.8437 23.6999 31.6989 24.0249 31.6489 24.3705L35.3822 24.3433C35.3196 23.9452 35.1304 23.578 34.8426 23.296Z" fill="white"/>
<path d="M38.7406 24.1206L33.4817 26.6963V31.7367C33.4817 32.8615 34.2675 34.3476 35.1975 34.9817L38.7409 37.3982L42.2841 34.9817C43.2143 34.3476 44.0001 32.8615 44.0001 31.7367V26.7038L38.7406 24.1206ZM40.7358 29.9919L38.4426 32.0923C38.3724 32.1566 38.2796 32.1904 38.1846 32.1864C38.0895 32.1824 37.9999 32.1409 37.9354 32.0709L36.7247 30.7577C36.6601 30.6876 36.6259 30.5947 36.6298 30.4994C36.6336 30.4041 36.6752 30.3142 36.7453 30.2496C36.8155 30.1849 36.9084 30.1508 37.0037 30.1546C37.099 30.1585 37.1889 30.2001 37.2535 30.2702L38.2214 31.3199L40.2503 29.4615C40.2851 29.4293 40.3259 29.4043 40.3704 29.3879C40.4148 29.3715 40.4621 29.3641 40.5094 29.3661C40.5568 29.368 40.6033 29.3793 40.6462 29.3993C40.6892 29.4193 40.7278 29.4475 40.7598 29.4825C40.7918 29.5174 40.8166 29.5584 40.8327 29.6029C40.8489 29.6475 40.8561 29.6948 40.8538 29.7421C40.8516 29.7894 40.8401 29.8359 40.8199 29.8787C40.7997 29.9216 40.7709 29.96 40.7358 29.9919Z" fill="white"/>
<path d="M18.6741 35.0376C18.6745 35.0858 18.6939 35.1318 18.7281 35.1657C18.7623 35.1996 18.8084 35.2187 18.8566 35.2187H18.8579L20.504 35.2068C20.5524 35.2063 20.5986 35.1868 20.6326 35.1523C20.6666 35.1178 20.6855 35.0713 20.6852 35.0229L20.6732 33.4077L18.6621 33.4225L18.6741 35.0376Z" fill="white"/>
<path d="M38.5827 23.3974C38.632 23.3732 38.6861 23.3606 38.741 23.3606C38.7959 23.3606 38.8501 23.3732 38.8993 23.3974L40.0465 23.9607L41.0239 23.9532C40.9968 23.8199 40.9613 23.6885 40.9177 23.5597C40.791 23.1889 40.3321 22.9419 39.7798 22.9466C39.3644 22.9497 38.689 22.9526 38.1975 22.9545L38.4718 23.4514L38.5827 23.3974Z" fill="white"/>
<path d="M33.4981 22.0336H33.5179C34.1568 22.0337 34.7734 22.2685 35.2506 22.6933C35.7278 23.1181 36.0325 23.7034 36.1067 24.3379L36.67 24.3339L37.8249 23.7682L36.2751 20.9603C35.4967 19.5885 34.7941 19 33.9309 19H33.9169L23.1243 19.0795C21.8906 19.0886 21.121 20.3201 20.772 21.0535C20.7689 21.0602 20.7655 21.0669 20.7618 21.0734L18.8816 24.4633L30.9239 24.3755C30.9899 23.7369 31.289 23.145 31.7639 22.713C32.2387 22.281 32.8561 22.0391 33.4981 22.0336Z" fill="white"/>
<path d="M19.7488 28.1252H19.7428C19.5401 28.126 19.3461 28.2072 19.2033 28.3511C19.0605 28.4949 18.9807 28.6896 18.9815 28.8922C18.9822 29.0949 19.0634 29.289 19.2073 29.4317C19.3511 29.5745 19.5458 29.6543 19.7484 29.6536H19.7544C19.9571 29.6528 20.1512 29.5716 20.2939 29.4278C20.4367 29.2839 20.5165 29.0893 20.5158 28.8866C20.515 28.6839 20.4338 28.4899 20.2899 28.3471C20.1461 28.2043 19.9515 28.1245 19.7488 28.1252Z" fill="white"/>
<path d="M18.2711 25.1871H18.2684C18.2473 25.1869 18.2263 25.1849 18.2056 25.1811C17.4763 25.2275 16.7516 25.8807 16.7495 26.9431L17.42 31.9427C17.422 31.9577 17.423 31.9728 17.4231 31.9879C17.4247 32.1791 17.5017 32.3619 17.6374 32.4966C17.773 32.6312 17.9564 32.7069 18.1476 32.7071H18.153L32.8668 32.5987C32.7999 32.3163 32.7649 32.0273 32.7626 31.7371V26.4722C32.7626 26.4049 32.7815 26.3389 32.8171 26.2818C32.8527 26.2247 32.9036 26.1788 32.964 26.1492L35.1797 25.064L18.2711 25.1871ZM19.7596 30.3726H19.7483C19.3549 30.374 18.977 30.219 18.6978 29.9419C18.4187 29.6647 18.261 29.2879 18.2596 28.8945C18.2582 28.5011 18.4131 28.1232 18.6903 27.8441C18.9675 27.5649 19.3442 27.4072 19.7376 27.4058H19.7488C20.1422 27.4044 20.5201 27.5593 20.7993 27.8365C21.0785 28.1136 21.2361 28.4904 21.2375 28.8838C21.239 29.2772 21.0841 29.6551 20.8069 29.9343C20.5297 30.2135 20.153 30.3711 19.7596 30.3726ZM23.7613 29.3006H23.7586C23.6637 29.3006 23.5726 29.2631 23.5053 29.1962C23.4379 29.1294 23.3997 29.0386 23.399 28.9437L23.3914 27.9082C23.391 27.861 23.4 27.8142 23.4177 27.7704C23.4355 27.7267 23.4617 27.6868 23.4948 27.6532C23.528 27.6195 23.5674 27.5928 23.6109 27.5744C23.6544 27.556 23.7011 27.5463 23.7483 27.546C23.7955 27.5456 23.8424 27.5546 23.8861 27.5723C23.9299 27.5901 23.9697 27.6163 24.0034 27.6494C24.037 27.6826 24.0638 27.722 24.0822 27.7655C24.1006 27.809 24.1102 27.8557 24.1106 27.9029L24.1182 28.9384C24.1189 29.0337 24.0817 29.1254 24.0148 29.1934C23.9479 29.2613 23.8568 29.2999 23.7615 29.3006H23.7613ZM25.6792 29.2865H25.6765C25.5816 29.2865 25.4905 29.249 25.4231 29.1821C25.3558 29.1152 25.3176 29.0244 25.3169 28.9295L25.3093 27.8941C25.3086 27.7987 25.3458 27.707 25.4127 27.6391C25.4796 27.5711 25.5708 27.5326 25.6662 27.5319H25.6689C25.7638 27.5319 25.8549 27.5694 25.9222 27.6363C25.9896 27.7031 26.0278 27.7939 26.0285 27.8888L26.0361 28.9242C26.0368 29.0196 25.9996 29.1113 25.9327 29.1793C25.8658 29.2472 25.7746 29.2858 25.6792 29.2865H25.6792ZM27.5971 29.2723H27.5944C27.4995 29.2723 27.4084 29.2348 27.341 29.168C27.2737 29.1011 27.2355 29.0103 27.2348 28.9154L27.2272 27.88C27.2265 27.7846 27.2637 27.6929 27.3306 27.6249C27.3975 27.557 27.4887 27.5184 27.5841 27.5177H27.5868C27.6817 27.5177 27.7727 27.5552 27.8401 27.6221C27.9075 27.689 27.9457 27.7798 27.9464 27.8747L27.954 28.9101C27.9546 29.0054 27.9174 29.0971 27.8505 29.165C27.7836 29.2329 27.6925 29.2714 27.5971 29.2722L27.5971 29.2723ZM29.515 29.2582H29.5123C29.4174 29.2582 29.3263 29.2207 29.2589 29.1538C29.1916 29.087 29.1534 28.9962 29.1527 28.9013L29.1449 27.8659C29.1446 27.8186 29.1535 27.7718 29.1713 27.728C29.189 27.6843 29.2152 27.6444 29.2484 27.6108C29.2815 27.5771 29.321 27.5503 29.3645 27.5319C29.408 27.5136 29.4547 27.5039 29.502 27.5036H29.5046C29.5996 27.5036 29.6906 27.5411 29.758 27.608C29.8254 27.6748 29.8636 27.7656 29.8643 27.8605L29.872 28.896C29.8723 28.9432 29.8634 28.99 29.8456 29.0338C29.8279 29.0775 29.8017 29.1174 29.7685 29.151C29.7354 29.1847 29.6959 29.2114 29.6524 29.2298C29.6089 29.2482 29.5622 29.2579 29.515 29.2582H29.515ZM31.4328 29.2441H31.4301C31.3352 29.2441 31.2442 29.2066 31.1768 29.1397C31.1094 29.0729 31.0712 28.9821 31.0705 28.8872L31.0629 27.8517C31.0626 27.8044 31.0715 27.7576 31.0893 27.7138C31.1071 27.6701 31.1333 27.6302 31.1664 27.5966C31.1996 27.563 31.239 27.5362 31.2825 27.5178C31.326 27.4994 31.3727 27.4898 31.42 27.4894H31.4227C31.5176 27.4894 31.6086 27.527 31.676 27.5938C31.7434 27.6607 31.7816 27.7515 31.7823 27.8464L31.7899 28.8819C31.7902 28.9291 31.7813 28.9759 31.7635 29.0197C31.7458 29.0635 31.7196 29.1033 31.6864 29.1369C31.6533 29.1706 31.6138 29.1973 31.5703 29.2157C31.5268 29.2341 31.4801 29.2438 31.4329 29.2441H31.4328Z" fill="white"/>
<defs>
<filter id="filter0_dd" x="0.4" y="1.19209e-07" width="59.2" height="59.2" filterUnits="userSpaceOnUse" color-interpolation-filters="sRGB">
<feFlood flood-opacity="0" result="BackgroundImageFix"/>
<feColorMatrix in="SourceAlpha" type="matrix" values="0 0 0 0 0 0 0 0 0 0 0 0 0 0 0 0 0 0 127 0" result="hardAlpha"/>
<feOffset dy="0.3"/>
<feGaussianBlur stdDeviation="0.45"/>
<feColorMatrix type="matrix" values="0 0 0 0 0 0 0 0 0 0 0 0 0 0 0 0 0 0 0.108 0"/>
<feBlend mode="normal" in2="BackgroundImageFix" result="effect1_dropShadow"/>
<feColorMatrix in="SourceAlpha" type="matrix" values="0 0 0 0 0 0 0 0 0 0 0 0 0 0 0 0 0 0 127 0" result="hardAlpha"/>
<feOffset dy="1.6"/>
<feGaussianBlur stdDeviation="1.8"/>
<feColorMatrix type="matrix" values="0 0 0 0 0 0 0 0 0 0 0 0 0 0 0 0 0 0 0.132 0"/>
<feBlend mode="normal" in2="effect1_dropShadow" result="effect2_dropShadow"/>
<feBlend mode="normal" in="SourceGraphic" in2="effect2_dropShadow" result="shape"/>
</filter>
<linearGradient id="paint0_linear" x1="9" y1="9.5" x2="51" y2="46.5" gradientUnits="userSpaceOnUse">
<stop stop-color="#FFD537"/>
<stop offset="1" stop-color="#F58221"/>
</linearGradient>
</defs>
</svg>
