<svg width="60" height="60" viewBox="0 0 60 60" fill="none" xmlns="http://www.w3.org/2000/svg">
<g filter="url(#filter0_dd)">
<path d="M24 54C12.9543 54 4 45.0457 4 34L4 22C4 10.9543 12.9543 2 24 2L36 2C47.0457 2 56 10.9543 56 22L56 34C56 45.0457 47.0457 54 36 54L24 54Z" fill="url(#paint0_linear)"/>
</g>
<path d="M27.4746 16.4992L29.0246 16.7242C29.0848 16.733 29.1419 16.7562 29.1911 16.7919C29.2403 16.8277 29.28 16.8748 29.3069 16.9293L30 18.3341L30.6932 16.9296C30.7201 16.8751 30.7599 16.8279 30.8091 16.7922C30.8582 16.7564 30.9154 16.7332 30.9755 16.7245L32.5255 16.4995L31.4039 15.406C31.3604 15.3635 31.3278 15.3111 31.309 15.2533C31.2903 15.1955 31.2858 15.1339 31.2961 15.074L31.5608 13.5303L30.1745 14.2591C30.1207 14.2874 30.0608 14.3022 30 14.3022C29.9392 14.3022 29.8794 14.2874 29.8255 14.2591L28.4392 13.5303L28.704 15.0741C28.7143 15.134 28.7098 15.1955 28.691 15.2534C28.6723 15.3112 28.6397 15.3636 28.5962 15.406L27.4746 16.4992Z" fill="white"/>
<path d="M18.7026 19.8695L20.2526 20.0945C20.3128 20.1033 20.37 20.1265 20.4192 20.1622C20.4683 20.198 20.5081 20.2452 20.535 20.2997L21.2281 21.7041L21.9213 20.3C21.9482 20.2454 21.9879 20.1983 22.0371 20.1625C22.0863 20.1268 22.1434 20.1035 22.2036 20.0948L23.7536 19.8698L22.632 18.7765C22.5885 18.7341 22.5559 18.6817 22.5371 18.6239C22.5183 18.566 22.5139 18.5045 22.5241 18.4446L22.7889 16.9008L21.4026 17.6294C21.3488 17.6577 21.2889 17.6725 21.2281 17.6725C21.1673 17.6725 21.1074 17.6577 21.0536 17.6294L19.6673 16.9006L19.932 18.4444C19.9423 18.5043 19.9379 18.5658 19.9191 18.6237C19.9003 18.6815 19.8677 18.7339 19.8242 18.7763L18.7026 19.8695Z" fill="white"/>
<path d="M36.2463 19.8695L37.7963 20.0945C37.8565 20.1033 37.9136 20.1265 37.9628 20.1623C38.012 20.198 38.0518 20.2452 38.0787 20.2997L38.7718 21.7043L39.465 20.2999C39.4919 20.2454 39.5316 20.1982 39.5808 20.1625C39.63 20.1267 39.6872 20.1035 39.7473 20.0948L41.2973 19.8698L40.1758 18.7765C40.1322 18.7341 40.0997 18.6817 40.0809 18.6238C40.0621 18.566 40.0577 18.5045 40.068 18.4446L40.3327 16.9008L38.9463 17.6294C38.8925 17.6577 38.8326 17.6725 38.7718 17.6725C38.711 17.6725 38.6512 17.6577 38.5973 17.6294L37.211 16.9006L37.4758 18.4444C37.4861 18.5043 37.4816 18.5658 37.4628 18.6237C37.444 18.6815 37.4114 18.7339 37.3679 18.7763L36.2463 19.8695Z" fill="white"/>
<path d="M23.2141 23.8751C23.2155 24.326 23.3955 24.7581 23.7148 25.0765C24.0342 25.3949 24.4667 25.5738 24.9177 25.5738H24.9189C25.1422 25.5737 25.3632 25.5297 25.5694 25.4442C25.7757 25.3587 25.963 25.2334 26.1208 25.0755C26.2786 24.9176 26.4038 24.7301 26.4891 24.5238C26.5745 24.3175 26.6184 24.0965 26.6183 23.8732C26.6182 23.65 26.5742 23.4289 26.4887 23.2227C26.4031 23.0165 26.2779 22.8291 26.1199 22.6713C25.962 22.5135 25.7746 22.3884 25.5683 22.303C25.362 22.2176 25.1409 22.1737 24.9177 22.1738H24.9165C24.693 22.1737 24.4717 22.2177 24.2652 22.3031C24.0587 22.3886 23.871 22.5139 23.7129 22.6718C23.5548 22.8298 23.4294 23.0174 23.3438 23.2238C23.2582 23.4303 23.2142 23.6516 23.2141 23.8751Z" fill="white"/>
<path d="M30.1358 31.2796C30.2886 31.2806 30.44 31.2515 30.5814 31.1938C30.7228 31.136 30.8514 31.0509 30.9598 30.9433C31.0681 30.8356 31.1541 30.7076 31.2128 30.5666C31.2714 30.4255 31.3016 30.2743 31.3016 30.1216C31.3015 29.9688 31.2712 29.8176 31.2125 29.6766C31.1537 29.5357 31.0676 29.4077 30.9592 29.3001C30.8508 29.1926 30.7221 29.1075 30.5807 29.0499C30.4392 28.9923 30.2878 28.9632 30.135 28.9644H30.1342C29.9815 28.9633 29.8301 28.9925 29.6886 29.0502C29.5472 29.1079 29.4186 29.1931 29.3103 29.3007C29.2019 29.4084 29.1159 29.5364 29.0573 29.6774C28.9986 29.8184 28.9685 29.9697 28.9685 30.1224C28.9686 30.2751 28.9988 30.4263 29.0576 30.5673C29.1164 30.7083 29.2024 30.8363 29.3109 30.9438C29.4193 31.0514 29.5479 31.1364 29.6894 31.1941C29.8308 31.2517 29.9823 31.2808 30.135 31.2796H30.1358Z" fill="white"/>
<path d="M37.3591 34.6581C37.3645 34.5625 37.4062 34.4726 37.4758 34.4068C37.5453 34.3409 37.6374 34.3042 37.7332 34.3041L38.8364 34.3034L38.8351 31.8383C38.8332 31.2039 38.5799 30.5962 38.1307 30.1482C37.6815 29.7003 37.073 29.4487 36.4386 29.4486H36.4369L33.6886 29.4505C33.1436 29.4494 32.6149 29.6364 32.1918 29.9798C32.1411 30.0205 32.0924 30.0642 32.045 30.1091V30.1206C32.0449 30.6269 31.8438 31.1125 31.4858 31.4704C31.1278 31.8284 30.6423 32.0296 30.136 32.0296H30.1346C29.8147 32.0299 29.4997 31.9497 29.2188 31.7965C28.9379 31.6433 28.7001 31.4218 28.5271 31.1526C28.3542 30.8834 28.2517 30.575 28.2292 30.2558C28.2066 29.9366 28.2646 29.6169 28.398 29.326C28.365 29.2676 28.3305 29.2099 28.2928 29.1544C28.0733 28.8296 27.7777 28.5636 27.4316 28.3794C27.0856 28.1953 26.6997 28.0987 26.3078 28.0981H26.3061L23.5578 28.1001C22.9236 28.102 22.3158 28.3548 21.8672 28.8031C21.4186 29.2515 21.1654 29.8591 21.1631 30.4933L21.1645 33.6337L22.2675 33.6329C22.3633 33.6329 22.4556 33.6696 22.5252 33.7355C22.5948 33.8014 22.6366 33.8914 22.6419 33.9871L23.1115 42.4701H26.7886L27.0068 38.2367C26.9187 38.2227 26.8385 38.1778 26.7806 38.1101C26.7227 38.0423 26.6907 37.9562 26.6906 37.867L26.689 35.9131C26.6912 35.0892 27.0195 34.2996 27.6021 33.717C28.1848 33.1345 28.9744 32.8063 29.7983 32.8042L30.4641 32.8022H30.4664C31.2905 32.8022 32.0809 33.129 32.6644 33.711C33.2479 34.2929 33.5768 35.0826 33.5789 35.9066L33.5805 37.8606C33.5805 37.96 33.541 38.0554 33.4706 38.1257C33.4003 38.1961 33.3049 38.2356 33.2055 38.2356H32.9763L33.2397 42.4696H36.921L37.3591 34.6581Z" fill="white"/>
<path d="M28.5256 37.4903C28.6188 37.4903 28.7086 37.525 28.7776 37.5876C28.8466 37.6502 28.8898 37.7363 28.8988 37.8291L29.3488 42.4697H30.9516L31.3726 37.8276C31.3811 37.7345 31.4241 37.6478 31.4931 37.5847C31.5622 37.5216 31.6523 37.4866 31.7459 37.4865L32.8303 37.4858L32.8291 35.9068C32.8273 35.2817 32.5777 34.6827 32.1351 34.2413C31.6924 33.7998 31.0928 33.5519 30.4676 33.5518H30.466L29.8001 33.5538C29.1749 33.5555 28.5759 33.8044 28.1336 34.2463C27.6913 34.6881 27.4418 35.2869 27.4395 35.9121L27.4407 37.491L28.5251 37.4903H28.5256Z" fill="white"/>
<path d="M35.0481 26.9242H35.0494C35.3718 26.925 35.6878 26.834 35.9604 26.6618C36.2331 26.4896 36.451 26.2433 36.5888 25.9518C36.7266 25.6603 36.7786 25.3356 36.7387 25.0156C36.6987 24.6956 36.5685 24.3937 36.3633 24.145H36.3606V24.1417C36.2007 23.9485 36.0002 23.793 35.7733 23.6863C35.5465 23.5796 35.2988 23.5243 35.0481 23.5244H35.0468C34.596 23.5246 34.1636 23.7038 33.8449 24.0228C33.5262 24.3417 33.3473 24.7741 33.3474 25.225C33.3476 25.6759 33.5268 26.1082 33.8458 26.4269C34.1647 26.7456 34.5971 26.9246 35.048 26.9244L35.0481 26.9242Z" fill="white"/>
<path d="M37.5764 25.5562C37.7624 25.5545 37.9401 25.4793 38.071 25.3472C38.2019 25.2151 38.2754 25.0366 38.2754 24.8506C38.2754 24.6646 38.2019 24.4861 38.071 24.354C37.9401 24.2219 37.7624 24.1468 37.5764 24.145H37.25C37.4156 24.4801 37.5017 24.8488 37.5016 25.2226C37.5016 25.3342 37.494 25.4456 37.4789 25.5562H37.5764Z" fill="white"/>
<defs>
<filter id="filter0_dd" x="0.4" y="1.19209e-07" width="59.2" height="59.2" filterUnits="userSpaceOnUse" color-interpolation-filters="sRGB">
<feFlood flood-opacity="0" result="BackgroundImageFix"/>
<feColorMatrix in="SourceAlpha" type="matrix" values="0 0 0 0 0 0 0 0 0 0 0 0 0 0 0 0 0 0 127 0" result="hardAlpha"/>
<feOffset dy="0.3"/>
<feGaussianBlur stdDeviation="0.45"/>
<feColorMatrix type="matrix" values="0 0 0 0 0 0 0 0 0 0 0 0 0 0 0 0 0 0 0.108 0"/>
<feBlend mode="normal" in2="BackgroundImageFix" result="effect1_dropShadow"/>
<feColorMatrix in="SourceAlpha" type="matrix" values="0 0 0 0 0 0 0 0 0 0 0 0 0 0 0 0 0 0 127 0" result="hardAlpha"/>
<feOffset dy="1.6"/>
<feGaussianBlur stdDeviation="1.8"/>
<feColorMatrix type="matrix" values="0 0 0 0 0 0 0 0 0 0 0 0 0 0 0 0 0 0 0.132 0"/>
<feBlend mode="normal" in2="effect1_dropShadow" result="effect2_dropShadow"/>
<feBlend mode="normal" in="SourceGraphic" in2="effect2_dropShadow" result="shape"/>
</filter>
<linearGradient id="paint0_linear" x1="9" y1="9.5" x2="51" y2="46.5" gradientUnits="userSpaceOnUse">
<stop stop-color="#FFD537"/>
<stop offset="1" stop-color="#F58221"/>
</linearGradient>
</defs>
</svg>
