<svg width="62" height="61" viewBox="0 0 62 61" fill="none" xmlns="http://www.w3.org/2000/svg">
<g filter="url(#filter0_dd)">
<rect x="5" y="55" width="52" height="52" rx="20" transform="rotate(-90 5 55)" fill="white" stroke="url(#paint0_linear)"/>
</g>
<g clip-path="url(#clip0)">
<path d="M41.5001 18.5C38.3501 18.5 33.9167 17.6833 31.4667 15.1167C31.2334 14.8833 30.8834 14.8833 30.6501 15.1167C28.0834 17.6833 23.6501 18.5 20.5001 18.5C20.1501 18.5 19.9167 18.7333 19.9167 19.0833V30.75C19.9167 35.1833 26.2167 41.4833 30.7667 43C30.8834 43 30.8834 43 31.0001 43C31.1167 43 31.1167 43 31.2334 43C35.9001 41.4833 42.0834 35.1833 42.0834 30.75V19.0833C42.0834 18.7333 41.8501 18.5 41.5001 18.5ZM39.7501 30.75C39.7501 33.55 35.0834 38.9166 31.2334 40.6666C31.1167 40.6666 31.1167 40.6666 31.0001 40.6666C30.8834 40.6666 30.8834 40.6666 30.7667 40.6666C26.9167 38.9166 22.2501 33.6667 22.2501 30.75V21.4167C22.2501 21.0667 22.4834 20.8333 22.7167 20.8333C25.5167 20.4833 28.4334 19.4333 30.6501 18.0333C30.8834 17.9167 31.1167 17.9167 31.3501 18.0333C33.5667 19.55 36.4834 20.6 39.2834 20.8333C39.6334 20.8333 39.7501 21.0667 39.7501 21.4167V30.75Z" fill="url(#paint1_linear)"/>
<path d="M31 26.6667C31.9665 26.6667 32.75 25.8832 32.75 24.9167C32.75 23.9502 31.9665 23.1667 31 23.1667C30.0335 23.1667 29.25 23.9502 29.25 24.9167C29.25 25.8832 30.0335 26.6667 31 26.6667Z" fill="url(#paint2_linear)"/>
<path d="M26.9167 31.3333H34.9667C34.7334 29.3499 32.9834 27.8333 30.8834 27.8333C28.7834 27.8333 27.2667 29.3499 26.9167 31.3333Z" fill="url(#paint3_linear)"/>
<path d="M23.4167 21.8833V30.75C23.4167 32.8499 27.3834 37.75 31.0001 39.5C34.6167 37.75 38.5834 32.8499 38.5834 30.75V21.8833C35.9001 21.5333 33.2167 20.4833 31.0001 19.2C28.7834 20.6 26.1001 21.5333 23.4167 21.8833ZM33.9167 24.9166C33.9167 25.7333 33.5667 26.55 32.9834 27.0166C34.8501 27.8333 36.2501 29.7 36.2501 31.9166C36.2501 32.2666 36.0167 32.5 35.6667 32.5H26.3334C25.9834 32.5 25.7501 32.2666 25.7501 31.9166C25.7501 29.7 27.1501 27.8333 29.0167 27.0166C28.4334 26.55 28.0834 25.7333 28.0834 24.9166C28.0834 23.2833 29.3667 22 31.0001 22C32.6334 22 33.9167 23.2833 33.9167 24.9166Z" fill="url(#paint4_linear)"/>
</g>
<defs>
<filter id="filter0_dd" x="0.9" y="0.5" width="60.2" height="60.2" filterUnits="userSpaceOnUse" color-interpolation-filters="sRGB">
<feFlood flood-opacity="0" result="BackgroundImageFix"/>
<feColorMatrix in="SourceAlpha" type="matrix" values="0 0 0 0 0 0 0 0 0 0 0 0 0 0 0 0 0 0 127 0" result="hardAlpha"/>
<feOffset dy="0.3"/>
<feGaussianBlur stdDeviation="0.45"/>
<feColorMatrix type="matrix" values="0 0 0 0 0 0 0 0 0 0 0 0 0 0 0 0 0 0 0.108 0"/>
<feBlend mode="normal" in2="BackgroundImageFix" result="effect1_dropShadow"/>
<feColorMatrix in="SourceAlpha" type="matrix" values="0 0 0 0 0 0 0 0 0 0 0 0 0 0 0 0 0 0 127 0" result="hardAlpha"/>
<feOffset dy="1.6"/>
<feGaussianBlur stdDeviation="1.8"/>
<feColorMatrix type="matrix" values="0 0 0 0 0 0 0 0 0 0 0 0 0 0 0 0 0 0 0.132 0"/>
<feBlend mode="normal" in2="effect1_dropShadow" result="effect2_dropShadow"/>
<feBlend mode="normal" in="SourceGraphic" in2="effect2_dropShadow" result="shape"/>
</filter>
<linearGradient id="paint0_linear" x1="49.5" y1="60" x2="12.5" y2="102" gradientUnits="userSpaceOnUse">
<stop stop-color="#FFD537"/>
<stop offset="1" stop-color="#F58221"/>
</linearGradient>
<linearGradient id="paint1_linear" x1="38.8863" y1="17.6396" x2="18.88" y2="35.5808" gradientUnits="userSpaceOnUse">
<stop stop-color="#FFD537"/>
<stop offset="1" stop-color="#F58221"/>
</linearGradient>
<linearGradient id="paint2_linear" x1="32.2452" y1="23.5033" x2="29.7548" y2="26.3302" gradientUnits="userSpaceOnUse">
<stop stop-color="#FFD537"/>
<stop offset="1" stop-color="#F58221"/>
</linearGradient>
<linearGradient id="paint3_linear" x1="33.8057" y1="28.1698" x2="32.1286" y2="32.5483" gradientUnits="userSpaceOnUse">
<stop stop-color="#FFD537"/>
<stop offset="1" stop-color="#F58221"/>
</linearGradient>
<linearGradient id="paint4_linear" x1="36.3959" y1="21.1519" x2="22.0309" y2="33.3347" gradientUnits="userSpaceOnUse">
<stop stop-color="#FFD537"/>
<stop offset="1" stop-color="#F58221"/>
</linearGradient>
<clipPath id="clip0">
<rect width="28" height="28" fill="white" transform="translate(17 15)"/>
</clipPath>
</defs>
</svg>
