<svg width="60" height="60" viewBox="0 0 60 60" fill="none" xmlns="http://www.w3.org/2000/svg">
<g filter="url(#filter0_dd)">
<rect x="4.5" y="53.5" width="51" height="51" rx="19.5" transform="rotate(-90 4.5 53.5)" fill="white" stroke="url(#paint0_linear)"/>
</g>
<path d="M37 14H25.3333C25.3077 14 25.2843 14.0117 25.2598 14.0152C25.233 14.0187 25.2097 14.0233 25.1828 14.0303C25.0837 14.0572 24.9903 14.1003 24.9203 14.1715L17.9215 21.1703C17.8503 21.2415 17.8072 21.3337 17.7803 21.434C17.7733 21.4597 17.7687 21.483 17.7652 21.5087C17.7617 21.5343 17.75 21.5565 17.75 21.5833V39.0833C17.75 39.4053 18.0113 39.6667 18.3333 39.6667H30C30.2053 39.6667 30.3955 39.5593 30.5005 39.3832L30.6522 39.1288C30.7362 38.9877 30.7572 38.8173 30.7093 38.6598C30.6242 38.3775 30.5822 38.1348 30.5822 37.9167V30.9167C30.5822 30.1128 31.127 29.414 31.9075 29.218L36.5742 28.0513C36.7142 28.0175 36.8577 28 37 28C37.322 28 37.5833 27.7387 37.5833 27.4167V14.5833C37.5833 14.2613 37.322 14 37 14ZM24.75 15.9915V21H19.7415L24.75 15.9915Z" fill="url(#paint1_linear)"/>
<path d="M41.8078 30.3508L37.1412 29.1841C37.049 29.1596 36.951 29.1596 36.8588 29.1841L32.1922 30.3508C31.932 30.4161 31.75 30.6495 31.75 30.9166V37.9166C31.75 39.7215 35.5965 41.4645 36.776 41.9545C36.8472 41.9848 36.9242 42 37 42C37.0758 42 37.1528 41.9848 37.224 41.9545C38.4023 41.4633 42.25 39.7203 42.25 37.9166V30.9166C42.25 30.6495 42.068 30.4161 41.8078 30.3508ZM39.9167 37.4325C39.9167 37.5981 39.8467 37.7545 39.7242 37.8665C39.2657 38.2795 38.3207 38.8581 37.2567 39.3785C37.1762 39.4181 37.0875 39.438 37 39.438C36.8927 39.438 36.7853 39.4088 36.6908 39.3493C36.5205 39.2431 36.4167 39.0553 36.4167 38.8546V36.1666H34.6667C34.3447 36.1666 34.0833 35.9053 34.0833 35.5833V32.739C34.0833 32.4718 34.2653 32.2385 34.5255 32.1731L36.8588 31.5898C37.0315 31.5443 37.217 31.5851 37.3593 31.696C37.5017 31.8068 37.5833 31.976 37.5833 32.1556V35H39.3333C39.6553 35 39.9167 35.2613 39.9167 35.5833V37.4325Z" fill="url(#paint2_linear)"/>
<defs>
<filter id="filter0_dd" x="0.4" y="1.19209e-07" width="59.2" height="59.2" filterUnits="userSpaceOnUse" color-interpolation-filters="sRGB">
<feFlood flood-opacity="0" result="BackgroundImageFix"/>
<feColorMatrix in="SourceAlpha" type="matrix" values="0 0 0 0 0 0 0 0 0 0 0 0 0 0 0 0 0 0 127 0" result="hardAlpha"/>
<feOffset dy="0.3"/>
<feGaussianBlur stdDeviation="0.45"/>
<feColorMatrix type="matrix" values="0 0 0 0 0 0 0 0 0 0 0 0 0 0 0 0 0 0 0.108 0"/>
<feBlend mode="normal" in2="BackgroundImageFix" result="effect1_dropShadow"/>
<feColorMatrix in="SourceAlpha" type="matrix" values="0 0 0 0 0 0 0 0 0 0 0 0 0 0 0 0 0 0 127 0" result="hardAlpha"/>
<feOffset dy="1.6"/>
<feGaussianBlur stdDeviation="1.8"/>
<feColorMatrix type="matrix" values="0 0 0 0 0 0 0 0 0 0 0 0 0 0 0 0 0 0 0.132 0"/>
<feBlend mode="normal" in2="effect1_dropShadow" result="effect2_dropShadow"/>
<feBlend mode="normal" in="SourceGraphic" in2="effect2_dropShadow" result="shape"/>
</filter>
<linearGradient id="paint0_linear" x1="48.5" y1="59" x2="11.5" y2="101" gradientUnits="userSpaceOnUse">
<stop stop-color="#FFD537"/>
<stop offset="1" stop-color="#F58221"/>
</linearGradient>
<linearGradient id="paint1_linear" x1="34.7228" y1="16.4679" x2="16.4701" y2="32.4783" gradientUnits="userSpaceOnUse">
<stop stop-color="#FFD537"/>
<stop offset="1" stop-color="#F58221"/>
</linearGradient>
<linearGradient id="paint2_linear" x1="40.7356" y1="30.3998" x2="31.5552" y2="38.9255" gradientUnits="userSpaceOnUse">
<stop stop-color="#FFD537"/>
<stop offset="1" stop-color="#F58221"/>
</linearGradient>
</defs>
</svg>
