<svg width="60" height="60" viewBox="0 0 60 60" fill="none" xmlns="http://www.w3.org/2000/svg">
<g filter="url(#filter0_dd)">
<path d="M24 54C12.9543 54 4 45.0457 4 34L4 22C4 10.9543 12.9543 2 24 2L36 2C47.0457 2 56 10.9543 56 22L56 34C56 45.0457 47.0457 54 36 54L24 54Z" fill="url(#paint0_linear)"/>
</g>
<path d="M27.3385 14H27.3227C22.7306 14.003 18.997 17.7415 19 22.3337C19.0002 22.4165 19.0304 22.4965 19.0852 22.5586C19.1399 22.6208 19.2154 22.6609 19.2976 22.6715C19.3797 22.6822 19.463 22.6625 19.5317 22.6163C19.6005 22.5701 19.6501 22.5005 19.6713 22.4204C19.7228 22.2251 19.9221 21.614 20.1605 21.3533C20.4779 21.0483 20.9007 20.8774 21.3409 20.8764H21.349C21.7853 20.8753 22.2045 21.0458 22.5161 21.3511C22.8227 21.6685 22.9946 22.092 22.9961 22.5332C22.9961 22.6237 23.032 22.7106 23.096 22.7746C23.16 22.8386 23.2469 22.8745 23.3374 22.8745C23.4279 22.8745 23.5147 22.8386 23.5787 22.7746C23.6427 22.7106 23.6787 22.6237 23.6787 22.5332C23.6752 22.3146 23.7157 22.0974 23.7978 21.8947C23.8799 21.692 24.0019 21.5079 24.1566 21.3534C24.3113 21.1988 24.4956 21.0769 24.6983 20.995C24.9011 20.9131 25.1183 20.8728 25.3369 20.8765H25.345C25.7813 20.8755 26.2005 21.046 26.5121 21.3513C26.8186 21.6686 26.9906 22.0921 26.992 22.5332V26.4271C26.992 26.5176 27.0279 26.6044 27.092 26.6685C27.156 26.7325 27.2428 26.7684 27.3333 26.7684C27.4238 26.7684 27.5107 26.7325 27.5747 26.6685C27.6387 26.6044 27.6746 26.5176 27.6746 26.4271V22.5332C27.6712 22.3146 27.7117 22.0975 27.7938 21.8948C27.8759 21.6921 27.998 21.5081 28.1527 21.3535C28.3074 21.199 28.4916 21.0771 28.6943 20.9952C28.8971 20.9133 29.1142 20.873 29.3329 20.8768H29.3411C29.7773 20.8757 30.1965 21.0462 30.5081 21.3515C30.8145 21.6688 30.9865 22.0922 30.9879 22.5332C30.9879 22.6237 31.0239 22.7106 31.0879 22.7746C31.1519 22.8386 31.2387 22.8745 31.3293 22.8745C31.4198 22.8745 31.5066 22.8386 31.5706 22.7746C31.6346 22.7106 31.6706 22.6237 31.6706 22.5332C31.6671 22.3146 31.7076 22.0974 31.7897 21.8947C31.8718 21.6921 31.9939 21.5079 32.1486 21.3534C32.3033 21.1988 32.4875 21.077 32.6903 20.9951C32.893 20.9131 33.1102 20.8729 33.3289 20.8766H33.337C33.7731 20.8755 34.1922 21.0459 34.5038 21.3511C34.7432 21.6101 34.9395 22.2101 34.9952 22.4206C35.0164 22.5007 35.066 22.5703 35.1348 22.6165C35.2036 22.6627 35.2868 22.6823 35.369 22.6717C35.4511 22.6611 35.5266 22.6209 35.5814 22.5587C35.6361 22.4965 35.6663 22.4165 35.6665 22.3337V22.3227C35.6637 17.7324 31.9283 14 27.3385 14Z" fill="white"/>
<path d="M24.5257 26.9078C25.6754 26.9078 26.6075 25.9757 26.6075 24.826C26.6075 23.6762 25.6754 22.7441 24.5257 22.7441C23.3759 22.7441 22.4438 23.6762 22.4438 24.826C22.4438 25.9757 23.3759 26.9078 24.5257 26.9078Z" fill="white"/>
<path d="M29.6337 29.5619L32.1034 28.8094C32.3536 28.74 32.5706 28.5831 32.7151 28.3673C32.8595 28.1515 32.9218 27.891 32.8905 27.6332C32.8905 27.631 32.89 27.6288 32.8897 27.6266C32.8692 27.4647 32.8126 27.3094 32.724 27.1723C32.6355 27.0352 32.5173 26.9197 32.3781 26.8344C32.2423 26.7488 32.089 26.6947 31.9296 26.676C31.7701 26.6573 31.6085 26.6745 31.4565 26.7263L29.4804 27.3662H23.2878C22.7764 27.3678 22.2803 27.5416 21.8797 27.8596C21.4791 28.1775 21.1973 28.6211 21.0796 29.1189L20.0946 33.3296C20.059 33.4689 20.056 33.6145 20.0855 33.7552C20.1151 33.8958 20.1766 34.0278 20.2652 34.141C20.3759 34.2812 20.5233 34.388 20.6911 34.4493C20.8589 34.5107 21.0404 34.5243 21.2154 34.4885C21.3904 34.4528 21.5521 34.3691 21.6823 34.2469C21.8126 34.1246 21.9064 33.9686 21.9532 33.7962C21.9541 33.7927 21.9551 33.7892 21.956 33.7857L22.2505 32.6133V40.8953C22.2508 41.1852 22.3661 41.4632 22.5711 41.6682C22.7761 41.8733 23.0541 41.9887 23.344 41.9891H23.3634C23.6533 41.9887 23.9313 41.8734 24.1364 41.6683C24.3414 41.4633 24.4567 41.1853 24.457 40.8953V35.4386C24.457 35.3692 24.4846 35.3027 24.5337 35.2536C24.5828 35.2045 24.6493 35.1769 24.7187 35.1769C24.7881 35.1769 24.8547 35.2045 24.9038 35.2536C24.9528 35.3027 24.9804 35.3692 24.9804 35.4386V40.8953C24.9804 41.1854 25.0956 41.4636 25.3008 41.6687C25.5059 41.8738 25.7841 41.989 26.0741 41.989C26.3642 41.989 26.6424 41.8738 26.8475 41.6687C27.0526 41.4636 27.1679 41.1854 27.1679 40.8953V29.5768H29.534C29.5678 29.5768 29.6014 29.5718 29.6337 29.5619Z" fill="white"/>
<path d="M28.615 41.0787C28.6153 41.32 28.7113 41.5513 28.8819 41.722C29.0525 41.8926 29.2839 41.9886 29.5252 41.9889H30.0429V40.4541H28.615V41.0787Z" fill="white"/>
<path d="M32.4239 37.5598H30.7922C30.7745 37.5598 30.7576 37.5669 30.7451 37.5793C30.7326 37.5918 30.7256 37.6088 30.7256 37.6264V41.9891H32.4907V37.6264C32.4906 37.6177 32.4889 37.609 32.4856 37.6009C32.4822 37.5928 32.4773 37.5855 32.4711 37.5793C32.4649 37.5731 32.4575 37.5682 32.4494 37.5649C32.4414 37.5615 32.4327 37.5598 32.4239 37.5598Z" fill="white"/>
<path d="M33.1731 41.9889H33.6908C33.9321 41.9886 34.1634 41.8926 34.3341 41.722C34.5047 41.5513 34.6007 41.32 34.601 41.0787V40.4541H33.1731V41.9889Z" fill="white"/>
<path d="M33.6909 33.6718H33.316V31.4382C33.3157 31.2396 33.2367 31.0491 33.0963 30.9087C32.9558 30.7682 32.7653 30.6892 32.5667 30.689H30.6496C30.4509 30.6892 30.2604 30.7682 30.12 30.9087C29.9795 31.0491 29.9005 31.2396 29.9003 31.4382V33.6718H29.5254C29.2841 33.6721 29.0528 33.7681 28.8821 33.9387C28.7115 34.1094 28.6155 34.3407 28.6152 34.582V39.7717H30.0431V37.6262C30.0434 37.4276 30.1223 37.2372 30.2628 37.0968C30.4032 36.9563 30.5936 36.8773 30.7922 36.877H32.424C32.6227 36.8772 32.8131 36.9562 32.9536 37.0967C33.094 37.2371 33.1731 37.4276 33.1733 37.6262V39.7714H34.6012V34.582C34.6009 34.3407 34.5049 34.1093 34.3342 33.9387C34.1636 33.7681 33.9322 33.6721 33.6909 33.6718ZM30.5827 31.4385C30.5827 31.4208 30.5897 31.4039 30.6022 31.3914C30.6147 31.3789 30.6316 31.3719 30.6493 31.3718H32.5664C32.5841 31.3719 32.601 31.3789 32.6135 31.3914C32.626 31.4039 32.633 31.4208 32.633 31.4385V31.5815H30.5827V31.4385ZM30.5827 32.2641H32.6333V33.6718H30.5827V32.2641ZM33.4438 35.9863H29.7722C29.6816 35.9863 29.5948 35.9503 29.5308 35.8863C29.4668 35.8223 29.4308 35.7355 29.4308 35.6449C29.4308 35.5544 29.4668 35.4676 29.5308 35.4036C29.5948 35.3396 29.6816 35.3036 29.7722 35.3036H33.4438C33.5343 35.3036 33.6211 35.3396 33.6851 35.4036C33.7492 35.4676 33.7851 35.5544 33.7851 35.6449C33.7851 35.7355 33.7492 35.8223 33.6851 35.8863C33.6211 35.9503 33.5343 35.9863 33.4438 35.9863Z" fill="white"/>
<path d="M35.7935 41.0386C35.7937 41.28 35.8897 41.5113 36.0604 41.6819C36.231 41.8526 36.4624 41.9486 36.7037 41.9488H37.2213V40.4141H35.7935V41.0386Z" fill="white"/>
<path d="M39.6024 40.134H37.9707C37.953 40.134 37.9361 40.137 37.9236 40.1423C37.9111 40.1475 37.9041 40.1547 37.9041 40.1621V42H39.6691V40.1621C39.6691 40.1584 39.6674 40.1548 39.664 40.1513C39.6607 40.1479 39.6557 40.1448 39.6496 40.1422C39.6434 40.1396 39.636 40.1376 39.6279 40.1362C39.6198 40.1348 39.6111 40.134 39.6024 40.134Z" fill="white"/>
<path d="M40.3516 41.9488H40.8692C41.1106 41.9486 41.3419 41.8526 41.5125 41.6819C41.6832 41.5113 41.7792 41.28 41.7795 41.0386V40.4141H40.3516V41.9488Z" fill="white"/>
<path d="M40.8693 35.8288H40.4944V33.5952C40.4942 33.3966 40.4152 33.2061 40.2747 33.0656C40.1343 32.9252 39.9438 32.8462 39.7452 32.8459H37.828C37.6294 32.8462 37.4389 32.9252 37.2984 33.0656C37.158 33.2061 37.079 33.3966 37.0787 33.5952V35.8288H36.7039C36.4626 35.8291 36.2312 35.9251 36.0606 36.0957C35.89 36.2664 35.794 36.4977 35.7937 36.739V40.8805H37.2216V39.7832C37.2218 39.5846 37.3008 39.3942 37.4412 39.2537C37.5816 39.1133 37.772 39.0342 37.9706 39.034H39.6025C39.8011 39.0342 39.9916 39.1132 40.132 39.2537C40.2725 39.3941 40.3515 39.5846 40.3517 39.7832V40.414H41.7796V36.739C41.7794 36.4977 41.6834 36.2663 41.5127 36.0957C41.342 35.9251 41.1107 35.8291 40.8693 35.8288ZM37.7611 33.5954C37.7612 33.5778 37.7682 33.5609 37.7807 33.5484C37.7932 33.5359 37.8101 33.5289 37.8277 33.5288H39.7449C39.7625 33.5289 39.7795 33.5359 39.7919 33.5484C39.8044 33.5609 39.8115 33.5778 39.8115 33.5954V33.7385H37.7611V33.5954ZM37.7611 34.4211H39.8118V35.8288H37.7611V34.4211ZM40.6223 38.1433H36.9506C36.8601 38.1433 36.7733 38.1073 36.7093 38.0433C36.6453 37.9793 36.6093 37.8925 36.6093 37.8019C36.6093 37.7114 36.6453 37.6246 36.7093 37.5606C36.7733 37.4966 36.8601 37.4606 36.9506 37.4606H40.6223C40.7128 37.4606 40.7996 37.4966 40.8636 37.5606C40.9276 37.6246 40.9636 37.7114 40.9636 37.8019C40.9636 37.8925 40.9276 37.9793 40.8636 38.0433C40.7996 38.1073 40.7128 38.1433 40.6223 38.1433Z" fill="white"/>
<defs>
<filter id="filter0_dd" x="0.4" y="1.19209e-07" width="59.2" height="59.2" filterUnits="userSpaceOnUse" color-interpolation-filters="sRGB">
<feFlood flood-opacity="0" result="BackgroundImageFix"/>
<feColorMatrix in="SourceAlpha" type="matrix" values="0 0 0 0 0 0 0 0 0 0 0 0 0 0 0 0 0 0 127 0" result="hardAlpha"/>
<feOffset dy="0.3"/>
<feGaussianBlur stdDeviation="0.45"/>
<feColorMatrix type="matrix" values="0 0 0 0 0 0 0 0 0 0 0 0 0 0 0 0 0 0 0.108 0"/>
<feBlend mode="normal" in2="BackgroundImageFix" result="effect1_dropShadow"/>
<feColorMatrix in="SourceAlpha" type="matrix" values="0 0 0 0 0 0 0 0 0 0 0 0 0 0 0 0 0 0 127 0" result="hardAlpha"/>
<feOffset dy="1.6"/>
<feGaussianBlur stdDeviation="1.8"/>
<feColorMatrix type="matrix" values="0 0 0 0 0 0 0 0 0 0 0 0 0 0 0 0 0 0 0.132 0"/>
<feBlend mode="normal" in2="effect1_dropShadow" result="effect2_dropShadow"/>
<feBlend mode="normal" in="SourceGraphic" in2="effect2_dropShadow" result="shape"/>
</filter>
<linearGradient id="paint0_linear" x1="9" y1="9.5" x2="51" y2="46.5" gradientUnits="userSpaceOnUse">
<stop stop-color="#FFD537"/>
<stop offset="1" stop-color="#F58221"/>
</linearGradient>
</defs>
</svg>
