<svg width="51" height="48" viewBox="0 0 51 48" fill="none" xmlns="http://www.w3.org/2000/svg">
<path fill-rule="evenodd" clip-rule="evenodd" d="M10.9957 17.8862C10.9957 18.5894 10.5889 18.9937 9.84907 18.9937C9.10928 18.9937 8.70239 18.5894 8.70239 17.8862V13.3687C8.70239 9.97607 10.5519 8.23584 14.1584 8.23584H18.893C19.6513 8.23584 20.0582 8.62256 20.0582 9.32568C20.0582 10.0112 19.6513 10.4155 18.893 10.4155H14.1953C12.1239 10.4155 10.9957 11.4526 10.9957 13.4917V17.8862ZM44.1014 17.8862C44.1014 18.5894 43.6945 18.9937 42.9547 18.9937C42.2149 18.9937 41.808 18.5894 41.808 17.8862V13.4917C41.808 11.4526 40.6429 10.4155 38.59 10.4155H33.8923C33.1525 10.4155 32.7271 10.0112 32.7271 9.32568C32.7271 8.62256 33.1525 8.23584 33.8923 8.23584H38.6454C42.2519 8.23584 44.1014 9.99365 44.1014 13.3687V17.8862ZM25.0703 27.7651C26.7718 27.7651 27.678 26.9038 27.678 25.2866V19.8022C27.678 19.2397 27.3266 18.9058 26.7348 18.9058C26.1245 18.9058 25.7731 19.2397 25.7731 19.8022V25.4272C25.7731 25.7437 25.5326 25.9194 25.2552 25.9194H24.6264C24.09 25.9194 23.6832 26.3062 23.6832 26.7983C23.6832 27.4136 24.1085 27.7651 24.9038 27.7651H25.0703ZM20.761 22.4741C20.761 23.1948 20.2616 23.6694 19.5218 23.6694C18.8005 23.6694 18.3012 23.1948 18.3012 22.4741V20.1011C18.3012 19.4155 18.8005 18.9233 19.5218 18.9233C20.2616 18.9233 20.761 19.398 20.761 20.1011V22.4741ZM33.171 23.6694C33.8738 23.6694 34.3916 23.1948 34.3916 22.4741V20.1011C34.3916 19.4155 33.8738 18.9233 33.171 18.9233C32.4312 18.9233 31.9133 19.398 31.9133 20.1011V22.4741C31.9133 23.1948 32.4312 23.6694 33.171 23.6694ZM32.1353 31.0874C30.5817 32.5815 28.4178 33.4429 26.2724 33.4429C24.1085 33.4429 21.8892 32.6167 20.4096 31.0874C20.2246 30.894 20.0952 30.6655 20.0952 30.4019C20.0952 29.8745 20.5206 29.5054 21.0569 29.5054C21.4083 29.5054 21.6117 29.6636 21.8707 29.9097C22.9804 30.9468 24.6264 31.6323 26.2724 31.6323C27.9555 31.6323 29.62 30.9292 30.6557 29.9097C30.9701 29.5933 31.192 29.5054 31.4695 29.5054C32.0058 29.5054 32.4312 29.8745 32.4312 30.4019C32.4312 30.7007 32.3017 30.9292 32.1353 31.0874ZM18.893 41.8804C19.6513 41.8804 20.0582 41.4761 20.0582 40.7905C20.0582 40.0874 19.6513 39.7007 18.893 39.7007H14.1953C12.1239 39.7007 10.9957 38.646 10.9957 36.6245V32.23C10.9957 31.5269 10.5889 31.1226 9.84907 31.1226C9.09078 31.1226 8.70239 31.5269 8.70239 32.23V36.73C8.70239 40.1401 10.5519 41.8804 14.1584 41.8804H18.893ZM44.1014 36.73C44.1014 40.1226 42.2519 41.8804 38.6454 41.8804H33.8923C33.1525 41.8804 32.7271 41.4761 32.7271 40.7905C32.7271 40.0874 33.1525 39.7007 33.8923 39.7007H38.59C40.6429 39.7007 41.808 38.646 41.808 36.6245V32.23C41.808 31.5269 42.1964 31.1226 42.9547 31.1226C43.676 31.1226 44.1014 31.5269 44.1014 32.23V36.73Z" fill="#FF9933"/>
</svg>
