<svg width="16" height="18" viewBox="0 0 16 18" fill="none" xmlns="http://www.w3.org/2000/svg">
<path d="M3.5 0C2.88125 0 2.375 0.50625 2.375 1.125V16.875C2.375 17.4937 2.88125 18 3.5 18H14.75C15.3687 18 15.875 17.4937 15.875 16.875V4.5L11.375 0H3.5Z" fill="#E2E5E7"/>
<path d="M12.5 4.5H15.875L11.375 0V3.375C11.375 3.99375 11.8812 4.5 12.5 4.5Z" fill="#B0B7BD"/>
<path d="M15.875 7.875L12.5 4.5H15.875V7.875Z" fill="#CAD1D8"/>
<path d="M13.625 14.625C13.625 14.9344 13.3719 15.1875 13.0625 15.1875H0.6875C0.378125 15.1875 0.125 14.9344 0.125 14.625V9C0.125 8.69062 0.378125 8.4375 0.6875 8.4375H13.0625C13.3719 8.4375 13.625 8.69062 13.625 9V14.625Z" fill="#F15642"/>
<path d="M2.57715 10.6577C2.57715 10.5092 2.69415 10.3472 2.88259 10.3472H3.92152C4.50652 10.3472 5.03302 10.7387 5.03302 11.489C5.03302 12.2 4.50652 12.596 3.92152 12.596H3.17059V13.19C3.17059 13.388 3.04459 13.5 2.88259 13.5C2.73409 13.5 2.57715 13.388 2.57715 13.19V10.6577ZM3.17059 10.9136V12.0341H3.92152C4.22302 12.0341 4.46152 11.768 4.46152 11.489C4.46152 11.1746 4.22302 10.9136 3.92152 10.9136H3.17059Z" fill="white"/>
<path d="M5.91377 13.5C5.76527 13.5 5.60327 13.419 5.60327 13.2216V10.6667C5.60327 10.5053 5.76527 10.3877 5.91377 10.3877H6.94371C8.99908 10.3877 8.95408 13.5 6.98421 13.5H5.91377ZM6.19727 10.9367V12.9516H6.94371C8.15814 12.9516 8.21214 10.9367 6.94371 10.9367H6.19727Z" fill="white"/>
<path d="M9.6831 10.9726V11.6876H10.83C10.992 11.6876 11.154 11.8496 11.154 12.0065C11.154 12.155 10.992 12.2765 10.83 12.2765H9.6831V13.221C9.6831 13.3785 9.57116 13.4994 9.41366 13.4994C9.21566 13.4994 9.09473 13.3785 9.09473 13.221V10.6661C9.09473 10.5046 9.21623 10.3871 9.41366 10.3871H10.9926C11.1906 10.3871 11.3076 10.5046 11.3076 10.6661C11.3076 10.8101 11.1906 10.9721 10.9926 10.9721H9.6831V10.9726Z" fill="white"/>
<path d="M13.0625 15.1875H2.375V15.75H13.0625C13.3719 15.75 13.625 15.4969 13.625 15.1875V14.625C13.625 14.9344 13.3719 15.1875 13.0625 15.1875Z" fill="#CAD1D8"/>
</svg>
