<svg width="20" height="19" viewBox="0 0 20 19" fill="none" xmlns="http://www.w3.org/2000/svg">
<path fill-rule="evenodd" clip-rule="evenodd" d="M19.3735 16.1143C19.3735 17.8457 18.2749 18.9883 16.605 18.9883H6.55908C4.71338 18.9883 3.80811 18.0742 3.80811 16.2285V5.44434H1.52295C0.978027 5.44434 0.626465 5.10156 0.626465 4.57422V2.71973C0.626465 1.25195 1.55811 0.320312 2.9292 0.320312H15.0229C16.8335 0.320312 17.7476 1.24316 17.7476 3.08008V12.8535H18.4771C19.022 12.8535 19.3735 13.1963 19.3735 13.7236V16.1143ZM5.22314 16.2373C5.22314 17.0107 5.77686 17.5732 6.55908 17.5732C7.32373 17.5732 7.87744 17.0371 7.87744 16.2373V13.7236C7.87744 13.1963 8.23779 12.8535 8.78271 12.8535H16.3325V3.09766C16.3325 2.21875 15.8579 1.73535 14.9438 1.73535H5.11768C5.18799 2.02539 5.22314 2.35938 5.22314 2.71973V16.2373ZM3.80811 4.0293H2.0415V2.71973C2.0415 2.10449 2.41943 1.73535 2.9292 1.73535C3.45654 1.73535 3.80811 2.10449 3.80811 2.71973V4.0293ZM14.3462 4.9082C14.3462 5.21582 14.1177 5.45312 13.8013 5.45312H7.75439C7.43799 5.45312 7.20068 5.21582 7.20068 4.9082C7.20068 4.60938 7.43799 4.37207 7.75439 4.37207H13.8013C14.1177 4.37207 14.3462 4.60938 14.3462 4.9082ZM10.9097 8.52051C11.2261 8.52051 11.4546 8.29199 11.4546 7.99316C11.4546 7.68555 11.2261 7.43945 10.9097 7.43945H7.75439C7.43799 7.43945 7.20068 7.68555 7.20068 7.99316C7.20068 8.29199 7.43799 8.52051 7.75439 8.52051H10.9097ZM8.94971 17.5732H16.605C17.4136 17.5732 17.9585 16.9844 17.9585 16.1143V14.2686H9.29248V16.1406C9.29248 16.7119 9.16943 17.1865 8.94971 17.5732Z" fill="#FF9933"/>
</svg>
