<svg width="20" height="20" viewBox="0 0 20 20" fill="none" xmlns="http://www.w3.org/2000/svg">
<path fill-rule="evenodd" clip-rule="evenodd" d="M10.0205 19.8198C11.3672 19.8198 12.6318 19.5635 13.8145 19.0508C14.9971 18.5381 16.0413 17.8306 16.947 16.9282C17.8528 16.0259 18.562 14.9817 19.0747 13.7957C19.5874 12.6096 19.8438 11.3433 19.8438 9.99658C19.8438 8.65674 19.5857 7.3938 19.0696 6.20776C18.5535 5.02173 17.8425 3.97583 16.9368 3.07007C16.031 2.16431 14.9868 1.45508 13.8042 0.942383C12.6216 0.429688 11.3569 0.17334 10.0103 0.17334C8.67041 0.17334 7.40918 0.429688 6.22656 0.942383C5.04395 1.45508 3.99976 2.16431 3.09399 3.07007C2.18823 3.97583 1.479 5.02173 0.966309 6.20776C0.453613 7.3938 0.197266 8.65674 0.197266 9.99658C0.197266 11.3433 0.455322 12.6096 0.971436 13.7957C1.48755 14.9817 2.19678 16.0259 3.09912 16.9282C4.00146 17.8306 5.04395 18.5381 6.22656 19.0508C7.40918 19.5635 8.67383 19.8198 10.0205 19.8198ZM6.031 4.609L5.83027 4.54397C5.2006 4.32902 4.65525 4.06166 4.1942 3.74189L4.159 3.716L4.20882 3.66828C4.93799 2.99717 5.76438 2.4611 6.68799 2.06006C7.03434 1.90967 7.38829 1.78434 7.74984 1.68408L7.794 1.674L7.76965 1.69649C7.33869 2.11888 6.94908 2.65706 6.60083 3.31104C6.43292 3.62634 6.27871 3.9628 6.1382 4.3204L6.031 4.609ZM13.9111 4.3204L14.018 4.607L14.2138 4.54397C14.8417 4.32902 15.3861 4.06166 15.8469 3.74189L15.875 3.721L15.8219 3.66828C15.0928 2.99717 14.2664 2.4611 13.3428 2.06006C12.9964 1.90967 12.6421 1.78434 12.2798 1.68408L12.25 1.678L12.2716 1.69649C12.7032 2.11888 13.0944 2.65706 13.4453 3.31104C13.6145 3.62634 13.7698 3.9628 13.9111 4.3204ZM10.604 5.137V1.854L10.6545 1.87182C10.9131 1.97984 11.165 2.15538 11.4099 2.39844C11.8508 2.83594 12.2405 3.4375 12.5789 4.20312C12.6755 4.42188 12.7665 4.65011 12.8517 4.88784L12.855 4.901C12.2452 5.01799 11.589 5.09315 10.8864 5.12648L10.604 5.137ZM9.15842 5.12648L9.436 5.137V1.856L9.39261 1.87182C9.13521 1.97984 8.88308 2.15538 8.63623 2.39844C8.19189 2.83594 7.80054 3.4375 7.46216 4.20312C7.36548 4.42188 7.27452 4.65011 7.18928 4.88783L7.185 4.9L7.19594 4.90147C7.80421 5.01814 8.45837 5.09315 9.15842 5.12648ZM5.179 9.423H1.427L1.44039 9.22285C1.51778 8.33199 1.7306 7.48248 2.07886 6.67432C2.37736 5.98161 2.75258 5.34359 3.20451 4.76025L3.372 4.553L3.50133 4.64907C3.8787 4.91622 4.31885 5.15723 4.82178 5.37207C5.02295 5.45801 5.23165 5.53836 5.44789 5.61314L5.694 5.695L5.64922 5.86362C5.61456 6.00162 5.58142 6.14197 5.5498 6.28467C5.36011 7.14087 5.24155 8.05475 5.19412 9.02631L5.179 9.423ZM14.871 9.423H18.613L18.6004 9.22285C18.5224 8.33199 18.3079 7.48248 17.957 6.67432C17.6562 5.98161 17.2795 5.34359 16.8268 4.76025L16.663 4.56L16.5443 4.64907C16.1697 4.91622 15.7297 5.15723 15.2244 5.37207C14.9885 5.47233 14.7428 5.565 14.4872 5.65006L14.355 5.692L14.402 5.86362L14.5015 6.28467C14.6912 7.14087 14.8097 8.05475 14.8571 9.02631L14.871 9.423ZM9.436 9.423H6.37L6.38414 9.07624C6.4246 8.30406 6.51562 7.56152 6.65723 6.84863C6.71387 6.56348 6.77623 6.28781 6.84431 6.02162L6.85 5.998L7.21094 6.06934C7.80339 6.17871 8.4171 6.25163 9.05208 6.28809L9.436 6.305V9.423ZM10.604 9.423H13.67L13.6569 9.07624C13.6164 8.30406 13.5254 7.56152 13.3838 6.84863C13.3271 6.56348 13.2648 6.28781 13.1967 6.02162L13.19 5.998L12.8352 6.06934C12.245 6.17871 11.6313 6.25163 10.9941 6.28809L10.604 6.305V9.423ZM3.391 15.475L3.20451 15.2426C2.75258 14.6585 2.37736 14.019 2.07886 13.324C1.7306 12.5132 1.51778 11.662 1.44039 10.7706L1.428 10.582H5.178L5.19412 11.0117C5.24155 11.9858 5.36011 12.8984 5.5498 13.7495L5.64922 14.1681L5.697 14.349L5.55664 14.3921C5.30143 14.4764 5.05648 14.5681 4.82178 14.6672C4.31885 14.8796 3.8787 15.1208 3.50133 15.3908L3.391 15.475ZM6.84431 13.9772L6.862 14.045L7.21094 13.9751C7.80339 13.8657 8.4171 13.7928 9.05208 13.7563L9.436 13.74V10.582H6.369L6.3929 11.0994C6.43696 11.8089 6.52506 12.494 6.65723 13.1548C6.71387 13.438 6.77623 13.7121 6.84431 13.9772ZM13.178 14.045L12.8352 13.9751C12.245 13.8657 11.6313 13.7928 10.9941 13.7563L10.604 13.74V10.582H13.671L13.6481 11.0994C13.6041 11.8089 13.516 12.494 13.3838 13.1548C13.3271 13.438 13.2648 13.7121 13.1967 13.9772L13.178 14.045ZM16.5443 15.3908L16.645 15.468L16.8268 15.2426C17.2795 14.6585 17.6562 14.019 17.957 13.324C18.3079 12.5132 18.5224 11.662 18.6004 10.7706L18.612 10.582H14.872L14.8568 11.0117C14.8088 11.9858 14.6886 12.8984 14.4963 13.7495C14.4643 13.8914 14.4308 14.0309 14.3957 14.1681L14.346 14.349L14.4872 14.3921C14.7428 14.4764 14.9885 14.5681 15.2244 14.6672C15.7297 14.8796 16.1697 15.1208 16.5443 15.3908ZM9.436 18.157L9.39261 18.1408C9.13521 18.032 8.88308 17.8551 8.63623 17.6101C8.19189 17.1692 7.80054 16.5642 7.46216 15.7952L7.32143 15.4588L7.203 15.146L7.56641 15.0802C8.06771 14.9992 8.59838 14.9452 9.15842 14.9182L9.436 14.909V18.157ZM10.604 14.909V18.159L10.6545 18.1408C10.9131 18.032 11.165 17.8551 11.4099 17.6101C11.8508 17.1692 12.2405 16.5642 12.5789 15.7952C12.6272 15.6853 12.6741 15.5732 12.7196 15.4588L12.838 15.145L12.4814 15.0802C11.9801 14.9992 11.4485 14.9452 10.8864 14.9182L10.604 14.909ZM7.765 18.314C7.3979 18.2127 7.04061 18.0875 6.69312 17.9382C5.76647 17.5402 4.93839 17.0058 4.20888 16.3351L4.184 16.313L4.1942 16.3046C4.65525 15.9887 5.2006 15.7228 5.83027 15.5071L6.039 15.44L6.1382 15.703C6.27871 16.0588 6.43292 16.3937 6.60083 16.7078C6.89933 17.266 7.22898 17.7407 7.58976 18.1319L7.765 18.314ZM13.9035 15.703C13.7625 16.0588 13.6081 16.3937 13.4402 16.7078C13.1417 17.266 12.8128 17.7407 12.4535 18.1319L12.2809 18.3114C12.6425 18.2119 12.9964 18.0875 13.3428 17.9382C14.2664 17.5402 15.0928 17.0058 15.8219 16.3351L15.85 16.308L15.8469 16.3046C15.3861 15.9887 14.8417 15.7228 14.2138 15.5071L14.003 15.44L13.9035 15.703Z" fill="#FF9933"/>
</svg>
