<svg width="9" height="16" viewBox="0 0 9 16" fill="none" xmlns="http://www.w3.org/2000/svg">
<path d="M1.37305 15.292C1.61328 15.292 1.81543 15.207 1.97949 15.0371L8.51855 8.64746C8.61816 8.55371 8.68994 8.45264 8.73389 8.34424C8.77783 8.23584 8.7998 8.12012 8.7998 7.99707C8.7998 7.87402 8.77637 7.7583 8.72949 7.6499C8.68262 7.5415 8.6123 7.44043 8.51855 7.34668L1.97949 0.957031C1.81543 0.787109 1.61328 0.702148 1.37305 0.702148C1.20312 0.702148 1.05371 0.740234 0.924805 0.816406C0.795898 0.892578 0.691895 0.995117 0.612793 1.12402C0.533691 1.25293 0.494141 1.40234 0.494141 1.57227C0.494141 1.80664 0.582031 2.01172 0.757812 2.1875L6.69922 7.99707L0.757812 13.8066C0.582031 13.9824 0.494141 14.1875 0.494141 14.4219C0.494141 14.5859 0.533691 14.7339 0.612793 14.8657C0.691895 14.9976 0.795898 15.1016 0.924805 15.1777C1.05371 15.2539 1.20312 15.292 1.37305 15.292Z" fill="#858DA3"/>
</svg>
