<svg width="19" height="19" viewBox="0 0 19 19" fill="none" xmlns="http://www.w3.org/2000/svg">
<path d="M15.4502 18.1094C15.8193 18.2588 16.1885 18.1445 16.3818 17.793C17.6738 15.5254 18.4473 12.6074 18.4473 9.96191C18.4473 4.17871 14.8789 0.337891 9.5 0.337891C4.1123 0.337891 0.552734 4.17871 0.552734 9.96191C0.552734 12.6074 1.31738 15.5254 2.60938 17.793C2.81152 18.1445 3.17188 18.2588 3.54102 18.1094C3.93652 18.7422 4.64844 18.9971 5.47461 18.7598C6.48535 18.4697 6.95996 17.5908 6.66113 16.5801L5.4043 12.291C5.11426 11.2891 4.25293 10.8145 3.2334 11.1045C2.75 11.2451 2.39844 11.5176 2.17871 11.8691C2.09082 11.2275 2.04688 10.5859 2.04688 9.96191C2.04688 5.08398 5.02637 1.83203 9.5 1.83203C13.9648 1.83203 16.9531 5.08398 16.9531 9.96191C16.9531 10.5859 16.9092 11.2275 16.8125 11.8779C16.6016 11.5176 16.2412 11.2451 15.7578 11.1045C14.7383 10.8145 13.8857 11.2891 13.5869 12.291L12.3301 16.5801C12.0312 17.5996 12.5059 18.4697 13.5166 18.7598C14.3428 18.9971 15.0547 18.7422 15.4502 18.1094Z" fill="#FF9933"/>
</svg>
