<svg width="17" height="20" viewBox="0 0 17 20" fill="none" xmlns="http://www.w3.org/2000/svg">
<path fill-rule="evenodd" clip-rule="evenodd" d="M9.15894 19.9429C9.04272 19.9771 8.9436 19.9941 8.86157 19.9941C8.77954 19.9941 8.68042 19.9771 8.56421 19.9429C8.448 19.9087 8.32837 19.8608 8.20532 19.7993C6.84497 19.0132 5.69653 18.3228 4.76001 17.728C3.82349 17.1333 3.06982 16.5591 2.49902 16.0054C1.92822 15.4517 1.51465 14.8569 1.2583 14.2212C1.00195 13.5854 0.873779 12.8369 0.873779 11.9756V4.57227C0.873779 4.05957 0.979736 3.69043 1.19165 3.46484C1.40356 3.23926 1.72144 3.0376 2.14526 2.85986C2.45288 2.73682 2.87329 2.57446 3.40649 2.3728C3.9397 2.17114 4.50708 1.95752 5.10864 1.73193C5.71021 1.50635 6.27588 1.29956 6.80566 1.11157C7.33545 0.923584 7.75757 0.781738 8.07202 0.686035C8.19507 0.651855 8.32324 0.617676 8.45654 0.583496C8.58984 0.549316 8.72485 0.532227 8.86157 0.532227C8.99829 0.532227 9.1333 0.545898 9.2666 0.573242C9.3999 0.600586 9.52808 0.638184 9.65112 0.686035C9.95874 0.788574 10.3792 0.935547 10.9124 1.12695C11.4456 1.31836 12.0129 1.52344 12.6145 1.74219C13.2161 1.96094 13.7817 2.17114 14.3115 2.3728C14.8413 2.57446 15.2634 2.73682 15.5779 2.85986C16.0017 3.04443 16.3179 3.2478 16.5264 3.46997C16.7349 3.69214 16.8391 4.05957 16.8391 4.57227V11.9756C16.8391 12.8369 16.7126 13.5872 16.4597 14.2263C16.2068 14.8655 15.7966 15.4619 15.2292 16.0156C14.6619 16.5693 13.9082 17.1436 12.9683 17.7383C12.0283 18.333 10.8748 19.02 9.50757 19.7993C9.39136 19.8608 9.27515 19.9087 9.15894 19.9429ZM8.60522 18.3535C8.69409 18.3877 8.77954 18.4048 8.86157 18.4048C8.93677 18.4048 9.0188 18.3877 9.10767 18.3535C9.19653 18.3193 9.30933 18.2612 9.44604 18.1792C10.5671 17.4888 11.5105 16.8975 12.2761 16.4053C13.0417 15.9131 13.657 15.4448 14.1218 15.0005C14.5867 14.5562 14.9216 14.0742 15.1267 13.5547C15.3318 13.0352 15.4343 12.4062 15.4343 11.668V4.83887C15.4343 4.64746 15.4104 4.50391 15.3625 4.4082C15.3147 4.3125 15.2122 4.2373 15.0549 4.18262C14.7678 4.08008 14.4312 3.95874 14.0449 3.8186C13.6587 3.67847 13.2468 3.52979 12.8093 3.37256C12.3718 3.21533 11.936 3.0564 11.502 2.89575C11.0679 2.73511 10.6577 2.5813 10.2715 2.43433C9.88525 2.28735 9.552 2.15918 9.27173 2.0498C9.1897 2.01562 9.11279 1.98999 9.04102 1.9729C8.96924 1.95581 8.90942 1.94727 8.86157 1.94727C8.80688 1.94727 8.74365 1.9541 8.67188 1.96777C8.6001 1.98145 8.52319 2.00879 8.44116 2.0498C8.16089 2.15918 7.82764 2.28394 7.44141 2.42407C7.05518 2.56421 6.64331 2.71289 6.20581 2.87012L4.89331 3.3418C4.45581 3.49902 4.04395 3.65112 3.65771 3.7981C3.27148 3.94507 2.93823 4.07324 2.65796 4.18262C2.50757 4.24414 2.40674 4.32104 2.35547 4.41333C2.3042 4.50562 2.27856 4.64746 2.27856 4.83887V11.668C2.27856 12.4062 2.3811 13.0352 2.58618 13.5547C2.79126 14.0742 3.12622 14.5562 3.59106 15.0005C4.05591 15.4448 4.67114 15.9148 5.43677 16.4104C6.20239 16.906 7.14917 17.4956 8.2771 18.1792C8.40698 18.2612 8.51636 18.3193 8.60522 18.3535ZM11.3738 14.6929C12.0437 14.6929 12.3787 14.3374 12.3787 13.6265V9.72998C12.3787 9.05322 12.0813 8.69775 11.4866 8.66357V7.47412C11.4866 6.59912 11.2439 5.89331 10.7585 5.35669C10.2732 4.82007 9.64087 4.55176 8.86157 4.55176C8.07544 4.55176 7.44312 4.82007 6.9646 5.35669C6.48608 5.89331 6.24683 6.59912 6.24683 7.47412V8.66357C5.6521 8.69775 5.35474 9.05322 5.35474 9.72998V13.6265C5.35474 14.3374 5.6897 14.6929 6.35962 14.6929H11.3738ZM7.17993 8.65332H10.5535V7.38184C10.5535 6.80078 10.3979 6.33594 10.0869 5.9873C9.77588 5.63867 9.36743 5.46436 8.86157 5.46436C8.36255 5.46436 7.95752 5.63867 7.64648 5.9873C7.33545 6.33594 7.17993 6.80078 7.17993 7.38184V8.65332Z" fill="#FF9933"/>
</svg>
