<svg width="28" height="28" viewBox="0 0 28 28" fill="none" xmlns="http://www.w3.org/2000/svg">
<path fill-rule="evenodd" clip-rule="evenodd" d="M19.813 12.7031C20.0942 12.7031 20.314 12.4922 20.314 12.2109V4.90723C20.314 4.61719 20.0942 4.39746 19.813 4.39746C19.5405 4.39746 19.3208 4.61719 19.3208 4.90723V12.2109C19.3208 12.501 19.5317 12.7031 19.813 12.7031ZM21.8696 11.833C22.1509 11.833 22.3706 11.6133 22.3706 11.332V5.75977C22.3706 5.49609 22.1509 5.27637 21.8696 5.27637C21.5972 5.27637 21.3862 5.49609 21.3862 5.75977V11.332C21.3862 11.6133 21.5972 11.833 21.8696 11.833ZM17.7563 20.5518C17.686 22.2568 16.3589 23.7334 14.4956 23.7334C12.6411 23.7334 11.314 22.248 11.2437 20.5518H7.53467C6.69971 20.5518 6.20752 20.1299 6.20752 19.4883C6.20752 18.7016 6.91866 17.9854 7.61621 17.2828L7.61635 17.2827C7.6981 17.2003 7.77966 17.1182 7.85986 17.0361C8.43994 16.4297 8.59814 15.1816 8.66846 14.1709C8.72998 10.708 9.62646 8.47559 11.9644 7.63184C12.2544 6.48047 13.2036 5.5752 14.4956 5.5752C15.0142 5.5752 15.48 5.72461 15.8755 5.95312V5.97949C15.7964 5.96191 15.7437 5.96191 15.6821 5.96191C14.9351 5.96191 14.3022 6.41016 14.0034 7.04297C13.5288 7.20117 13.1597 7.70215 13.1333 8.42285C13.1245 8.65137 13.0015 8.75684 12.7817 8.80957C11.2788 9.22266 10.1362 10.4443 10.0659 14.2852C9.98682 15.999 9.68799 17.1328 9.05518 17.8359C8.90099 18.0079 8.73879 18.1809 8.58547 18.3444C8.28434 18.6656 8.01743 18.9502 7.9126 19.1191V19.2246H21.0786V19.1191C20.9651 18.9363 20.6662 18.6178 20.3343 18.2641C20.2036 18.1248 20.0677 17.98 19.936 17.8359C19.3647 17.1943 19.0044 16.2363 18.978 14.6191C18.9692 14.3379 18.9604 14.0742 18.9517 13.8193C19.4087 14.1006 19.8569 14.1094 20.3579 14.0127C20.3667 14.1709 20.3667 14.3379 20.3667 14.5049C20.4019 15.4014 20.604 16.4912 21.1401 17.0361C21.2296 17.1287 21.321 17.2214 21.4126 17.3143L21.4127 17.3143C22.0956 18.0068 22.7925 18.7134 22.7925 19.4883C22.7925 20.1299 22.2915 20.5518 21.4653 20.5518H17.7563ZM17.7563 11.1826C18.0288 11.1826 18.2485 10.9717 18.2485 10.6816V6.41016C18.2485 6.1377 18.0288 5.91797 17.7563 5.91797C17.4751 5.91797 17.2642 6.1377 17.2642 6.41016V10.6816C17.2642 10.9717 17.4751 11.1826 17.7563 11.1826ZM24.436 9.67969C24.436 9.96094 24.2251 10.1719 23.9351 10.1719C23.6626 10.1719 23.4429 9.95215 23.4429 9.67969V7.4209C23.4429 7.14844 23.6626 6.92871 23.9351 6.92871C24.2251 6.92871 24.436 7.13965 24.436 7.4209V9.67969ZM15.6821 9.70605C15.9722 9.70605 16.1919 9.48633 16.1919 9.22266V7.88672C16.1919 7.60547 15.9722 7.38574 15.6821 7.38574C15.4185 7.38574 15.1987 7.60547 15.1987 7.88672V9.22266C15.1987 9.48633 15.4185 9.70605 15.6821 9.70605ZM12.6147 20.5518C12.6763 21.7471 13.4409 22.4941 14.4956 22.4941C15.5591 22.4941 16.3149 21.7471 16.3853 20.5518H12.6147Z" fill="#FF9933"/>
</svg>
