<svg width="28" height="28" viewBox="0 0 28 28" fill="none" xmlns="http://www.w3.org/2000/svg">
<path fill-rule="evenodd" clip-rule="evenodd" d="M15.1108 25.3154L17.8267 22.5996C18.1694 22.248 18.1519 21.7207 17.8179 21.3779L16.4556 20.0244L18.4419 18.0469C18.7847 17.7129 18.7671 17.1768 18.4331 16.8252L16.5962 14.9795C19.0132 13.8193 20.3755 11.8506 20.3755 9.5127C20.3755 6.26953 17.7476 3.65039 14.5044 3.65039C11.2349 3.65039 8.62451 6.25195 8.62451 9.5127C8.62451 11.8682 9.97803 13.96 12.1138 14.9004V23.1973C12.1138 23.4873 12.2017 23.8213 12.4565 24.0498L13.8892 25.3066C14.2583 25.6143 14.7593 25.6582 15.1108 25.3154ZM14.5044 23.918L13.5288 22.9512V13.8809C11.4634 13.415 10.0308 11.6309 10.0308 9.5127C10.0308 7.05176 12.0259 5.06543 14.5044 5.06543C16.9741 5.06543 18.9604 7.05176 18.9604 9.5127C18.9604 11.6133 17.519 13.415 15.313 13.9424V15.7178L17.0356 17.4492L15.1724 19.2861V20.7451L16.4204 21.9756L14.5044 23.918ZM16.0952 7.99219C16.0952 8.87988 15.3833 9.5918 14.5044 9.5918C13.6167 9.5918 12.9048 8.87988 12.9048 7.99219C12.9048 7.10449 13.6079 6.40137 14.5044 6.40137C15.3833 6.40137 16.0952 7.11328 16.0952 7.99219Z" fill="#FF9933"/>
</svg>
