<svg width="16" height="20" viewBox="0 0 16 20" fill="none" xmlns="http://www.w3.org/2000/svg">
<path fill-rule="evenodd" clip-rule="evenodd" d="M12.667 19.0762C14.4863 19.0762 15.3916 18.1621 15.3916 16.3252V2.99219C15.3916 1.16406 14.4863 0.232422 12.667 0.232422H3.33301C1.51367 0.232422 0.608398 1.16406 0.608398 2.99219V16.3252C0.608398 18.1621 1.51367 19.0762 3.33301 19.0762H12.667ZM12.5967 17.6611H3.40332C2.48926 17.6611 2.02344 17.1777 2.02344 16.2988V3.01855C2.02344 2.13965 2.48926 1.64746 3.40332 1.64746H12.5967C13.5107 1.64746 13.9766 2.13965 13.9766 3.01855V16.2988C13.9766 17.1777 13.5107 17.6611 12.5967 17.6611ZM12.2539 4.20508C12.2539 4.5127 12.0254 4.75 11.709 4.75H4.625C4.2998 4.75 4.07129 4.5127 4.07129 4.20508C4.07129 3.90625 4.2998 3.66895 4.625 3.66895H11.709C12.0254 3.66895 12.2539 3.90625 12.2539 4.20508ZM8.78223 7.29883C9.08984 7.29883 9.32715 7.06152 9.32715 6.75391C9.32715 6.45508 9.08984 6.21777 8.78223 6.21777H4.625C4.2998 6.21777 4.07129 6.45508 4.07129 6.75391C4.07129 7.06152 4.2998 7.29883 4.625 7.29883H8.78223ZM12.4209 14.8311C12.4209 15.6045 12.0254 16 11.252 16H4.75684C4.00977 16 3.5791 15.6045 3.5791 14.8311V9.94434C3.5791 9.1709 4.00977 8.7666 4.75684 8.7666H11.252C12.0254 8.7666 12.4209 9.1709 12.4209 9.94434V14.8311Z" fill="#FF9933"/>
</svg>
