<svg width="20" height="17" viewBox="0 0 20 17" fill="none" xmlns="http://www.w3.org/2000/svg">
<path fill-rule="evenodd" clip-rule="evenodd" d="M17.6675 12.5322C17.5327 12.6611 17.3745 12.7256 17.1929 12.7256H7.50732C6.88623 12.7256 6.41016 12.5498 6.0791 12.1982C5.74805 11.8467 5.53564 11.3662 5.44189 10.7568L4.14111 1.7832H1.42529C1.24365 1.7832 1.08252 1.71436 0.941895 1.57666C0.80127 1.43896 0.730957 1.27344 0.730957 1.08008C0.730957 0.886719 0.80127 0.719727 0.941895 0.579102C1.08252 0.438477 1.24365 0.368164 1.42529 0.368164H4.30811C4.75342 0.368164 5.05957 0.45459 5.22656 0.627441C5.39355 0.800293 5.50342 1.05664 5.55615 1.39648L5.699 2.381L19.1528 2.38086C19.4106 2.38086 19.6143 2.44971 19.7637 2.5874C19.9131 2.7251 19.9878 2.90234 19.9878 3.11914C19.9878 3.16016 19.9834 3.21289 19.9746 3.27734C19.9658 3.3418 19.9585 3.40039 19.9526 3.45312L19.311 7.7334C19.2173 8.34863 19.0049 8.8335 18.6738 9.18799C18.3428 9.54248 17.8638 9.71973 17.2368 9.71973L6.766 9.72L6.89209 10.5898C6.92725 10.8184 7.01221 11.0029 7.14697 11.1436C7.28174 11.2842 7.45752 11.3545 7.67432 11.3545H17.1929C17.3745 11.3545 17.5327 11.4189 17.6675 11.5479C17.8022 11.6768 17.8696 11.8408 17.8696 12.04C17.8696 12.2393 17.8022 12.4033 17.6675 12.5322ZM5.897 3.744L6.568 8.358L17.0962 8.34863C17.3188 8.34863 17.4932 8.27979 17.6191 8.14209C17.7451 8.00439 17.8257 7.82129 17.8608 7.59277L18.4146 3.74316L5.897 3.744ZM8.1665 16.8301C8.56494 16.8301 8.89893 16.6938 9.16846 16.4214C9.43799 16.1489 9.57275 15.8193 9.57275 15.4326C9.57275 15.0459 9.43799 14.7163 9.16846 14.4438C8.89893 14.1714 8.56494 14.0352 8.1665 14.0352C7.77979 14.0352 7.4502 14.1714 7.17773 14.4438C6.90527 14.7163 6.76904 15.0459 6.76904 15.4326C6.76904 15.8193 6.90527 16.1489 7.17773 16.4214C7.4502 16.6938 7.77979 16.8301 8.1665 16.8301ZM16.8984 16.4214C16.626 16.6938 16.2964 16.8301 15.9097 16.8301C15.5229 16.8301 15.1904 16.6938 14.9121 16.4214C14.6338 16.1489 14.4946 15.8193 14.4946 15.4326C14.4946 15.0459 14.6338 14.7163 14.9121 14.4438C15.1904 14.1714 15.5229 14.0352 15.9097 14.0352C16.2964 14.0352 16.626 14.1714 16.8984 14.4438C17.1709 14.7163 17.3071 15.0459 17.3071 15.4326C17.3071 15.8193 17.1709 16.1489 16.8984 16.4214Z" fill="#FF9933"/>
</svg>
