<svg width="28" height="28" viewBox="0 0 28 28" fill="none" xmlns="http://www.w3.org/2000/svg">
<path fill-rule="evenodd" clip-rule="evenodd" d="M5.9585 10.4336C5.9585 10.8438 5.73291 11.0796 5.32275 11.0796C4.9126 11.0796 4.68701 10.8438 4.68701 10.4336V7.79834C4.68701 5.81934 5.7124 4.8042 7.71191 4.8042H10.3369C10.7573 4.8042 10.9829 5.02979 10.9829 5.43994C10.9829 5.83984 10.7573 6.07568 10.3369 6.07568H7.73242C6.58398 6.07568 5.9585 6.68066 5.9585 7.87012V10.4336ZM24.313 10.4336C24.313 10.8438 24.0874 11.0796 23.6772 11.0796C23.2671 11.0796 23.0415 10.8438 23.0415 10.4336V7.87012C23.0415 6.68066 22.3955 6.07568 21.2573 6.07568H18.6528C18.2427 6.07568 18.0068 5.83984 18.0068 5.43994C18.0068 5.02979 18.2427 4.8042 18.6528 4.8042H21.2881C23.2876 4.8042 24.313 5.82959 24.313 7.79834V10.4336ZM13.7617 16.1963C14.7051 16.1963 15.2075 15.6938 15.2075 14.7505V11.5513C15.2075 11.2231 15.0127 11.0283 14.6846 11.0283C14.3462 11.0283 14.1514 11.2231 14.1514 11.5513V14.8325C14.1514 15.0171 14.0181 15.1196 13.8643 15.1196H13.5156C13.2183 15.1196 12.9927 15.3452 12.9927 15.6323C12.9927 15.9912 13.2285 16.1963 13.6694 16.1963H13.7617ZM11.3726 13.1099C11.3726 13.5303 11.0957 13.8071 10.6855 13.8071C10.2856 13.8071 10.0088 13.5303 10.0088 13.1099V11.7256C10.0088 11.3257 10.2856 11.0386 10.6855 11.0386C11.0957 11.0386 11.3726 11.3154 11.3726 11.7256V13.1099ZM18.2529 13.8071C18.6426 13.8071 18.9297 13.5303 18.9297 13.1099V11.7256C18.9297 11.3257 18.6426 11.0386 18.2529 11.0386C17.8428 11.0386 17.5557 11.3154 17.5557 11.7256V13.1099C17.5557 13.5303 17.8428 13.8071 18.2529 13.8071ZM17.6787 18.1343C16.8174 19.0059 15.6177 19.5083 14.4282 19.5083C13.2285 19.5083 11.998 19.0264 11.1777 18.1343C11.0752 18.0215 11.0034 17.8882 11.0034 17.7344C11.0034 17.4268 11.2393 17.2114 11.5366 17.2114C11.7314 17.2114 11.8442 17.3037 11.9878 17.4473C12.603 18.0522 13.5156 18.4521 14.4282 18.4521C15.3613 18.4521 16.2842 18.042 16.8584 17.4473C17.0327 17.2627 17.1558 17.2114 17.3096 17.2114C17.6069 17.2114 17.8428 17.4268 17.8428 17.7344C17.8428 17.9087 17.771 18.042 17.6787 18.1343ZM10.3369 24.4302C10.7573 24.4302 10.9829 24.1943 10.9829 23.7944C10.9829 23.3843 10.7573 23.1587 10.3369 23.1587H7.73242C6.58398 23.1587 5.9585 22.5435 5.9585 21.3643V18.8008C5.9585 18.3906 5.73291 18.1548 5.32275 18.1548C4.90234 18.1548 4.68701 18.3906 4.68701 18.8008V21.4258C4.68701 23.415 5.7124 24.4302 7.71191 24.4302H10.3369ZM24.313 21.4258C24.313 23.4048 23.2876 24.4302 21.2881 24.4302H18.6528C18.2427 24.4302 18.0068 24.1943 18.0068 23.7944C18.0068 23.3843 18.2427 23.1587 18.6528 23.1587H21.2573C22.3955 23.1587 23.0415 22.5435 23.0415 21.3643V18.8008C23.0415 18.3906 23.2568 18.1548 23.6772 18.1548C24.0771 18.1548 24.313 18.3906 24.313 18.8008V21.4258Z" fill="#FF9933"/>
</svg>
