<svg width="28" height="28" viewBox="0 0 28 28" fill="none" xmlns="http://www.w3.org/2000/svg">
<path d="M19.4502 23.1094C19.8193 23.2588 20.1885 23.1445 20.3818 22.793C21.6738 20.5254 22.4473 17.6074 22.4473 14.9619C22.4473 9.17871 18.8789 5.33789 13.5 5.33789C8.1123 5.33789 4.55273 9.17871 4.55273 14.9619C4.55273 17.6074 5.31738 20.5254 6.60938 22.793C6.81152 23.1445 7.17188 23.2588 7.54102 23.1094C7.93652 23.7422 8.64844 23.9971 9.47461 23.7598C10.4854 23.4697 10.96 22.5908 10.6611 21.5801L9.4043 17.291C9.11426 16.2891 8.25293 15.8145 7.2334 16.1045C6.75 16.2451 6.39844 16.5176 6.17871 16.8691C6.09082 16.2275 6.04688 15.5859 6.04688 14.9619C6.04688 10.084 9.02637 6.83203 13.5 6.83203C17.9648 6.83203 20.9531 10.084 20.9531 14.9619C20.9531 15.5859 20.9092 16.2275 20.8125 16.8779C20.6016 16.5176 20.2412 16.2451 19.7578 16.1045C18.7383 15.8145 17.8857 16.2891 17.5869 17.291L16.3301 21.5801C16.0312 22.5996 16.5059 23.4697 17.5166 23.7598C18.3428 23.9971 19.0547 23.7422 19.4502 23.1094Z" fill="#FF9933"/>
</svg>
