<svg width="16" height="20" viewBox="0 0 16 20" fill="none" xmlns="http://www.w3.org/2000/svg">
<path fill-rule="evenodd" clip-rule="evenodd" d="M15.3916 16.3252C15.3916 18.1621 14.4863 19.0762 12.667 19.0762H3.33301C1.51367 19.0762 0.608398 18.1621 0.608398 16.3252V2.99219C0.608398 1.16406 1.51367 0.232422 3.33301 0.232422H12.667C14.4863 0.232422 15.3916 1.16406 15.3916 2.99219V16.3252ZM3.40332 17.6611H12.5967C13.5107 17.6611 13.9766 17.1777 13.9766 16.2988V3.01855C13.9766 2.13965 13.5107 1.64746 12.5967 1.64746H3.40332C2.48926 1.64746 2.02344 2.13965 2.02344 3.01855V16.2988C2.02344 17.1777 2.48926 17.6611 3.40332 17.6611ZM10.3027 9.13574C11.3662 9.13574 12.1133 8.39746 12.1133 7.34277C12.1133 6.31445 11.4805 5.62891 10.5488 5.62891C10.0742 5.62891 9.69629 5.77832 9.42383 6.12109H9.23926C9.30957 5.80469 9.51172 5.50586 9.79297 5.25098C10.0742 4.99609 10.4258 4.84668 10.8125 4.75879C11.1377 4.67969 11.2432 4.58301 11.2432 4.38965C11.2432 4.20508 11.1113 4.06445 10.8652 4.06445C10.2939 4.06445 9.55566 4.43359 9.08984 4.94336C8.58887 5.47949 8.34277 6.16504 8.34277 6.91211C8.34277 8.31836 9.21289 9.13574 10.3027 9.13574ZM7.65723 7.35156C7.65723 8.40625 6.91895 9.14453 5.84668 9.14453C4.76562 9.14453 3.89551 8.32715 3.89551 6.9209C3.89551 6.17383 4.1416 5.48828 4.63379 4.95215C5.12598 4.4248 5.83789 4.07324 6.40918 4.07324C6.65527 4.07324 6.78711 4.21387 6.78711 4.39844C6.78711 4.5918 6.69043 4.68848 6.36523 4.76758C5.97852 4.84668 5.64453 5.00488 5.37207 5.24219C5.06445 5.49707 4.8623 5.80469 4.79199 6.12988H4.96777C5.24023 5.78711 5.62695 5.6377 6.09277 5.6377C7.02441 5.6377 7.65723 6.32324 7.65723 7.35156ZM11.3398 12.1064C11.6562 12.1064 11.8848 11.8604 11.8848 11.5527C11.8848 11.2539 11.6562 11.0254 11.3398 11.0254H4.66895C4.35254 11.0254 4.11523 11.2539 4.11523 11.5527C4.11523 11.8604 4.35254 12.1064 4.66895 12.1064H11.3398ZM8.36914 14.6377C8.36914 14.9365 8.14062 15.165 7.82422 15.165H4.66895C4.35254 15.165 4.11523 14.9365 4.11523 14.6377C4.11523 14.3301 4.35254 14.084 4.66895 14.084H7.82422C8.14062 14.084 8.36914 14.3301 8.36914 14.6377Z" fill="#FF9933"/>
</svg>
