<svg width="28" height="28" viewBox="0 0 28 28" fill="none" xmlns="http://www.w3.org/2000/svg">
<path d="M11.8345 22.3711C12.2329 22.3711 12.5435 22.207 12.7661 21.8789L20.5972 9.60059C20.6792 9.47168 20.7378 9.35303 20.7729 9.24463C20.8081 9.13623 20.8257 9.0293 20.8257 8.92383C20.8257 8.66602 20.7451 8.45654 20.584 8.29541C20.4229 8.13428 20.2134 8.05371 19.9556 8.05371C19.7681 8.05371 19.6143 8.08887 19.4941 8.15918C19.374 8.22949 19.2554 8.35547 19.1382 8.53711L11.7993 20.209L8.01123 15.2959C7.79443 15.0029 7.53076 14.8564 7.22021 14.8564C6.95068 14.8564 6.73096 14.9399 6.56104 15.1069C6.39111 15.2739 6.30615 15.4863 6.30615 15.7441C6.30615 15.8613 6.32812 15.9771 6.37207 16.0913C6.41602 16.2056 6.48779 16.3213 6.5874 16.4385L10.8853 21.8701C11.1548 22.2041 11.4712 22.3711 11.8345 22.3711Z" fill="#28A745"/>
</svg>
