<svg width="20" height="20" viewBox="0 0 20 20" fill="none" xmlns="http://www.w3.org/2000/svg">
<path fill-rule="evenodd" clip-rule="evenodd" d="M13.8145 19.0508C12.6318 19.5635 11.3672 19.8198 10.0205 19.8198C8.67383 19.8198 7.40918 19.5635 6.22656 19.0508C5.04395 18.5381 4.00146 17.8306 3.09912 16.9282C2.19678 16.0259 1.48755 14.9817 0.971436 13.7957C0.455322 12.6096 0.197266 11.3433 0.197266 9.99658C0.197266 8.65674 0.453613 7.3938 0.966309 6.20776C1.479 5.02173 2.18823 3.97583 3.09399 3.07007C3.99976 2.16431 5.04395 1.45508 6.22656 0.942383C7.40918 0.429688 8.67041 0.17334 10.0103 0.17334C11.3569 0.17334 12.6216 0.429688 13.8042 0.942383C14.9868 1.45508 16.031 2.16431 16.9368 3.07007C17.8425 3.97583 18.5535 5.02173 19.0696 6.20776C19.5857 7.3938 19.8438 8.65674 19.8438 9.99658C19.8438 11.3433 19.5874 12.6096 19.0747 13.7957C18.562 14.9817 17.8528 16.0259 16.947 16.9282C16.0413 17.8306 14.9971 18.5381 13.8145 19.0508ZM6.77515 17.687C7.78345 18.1177 8.86523 18.333 10.0205 18.333C11.1758 18.333 12.2576 18.1177 13.2659 17.687C14.2742 17.2563 15.1594 16.6599 15.9216 15.8977C16.6838 15.1355 17.2803 14.2502 17.7109 13.2419C18.1416 12.2336 18.3535 11.1519 18.3467 9.99658C18.3467 8.84814 18.1313 7.76978 17.7007 6.76147C17.27 5.75317 16.6736 4.86792 15.9114 4.10571C15.1492 3.34351 14.2656 2.74707 13.2607 2.31641C12.2559 1.88574 11.1724 1.67041 10.0103 1.67041C8.85498 1.67041 7.7749 1.88574 6.77002 2.31641C5.76514 2.74707 4.8833 3.34351 4.12451 4.10571C3.36572 4.86792 2.77271 5.75317 2.34546 6.76147C1.91821 7.76978 1.70459 8.84814 1.70459 9.99658C1.70459 11.1519 1.91821 12.2336 2.34546 13.2419C2.77271 14.2502 3.36572 15.1355 4.12451 15.8977C4.8833 16.6599 5.76685 17.2563 6.77515 17.687ZM9.94873 6.46924C10.2769 6.46924 10.5554 6.35303 10.7844 6.12061C11.0134 5.88818 11.1279 5.60791 11.1279 5.27979C11.1279 4.94482 11.0134 4.66284 10.7844 4.43384C10.5554 4.20483 10.2769 4.09033 9.94873 4.09033C9.62061 4.09033 9.34033 4.20483 9.10791 4.43384C8.87549 4.66284 8.75928 4.94482 8.75928 5.27979C8.75928 5.60791 8.87549 5.88818 9.10791 6.12061C9.34033 6.35303 9.62061 6.46924 9.94873 6.46924ZM12.7224 15.1389C12.5959 15.2585 12.4438 15.3184 12.2661 15.3184H8.30811C8.12354 15.3184 7.96973 15.2585 7.84668 15.1389C7.72363 15.0193 7.66211 14.8672 7.66211 14.6826C7.66211 14.5117 7.72363 14.3665 7.84668 14.2468C7.96973 14.1272 8.12354 14.0674 8.30811 14.0674H9.57959V9.3916H8.45166C8.27393 9.3916 8.12183 9.33179 7.99536 9.21216C7.8689 9.09253 7.80566 8.94043 7.80566 8.75586C7.80566 8.58496 7.8689 8.4397 7.99536 8.32007C8.12183 8.20044 8.27393 8.14062 8.45166 8.14062H10.2974C10.5229 8.14062 10.6938 8.21411 10.8101 8.36108C10.9263 8.50806 10.9844 8.69775 10.9844 8.93018V14.0674H12.2661C12.4438 14.0674 12.5959 14.1272 12.7224 14.2468C12.8489 14.3665 12.9121 14.5117 12.9121 14.6826C12.9121 14.8672 12.8489 15.0193 12.7224 15.1389Z" fill="#FF9933"/>
</svg>
