<svg width="28" height="28" viewBox="0 0 28 28" fill="none" xmlns="http://www.w3.org/2000/svg">
<path fill-rule="evenodd" clip-rule="evenodd" d="M21.207 22.2393C22.7891 22.2393 23.7031 21.3252 23.7031 19.5146V9.81152C23.7031 8.00977 22.7803 7.0957 20.9434 7.0957H6.79297C5.21094 7.0957 4.29688 8.00098 4.29688 9.81152V19.5146C4.29688 21.334 5.21973 22.2393 7.05664 22.2393H21.207ZM14.0176 15.6562C13.666 15.6562 13.3232 15.4805 12.9541 15.1113L6.31836 8.56348C6.51172 8.48438 6.74023 8.44043 7.00391 8.44043H20.9961C21.2686 8.44043 21.5059 8.48438 21.6992 8.57227L15.0811 15.1113C14.7031 15.4893 14.3604 15.6562 14.0176 15.6562ZM5.6416 19.5146C5.6416 19.5674 5.6416 19.6201 5.65039 19.6641L10.6953 14.6807L5.6416 9.71484V19.5146ZM22.3584 19.6377L17.3398 14.6807L22.3584 9.74121V19.6377ZM7.00391 20.8945H20.9961C21.251 20.8945 21.4707 20.8594 21.6641 20.7715L16.417 15.5859L15.8457 16.1484C15.2305 16.7549 14.6328 17.0098 14.0176 17.0098C13.3936 17.0098 12.8047 16.7549 12.1895 16.1484L11.6182 15.5859L6.3623 20.7803C6.54688 20.8594 6.75781 20.8945 7.00391 20.8945Z" fill="#FF9933"/>
</svg>
