<svg width="28" height="28" viewBox="0 0 28 28" fill="none" xmlns="http://www.w3.org/2000/svg">
<path fill-rule="evenodd" clip-rule="evenodd" d="M13.8615 4.6709C9.85225 4.6709 5.88399 6.93701 4.26387 11.6128C4.15107 11.9307 3.8332 12.0332 3.59736 11.9409C3.35127 11.8384 3.20772 11.5513 3.35127 11.1514C5.16621 6.14746 9.38057 3.71729 13.8615 3.71729C15.9021 3.71729 17.4812 4.1582 18.8757 5.05029C19.1013 5.19385 19.2551 5.37842 19.1218 5.67578C19.009 5.95264 18.6809 5.9834 18.404 5.80908C17.2556 5.10156 15.7893 4.6709 13.8615 4.6709ZM25.0485 14.9761C25.0793 15.2734 24.8742 15.499 24.6076 15.499C24.3308 15.499 24.1564 15.2734 24.1359 14.9966C23.7976 11.377 22.362 8.90576 20.2805 7.00879C20.0344 6.79346 20.0446 6.49609 20.2189 6.32178C20.3728 6.14746 20.6701 6.1167 20.906 6.32178C23.2028 8.28027 24.6384 11.0283 25.0485 14.9761ZM21.8903 22.2153C22.3312 20.9849 22.7209 19.1904 22.7209 16.9243C22.7209 10.6182 19.2551 6.26025 13.7385 6.26025C9.25752 6.26025 5.49434 10.0234 5.49434 14.4839C5.49434 15.4379 5.69404 16.2179 5.87139 16.9107C6.01048 17.454 6.13583 17.9436 6.14033 18.4214C6.14033 19.1084 5.86348 19.7954 5.37129 20.2261C5.16621 20.4004 5.13545 20.6978 5.26875 20.9028C5.42256 21.1284 5.75068 21.1797 5.98652 20.9746C6.7043 20.3799 7.06318 19.3853 7.05293 18.4214C7.04815 17.7515 6.91386 17.2469 6.77198 16.7137C6.6098 16.1042 6.4377 15.4574 6.4377 14.4839C6.4377 10.5361 9.78047 7.19336 13.7385 7.19336C18.6809 7.19336 21.757 11.1616 21.7775 16.9346C21.7878 19.0776 21.4494 20.7285 21.0187 21.8257C20.906 22.1025 21.0187 22.3794 21.2443 22.4819C21.4699 22.5845 21.7878 22.5024 21.8903 22.2153ZM9.66768 17.4268C9.77022 17.7036 9.66768 17.9805 9.42158 18.083C9.13447 18.1958 8.87813 18.0728 8.75508 17.7856C8.34492 16.7808 8.03731 15.7349 8.03731 14.6172C8.03731 11.2744 10.529 8.78271 13.8615 8.78271C14.8869 8.78271 15.9021 9.06982 16.6301 9.521C16.9582 9.71582 16.989 10.0132 16.8659 10.2285C16.7634 10.4131 16.5173 10.4951 16.2507 10.3618C15.4099 9.90039 14.8767 9.72607 13.8615 9.72607C11.052 9.72607 8.98066 11.7974 8.98066 14.6172C8.98066 15.6493 9.32804 16.5478 9.60772 17.2713L9.66768 17.4268ZM18.1682 24.5635C19.4294 22.8511 20.1882 20.2158 20.1882 17.4985C20.1882 14.6787 19.573 12.6997 18.6296 11.2026C18.445 10.9053 18.1477 10.8438 17.9221 10.9668C17.676 11.1001 17.6042 11.4077 17.7888 11.6948C18.7731 13.1304 19.2551 15.1914 19.2551 17.5293C19.2551 20.021 18.5783 22.4204 17.4401 23.9072C17.2863 24.1123 17.2556 24.4097 17.4401 24.5942C17.635 24.7891 17.9938 24.7891 18.1682 24.5635ZM17.5427 17.3345C17.5529 20.7285 16.2712 23.8354 14.6511 25.312C14.4255 25.5171 14.0974 25.4658 13.9436 25.2505C13.8 25.0454 13.841 24.7891 14.0358 24.6147C15.5534 23.251 16.7121 20.6157 16.6506 17.396C16.6096 14.4121 15.82 12.269 13.8103 12.269C12.467 12.269 11.5236 13.1611 11.5236 14.4941C11.5236 14.9328 11.6428 15.389 11.7788 15.9096C11.9544 16.5818 12.1581 17.3615 12.1696 18.3496C12.1799 20.6875 11.2775 22.7793 9.64717 24.0918C9.41133 24.2969 9.10371 24.2559 8.93965 24.02C8.79609 23.8149 8.8166 23.5381 9.0627 23.3433C10.4572 22.2051 11.2365 20.4004 11.2263 18.3496C11.2155 17.6035 11.0446 16.8657 10.8842 16.1732C10.7381 15.5429 10.6008 14.95 10.6008 14.4224C10.6008 12.5664 11.9851 11.3359 13.8103 11.3359C16.4763 11.3359 17.5324 13.7969 17.5427 17.3345ZM3.97676 17.9395C4.22285 17.8574 4.35615 17.6113 4.27412 17.3037C4.00752 16.3091 3.88447 15.0581 3.91524 13.6841C3.91524 13.3867 3.75117 13.2124 3.49482 13.2021C3.1667 13.1816 2.99238 13.3867 2.97188 13.6431C2.91035 14.8223 3.01289 16.2886 3.36152 17.5703C3.45381 17.8779 3.72041 18.0112 3.97676 17.9395ZM14.4152 14.8018C14.9382 16.2476 15.0715 18.0933 14.7741 19.4058C14.7023 19.7134 14.4563 19.8774 14.1794 19.8262C13.8923 19.7749 13.7897 19.5391 13.841 19.2827C14.1076 18.0522 13.9948 16.4629 13.4821 15.0581C13.3898 14.771 13.5334 14.5249 13.7795 14.4429C14.0461 14.3608 14.2922 14.4634 14.4152 14.8018ZM7.52461 22.7588C8.27315 22.3691 9.30879 21.0566 9.57539 19.98C9.64717 19.7236 9.51387 19.457 9.25752 19.375C9.02168 19.3032 8.77559 19.4365 8.6833 19.7134C8.40645 20.6978 7.83223 21.4053 7.09395 21.9077C6.78633 22.123 6.75557 22.3999 6.85811 22.5947C6.96065 22.7998 7.22725 22.9126 7.52461 22.7588ZM14.1999 21.6616C13.718 23.1177 12.7849 24.3174 11.9748 24.9121C11.7287 25.0967 11.4108 25.0659 11.2673 24.8198C11.1237 24.6045 11.1853 24.3174 11.4006 24.1533C12.1081 23.6201 12.7849 22.7793 13.3386 21.3232C13.4206 21.0874 13.677 20.9644 13.9436 21.0566C14.2102 21.1387 14.2614 21.436 14.1999 21.6616Z" fill="#FF9933"/>
</svg>
