<svg width="20" height="20" viewBox="0 0 20 20" fill="none" xmlns="http://www.w3.org/2000/svg">
<g clip-path="url(#clip0_5838_48282)">
<path d="M5.77621 0.0023103C10.4791 0.0023103 15.1819 0.0015402 19.8848 0C19.9787 0 20.0003 0.0210815 20.0003 0.115515C19.9978 5.02703 19.9971 9.93834 19.998 14.8495C19.9258 14.8255 19.9114 14.8965 19.8825 14.9286C19.415 15.4271 18.8781 15.8556 18.2884 16.201C16.9817 16.9755 15.5557 17.3908 14.0616 17.5944C12.7557 17.7732 11.431 17.7656 10.1272 17.5719C8.60076 17.3463 7.15282 16.8973 5.838 16.0661C5.81855 16.0513 5.79537 16.0422 5.77105 16.0398C5.74673 16.0374 5.72222 16.0418 5.70026 16.0526C4.90091 16.3876 4.07414 16.5591 3.20376 16.4701C3.09575 16.3907 3.16939 16.3292 3.22455 16.268C3.60285 15.8438 3.84918 15.3574 3.91531 14.7885C3.94881 14.4997 3.9078 14.2367 3.73482 13.9834C3.25718 13.2845 2.91642 12.5161 2.66634 11.7101C2.19877 10.2117 2.02204 8.63774 2.14567 7.07299C2.24761 5.72955 2.53899 4.43376 3.09864 3.20323C3.5835 2.13934 4.24163 1.20396 5.15879 0.465237C5.36065 0.305537 5.57088 0.156812 5.77621 0.0023103ZM7.38009 7.45477C7.35121 7.49491 7.32926 7.52523 7.30616 7.55382C6.48295 8.57921 5.65877 9.60402 4.83363 10.6283C4.67666 10.8139 4.59431 11.0512 4.60261 11.2942C4.60492 11.4063 4.63148 11.4406 4.747 11.4403C5.88363 11.436 7.02027 11.4377 8.1569 11.4377C8.1904 11.4377 8.2239 11.4377 8.25682 11.4351C8.46243 11.4161 8.58199 11.2925 8.59152 11.0854C8.59585 10.9898 8.58487 10.8931 8.59498 10.7984C8.60798 10.6805 8.56235 10.654 8.45059 10.654C7.61313 10.6583 6.77567 10.6566 5.93994 10.6557C5.89663 10.6557 5.85013 10.669 5.79786 10.6346C5.82674 10.5971 5.85071 10.561 5.87786 10.5266C6.11042 10.233 6.34318 9.9396 6.57612 9.64638C7.1635 8.90622 7.74626 8.16259 8.34086 7.42878C8.5199 7.20785 8.59325 6.96672 8.59498 6.69179C8.59498 6.62104 8.57303 6.5988 8.50228 6.59909C7.27382 6.60082 6.04554 6.60082 4.81746 6.59909C4.73949 6.59909 4.71783 6.6245 4.71956 6.6993C4.7236 6.89914 4.72794 7.09927 4.71812 7.29882C4.71263 7.41203 4.75075 7.43686 4.85846 7.436C5.63297 7.43138 6.40719 7.4334 7.1817 7.43398C7.24118 7.43369 7.30414 7.42445 7.38009 7.45477ZM11.782 11.1024C11.8559 11.3658 11.9497 11.436 12.2215 11.4374C12.3006 11.4374 12.38 11.4328 12.4589 11.4389C12.5455 11.4455 12.5726 11.412 12.5715 11.3251C12.5671 10.9878 12.5695 10.6505 12.5695 10.3143C12.5695 9.51036 12.5695 8.70666 12.5715 7.90268C12.5715 7.80911 12.5541 7.76753 12.4493 7.77474C12.3084 7.78428 12.1663 7.77706 12.0245 7.77706C11.8059 7.77706 11.8059 7.77706 11.7935 7.9922C11.7935 7.99798 11.7843 8.00346 11.7733 8.01588C11.369 7.74211 10.9231 7.62342 10.436 7.69129C9.95873 7.75114 9.52462 7.99753 9.22856 8.37658C8.67555 9.06794 8.66833 10.0328 9.202 10.714C9.47188 11.0689 9.86032 11.3149 10.2965 11.4071C10.8348 11.5247 11.3263 11.4022 11.782 11.1024ZM16.5127 7.64826C15.4665 7.64826 14.6068 8.51289 14.6068 9.56119C14.6068 10.6052 15.4679 11.473 16.5012 11.473C17.009 11.4731 17.4961 11.2717 17.8554 10.9129C18.2147 10.5541 18.4169 10.0673 18.4175 9.55945C18.4158 8.50711 17.559 7.64768 16.5127 7.64826ZM14.0581 8.99949C14.0581 8.22092 14.0581 7.44245 14.0581 6.66407C14.0581 6.61122 14.0832 6.54364 13.9822 6.54566C13.7575 6.55028 13.5325 6.54855 13.3076 6.54566C13.2466 6.54566 13.2284 6.56819 13.2296 6.62652C13.2328 6.75128 13.2296 6.87633 13.2296 7.00195C13.2296 8.36349 13.2296 9.72493 13.2296 11.0863C13.2296 11.3355 13.3298 11.4357 13.5761 11.4377C13.6917 11.4377 13.8098 11.4317 13.9258 11.4398C14.0269 11.4467 14.0601 11.4184 14.0593 11.3107C14.057 10.5402 14.0593 9.76882 14.0593 8.99949H14.0581Z" fill="#FDFEFE"/>
<path d="M5.77556 0.00200441C5.57024 0.156506 5.36001 0.305232 5.16017 0.466087C4.24301 1.20481 3.58488 2.14106 3.10002 3.20408C2.53921 4.43345 2.24784 5.72924 2.14705 7.07384C2.02215 8.63772 2.19731 10.2111 2.6631 11.7092C2.91434 12.5152 3.2551 13.2836 3.73158 13.9825C3.90485 14.2358 3.94557 14.4997 3.91207 14.7877C3.84594 15.3566 3.59961 15.8429 3.22131 16.2671C3.16615 16.3289 3.09252 16.3904 3.20052 16.4693C3.25683 16.523 3.31603 16.5744 3.36974 16.6304C3.59268 16.8597 3.8136 17.0925 4.03596 17.3209C4.32474 17.6181 4.61351 17.9138 4.89969 18.2115C5.26818 18.5945 5.63579 18.9782 6.00254 19.3626C6.17754 19.5455 6.35254 19.7284 6.52754 19.9113C6.55065 19.9359 6.57519 19.9587 6.57404 19.9959C4.41647 19.9959 2.25881 19.9967 0.101052 19.9983C0.014418 19.9983 -0.00146484 19.9815 -0.00146484 19.896C0.00103791 13.2976 0.00103791 6.69919 -0.00146484 0.10077C-0.00146484 0.0141335 0.0152844 -0.0017498 0.101052 -0.00146101C1.99275 0.00219697 3.88425 0.00335209 5.77556 0.00200441Z" fill="#0068FE"/>
<path d="M6.57567 19.9973C6.57567 19.9601 6.55228 19.9373 6.52918 19.9127C6.35379 19.7298 6.17879 19.5469 6.00417 19.364C5.63685 18.9799 5.26923 18.5962 4.90133 18.2129C4.61457 17.9152 4.32377 17.6194 4.03759 17.3223C3.81523 17.0912 3.59431 16.8602 3.37137 16.6318C3.31708 16.5758 3.25846 16.5244 3.20215 16.4706C4.07253 16.5596 4.8993 16.388 5.69865 16.053C5.72061 16.0423 5.74512 16.0379 5.76944 16.0403C5.79376 16.0427 5.81694 16.0518 5.83639 16.0666C7.15034 16.8978 8.59915 17.3468 10.1256 17.5724C11.4294 17.7661 12.7541 17.7737 14.06 17.5949C15.5541 17.3913 16.9801 16.976 18.2868 16.2015C18.877 15.8559 19.4142 15.4271 19.882 14.9282C19.9109 14.8962 19.9251 14.8251 19.9976 14.8491C19.9976 16.5268 19.9986 18.2044 20.0007 19.8821C20.0007 19.9892 19.9719 20.0005 19.876 20.0002C15.4424 19.9973 11.009 19.9964 6.57567 19.9973Z" fill="#015BDF"/>
<path d="M7.37968 7.4546C7.30373 7.42428 7.24078 7.43352 7.17927 7.43352C6.40476 7.43352 5.63054 7.43092 4.85604 7.43554C4.74832 7.43554 4.7102 7.41157 4.71569 7.29837C4.72551 7.09882 4.72118 6.89869 4.71714 6.69884C4.7154 6.62405 4.73706 6.59835 4.81503 6.59864C6.0433 6.60075 7.27158 6.60075 8.49985 6.59864C8.5706 6.59864 8.59313 6.62058 8.59255 6.69134C8.59082 6.96626 8.51747 7.2074 8.33842 7.42832C7.74383 8.16213 7.16107 8.90576 6.5737 9.64593C6.34094 9.93953 6.10818 10.233 5.87543 10.5264C5.84828 10.5608 5.82316 10.5969 5.79544 10.6345C5.84771 10.6688 5.8942 10.6555 5.93752 10.6555C6.77497 10.6555 7.61243 10.6581 8.44816 10.6538C8.56107 10.6538 8.6067 10.6804 8.59255 10.7982C8.58244 10.8929 8.59255 10.9897 8.58908 11.0852C8.57956 11.2923 8.46 11.4159 8.25439 11.435C8.22147 11.4379 8.18797 11.4376 8.15447 11.4376C7.01784 11.4376 5.8812 11.4358 4.74457 11.4402C4.62906 11.4402 4.60249 11.4061 4.60018 11.294C4.59189 11.0511 4.67423 10.8137 4.8312 10.6281C5.65904 9.60636 6.48321 8.58155 7.30373 7.55366C7.32885 7.52507 7.34993 7.49474 7.37968 7.4546Z" fill="#0468FB"/>
<path d="M11.7815 11.1025C11.3258 11.4023 10.8343 11.5247 10.2954 11.4063C9.85928 11.314 9.47084 11.0681 9.20096 10.7132C8.66729 10.032 8.67451 9.06713 9.22753 8.37577C9.52343 7.99639 9.95756 7.74968 10.4349 7.68961C10.9221 7.62174 11.3674 7.74043 11.7722 8.01421C11.7832 8.00179 11.7922 7.9963 11.7925 7.99053C11.8055 7.77538 11.8055 7.77538 12.0235 7.77538C12.1653 7.77538 12.3074 7.7826 12.4483 7.77307C12.5531 7.76585 12.5707 7.80743 12.5704 7.901C12.5673 8.70499 12.5684 9.50868 12.5684 10.3127C12.5684 10.65 12.5661 10.9873 12.5704 11.3234C12.5704 11.4101 12.5456 11.4438 12.4578 11.4372C12.379 11.4311 12.2996 11.4372 12.2204 11.4358C11.9493 11.4361 11.8554 11.3659 11.7815 11.1025ZM9.58446 9.55951C9.58526 9.77812 9.6509 9.99158 9.77305 10.1729C9.89521 10.3542 10.0684 10.4952 10.2707 10.578C10.473 10.6608 10.6954 10.6818 10.9096 10.6382C11.1238 10.5946 11.3203 10.4884 11.4741 10.3331C11.628 10.1779 11.7324 9.98041 11.774 9.7658C11.8156 9.55118 11.7926 9.32904 11.7079 9.12749C11.6233 8.92594 11.4807 8.75404 11.2983 8.63354C11.1159 8.51305 10.9019 8.44937 10.6833 8.45056C10.3909 8.45315 10.1114 8.57114 9.90558 8.77884C9.69979 8.98653 9.58437 9.26712 9.58446 9.55951Z" fill="#0569FB"/>
<path d="M16.5126 7.64844C17.5588 7.64844 18.4156 8.50729 18.4185 9.55963C18.4178 10.0675 18.2155 10.5544 17.856 10.9131C17.4965 11.2719 17.0092 11.4732 16.5013 11.4728C15.4681 11.4728 14.6081 10.605 14.6069 9.56108C14.6058 8.51307 15.4663 7.64902 16.5126 7.64844ZM17.6284 9.56194C17.6277 9.34135 17.5617 9.1259 17.4387 8.94281C17.3156 8.75972 17.1411 8.6172 16.9371 8.53324C16.7331 8.44929 16.5088 8.42766 16.2925 8.47109C16.0763 8.51453 15.8777 8.62108 15.722 8.77728C15.5662 8.93349 15.4602 9.13235 15.4174 9.34875C15.3746 9.56515 15.3968 9.78939 15.4814 9.99314C15.5659 10.1969 15.7089 10.371 15.8924 10.4936C16.0758 10.6161 16.2914 10.6815 16.512 10.6816C16.6593 10.6829 16.8053 10.6548 16.9415 10.599C17.0778 10.5431 17.2015 10.4607 17.3055 10.3564C17.4095 10.2521 17.4916 10.1281 17.547 9.99171C17.6025 9.8553 17.6302 9.70919 17.6284 9.56194Z" fill="#0568FB"/>
<path d="M14.059 8.99967C14.059 9.76986 14.0567 10.5403 14.0616 11.31C14.0616 11.4177 14.0292 11.446 13.9282 11.4391C13.8127 11.431 13.6951 11.4391 13.5785 11.437C13.3319 11.435 13.2319 11.3348 13.2319 11.0856C13.2319 9.72424 13.2319 8.36279 13.2319 7.00125C13.2319 6.8765 13.234 6.75145 13.2319 6.62583C13.2319 6.56807 13.249 6.5441 13.3099 6.54497C13.5349 6.54728 13.7598 6.54901 13.9845 6.54497C14.0856 6.54294 14.0601 6.61052 14.0604 6.66337C14.0599 7.44252 14.0594 8.22128 14.059 8.99967Z" fill="#0569FB"/>
<path d="M9.58449 9.5593C9.58597 9.34126 9.65194 9.12853 9.77408 8.9479C9.89621 8.76727 10.0691 8.62682 10.2709 8.54423C10.4727 8.46165 10.6944 8.44062 10.9081 8.48379C11.1218 8.52696 11.318 8.63241 11.4719 8.78685C11.6259 8.9413 11.7306 9.13783 11.7731 9.35171C11.8155 9.56558 11.7938 9.78724 11.7105 9.98876C11.6272 10.1903 11.4862 10.3627 11.3051 10.4842C11.1241 10.6057 10.9112 10.671 10.6931 10.6717C10.5471 10.6721 10.4025 10.6435 10.2676 10.5877C10.1327 10.5318 10.0102 10.4499 9.9071 10.3464C9.80404 10.243 9.72247 10.1202 9.6671 9.98513C9.61173 9.85003 9.58365 9.7053 9.58449 9.5593Z" fill="#FBFDFE"/>
<path d="M17.6283 9.56181C17.6272 9.78241 17.5609 9.99777 17.4375 10.1807C17.3142 10.3636 17.1394 10.5058 16.9353 10.5895C16.7311 10.6731 16.5068 10.6944 16.2906 10.6506C16.0744 10.6068 15.876 10.4999 15.7205 10.3434C15.565 10.1869 15.4593 9.98788 15.4169 9.77139C15.3744 9.55491 15.3971 9.3307 15.482 9.12708C15.5668 8.92346 15.7102 8.74956 15.8938 8.62735C16.0775 8.50514 16.2933 8.4401 16.5139 8.44044C16.661 8.43982 16.8067 8.46845 16.9427 8.52467C17.0786 8.58089 17.202 8.66358 17.3057 8.76792C17.4094 8.87227 17.4913 8.99619 17.5467 9.13248C17.6021 9.26877 17.6298 9.41471 17.6283 9.56181Z" fill="#FBFDFE"/>
</g>
<defs>
<clipPath id="clip0_5838_48282">
<rect width="20" height="20" fill="white"/>
</clipPath>
</defs>
</svg>
