<svg width="18" height="19" viewBox="0 0 18 19" fill="none" xmlns="http://www.w3.org/2000/svg">
<path fill-rule="evenodd" clip-rule="evenodd" d="M9.71191 8.81934C9.71191 9.25879 9.42188 9.56641 9 9.56641C8.57812 9.56641 8.29688 9.25879 8.29688 8.81934V0.926758C8.29688 0.478516 8.57812 0.179688 9 0.179688C9.42188 0.179688 9.71191 0.478516 9.71191 0.926758V8.81934ZM17.9648 9.6543C17.9648 14.5498 13.9043 18.6191 9 18.6191C4.10449 18.6191 0.0351562 14.5498 0.0351562 9.6543C0.0351562 6.95605 1.25684 4.60938 2.95312 3.07129C3.72656 2.36816 4.72852 3.40527 3.95508 4.14355C2.46973 5.50586 1.54688 7.44824 1.53809 9.6543C1.53809 13.8027 4.85156 17.125 9 17.125C13.1484 17.125 16.4795 13.8027 16.4707 9.6543C16.4619 7.46582 15.5391 5.51465 14.0449 4.15234C13.2803 3.42285 14.2734 2.37695 15.0469 3.08008C16.7344 4.61816 17.9648 6.95605 17.9648 9.6543Z" fill="#FF9933"/>
</svg>
