<svg width="17" height="19" viewBox="0 0 17 19" fill="none" xmlns="http://www.w3.org/2000/svg">
<path fill-rule="evenodd" clip-rule="evenodd" d="M8.49561 18.7334C10.3589 18.7334 11.686 17.2568 11.7563 15.5518H15.4653C16.2915 15.5518 16.7925 15.1299 16.7925 14.4883C16.7925 13.7134 16.0956 13.0068 15.4127 12.3143C15.321 12.2214 15.2296 12.1287 15.1401 12.0361C14.5601 11.4297 14.4019 10.1816 14.3315 9.1709C14.27 5.70801 13.3735 3.47559 11.0356 2.63184C10.7368 1.48047 9.79639 0.575195 8.49561 0.575195C7.20361 0.575195 6.25439 1.48047 5.96436 2.63184C3.62646 3.47559 2.72998 5.70801 2.66846 9.1709C2.59814 10.1816 2.43994 11.4297 1.85986 12.0361C1.77966 12.1182 1.6981 12.2003 1.61635 12.2827L1.61621 12.2828C0.918664 12.9854 0.20752 13.7016 0.20752 14.4883C0.20752 15.1299 0.699707 15.5518 1.53467 15.5518H5.24365C5.31396 17.248 6.64111 18.7334 8.49561 18.7334ZM1.9126 14.2246V14.1191C2.01743 13.9502 2.28434 13.6656 2.58547 13.3444C2.73879 13.1809 2.90099 13.0079 3.05518 12.8359C3.68799 12.1328 3.98682 10.999 4.06592 9.28516C4.13623 5.44434 5.27881 4.22266 6.78174 3.80957C7.00146 3.75684 7.12451 3.65137 7.1333 3.42285C7.15967 2.50879 7.68701 1.86719 8.49561 1.86719C9.31299 1.86719 9.83154 2.50879 9.8667 3.42285C9.87549 3.65137 9.98975 3.75684 10.2095 3.80957C11.7212 4.22266 12.8638 5.44434 12.9341 9.28516C13.0132 10.999 13.312 12.1328 13.936 12.8359C14.0677 12.98 14.2036 13.1248 14.3343 13.2641C14.6662 13.6178 14.9651 13.9363 15.0786 14.1191V14.2246H1.9126ZM6.61475 15.5518C6.67627 16.7471 7.44092 17.4941 8.49561 17.4941C9.55908 17.4941 10.3149 16.7471 10.3853 15.5518H6.61475Z" fill="#FF9933"/>
</svg>
