<svg width="16" height="20" viewBox="0 0 16 20" fill="none" xmlns="http://www.w3.org/2000/svg">
<path fill-rule="evenodd" clip-rule="evenodd" d="M15.3916 18.373C15.3916 18.7686 15.0752 19.0762 14.6885 19.0762H3.30664C1.52246 19.0762 0.608398 18.1709 0.608398 16.3604V3.00098C0.608398 1.16406 1.51367 0.241211 3.33301 0.241211H12.667C14.4863 0.241211 15.3916 1.17285 15.3916 3.00098V13.082C15.3916 13.9609 14.9873 14.3916 14.6533 14.7256C13.5635 15.8242 13.792 17.2568 14.8994 17.6963C15.1807 17.793 15.3916 18.0654 15.3916 18.373ZM4.21191 13.6357H13.2119C13.7041 13.6357 13.9766 13.3633 13.9766 12.8887V3.02734C13.9766 2.14844 13.5107 1.65625 12.5967 1.65625H4.21191V13.6357ZM2.02344 13.9961V3.02734C2.02344 2.2627 2.375 1.79688 3.06055 1.68262V13.6533C2.65625 13.6973 2.32227 13.8115 2.02344 13.9961ZM3.38574 17.6611H12.9131C12.4473 16.9053 12.377 15.9385 12.79 15.0244C12.7021 15.042 12.5967 15.0508 12.4824 15.0508H3.46484C2.58594 15.0508 2.02344 15.5605 2.02344 16.3516C2.02344 17.1865 2.49805 17.6611 3.38574 17.6611Z" fill="#FF9933"/>
</svg>
