<svg width="28" height="28" viewBox="0 0 28 28" fill="none" xmlns="http://www.w3.org/2000/svg">
<path fill-rule="evenodd" clip-rule="evenodd" d="M17.7607 23.9531C19.1934 23.9531 20.1514 23.0391 20.1514 21.668V7.63184C20.1514 6.26074 19.1934 5.34668 17.7607 5.34668H11.2393C9.80664 5.34668 8.84863 6.26074 8.84863 7.63184V15.0059C9.08594 14.9795 9.32324 14.9619 9.55176 14.9619C9.78906 14.9619 10.0264 14.9795 10.2637 15.0146V7.86035C10.2637 7.15723 10.6768 6.76172 11.4238 6.76172H17.585C18.3232 6.76172 18.7363 7.15723 18.7363 7.86035V21.4395C18.7363 22.1426 18.3232 22.5381 17.585 22.5381H14.8691C14.7021 23.0742 14.4473 23.54 14.1572 23.9531H17.7607ZM12.6719 9.50391C12.8652 9.50391 13.0146 9.37207 13.0146 9.17871V8.33496C13.0146 8.1416 12.8652 8.00977 12.6719 8.00977H11.8457C11.6523 8.00977 11.5205 8.1416 11.5205 8.33496V9.17871C11.5205 9.37207 11.6523 9.50391 11.8457 9.50391H12.6719ZM15.2471 9.17871C15.2471 9.37207 15.0977 9.50391 14.9043 9.50391H14.0693C13.8848 9.50391 13.7529 9.37207 13.7529 9.17871V8.33496C13.7529 8.1416 13.8848 8.00977 14.0693 8.00977H14.9043C15.0977 8.00977 15.2471 8.1416 15.2471 8.33496V9.17871ZM17.1279 9.50391C17.3301 9.50391 17.4707 9.37207 17.4707 9.17871V8.33496C17.4707 8.1416 17.3301 8.00977 17.1279 8.00977H16.3018C16.1172 8.00977 15.9854 8.1416 15.9854 8.33496V9.17871C15.9854 9.37207 16.1172 9.50391 16.3018 9.50391H17.1279ZM13.0146 11.5693C13.0146 11.7539 12.8652 11.8857 12.6719 11.8857H11.8457C11.6523 11.8857 11.5205 11.7539 11.5205 11.5693V10.7168C11.5205 10.5234 11.6523 10.3916 11.8457 10.3916H12.6719C12.8652 10.3916 13.0146 10.5234 13.0146 10.7168V11.5693ZM14.9043 11.8857C15.0977 11.8857 15.2471 11.7539 15.2471 11.5693V10.7168C15.2471 10.5234 15.0977 10.3916 14.9043 10.3916H14.0693C13.8848 10.3916 13.7529 10.5234 13.7529 10.7168V11.5693C13.7529 11.7539 13.8848 11.8857 14.0693 11.8857H14.9043ZM17.4707 11.5693C17.4707 11.7539 17.3301 11.8857 17.1279 11.8857H16.3018C16.1172 11.8857 15.9854 11.7539 15.9854 11.5693V10.7168C15.9854 10.5234 16.1172 10.3916 16.3018 10.3916H17.1279C17.3301 10.3916 17.4707 10.5234 17.4707 10.7168V11.5693ZM12.6719 14.2764C12.8652 14.2764 13.0146 14.1445 13.0146 13.9512V13.1074C13.0146 12.9141 12.8652 12.7822 12.6719 12.7822H11.8457C11.6523 12.7822 11.5205 12.9141 11.5205 13.1074V13.9512C11.5205 14.1445 11.6523 14.2764 11.8457 14.2764H12.6719ZM15.2471 13.9512C15.2471 14.1445 15.0977 14.2764 14.9043 14.2764H14.0693C13.8848 14.2764 13.7529 14.1445 13.7529 13.9512V13.1074C13.7529 12.9141 13.8848 12.7822 14.0693 12.7822H14.9043C15.0977 12.7822 15.2471 12.9141 15.2471 13.1074V13.9512ZM9.54297 25.1133C11.9688 25.1133 14.0166 23.0918 14.0166 20.6484C14.0166 18.1963 11.9951 16.1836 9.54297 16.1836C7.09961 16.1836 5.07812 18.2051 5.07812 20.6484C5.07812 23.1094 7.09961 25.1133 9.54297 25.1133ZM9.00684 22.9072C9.00684 23.2324 9.21777 23.4434 9.54297 23.4434C9.87695 23.4434 10.0879 23.2324 10.0879 22.9072V21.1846H11.8018C12.127 21.1846 12.3379 20.9736 12.3379 20.6484C12.3379 20.3232 12.127 20.1123 11.8018 20.1123H10.0879V18.3896C10.0879 18.0732 9.87695 17.8535 9.54297 17.8535C9.21777 17.8535 9.00684 18.0732 9.00684 18.3896V20.1123H7.29297C6.96777 20.1123 6.74805 20.3232 6.74805 20.6484C6.74805 20.9736 6.96777 21.1846 7.29297 21.1846H9.00684V22.9072Z" fill="#FF9933"/>
</svg>
