<svg width="28" height="28" viewBox="0 0 28 28" fill="none" xmlns="http://www.w3.org/2000/svg">
<path fill-rule="evenodd" clip-rule="evenodd" d="M14.0205 24.8198C15.3672 24.8198 16.6318 24.5635 17.8145 24.0508C18.9971 23.5381 20.0413 22.8306 20.947 21.9282C21.8528 21.0259 22.562 19.9817 23.0747 18.7957C23.5874 17.6096 23.8438 16.3433 23.8438 14.9966C23.8438 13.6567 23.5857 12.3938 23.0696 11.2078C22.5535 10.0217 21.8425 8.97583 20.9368 8.07007C20.031 7.16431 18.9868 6.45508 17.8042 5.94238C16.6216 5.42969 15.3569 5.17334 14.0103 5.17334C12.6704 5.17334 11.4092 5.42969 10.2266 5.94238C9.04395 6.45508 7.99976 7.16431 7.09399 8.07007C6.18823 8.97583 5.479 10.0217 4.96631 11.2078C4.45361 12.3938 4.19727 13.6567 4.19727 14.9966C4.19727 16.3433 4.45532 17.6096 4.97144 18.7957C5.48755 19.9817 6.19678 21.0259 7.09912 21.9282C8.00146 22.8306 9.04395 23.5381 10.2266 24.0508C11.4092 24.5635 12.6738 24.8198 14.0205 24.8198ZM14.0205 23.333C12.8652 23.333 11.7834 23.1177 10.7751 22.687C9.76685 22.2563 8.8833 21.6599 8.12451 20.8977C7.36572 20.1355 6.77271 19.2502 6.34546 18.2419C5.91821 17.2336 5.70459 16.1519 5.70459 14.9966C5.70459 13.8481 5.91821 12.7698 6.34546 11.7615C6.77271 10.7532 7.36572 9.86792 8.12451 9.10571C8.8833 8.34351 9.76514 7.74707 10.77 7.31641C11.7749 6.88574 12.855 6.67041 14.0103 6.67041C15.1724 6.67041 16.2559 6.88574 17.2607 7.31641C18.2656 7.74707 19.1492 8.34351 19.9114 9.10571C20.6736 9.86792 21.27 10.7532 21.7007 11.7615C22.1313 12.7698 22.3467 13.8481 22.3467 14.9966C22.3535 16.1519 22.1416 17.2336 21.7109 18.2419C21.2803 19.2502 20.6838 20.1355 19.9216 20.8977C19.1594 21.6599 18.2742 22.2563 17.2659 22.687C16.2576 23.1177 15.1758 23.333 14.0205 23.333ZM12.7695 19.7544C12.6533 19.8774 12.4961 19.9424 12.2979 19.9492C12.0996 19.9561 11.9458 19.8979 11.8364 19.7749C11.6997 19.645 11.6313 19.4861 11.6313 19.2981C11.6313 19.1101 11.6963 18.9546 11.8262 18.8315L15.8765 14.9966L11.8262 11.1719C11.6963 11.042 11.6331 10.8848 11.6365 10.7002C11.6399 10.5156 11.71 10.355 11.8467 10.2183C11.9697 10.1021 12.1218 10.0474 12.303 10.0542C12.4841 10.061 12.6396 10.126 12.7695 10.249L16.8711 14.1455C17.124 14.3779 17.2488 14.665 17.2454 15.0068C17.2419 15.3486 17.1172 15.6357 16.8711 15.8682L12.7695 19.7544Z" fill="#858DA3"/>
</svg>
