<svg width="62" height="61" viewBox="0 0 62 61" fill="none" xmlns="http://www.w3.org/2000/svg">
<g filter="url(#filter0_dd)">
<path d="M25 55C13.9543 55 5 46.0457 5 35L5 23C5 11.9543 13.9543 3 25 3L37 3C48.0457 3 57 11.9543 57 23L57 35C57 46.0457 48.0457 55 37 55L25 55Z" fill="#F8F9FA" stroke="url(#paint0_linear)"/>
</g>
<g clip-path="url(#clip0)">
<path d="M41.0001 29.0346C41.0001 30.5192 39.7968 31.7226 38.3122 31.7226C36.8276 31.7226 35.6243 30.5192 35.6243 29.0346C35.6243 27.5503 36.8276 26.3467 38.3122 26.3467C39.7968 26.3467 41.0001 27.5503 41.0001 29.0346Z" fill="url(#paint1_linear)"/>
<path d="M33.6879 29.0346C33.6879 30.5192 32.4845 31.7226 31 31.7226C29.5156 31.7226 28.312 30.5192 28.312 29.0346C28.312 27.5503 29.5156 26.3467 31 26.3467C32.4845 26.3467 33.6879 27.5503 33.6879 29.0346Z" fill="url(#paint2_linear)"/>
<path d="M26.3759 29.0346C26.3759 30.5192 25.1725 31.7226 23.6879 31.7226C22.2034 31.7226 21 30.5192 21 29.0346C21 27.5503 22.2034 26.3467 23.6879 26.3467C25.1725 26.3467 26.3759 27.5503 26.3759 29.0346Z" fill="url(#paint3_linear)"/>
</g>
<defs>
<filter id="filter0_dd" x="0.9" y="0.5" width="60.2" height="60.2" filterUnits="userSpaceOnUse" color-interpolation-filters="sRGB">
<feFlood flood-opacity="0" result="BackgroundImageFix"/>
<feColorMatrix in="SourceAlpha" type="matrix" values="0 0 0 0 0 0 0 0 0 0 0 0 0 0 0 0 0 0 127 0" result="hardAlpha"/>
<feOffset dy="0.3"/>
<feGaussianBlur stdDeviation="0.45"/>
<feColorMatrix type="matrix" values="0 0 0 0 0 0 0 0 0 0 0 0 0 0 0 0 0 0 0.108 0"/>
<feBlend mode="normal" in2="BackgroundImageFix" result="effect1_dropShadow"/>
<feColorMatrix in="SourceAlpha" type="matrix" values="0 0 0 0 0 0 0 0 0 0 0 0 0 0 0 0 0 0 127 0" result="hardAlpha"/>
<feOffset dy="1.6"/>
<feGaussianBlur stdDeviation="1.8"/>
<feColorMatrix type="matrix" values="0 0 0 0 0 0 0 0 0 0 0 0 0 0 0 0 0 0 0.132 0"/>
<feBlend mode="normal" in2="effect1_dropShadow" result="effect2_dropShadow"/>
<feBlend mode="normal" in="SourceGraphic" in2="effect2_dropShadow" result="shape"/>
</filter>
<linearGradient id="paint0_linear" x1="10" y1="10.5" x2="52" y2="47.5" gradientUnits="userSpaceOnUse">
<stop stop-color="#FFD537"/>
<stop offset="1" stop-color="#F58221"/>
</linearGradient>
<linearGradient id="paint1_linear" x1="40.2248" y1="26.8636" x2="36.3996" y2="31.2056" gradientUnits="userSpaceOnUse">
<stop stop-color="#FFD537"/>
<stop offset="1" stop-color="#F58221"/>
</linearGradient>
<linearGradient id="paint2_linear" x1="32.9125" y1="26.8636" x2="29.0874" y2="31.2056" gradientUnits="userSpaceOnUse">
<stop stop-color="#FFD537"/>
<stop offset="1" stop-color="#F58221"/>
</linearGradient>
<linearGradient id="paint3_linear" x1="25.6005" y1="26.8636" x2="21.7754" y2="31.2056" gradientUnits="userSpaceOnUse">
<stop stop-color="#FFD537"/>
<stop offset="1" stop-color="#F58221"/>
</linearGradient>
<clipPath id="clip0">
<rect width="20" height="20" fill="white" transform="translate(21 19)"/>
</clipPath>
</defs>
</svg>
