<svg width="250" height="246" viewBox="0 0 250 246" fill="none" xmlns="http://www.w3.org/2000/svg">
<path d="M250 165.112H154.093V109.612H250V165.112ZM154.678 164.527H249.415V110.197H154.678V164.527Z" fill="#E0E0E0"/>
<path d="M230.215 139.206H166.938V141.061H230.215V139.206Z" fill="#F0F0F0"/>
<path d="M234.574 146.123H166.938V148.147H234.574V146.123Z" fill="#F0F0F0"/>
<path d="M234.574 153.121H166.938V155.146H234.574V153.121Z" fill="#F0F0F0"/>
<path d="M189.052 129.158H166.938V133.974H189.052V129.158Z" fill="#F0F0F0"/>
<path d="M249.707 109.905H154.403V118.741H249.707V109.905Z" fill="#E0E0E0"/>
<path d="M242.375 117.419C242.252 117.302 243.481 115.821 245.114 114.113C246.746 112.404 248.18 111.111 248.297 111.222C248.414 111.333 247.191 112.819 245.558 114.534C243.926 116.249 242.492 117.536 242.375 117.419Z" fill="white"/>
<path d="M248.309 117.419C248.192 117.536 246.764 116.249 245.125 114.534C243.487 112.819 242.264 111.339 242.387 111.222C242.51 111.105 243.932 112.392 245.57 114.113C247.209 115.833 248.42 117.302 248.309 117.419Z" fill="white"/>
<path d="M131.984 0H36.6799V54.9203H131.984V0Z" fill="#E6E6E6"/>
<path d="M112.497 29.3064H49.2205V31.1615H112.497V29.3064Z" fill="#F0F0F0"/>
<path d="M116.857 36.2234H49.2205V38.2482H116.857V36.2234Z" fill="#F0F0F0"/>
<path d="M116.857 43.2224H49.2205V45.2472H116.857V43.2224Z" fill="#F0F0F0"/>
<path d="M71.3349 19.2588H49.2205V24.0749H71.3349V19.2588Z" fill="#F0F0F0"/>
<path d="M131.984 0H36.6799V8.8364H131.984V0Z" fill="#E0E0E0"/>
<path d="M124.33 7.47286C124.207 7.36167 125.436 5.87528 127.069 4.16652C128.701 2.45776 130.135 1.16449 130.252 1.28153C130.369 1.39857 129.146 2.8791 127.513 4.58786C125.881 6.29662 124.447 7.57819 124.33 7.47286Z" fill="white"/>
<path d="M130.252 7.47289C130.135 7.58993 128.707 6.30251 127.069 4.58789C125.43 2.87328 124.207 1.3986 124.33 1.28156C124.453 1.16452 125.875 2.45194 127.513 4.16655C129.152 5.88117 130.375 7.3617 130.252 7.47289Z" fill="white"/>
<path d="M95.8896 102.022H0V46.5168H95.8896V102.022ZM0.585192 101.437H95.3044V47.102H0.585192V101.437Z" fill="#E0E0E0"/>
<path d="M76.1101 76.1157H12.8333V77.9708H76.1101V76.1157Z" fill="#F0F0F0"/>
<path d="M80.4698 83.033H12.8333V85.0577H80.4698V83.033Z" fill="#F0F0F0"/>
<path d="M80.4698 90.032H12.8333V92.0568H80.4698V90.032Z" fill="#F0F0F0"/>
<path d="M34.9477 66.0681H12.8333V70.8842H34.9477V66.0681Z" fill="#F0F0F0"/>
<path d="M95.5969 46.8096H0.29248V55.646H95.5969V46.8096Z" fill="#E0E0E0"/>
<path d="M206.555 114.739H94.0229V215.485H206.555V114.739Z" fill="#E6E6E6"/>
<path d="M99.6817 83.0037H11.5283V174.592H99.6817V83.0037Z" fill="#F0F0F0"/>
<path d="M99.6817 83.0037H11.5283V92.9812H99.6817V83.0037Z" fill="#E0E0E0"/>
<path d="M18.8082 87.8901C18.7921 88.2519 18.6702 88.6011 18.4575 88.8942C18.2448 89.1873 17.9507 89.4116 17.6117 89.539C17.2727 89.6665 16.9037 89.6917 16.5506 89.6113C16.1974 89.531 15.8757 89.3487 15.6252 89.0871C15.3747 88.8256 15.2065 88.4962 15.1416 88.1399C15.0766 87.7836 15.1177 87.416 15.2597 87.0829C15.4018 86.7497 15.6385 86.4656 15.9406 86.2658C16.2427 86.066 16.5968 85.9593 16.959 85.959C17.4598 85.9713 17.9354 86.1813 18.2819 86.5431C18.6284 86.9049 18.8176 87.3892 18.8082 87.8901Z" fill="white"/>
<path d="M26.316 87.8901C26.3011 88.2537 26.1796 88.6048 25.9666 88.8998C25.7537 89.1948 25.4587 89.4207 25.1183 89.5493C24.778 89.6779 24.4073 89.7036 24.0525 89.6232C23.6976 89.5428 23.3743 89.3598 23.1226 89.097C22.871 88.8343 22.7022 88.5033 22.6372 88.1453C22.5723 87.7873 22.614 87.4181 22.7573 87.0836C22.9005 86.7492 23.139 86.4643 23.4429 86.2643C23.7469 86.0643 24.1029 85.9581 24.4668 85.959C24.9676 85.9713 25.4432 86.1813 25.7897 86.5431C26.1362 86.905 26.3254 87.3892 26.316 87.8901Z" fill="white"/>
<path d="M33.824 87.8901C33.8091 88.2537 33.6876 88.6048 33.4747 88.8998C33.2617 89.1948 32.9667 89.4207 32.6264 89.5493C32.286 89.6779 31.9154 89.7036 31.5605 89.6232C31.2057 89.5428 30.8823 89.3598 30.6307 89.097C30.3791 88.8343 30.2103 88.5033 30.1453 88.1453C30.0803 87.7873 30.1221 87.4181 30.2653 87.0836C30.4086 86.7492 30.647 86.4643 30.951 86.2643C31.2549 86.0643 31.611 85.9581 31.9748 85.959C32.4757 85.9713 32.9513 86.1813 33.2978 86.5431C33.6443 86.905 33.8335 87.3892 33.824 87.8901Z" fill="white"/>
<path d="M237.413 20.0312H124.88V132.189H237.413V20.0312Z" fill="#F0F0F0"/>
<path d="M237.413 20.0312H124.88V33.1688H237.413V20.0312Z" fill="#E0E0E0"/>
<path d="M134.465 26.4684C134.445 26.946 134.284 27.4071 134.004 27.7943C133.724 28.1815 133.336 28.4778 132.888 28.6465C132.441 28.8151 131.954 28.8487 131.488 28.7429C131.022 28.6372 130.597 28.3969 130.266 28.0518C129.935 27.7067 129.713 27.272 129.627 26.8018C129.541 26.3315 129.595 25.8463 129.782 25.4065C129.97 24.9667 130.282 24.5917 130.681 24.3279C131.08 24.0641 131.547 23.9233 132.025 23.9229C132.686 23.9382 133.314 24.2147 133.771 24.6918C134.228 25.1688 134.478 25.8077 134.465 26.4684Z" fill="white"/>
<path d="M143.636 24.7478C143.96 25.1001 144.174 25.5401 144.25 26.0129C144.326 26.4858 144.261 26.9705 144.064 27.4069C143.866 27.8432 143.545 28.2118 143.139 28.4667C142.734 28.7216 142.262 28.8516 141.783 28.8404C141.305 28.8292 140.84 28.6774 140.447 28.4039C140.054 28.1303 139.75 27.7471 139.573 27.3021C139.396 26.857 139.354 26.3697 139.452 25.901C139.55 25.4322 139.784 25.0027 140.124 24.6659C140.601 24.212 141.239 23.9658 141.897 23.9811C142.555 23.9965 143.18 24.2722 143.636 24.7478Z" fill="white"/>
<path d="M154.233 26.4684C154.213 26.946 154.052 27.4071 153.772 27.7943C153.491 28.1815 153.103 28.4778 152.656 28.6465C152.209 28.8151 151.722 28.8487 151.256 28.7429C150.789 28.6372 150.364 28.3969 150.034 28.0518C149.703 27.7067 149.481 27.272 149.395 26.8018C149.309 26.3315 149.363 25.8463 149.55 25.4065C149.738 24.9667 150.05 24.5917 150.449 24.3279C150.848 24.0641 151.315 23.9233 151.793 23.9229C152.454 23.9382 153.081 24.2147 153.539 24.6918C153.996 25.1688 154.246 25.8077 154.233 26.4684Z" fill="white"/>
<path d="M213.104 245.242C213.104 245.324 172.468 245.395 122.358 245.395C72.2478 245.395 31.5945 245.324 31.5945 245.242C31.5945 245.161 72.2244 245.09 122.358 245.09C172.491 245.09 213.104 245.166 213.104 245.242Z" fill="#263238"/>
<path d="M173.509 173.603C164.468 167.289 162.42 155.568 162.777 145.028C162.836 143.273 162.642 141.412 163.479 139.873C164.316 138.334 166.271 137.274 167.845 138.012C169.15 138.626 169.717 140.148 170.449 141.406C171.425 143.082 172.855 144.447 174.575 145.344C175.692 145.929 177.079 146.281 178.185 145.672C179.707 144.835 179.882 142.746 179.871 140.99C179.871 137.725 179.851 134.464 179.812 131.206C179.707 129.457 179.885 127.702 180.339 126.01C180.883 124.348 182.094 122.809 183.75 122.34C185.406 121.872 187.472 122.838 187.847 124.547C187.911 125.27 187.929 125.997 187.899 126.723C187.946 127.455 188.286 128.257 188.97 128.479C189.655 128.701 190.369 128.192 190.896 127.677C192.698 125.922 193.927 123.634 195.068 121.375C196.209 119.116 197.327 116.793 198.965 114.867C200.604 112.942 202.869 111.415 205.402 111.269C207.936 111.122 210.576 112.679 211.208 115.137C211.84 117.594 210.406 120.105 208.867 122.1C206.544 125.062 203.807 127.674 200.738 129.854C200.14 130.181 199.662 130.692 199.375 131.311C198.995 132.482 200.101 133.652 201.253 134.021C202.558 134.454 203.975 134.319 205.35 134.483C206.725 134.647 208.188 135.244 208.709 136.531C209.423 138.322 207.925 140.195 206.456 141.423C203.506 143.881 200.157 145.815 196.554 147.141C195.267 147.609 193.915 148.024 192.873 148.926C191.832 149.827 191.212 151.401 191.838 152.636C192.464 153.871 194.073 154.263 195.425 154.011C196.777 153.759 197.976 153.034 199.264 152.548C201.669 151.641 204.77 151.805 206.286 153.882C206.756 154.598 207.053 155.413 207.154 156.262C207.256 157.112 207.159 157.974 206.871 158.78C206.286 160.385 205.384 161.855 204.22 163.105C200.388 167.684 195.408 171.164 189.79 173.188C184.213 175.119 179.045 175.646 173.504 173.615" fill="#FF9933"/>
<path d="M208.633 112.714C208.633 112.714 208.58 112.773 208.463 112.878L207.942 113.34C207.486 113.75 206.813 114.347 205.965 115.137C203.559 117.371 201.325 119.783 199.282 122.352C197.977 123.973 196.625 125.811 195.185 127.806C193.746 129.802 192.259 131.955 190.785 134.243C189.212 136.656 187.773 139.153 186.472 141.722C185.793 143.062 185.196 144.461 184.582 145.889L182.768 150.248C180.376 155.74 178.294 161.361 176.529 167.084C175.108 171.767 174.129 176.573 173.603 181.439C173.263 184.723 173.208 188.03 173.44 191.323C173.533 192.493 173.621 193.389 173.703 193.997C173.738 194.29 173.761 194.524 173.785 194.694V194.934C173.76 194.858 173.742 194.779 173.732 194.7C173.703 194.53 173.668 194.302 173.621 194.009C173.516 193.424 173.404 192.499 173.299 191.329C173.017 188.03 173.036 184.711 173.358 181.416C173.85 176.529 174.808 171.701 176.219 166.997C177.969 161.257 180.046 155.622 182.44 150.12L184.301 145.777C184.915 144.355 185.518 142.945 186.203 141.599C187.513 139.022 188.964 136.52 190.551 134.103C192.049 131.762 193.558 129.644 194.98 127.666C196.402 125.688 197.778 123.839 199.077 122.223C201.141 119.661 203.405 117.265 205.848 115.061C206.714 114.282 207.404 113.697 207.872 113.305L208.416 112.866C208.483 112.808 208.556 112.757 208.633 112.714Z" fill="#263238"/>
<path d="M186.279 141.588C186.196 141.346 186.139 141.097 186.109 140.844C186.015 140.359 185.91 139.674 185.787 138.784C185.536 137.029 185.278 134.624 185.003 131.961C184.728 129.299 184.418 126.888 184.16 125.15C184.026 124.283 183.909 123.587 183.827 123.101C183.763 122.853 183.729 122.597 183.727 122.341C183.828 122.575 183.901 122.821 183.944 123.072C184.073 123.552 184.219 124.242 184.383 125.114C184.716 126.87 185.044 129.258 185.319 131.926C185.594 134.594 185.828 136.935 186.01 138.755C186.097 139.574 186.173 140.271 186.232 140.827C186.277 141.078 186.293 141.333 186.279 141.588Z" fill="#263238"/>
<path d="M208.797 137.386C208.512 137.448 208.222 137.483 207.931 137.491C207.346 137.544 206.515 137.614 205.485 137.731C203.425 137.953 200.592 138.363 197.485 138.948C194.378 139.533 191.586 140.195 189.579 140.704C188.578 140.961 187.771 141.195 187.238 141.353C186.954 141.454 186.66 141.525 186.361 141.564C186.631 141.428 186.913 141.316 187.203 141.231C187.753 141.037 188.549 140.768 189.544 140.481C191.54 139.896 194.331 139.2 197.45 138.603C200.092 138.098 202.758 137.727 205.438 137.491C206.474 137.403 207.31 137.368 207.896 137.357C208.196 137.336 208.498 137.346 208.797 137.386Z" fill="#263238"/>
<path d="M176.506 166.587C176.443 166.502 176.392 166.41 176.354 166.312L175.967 165.498C175.634 164.79 175.183 163.743 174.645 162.461C173.556 159.887 172.17 156.282 170.695 152.279C169.22 148.276 167.863 144.672 166.833 142.067C166.329 140.803 165.914 139.768 165.604 138.995L165.276 138.158C165.231 138.062 165.199 137.959 165.182 137.854C165.245 137.939 165.296 138.031 165.335 138.129L165.721 138.942C166.048 139.651 166.505 140.698 167.043 141.98C168.132 144.554 169.519 148.159 170.993 152.162C172.468 156.165 173.826 159.769 174.856 162.374C175.359 163.638 175.774 164.673 176.079 165.446C176.213 165.779 176.324 166.031 176.412 166.283C176.458 166.379 176.489 166.482 176.506 166.587Z" fill="#263238"/>
<path d="M206.397 156.949C206.304 157.003 206.203 157.044 206.099 157.072L205.233 157.364L202.032 158.4C199.328 159.278 195.595 160.53 191.498 161.911C187.402 163.292 183.651 164.521 180.93 165.34C179.572 165.756 178.466 166.072 177.7 166.283L176.816 166.511C176.713 166.543 176.607 166.565 176.5 166.575C176.594 166.521 176.694 166.48 176.798 166.452L177.665 166.16L180.866 165.124C183.569 164.246 187.303 162.994 191.399 161.613C195.495 160.232 199.241 159.003 201.962 158.183C203.325 157.768 204.425 157.452 205.198 157.241L206.081 157.013C206.184 156.98 206.29 156.959 206.397 156.949Z" fill="#263238"/>
<path d="M194.202 14.9984L191.188 16.0751L189.895 12.1368C187.519 4.87453 179.947 1.01812 172.989 3.47007C166.031 5.92203 162.326 13.8865 164.702 21.1487L165.996 25.0871L162.97 26.1697C161.817 26.6171 160.88 27.492 160.354 28.6123C159.829 29.7327 159.756 31.0124 160.15 32.1855L168.535 57.811C168.709 58.3917 168.998 58.9315 169.385 59.3983C169.772 59.8651 170.249 60.2494 170.787 60.5283C171.325 60.8073 171.914 60.9752 172.518 61.0221C173.123 61.069 173.731 60.9939 174.305 60.8014L205.537 49.63C206.706 49.1833 207.656 48.3008 208.188 47.1679C208.719 46.035 208.791 44.7402 208.387 43.5557L199.995 17.9302C199.817 17.3511 199.523 16.8139 199.133 16.3507C198.742 15.8875 198.262 15.5078 197.721 15.2342C197.18 14.9605 196.59 14.7986 195.986 14.7581C195.381 14.7176 194.774 14.7993 194.202 14.9984ZM170.396 19.0947C169.756 17.2064 169.871 15.1435 170.717 13.3381C171.564 11.5327 173.076 10.1249 174.937 9.40978C175.856 9.09531 176.83 8.96921 177.798 9.03899C178.767 9.10877 179.712 9.37301 180.577 9.81594C181.441 10.2589 182.208 10.8714 182.831 11.617C183.453 12.3626 183.919 13.226 184.201 14.1557L185.488 18.094L171.684 23.0331L170.396 19.0947ZM187.952 41.8353L190.094 48.3777C190.133 48.5089 190.121 48.6502 190.058 48.7723C189.996 48.8943 189.89 48.9877 189.76 49.0331L186.758 50.104C186.639 50.1372 186.511 50.1228 186.402 50.0639C186.293 50.005 186.211 49.9061 186.173 49.788L184.014 43.2748C182.823 43.21 181.681 42.7829 180.739 42.0508C179.798 41.3187 179.103 40.3166 178.747 39.1785C178.238 37.6739 178.331 36.0308 179.006 34.5931C179.681 33.1555 180.886 32.0348 182.369 31.4657C183.101 31.2155 183.876 31.1153 184.648 31.1711C185.42 31.2268 186.172 31.4373 186.861 31.7901C187.55 32.1429 188.16 32.6307 188.656 33.2244C189.152 33.8181 189.524 34.5057 189.749 35.246C190.125 36.4021 190.156 37.6429 189.838 38.8164C189.52 39.9899 188.867 41.0451 187.958 41.8528L187.952 41.8353Z" fill="#FF9933"/>
<path d="M191.053 16.005C191.053 16.0869 185.465 18.1878 178.513 20.6865C171.561 23.1853 165.89 25.1925 165.861 25.134C165.832 25.0755 171.45 22.9571 178.407 20.4525C185.365 17.9478 191.024 15.9289 191.053 16.005Z" fill="#263238"/>
<path d="M197.69 17.0818C197.715 17.1326 197.737 17.1854 197.754 17.2398C197.801 17.3568 197.853 17.509 197.924 17.6962C198.076 18.1234 198.287 18.7145 198.55 19.4518L200.797 25.9943C201.733 28.7681 202.851 32.0569 204.092 35.7085C204.677 37.5401 205.367 39.4478 206.011 41.455C206.356 42.4894 206.504 43.5789 206.45 44.6677C206.4 45.234 206.239 45.7849 205.976 46.2887C205.695 46.7909 205.319 47.234 204.87 47.5937C203.966 48.2537 202.962 48.7653 201.897 49.1094L198.883 50.192L193.178 52.2343L183.516 55.6752L176.991 57.9692L175.236 58.5544L174.768 58.7065C174.718 58.7288 174.664 58.7426 174.61 58.7475C174.61 58.7475 174.656 58.7475 174.756 58.6773L175.212 58.4958L176.968 57.8346L183.458 55.447L193.102 51.9358L198.796 49.876L201.809 48.7875C202.844 48.4574 203.819 47.9614 204.694 47.3187C205.112 46.9849 205.462 46.5736 205.724 46.1073C205.972 45.6414 206.122 45.1295 206.163 44.6034C206.217 43.5542 206.074 42.5043 205.742 41.5077C205.11 39.5181 204.443 37.5928 203.84 35.7611C202.623 32.1037 201.499 28.8032 200.61 26.0294C199.72 23.2556 198.971 21.026 198.456 19.4577C198.21 18.6911 198.023 18.0942 197.871 17.6611L197.731 17.193C197.713 17.1575 197.699 17.1202 197.69 17.0818Z" fill="#263238"/>
<path d="M181.211 9.01199C181.211 9.01199 180.9 8.85984 180.327 8.62576C179.509 8.31167 178.645 8.13758 177.77 8.11079C176.472 8.0663 175.181 8.31014 173.989 8.82473C172.54 9.4655 171.301 10.5019 170.414 11.8151C169.521 13.1244 169.042 14.6718 169.039 16.2567C169.051 17.5556 169.248 18.8462 169.624 20.0897C169.928 21.1547 170.244 22.0033 170.455 22.5943C170.579 22.8945 170.681 23.2036 170.759 23.5189C170.593 23.2382 170.454 22.9423 170.344 22.6353C170.104 22.0501 169.758 21.2191 169.419 20.1482C169.002 18.8917 168.775 17.5801 168.746 16.2567C168.73 14.6119 169.221 13.0022 170.15 11.6454C171.068 10.2843 172.358 9.21578 173.866 8.56724C175.095 8.04984 176.427 7.8216 177.758 7.90012C178.652 7.9457 179.531 8.15392 180.35 8.51457C180.569 8.61567 180.781 8.73304 180.982 8.86569C181.066 8.90226 181.143 8.95162 181.211 9.01199Z" fill="#263238"/>
<path d="M181.48 31.9105C181.573 31.8539 181.671 31.805 181.772 31.7642C182.065 31.6321 182.369 31.5244 182.679 31.4424C183.173 31.2968 183.681 31.2104 184.195 31.1849C184.894 31.1473 185.593 31.2529 186.249 31.495C187.747 32.0217 189.122 33.5491 189.801 35.5914C190.127 36.6874 190.127 37.8544 189.801 38.9504C189.44 40.14 188.793 41.2229 187.917 42.1046L187.952 41.9466C188.73 44.0825 189.579 46.3999 190.457 48.8167L190.509 48.963L190.363 49.0157L189.023 49.4604L186.097 50.4377L185.951 50.4845L185.904 50.3382C185.102 47.9155 184.224 45.6567 183.563 43.4388L183.692 43.5383C182.548 43.4433 181.457 43.0139 180.555 42.3035C179.739 41.6751 179.07 40.8763 178.595 39.9628C178.166 39.1527 177.952 38.2459 177.974 37.3294C178.002 36.3928 178.235 35.4737 178.659 34.6381C179.083 33.8024 179.687 33.0708 180.426 32.4957C180.731 32.2485 181.073 32.051 181.439 31.9105C181.108 32.1067 180.788 32.3196 180.479 32.5484C179.666 33.2359 179.044 34.1205 178.671 35.1174C178.351 35.8692 178.201 36.6825 178.232 37.499C178.264 38.3155 178.475 39.1149 178.852 39.8399C179.32 40.7187 179.973 41.4855 180.766 42.087C181.626 42.7622 182.666 43.1692 183.756 43.2574H183.856L183.885 43.3452C184.529 45.5221 185.412 47.7985 186.226 50.2329L186.033 50.1393L188.959 49.162L190.293 48.7114L190.199 48.9104C189.327 46.4935 188.485 44.1703 187.712 42.0344V41.9466L187.782 41.8764C188.633 41.0313 189.267 39.9934 189.632 38.8509C189.942 37.8025 189.942 36.6866 189.632 35.6382C188.994 33.672 187.677 32.1797 186.249 31.653C185.617 31.4093 184.942 31.2959 184.265 31.3195C183.76 31.3311 183.257 31.3998 182.767 31.5243C181.895 31.7408 181.486 31.9398 181.48 31.9105Z" fill="#263238"/>
<path d="M163.391 200.879L104.937 200.61C101.561 200.591 98.3305 199.234 95.9551 196.835C93.5796 194.436 92.2532 191.193 92.2672 187.817L92.8875 41.2794C92.8944 39.607 93.2308 37.9523 93.8776 36.4099C94.5243 34.8676 95.4687 33.4678 96.6568 32.2907C97.8448 31.1135 99.2532 30.182 100.801 29.5495C102.35 28.9169 104.007 28.5957 105.68 28.6042L164.129 28.8734C167.505 28.8904 170.735 30.2465 173.112 32.644C175.489 35.0414 176.817 38.2841 176.804 41.6598L176.184 188.192C176.177 189.865 175.841 191.52 175.194 193.063C174.547 194.606 173.603 196.007 172.415 197.185C171.227 198.363 169.819 199.296 168.271 199.929C166.722 200.563 165.064 200.886 163.391 200.879Z" fill="#455A64"/>
<path d="M164.041 33.9123H152.712C152.342 33.9191 151.977 33.9987 151.639 34.1465C151.3 34.2944 150.993 34.5075 150.737 34.7738C150.48 35.0401 150.279 35.3543 150.144 35.6984C150.009 36.0426 149.943 36.41 149.95 36.7797V38.8337C149.957 39.2031 149.891 39.5702 149.756 39.9141C149.62 40.2579 149.419 40.5717 149.162 40.8375C148.906 41.1034 148.599 41.3159 148.26 41.4631C147.921 41.6103 147.557 41.6892 147.188 41.6953L125.102 41.5958C124.355 41.5759 123.647 41.2603 123.132 40.7183C122.617 40.1762 122.339 39.4521 122.358 38.705V36.651C122.377 35.9048 122.099 35.1816 121.586 34.6397C121.072 34.0978 120.365 33.7815 119.619 33.7601H115.634L105.715 33.7133C103.356 33.6992 101.087 34.6206 99.4056 36.2757C97.7242 37.9308 96.7672 40.1846 96.744 42.5438L96.1588 185.577C96.1534 186.747 96.3786 187.907 96.8215 188.99C97.2644 190.074 97.9164 191.059 98.7402 191.891C99.564 192.722 100.543 193.383 101.623 193.836C102.702 194.289 103.86 194.525 105.03 194.53L163.362 194.799C164.533 194.805 165.694 194.579 166.778 194.136C167.862 193.693 168.849 193.04 169.681 192.216C170.512 191.392 171.174 190.412 171.627 189.332C172.08 188.252 172.316 187.093 172.322 185.922L172.907 42.8891C172.921 40.5233 171.995 38.2487 170.332 36.5653C168.67 34.882 166.407 33.9277 164.041 33.9123Z" fill="white"/>
<path d="M156.194 175.716L112.819 175.529C112.369 175.529 112.006 175.037 112.012 174.44L112.058 163.093C112.058 162.508 112.427 162.005 112.878 162.005L156.252 162.204C156.502 162.247 156.725 162.385 156.876 162.589C157.026 162.793 157.092 163.047 157.06 163.298L157.019 174.633C157.019 175.236 156.644 175.722 156.194 175.716Z" fill="#FF9933"/>
<path d="M127.09 173.425C126.667 173.425 126.26 173.357 125.87 173.222C125.485 173.086 125.187 172.907 124.975 172.685L125.211 172.222C125.417 172.428 125.691 172.596 126.032 172.726C126.374 172.85 126.726 172.913 127.09 172.913C127.599 172.913 127.981 172.821 128.236 172.636C128.491 172.447 128.618 172.203 128.618 171.904C128.618 171.677 128.548 171.495 128.407 171.36C128.271 171.224 128.103 171.121 127.903 171.051C127.702 170.975 127.423 170.893 127.065 170.807C126.637 170.698 126.295 170.595 126.041 170.498C125.786 170.395 125.566 170.24 125.382 170.034C125.203 169.828 125.114 169.549 125.114 169.197C125.114 168.909 125.19 168.649 125.341 168.416C125.493 168.178 125.726 167.988 126.041 167.847C126.355 167.706 126.745 167.636 127.212 167.636C127.537 167.636 127.854 167.682 128.163 167.774C128.477 167.86 128.748 167.982 128.976 168.14L128.773 168.619C128.534 168.462 128.279 168.346 128.008 168.27C127.737 168.188 127.472 168.148 127.212 168.148C126.713 168.148 126.336 168.245 126.081 168.441C125.832 168.63 125.707 168.877 125.707 169.18C125.707 169.408 125.775 169.592 125.911 169.733C126.051 169.869 126.225 169.975 126.431 170.051C126.642 170.121 126.924 170.2 127.277 170.286C127.694 170.389 128.03 170.492 128.285 170.595C128.545 170.693 128.765 170.845 128.944 171.051C129.122 171.251 129.212 171.525 129.212 171.872C129.212 172.159 129.133 172.422 128.976 172.661C128.824 172.894 128.588 173.081 128.269 173.222C127.949 173.357 127.556 173.425 127.09 173.425ZM130.523 167.684H131.125V173.376H130.523V167.684ZM137.733 167.684V173.376H137.237L133.578 168.758V173.376H132.977V167.684H133.473L137.14 172.303V167.684H137.733ZM129.529 180.53H130.106V182.701C129.841 182.934 129.526 183.113 129.163 183.238C128.8 183.363 128.418 183.425 128.017 183.425C127.447 183.425 126.935 183.3 126.48 183.051C126.024 182.802 125.667 182.457 125.406 182.018C125.146 181.574 125.016 181.078 125.016 180.53C125.016 179.983 125.146 179.489 125.406 179.05C125.667 178.606 126.024 178.259 126.48 178.01C126.935 177.76 127.45 177.636 128.025 177.636C128.458 177.636 128.857 177.706 129.22 177.847C129.583 177.982 129.889 178.186 130.139 178.457L129.765 178.839C129.315 178.394 128.743 178.172 128.049 178.172C127.588 178.172 127.171 178.275 126.797 178.481C126.428 178.682 126.138 178.964 125.927 179.327C125.715 179.685 125.61 180.086 125.61 180.53C125.61 180.975 125.715 181.376 125.927 181.734C126.138 182.091 126.428 182.373 126.797 182.579C127.165 182.785 127.58 182.888 128.041 182.888C128.626 182.888 129.122 182.742 129.529 182.449V180.53ZM127.813 193.425C127.076 193.425 126.501 193.214 126.089 192.791C125.677 192.368 125.471 191.753 125.471 190.945V187.684H126.073V190.921C126.073 191.582 126.222 192.075 126.52 192.4C126.819 192.726 127.249 192.888 127.813 192.888C128.382 192.888 128.816 192.726 129.114 192.4C129.412 192.075 129.561 191.582 129.561 190.921V187.684H130.147V190.945C130.147 191.753 129.941 192.368 129.529 192.791C129.122 193.214 128.55 193.425 127.813 193.425ZM134.091 187.684C134.817 187.684 135.386 187.858 135.798 188.205C136.21 188.552 136.416 189.029 136.416 189.636C136.416 190.243 136.21 190.72 135.798 191.067C135.386 191.408 134.817 191.579 134.091 191.579H132.562V193.376H131.96V187.684H134.091ZM134.074 191.051C134.638 191.051 135.069 190.929 135.367 190.685C135.665 190.435 135.814 190.086 135.814 189.636C135.814 189.175 135.665 188.823 135.367 188.579C135.069 188.329 134.638 188.205 134.074 188.205H132.562V191.051H134.074Z" fill="#E8E8E3"/>
<path d="M121.471 75.9584L106.42 75.8901L106.407 78.6522L121.458 78.7205L121.471 75.9584Z" fill="#FF9933"/>
<path opacity="0.1" d="M121.471 75.9584L106.42 75.8901L106.407 78.6522L121.458 78.7205L121.471 75.9584Z" fill="black"/>
<path d="M165.592 92.9171C165.71 92.9052 165.826 92.8776 165.937 92.8352C166.099 92.7719 166.24 92.6642 166.343 92.5244C166.447 92.3847 166.509 92.2186 166.522 92.0452C166.522 91.1147 166.522 89.7571 166.522 88.0132C166.522 87.1413 166.522 86.164 166.522 85.0873C166.522 84.8239 166.522 84.5489 166.522 84.2738C166.56 84.007 166.502 83.7352 166.358 83.5072C166.278 83.3979 166.173 83.3088 166.052 83.2469C165.931 83.1849 165.798 83.1519 165.662 83.1503H164.749H156.293L107.348 82.9689C107.222 82.9667 107.098 82.9949 106.986 83.0509C106.874 83.1069 106.777 83.1892 106.704 83.2907C106.562 83.5196 106.508 83.7918 106.552 84.0573C106.552 84.6425 106.552 85.2277 106.552 85.8129C106.552 86.9833 106.552 88.1537 106.552 89.324C106.552 89.9092 106.552 90.4944 106.552 91.0796C106.527 91.3522 106.527 91.6263 106.552 91.8989C106.582 92.0157 106.64 92.124 106.719 92.2153C106.798 92.3066 106.897 92.3785 107.008 92.4256C107.123 92.4715 107.247 92.4934 107.371 92.4899H110.35L123.347 92.5602L145.35 92.6947L160.185 92.8118L164.216 92.8586H165.264C165.504 92.8586 165.621 92.8586 165.621 92.8586H165.264H164.216H160.185H145.35L123.347 92.7884L110.35 92.7357H107.371C107.207 92.7423 107.044 92.7144 106.891 92.6538C106.737 92.588 106.6 92.4879 106.49 92.3612C106.381 92.2344 106.302 92.0843 106.259 91.9223C106.225 91.7687 106.213 91.6111 106.224 91.4541V91.0211C106.224 90.4359 106.224 89.8507 106.224 89.2655C106.224 88.0951 106.224 86.9248 106.224 85.7544C106.224 85.1692 106.224 84.584 106.224 83.9988C106.213 83.8429 106.213 83.6865 106.224 83.5306C106.246 83.3585 106.312 83.1951 106.417 83.0566C106.518 82.9154 106.652 82.8006 106.807 82.7222C106.961 82.6437 107.133 82.6039 107.307 82.606L156.252 82.8752L164.708 82.9337H165.621C165.782 82.9339 165.94 82.9728 166.083 83.0471C166.225 83.1215 166.348 83.2291 166.44 83.3609C166.605 83.6154 166.672 83.9212 166.628 84.2212C166.628 84.4962 166.628 84.7712 166.628 85.0346C166.628 86.0996 166.628 87.0769 166.628 87.9605C166.628 89.7161 166.587 91.0621 166.575 91.9984C166.561 92.1784 166.495 92.3506 166.386 92.4947C166.277 92.6388 166.13 92.7488 165.96 92.8118C165.85 92.8804 165.722 92.9169 165.592 92.9171Z" fill="#E0E0E0"/>
<path d="M138.468 85.9067H110.941V88.4874H138.468V85.9067Z" fill="#FF9933"/>
<path opacity="0.2" d="M138.468 85.9067H110.941V88.4874H138.468V85.9067Z" fill="white"/>
<path d="M121.368 101.156L106.317 101.088L106.305 103.85L121.356 103.918L121.368 101.156Z" fill="#FF9933"/>
<path opacity="0.1" d="M121.368 101.156L106.317 101.088L106.305 103.85L121.356 103.918L121.368 101.156Z" fill="black"/>
<path d="M165.212 118.116C165.33 118.101 165.447 118.08 165.563 118.051C165.726 117.999 165.876 117.913 166.004 117.798C166.131 117.683 166.232 117.542 166.3 117.384C166.392 117.148 166.428 116.893 166.405 116.641C166.405 116.36 166.405 116.056 166.405 115.716C166.405 115.037 166.405 114.265 166.405 113.376V109.66C166.433 109.391 166.374 109.12 166.236 108.887C166.091 108.649 165.864 108.472 165.598 108.39C165.306 108.338 165.009 108.322 164.714 108.343H156.293L107.517 108.161C107.255 108.162 107.002 108.258 106.805 108.431C106.608 108.605 106.481 108.844 106.447 109.104C106.447 109.66 106.447 110.274 106.447 110.859C106.447 112.03 106.447 113.2 106.447 114.37C106.447 114.956 106.447 115.541 106.447 116.126C106.425 116.399 106.437 116.675 106.482 116.945C106.555 117.183 106.705 117.389 106.909 117.53C107.125 117.668 107.379 117.733 107.634 117.718H108.448H110.139L123.089 117.782L145.017 117.917L159.799 118.034L163.819 118.08H164.866H165.217H164.866H163.819H159.799H145.017L123.078 118.057L110.127 118.01H107.582C107.265 118.029 106.951 117.945 106.686 117.77C106.42 117.586 106.226 117.315 106.136 117.004C106.084 116.706 106.068 116.404 106.09 116.103C106.09 115.517 106.09 114.932 106.09 114.347C106.09 113.177 106.09 112.006 106.09 110.836C106.09 110.251 106.09 109.665 106.09 109.08C106.132 108.746 106.295 108.438 106.549 108.215C106.802 107.992 107.127 107.869 107.465 107.869L156.241 108.138L164.661 108.202C164.975 108.183 165.29 108.205 165.598 108.267C165.902 108.366 166.158 108.575 166.318 108.852C166.469 109.11 166.535 109.409 166.505 109.706C166.505 109.981 166.505 110.251 166.505 110.52C166.505 111.579 166.505 112.55 166.505 113.446C166.505 114.341 166.505 115.096 166.505 115.787C166.505 116.12 166.505 116.43 166.505 116.717C166.526 116.979 166.484 117.242 166.382 117.484C166.306 117.645 166.196 117.788 166.06 117.903C165.923 118.019 165.764 118.103 165.592 118.151C165.464 118.161 165.335 118.149 165.212 118.116Z" fill="#E0E0E0"/>
<path d="M121.255 127.448L106.204 127.38L106.191 130.142L121.242 130.21L121.255 127.448Z" fill="#FF9933"/>
<path opacity="0.1" d="M121.255 127.448L106.204 127.38L106.191 130.142L121.242 130.21L121.255 127.448Z" fill="black"/>
<path d="M165.094 144.397C165.213 144.383 165.33 144.361 165.446 144.332C165.608 144.28 165.758 144.195 165.885 144.081C166.012 143.967 166.114 143.827 166.183 143.671C166.275 143.435 166.311 143.18 166.288 142.928C166.288 142.641 166.288 142.343 166.288 141.997C166.288 141.324 166.288 140.546 166.288 139.656V135.94C166.316 135.671 166.257 135.401 166.118 135.168C165.971 134.934 165.745 134.76 165.481 134.676C165.189 134.622 164.893 134.605 164.597 134.624H156.176L107.4 134.442C107.138 134.443 106.885 134.539 106.688 134.712C106.491 134.885 106.363 135.124 106.329 135.385C106.329 135.97 106.329 136.555 106.329 137.14C106.329 138.311 106.329 139.481 106.329 140.651C106.329 141.236 106.329 141.822 106.329 142.407C106.308 142.678 106.319 142.952 106.365 143.22C106.435 143.459 106.586 143.666 106.792 143.805C107.007 143.946 107.261 144.012 107.517 143.993H110.063L123.013 144.063L144.94 144.198L159.722 144.315L163.743 144.361H164.79C165.024 144.361 165.141 144.361 165.141 144.361C165.141 144.361 165.024 144.361 164.79 144.361H163.743H159.722H144.94L123.013 144.297L110.063 144.244H107.517C107.201 144.266 106.886 144.181 106.622 144.004C106.356 143.82 106.161 143.549 106.072 143.238C106.019 142.94 106.004 142.638 106.025 142.337C106.025 141.751 106.025 141.166 106.025 140.581C106.025 139.411 106.025 138.24 106.025 137.07C106.025 136.485 106.025 135.9 106.025 135.285C106.066 134.951 106.228 134.643 106.481 134.42C106.733 134.197 107.058 134.074 107.394 134.074L156.17 134.343L164.591 134.407C164.905 134.388 165.219 134.41 165.527 134.472C165.831 134.571 166.088 134.779 166.247 135.057C166.399 135.315 166.464 135.614 166.434 135.911C166.434 136.186 166.434 136.461 166.434 136.725C166.434 137.784 166.434 138.755 166.434 139.651C166.434 140.546 166.434 141.301 166.434 141.991C166.434 142.325 166.434 142.635 166.434 142.922C166.457 143.184 166.415 143.447 166.312 143.688C166.236 143.85 166.126 143.993 165.989 144.108C165.853 144.223 165.694 144.308 165.522 144.356C165.384 144.403 165.238 144.417 165.094 144.397Z" fill="#E0E0E0"/>
<path d="M137.88 111.835L110.353 111.71L110.342 114.29L137.869 114.415L137.88 111.835Z" fill="#FF9933"/>
<path opacity="0.2" d="M137.88 111.835L110.353 111.71L110.342 114.29L137.869 114.415L137.88 111.835Z" fill="white"/>
<path d="M112.843 139.621C112.825 139.857 112.739 140.082 112.595 140.269C112.451 140.456 112.255 140.596 112.032 140.673C111.809 140.75 111.568 140.759 111.34 140.701C111.111 140.642 110.905 140.517 110.746 140.342C110.588 140.167 110.485 139.949 110.449 139.716C110.413 139.483 110.446 139.244 110.545 139.03C110.644 138.815 110.803 138.634 111.003 138.51C111.204 138.385 111.436 138.322 111.672 138.328C111.998 138.346 112.304 138.492 112.523 138.734C112.742 138.976 112.857 139.295 112.843 139.621Z" fill="#FF9933"/>
<path d="M116.57 139.639C116.582 139.804 116.559 139.97 116.504 140.125C116.449 140.281 116.362 140.424 116.249 140.545C116.136 140.666 116 140.763 115.848 140.829C115.697 140.894 115.533 140.928 115.368 140.928C115.202 140.928 115.039 140.894 114.887 140.829C114.735 140.763 114.599 140.666 114.486 140.545C114.373 140.424 114.287 140.281 114.231 140.125C114.176 139.97 114.154 139.804 114.165 139.639C114.154 139.474 114.176 139.308 114.231 139.153C114.287 138.997 114.373 138.854 114.486 138.733C114.599 138.612 114.735 138.516 114.887 138.45C115.039 138.384 115.202 138.35 115.368 138.35C115.533 138.35 115.697 138.384 115.848 138.45C116 138.516 116.136 138.612 116.249 138.733C116.362 138.854 116.449 138.997 116.504 139.153C116.559 139.308 116.582 139.474 116.57 139.639Z" fill="#FF9933"/>
<path d="M120.304 139.657C120.286 139.892 120.2 140.117 120.056 140.304C119.912 140.491 119.717 140.632 119.493 140.708C119.27 140.785 119.029 140.795 118.801 140.736C118.572 140.677 118.366 140.552 118.208 140.377C118.049 140.202 117.946 139.985 117.91 139.751C117.874 139.518 117.908 139.279 118.006 139.065C118.105 138.85 118.264 138.67 118.464 138.545C118.665 138.42 118.897 138.357 119.133 138.363C119.459 138.383 119.764 138.529 119.982 138.771C120.201 139.013 120.317 139.331 120.304 139.657Z" fill="#FF9933"/>
<path d="M124.031 139.674C124.014 139.909 123.928 140.135 123.784 140.322C123.64 140.509 123.444 140.649 123.221 140.726C122.998 140.803 122.757 140.812 122.528 140.753C122.3 140.694 122.094 140.57 121.935 140.395C121.777 140.22 121.673 140.002 121.637 139.769C121.602 139.536 121.635 139.297 121.734 139.082C121.832 138.868 121.992 138.687 122.192 138.562C122.392 138.438 122.625 138.375 122.861 138.381C123.186 138.4 123.491 138.547 123.71 138.789C123.929 139.03 124.044 139.348 124.031 139.674Z" fill="#FF9933"/>
<path d="M127.759 139.686C127.743 139.922 127.658 140.147 127.515 140.335C127.371 140.523 127.176 140.664 126.953 140.742C126.729 140.82 126.488 140.83 126.259 140.772C126.03 140.713 125.824 140.589 125.665 140.414C125.506 140.24 125.402 140.022 125.365 139.788C125.329 139.555 125.362 139.316 125.461 139.101C125.559 138.886 125.719 138.705 125.919 138.58C126.12 138.455 126.353 138.392 126.589 138.398C126.913 138.418 127.217 138.564 127.436 138.804C127.654 139.045 127.771 139.361 127.759 139.686Z" fill="#FF9933"/>
<path d="M131.493 139.703C131.477 139.938 131.393 140.162 131.25 140.35C131.108 140.537 130.915 140.679 130.693 140.757C130.472 140.836 130.232 140.848 130.004 140.792C129.775 140.736 129.568 140.615 129.408 140.443C129.248 140.271 129.141 140.056 129.102 139.824C129.062 139.593 129.091 139.354 129.185 139.139C129.279 138.924 129.434 138.74 129.631 138.612C129.828 138.483 130.058 138.415 130.293 138.416C130.623 138.428 130.934 138.57 131.159 138.812C131.384 139.053 131.504 139.374 131.493 139.703Z" fill="#FF9933"/>
<path d="M135.22 139.721C135.232 139.886 135.209 140.052 135.154 140.208C135.099 140.363 135.012 140.506 134.899 140.627C134.787 140.748 134.65 140.845 134.498 140.911C134.347 140.976 134.183 141.011 134.018 141.011C133.852 141.011 133.689 140.976 133.537 140.911C133.385 140.845 133.249 140.748 133.136 140.627C133.023 140.506 132.937 140.363 132.881 140.208C132.826 140.052 132.804 139.886 132.815 139.721C132.804 139.556 132.826 139.391 132.881 139.235C132.937 139.079 133.023 138.936 133.136 138.815C133.249 138.694 133.385 138.598 133.537 138.532C133.689 138.466 133.852 138.432 134.018 138.432C134.183 138.432 134.347 138.466 134.498 138.532C134.65 138.598 134.787 138.694 134.899 138.815C135.012 138.936 135.099 139.079 135.154 139.235C135.209 139.391 135.232 139.556 135.22 139.721Z" fill="#FF9933"/>
<path d="M138.948 139.738C138.932 139.973 138.848 140.198 138.706 140.385C138.564 140.572 138.37 140.714 138.148 140.792C137.927 140.871 137.687 140.883 137.459 140.827C137.231 140.772 137.024 140.65 136.863 140.478C136.703 140.306 136.597 140.091 136.557 139.859C136.517 139.628 136.546 139.39 136.64 139.174C136.735 138.959 136.889 138.775 137.086 138.647C137.283 138.518 137.513 138.45 137.748 138.451C138.078 138.463 138.389 138.605 138.614 138.847C138.839 139.088 138.959 139.409 138.948 139.738Z" fill="#FF9933"/>
<path d="M142.676 139.756C142.66 139.992 142.575 140.217 142.431 140.405C142.288 140.593 142.092 140.734 141.869 140.812C141.646 140.89 141.405 140.9 141.176 140.842C140.947 140.784 140.74 140.659 140.581 140.484C140.422 140.31 140.318 140.092 140.282 139.858C140.246 139.625 140.279 139.386 140.377 139.171C140.476 138.956 140.635 138.775 140.836 138.65C141.036 138.525 141.269 138.462 141.505 138.468C141.83 138.488 142.134 138.634 142.352 138.874C142.571 139.115 142.687 139.431 142.676 139.756Z" fill="#FF9933"/>
<g opacity="0.2">
<path opacity="0.2" d="M112.843 139.621C112.825 139.857 112.739 140.082 112.595 140.269C112.451 140.456 112.255 140.596 112.032 140.673C111.809 140.75 111.568 140.759 111.34 140.701C111.111 140.642 110.905 140.517 110.746 140.342C110.588 140.167 110.485 139.949 110.449 139.716C110.413 139.483 110.446 139.244 110.545 139.03C110.644 138.815 110.803 138.634 111.003 138.51C111.204 138.385 111.436 138.322 111.672 138.328C111.998 138.346 112.304 138.492 112.523 138.734C112.742 138.976 112.857 139.295 112.843 139.621Z" fill="white"/>
<path opacity="0.2" d="M116.57 139.639C116.581 139.804 116.559 139.969 116.504 140.125C116.448 140.281 116.362 140.424 116.249 140.545C116.136 140.666 116 140.762 115.848 140.828C115.696 140.894 115.533 140.928 115.367 140.928C115.202 140.928 115.038 140.894 114.887 140.828C114.735 140.762 114.599 140.666 114.486 140.545C114.373 140.424 114.286 140.281 114.231 140.125C114.176 139.969 114.153 139.804 114.165 139.639C114.153 139.474 114.176 139.308 114.231 139.152C114.286 138.996 114.373 138.854 114.486 138.733C114.599 138.612 114.735 138.515 114.887 138.449C115.038 138.383 115.202 138.349 115.367 138.349C115.533 138.349 115.696 138.383 115.848 138.449C116 138.515 116.136 138.612 116.249 138.733C116.362 138.854 116.448 138.996 116.504 139.152C116.559 139.308 116.581 139.474 116.57 139.639Z" fill="white"/>
<path opacity="0.2" d="M120.304 139.657C120.286 139.892 120.2 140.117 120.056 140.304C119.912 140.491 119.716 140.632 119.493 140.708C119.27 140.785 119.029 140.795 118.801 140.736C118.572 140.677 118.366 140.552 118.207 140.377C118.049 140.202 117.946 139.985 117.91 139.751C117.874 139.518 117.907 139.279 118.006 139.065C118.104 138.85 118.264 138.67 118.464 138.545C118.665 138.42 118.897 138.357 119.133 138.363C119.459 138.383 119.763 138.529 119.982 138.771C120.201 139.013 120.316 139.331 120.304 139.657Z" fill="white"/>
<path opacity="0.2" d="M124.031 139.674C124.014 139.909 123.928 140.135 123.784 140.322C123.64 140.509 123.444 140.649 123.221 140.726C122.998 140.803 122.757 140.812 122.528 140.753C122.3 140.694 122.094 140.57 121.935 140.395C121.777 140.22 121.673 140.002 121.637 139.769C121.602 139.536 121.635 139.297 121.734 139.082C121.832 138.868 121.992 138.687 122.192 138.562C122.392 138.438 122.625 138.375 122.861 138.381C123.186 138.4 123.491 138.547 123.71 138.789C123.929 139.03 124.044 139.348 124.031 139.674Z" fill="white"/>
<path opacity="0.2" d="M127.759 139.686C127.743 139.922 127.658 140.147 127.514 140.335C127.371 140.523 127.176 140.664 126.952 140.742C126.729 140.82 126.488 140.83 126.259 140.772C126.03 140.713 125.823 140.589 125.664 140.414C125.505 140.24 125.401 140.022 125.365 139.788C125.329 139.555 125.362 139.316 125.461 139.101C125.559 138.886 125.718 138.705 125.919 138.58C126.12 138.455 126.352 138.392 126.589 138.398C126.913 138.418 127.217 138.564 127.436 138.804C127.654 139.045 127.77 139.361 127.759 139.686Z" fill="white"/>
<path opacity="0.2" d="M131.492 139.703C131.476 139.938 131.392 140.162 131.25 140.35C131.108 140.537 130.914 140.679 130.693 140.757C130.471 140.836 130.232 140.848 130.003 140.792C129.775 140.736 129.568 140.615 129.408 140.443C129.248 140.271 129.141 140.056 129.101 139.824C129.062 139.593 129.091 139.354 129.185 139.139C129.279 138.924 129.434 138.74 129.631 138.612C129.828 138.483 130.058 138.415 130.293 138.416C130.622 138.428 130.934 138.57 131.159 138.812C131.383 139.053 131.504 139.374 131.492 139.703Z" fill="white"/>
<path opacity="0.2" d="M135.22 139.721C135.232 139.886 135.209 140.051 135.154 140.207C135.099 140.363 135.012 140.506 134.899 140.627C134.786 140.748 134.65 140.844 134.498 140.91C134.346 140.976 134.183 141.01 134.018 141.01C133.852 141.01 133.689 140.976 133.537 140.91C133.385 140.844 133.249 140.748 133.136 140.627C133.023 140.506 132.936 140.363 132.881 140.207C132.826 140.051 132.803 139.886 132.815 139.721C132.803 139.556 132.826 139.39 132.881 139.234C132.936 139.078 133.023 138.936 133.136 138.815C133.249 138.694 133.385 138.597 133.537 138.531C133.689 138.465 133.852 138.431 134.018 138.431C134.183 138.431 134.346 138.465 134.498 138.531C134.65 138.597 134.786 138.694 134.899 138.815C135.012 138.936 135.099 139.078 135.154 139.234C135.209 139.39 135.232 139.556 135.22 139.721Z" fill="white"/>
<path opacity="0.2" d="M138.948 139.738C138.932 139.973 138.848 140.198 138.706 140.385C138.563 140.572 138.37 140.714 138.148 140.792C137.927 140.871 137.687 140.883 137.459 140.827C137.23 140.772 137.023 140.65 136.863 140.478C136.703 140.306 136.596 140.091 136.557 139.859C136.517 139.628 136.546 139.39 136.64 139.174C136.734 138.959 136.889 138.775 137.086 138.647C137.283 138.518 137.513 138.45 137.748 138.451C138.078 138.463 138.389 138.605 138.614 138.847C138.839 139.088 138.959 139.409 138.948 139.738Z" fill="white"/>
<path opacity="0.2" d="M142.676 139.756C142.659 139.992 142.574 140.217 142.431 140.405C142.287 140.593 142.092 140.734 141.869 140.812C141.646 140.89 141.405 140.9 141.176 140.842C140.947 140.784 140.74 140.659 140.581 140.484C140.422 140.31 140.318 140.092 140.282 139.858C140.245 139.625 140.279 139.386 140.377 139.171C140.476 138.956 140.635 138.775 140.835 138.65C141.036 138.525 141.269 138.462 141.505 138.468C141.83 138.488 142.133 138.634 142.352 138.874C142.571 139.115 142.687 139.431 142.676 139.756Z" fill="white"/>
</g>
<path d="M137.38 55.2776C137.786 55.0986 138.131 54.804 138.371 54.4304C138.612 54.0569 138.737 53.6209 138.731 53.1768C138.746 52.888 138.703 52.5992 138.603 52.328C138.503 52.0567 138.348 51.8087 138.149 51.5989C137.95 51.3892 137.711 51.2222 137.445 51.1081C137.179 50.9939 136.893 50.9351 136.604 50.9351C136.315 50.9351 136.029 50.9939 135.763 51.1081C135.498 51.2222 135.258 51.3892 135.059 51.5989C134.86 51.8087 134.706 52.0567 134.606 52.328C134.506 52.5992 134.462 52.888 134.477 53.1768C134.468 53.6254 134.592 54.0666 134.834 54.4446C135.076 54.8227 135.424 55.1207 135.835 55.301C132.558 55.7926 132.704 59.3505 132.704 59.3505L140.452 59.3857C140.452 59.3857 140.633 55.7633 137.38 55.2776Z" fill="#FF9933"/>
<path opacity="0.1" d="M137.38 55.2776C137.786 55.0986 138.131 54.804 138.371 54.4304C138.612 54.0569 138.737 53.6209 138.731 53.1768C138.746 52.888 138.703 52.5992 138.603 52.328C138.503 52.0567 138.348 51.8087 138.149 51.5989C137.95 51.3892 137.711 51.2222 137.445 51.1081C137.179 50.9939 136.893 50.9351 136.604 50.9351C136.315 50.9351 136.029 50.9939 135.763 51.1081C135.498 51.2222 135.258 51.3892 135.059 51.5989C134.86 51.8087 134.706 52.0567 134.606 52.328C134.506 52.5992 134.462 52.888 134.477 53.1768C134.468 53.6254 134.592 54.0666 134.834 54.4446C135.076 54.8227 135.424 55.1207 135.835 55.301C132.558 55.7926 132.704 59.3505 132.704 59.3505L140.452 59.3857C140.452 59.3857 140.633 55.7633 137.38 55.2776Z" fill="black"/>
<path d="M149.97 61.6805L122.355 61.5552L122.34 64.8556L149.955 64.9809L149.97 61.6805Z" fill="#FF9933"/>
<path opacity="0.2" d="M149.97 61.6805L122.355 61.5552L122.34 64.8556L149.955 64.9809L149.97 61.6805Z" fill="white"/>
<path d="M48.4482 78.7845H48.1731L47.3773 78.843C46.9466 78.8689 46.5183 78.9256 46.0957 79.0127C45.822 79.0511 45.5505 79.1039 45.2823 79.1707L44.3752 79.4223C42.8314 79.896 41.3748 80.6174 40.0624 81.5583C38.3284 82.8169 36.8805 84.4283 35.8139 86.2866C35.187 87.3578 34.6881 88.499 34.3275 89.6866C33.9486 90.9774 33.7304 92.31 33.6779 93.6542C33.6431 94.3603 33.6548 95.068 33.713 95.7726C33.713 96.1296 33.8125 96.4865 33.8593 96.8494C33.8987 97.2151 33.9672 97.5771 34.0642 97.932C34.5904 100.28 35.6581 102.473 37.1821 104.335C38.7062 106.198 40.6443 107.678 42.842 108.659C44.4326 109.345 46.1375 109.728 47.8688 109.788C49.657 109.886 51.447 109.63 53.1356 109.033L53.6505 108.84H53.7208L53.7793 108.875L61.1586 112.62L60.942 112.808C60.152 110.361 59.3913 107.991 58.6539 105.715V105.627L58.7183 105.563C60.5084 103.76 61.8373 101.552 62.5923 99.1258C63.2761 96.9079 63.4756 94.569 63.1775 92.2673C62.9122 90.2218 62.2545 88.2467 61.2405 86.4505C60.3664 84.9075 59.2388 83.5227 57.9049 82.3541C56.8044 81.4292 55.5864 80.6539 54.2825 80.0485C53.296 79.623 52.2685 79.2994 51.2161 79.0829L50.0458 78.8898L49.1972 78.8254L48.6823 78.7903H48.5067C48.565 78.7838 48.6239 78.7838 48.6823 78.7903H49.2031L50.0516 78.8254L51.222 78.9951C52.2875 79.1958 53.3289 79.5077 54.3294 79.9256C55.6556 80.5238 56.8956 81.2973 58.0161 82.2254C59.3745 83.3888 60.526 84.7738 61.4219 86.3217C62.4647 88.1372 63.1426 90.1391 63.4174 92.2146C63.7403 94.5519 63.5547 96.9313 62.8732 99.1901C62.1133 101.667 60.7638 103.922 58.9407 105.762L58.9758 105.61C59.7131 107.886 60.4797 110.256 61.2756 112.696L61.3868 113.053L61.0532 112.884L53.6739 109.144H53.8027L53.276 109.337C51.5549 109.943 49.7318 110.205 47.9098 110.11C46.1412 110.042 44.4006 109.646 42.7777 108.939C39.6818 107.614 37.1061 105.309 35.4452 102.379C34.6809 101.026 34.1227 99.5668 33.7891 98.049C33.6978 97.685 33.6293 97.3156 33.5843 96.943C33.5375 96.5743 33.4614 96.2115 33.4439 95.8487C33.2855 93.7665 33.5055 91.6728 34.0934 89.669C34.463 88.4651 34.9758 87.3098 35.6208 86.2281C36.7128 84.3529 38.1909 82.7313 39.957 81.4705C41.2911 80.5272 42.7721 79.8113 44.3401 79.3521L45.2589 79.118C45.5293 79.0553 45.8027 79.0065 46.0781 78.9717C46.5051 78.8927 46.9374 78.8457 47.3714 78.8313L48.1731 78.802C48.2643 78.7898 48.3562 78.7839 48.4482 78.7845Z" fill="#FF9933"/>
<path d="M51.7838 92.4313H50.7012L48.3605 89.1425V86.9832C48.3605 86.9832 46.6868 86.8778 46.8858 89.7043C47.0847 92.5308 46.8858 91.811 46.8858 91.811C46.8858 91.811 43.3337 91.811 43.0411 92.1329C42.7485 92.4547 42.7309 95.8839 42.6899 97.7975C42.6675 98.2588 42.7999 98.7144 43.066 99.0918C43.3321 99.4693 43.7168 99.747 44.1588 99.8808C44.2827 99.9151 44.4106 99.9329 44.5392 99.9335C45.4286 99.9335 49.9522 99.2137 49.9522 99.2137H51.8189L51.7838 92.4313Z" fill="#FF9933"/>
<path d="M54.8794 91.8523L54.2122 99.2491H52.363V92.0045L54.8794 91.8523Z" fill="#FF9933"/>
<path d="M76.935 242.439V237.436L67.964 237.371L67.8879 244.938L68.4439 244.979C70.9192 245.137 81.0372 245.371 82.6992 244.856C84.5484 244.282 76.935 242.439 76.935 242.439Z" fill="#FF9933"/>
<path d="M82.9099 244.388C82.9099 244.469 79.5509 244.54 75.4135 244.54C71.2762 244.54 67.9172 244.469 67.9172 244.388C67.9172 244.306 71.2762 244.235 75.4135 244.235C79.5509 244.235 82.9099 244.306 82.9099 244.388Z" fill="#263238"/>
<path d="M77.093 243.463C77.017 243.422 77.093 243.159 77.2744 242.878C77.4558 242.597 77.7016 242.48 77.7601 242.539C77.8187 242.597 77.6958 242.819 77.5202 243.059C77.3447 243.299 77.1691 243.504 77.093 243.463Z" fill="#263238"/>
<path d="M77.6663 243.791C77.5843 243.791 77.6253 243.463 77.8009 243.153C77.9764 242.843 78.2105 242.655 78.2749 242.702C78.3392 242.749 78.2339 243.012 78.0701 243.287C77.9062 243.562 77.7423 243.82 77.6663 243.791Z" fill="#263238"/>
<path d="M70.6207 244.364C70.5856 244.364 70.451 244.259 70.2579 244.037C70.0222 243.751 69.7596 243.488 69.4738 243.253C69.1927 243.028 68.8578 242.881 68.5024 242.825C68.2273 242.79 68.0518 242.825 68.0342 242.79C68.0166 242.755 68.1863 242.632 68.5082 242.609C68.933 242.6 69.3473 242.741 69.6786 243.007C69.989 243.26 70.2507 243.567 70.451 243.914C70.5856 244.171 70.6559 244.341 70.6207 244.364Z" fill="#263238"/>
<path d="M77.1222 242.521C77.1632 242.591 77.011 242.767 76.7536 242.86C76.4961 242.954 76.2679 242.919 76.2562 242.86C76.2444 242.802 76.4259 242.679 76.6482 242.597C76.8706 242.515 77.0754 242.451 77.1222 242.521Z" fill="#263238"/>
<path d="M76.9816 242.035C76.9816 242.123 76.7476 242.193 76.4433 242.199C76.139 242.205 75.899 242.135 75.9049 242.053C75.9107 241.971 76.1507 241.895 76.4433 241.889C76.7359 241.883 76.9699 241.953 76.9816 242.035Z" fill="#263238"/>
<path d="M99.0261 242.439V237.436L90.0551 237.371L89.979 244.862L90.5349 244.903C93.0103 245.061 103.134 245.371 104.79 244.856C106.639 244.282 99.0261 242.439 99.0261 242.439Z" fill="#FF9933"/>
<path d="M105.001 244.399C105.001 244.481 101.648 244.552 97.5044 244.552C93.3612 244.552 90.0139 244.481 90.0139 244.399C90.0139 244.318 93.3671 244.247 97.5044 244.247C101.642 244.247 105.001 244.318 105.001 244.399Z" fill="#263238"/>
<path d="M99.1838 243.463C99.1136 243.422 99.1838 243.159 99.3652 242.878C99.5466 242.597 99.7924 242.48 99.8509 242.539C99.9094 242.597 99.7865 242.819 99.611 243.059C99.4354 243.299 99.2599 243.504 99.1838 243.463Z" fill="#263238"/>
<path d="M99.7575 243.791C99.6814 243.791 99.7165 243.463 99.8979 243.153C100.079 242.843 100.308 242.655 100.372 242.702C100.436 242.749 100.325 243.012 100.161 243.287C99.9974 243.562 99.8394 243.82 99.7575 243.791Z" fill="#263238"/>
<path d="M92.7118 244.364C92.6767 244.364 92.548 244.259 92.349 244.037C92.1133 243.751 91.8507 243.488 91.5648 243.253C91.2837 243.028 90.9489 242.881 90.5934 242.825C90.3242 242.79 90.1428 242.825 90.1253 242.79C90.1077 242.755 90.2774 242.632 90.5993 242.609C91.024 242.6 91.4384 242.741 91.7697 243.007C92.0816 243.258 92.3437 243.566 92.5421 243.914C92.6767 244.171 92.7469 244.341 92.7118 244.364Z" fill="#263238"/>
<path d="M99.2131 242.521C99.254 242.591 99.1019 242.767 98.8444 242.86C98.5869 242.954 98.3587 242.919 98.347 242.86C98.3353 242.802 98.5167 242.679 98.739 242.597C98.9614 242.515 99.1662 242.451 99.2131 242.521Z" fill="#263238"/>
<path d="M99.0844 242.035C99.0844 242.123 98.8504 242.193 98.5461 242.199C98.2418 242.205 98.0077 242.135 98.0135 242.053C98.0194 241.971 98.2535 241.895 98.5461 241.889C98.8387 241.883 99.0844 241.953 99.0844 242.035Z" fill="#263238"/>
<path d="M132.078 93.8588C131.843 93.6189 131.264 93.736 131.264 93.736C131.322 93.399 131.322 93.0546 131.264 92.7177C131.159 92.39 130.421 92.4544 130.421 92.4544C130.387 92.1784 130.387 91.8994 130.421 91.6234C130.427 91.5622 130.414 91.5008 130.384 91.4473C130.353 91.3939 130.307 91.3512 130.252 91.325C129.903 91.1827 129.528 91.1149 129.152 91.126C128.701 90.8041 130.527 88.2469 131.206 87.4276C131.884 86.6083 131.762 85.9705 131.159 85.9705C130.743 85.9705 128.613 88.4283 127.958 89.2534C127.302 90.0785 125.564 92.3725 125.506 90.5408C125.447 88.7092 124.71 87.3281 124.248 87.094C123.785 86.86 123.294 87.41 123.545 87.9191C123.767 88.4975 123.904 89.1044 123.955 89.7215C124.019 90.2131 123.997 90.712 123.891 91.1962C123.697 92.0971 123.433 92.9815 123.101 93.8413H123.054C123.054 93.8413 110.285 106.089 109.36 106.961C108.535 107.745 91.9392 106.031 88.6095 105.68C87.478 105.514 86.3355 105.436 85.192 105.446C83.7465 105.51 83.4891 105.715 82.0495 105.732C78.4139 105.773 74.7868 106.092 71.2 106.686C69.5759 106.962 68.0588 107.679 66.8143 108.759C65.5697 109.838 64.6456 111.239 64.1426 112.807C60.7894 123.282 53.1936 148.077 51.8536 162.004C50.8409 163.841 49.9267 165.73 49.1149 167.663C48.1727 170.226 48.4009 170.314 48.7169 170.373C49.5713 170.531 50.5427 165.931 50.9055 167.043C51.2684 168.155 49.0622 172.526 49.9575 172.655C51.1279 172.819 52.0584 167.973 52.1696 167.587C52.2808 167.201 52.8601 167.324 52.7548 167.687C52.5851 168.202 50.9407 173.661 52.0876 173.837C52.7196 173.931 52.7899 172.778 52.7899 172.778C52.7899 172.778 53.9603 167.552 54.4928 167.657C55.0253 167.763 54.4577 170.847 54.1885 171.877C53.9193 172.907 54.2938 173.427 54.8439 173.176C55.2184 173 56.1138 169.869 56.3595 168.851C56.6053 167.833 57.2198 165.012 58.0449 166.645C58.87 168.278 60.1223 169.226 60.6373 169.249C60.7533 169.236 60.8627 169.188 60.9514 169.112C61.04 169.036 61.1039 168.935 61.1347 168.822C61.1655 168.71 61.162 168.59 61.1244 168.48C61.0869 168.369 61.0171 168.272 60.924 168.202C60.4811 167.769 60.1009 167.277 59.7946 166.739C59.5216 166.32 59.3236 165.856 59.2094 165.369C58.9736 164.399 58.8364 163.407 58.7998 162.408L58.7062 161.823C60.017 155.333 63.7915 136.285 69.2396 124.119L71.4751 128.719L72.4465 132.125L66.4892 146.83L91.8983 146.497L88.1062 131.902L92.7117 116.687C97.6917 116.798 110.478 116.986 112.608 116.02C115.288 114.85 129.152 97.3407 129.152 97.3407C130.055 96.6386 130.921 95.8884 131.744 95.0936C131.744 95.0936 132.587 94.3855 132.078 93.8588Z" fill="#FFBE9D"/>
<path d="M65.3715 135.963C66.1089 133.447 69.8951 121.006 69.8951 121.006C69.8951 121.006 71.756 131.147 71.2644 132.37C70.8122 133.417 70.278 134.427 69.6668 135.39C65.3715 141.926 65.9333 145.198 65.9333 145.198L91.8866 144.408C91.9451 140.779 89.7974 132.341 89.3527 130.995C88.9079 129.649 90.3885 125.243 90.3885 125.243C90.3885 125.243 93.3145 122.264 93.2091 120.731C93.1535 119.353 92.9832 117.983 92.7 116.634L108.5 117.22L108.003 106.511L85.309 104.24C84.519 106.47 77.3738 105.375 77.3738 105.375C69.661 105.633 69.1811 107.049 65.9743 109.542C62.7674 112.035 57.4597 133.429 57.4597 133.429L65.3715 135.963Z" fill="#FF9933"/>
<path d="M80.7153 133.429C80.2655 133.51 79.8074 133.533 79.3518 133.5C78.5032 133.5 77.3387 133.441 76.0571 133.312C74.7756 133.184 73.6169 133.002 72.7918 132.838C72.3368 132.78 71.8907 132.666 71.4634 132.499C71.9209 132.499 72.3774 132.542 72.8269 132.628C73.6579 132.733 74.8107 132.879 76.0864 133.008C77.3621 133.137 78.5208 133.225 79.3576 133.283C79.8138 133.289 80.2684 133.338 80.7153 133.429Z" fill="#263238"/>
<path d="M82.4943 131.223C82.0443 131.444 81.5686 131.607 81.0781 131.709C78.7434 132.323 76.3346 132.608 73.9212 132.558C73.4218 132.574 72.9223 132.527 72.4348 132.417C72.9277 132.355 73.4245 132.33 73.9212 132.341C74.84 132.312 76.104 132.247 77.4967 132.084C78.8895 131.92 80.1301 131.686 81.0079 131.498C81.4954 131.368 81.9924 131.276 82.4943 131.223Z" fill="#263238"/>
<path d="M91.2253 121.38C91.2134 121.826 91.1526 122.27 91.0439 122.703C90.8917 123.516 90.6576 124.628 90.3592 125.845C90.0607 127.062 89.774 128.186 89.5165 128.947C89.413 129.382 89.2598 129.804 89.0601 130.205C89.0927 129.76 89.1751 129.32 89.3058 128.894C89.5282 127.981 89.7798 126.928 90.0607 125.775C90.3416 124.622 90.6108 123.569 90.8332 122.656C90.9124 122.216 91.044 121.788 91.2253 121.38Z" fill="#263238"/>
<path d="M65.6464 134.471C64.2926 134.262 62.9565 133.951 61.6495 133.54C60.3141 133.228 59.0036 132.817 57.7288 132.312C59.0819 132.524 60.4178 132.835 61.7256 133.242C63.0614 133.553 64.372 133.964 65.6464 134.471Z" fill="#263238"/>
<path d="M92.9807 116.506C92.76 116.544 92.5344 116.544 92.3136 116.506C91.7024 116.443 91.1022 116.299 90.5288 116.078C89.5715 115.719 88.7 115.163 87.9703 114.446C87.2407 113.73 86.669 112.868 86.292 111.918C85.8753 110.872 85.6973 109.746 85.7712 108.623C85.7973 107.697 86.0743 106.794 86.5729 106.013C86.9235 105.487 87.4473 105.1 88.0534 104.919C88.2154 104.874 88.3828 104.852 88.5508 104.854C88.6679 104.854 88.7264 104.854 88.7264 104.854C88.7264 104.854 88.4806 104.854 88.0885 105.012C87.5325 105.218 87.0609 105.603 86.7484 106.107C85.9526 107.359 85.7302 109.647 86.5787 111.783C86.9737 112.79 87.5919 113.695 88.387 114.428C89.0384 115.028 89.7888 115.511 90.6048 115.856C91.3707 116.159 92.1674 116.376 92.9807 116.506Z" fill="#263238"/>
<path d="M106.622 117.009C106.475 115.214 106.428 113.413 106.481 111.613C106.435 109.815 106.49 108.016 106.645 106.224C106.792 108.016 106.838 109.816 106.786 111.613C106.835 113.414 106.78 115.215 106.622 117.009Z" fill="#263238"/>
<path d="M85.1569 104.896C85.2212 103.591 85.3558 102.116 85.3558 102.116C85.3558 102.116 88.5861 101.759 88.7792 98.4233C88.9723 95.0877 88.7792 87.3924 88.7792 87.3924L82.9273 84.3962L76.4316 89.505L77.4323 106.183L83.3896 106.563C83.8449 106.576 84.2867 106.407 84.618 106.095C84.9493 105.782 85.1431 105.351 85.1569 104.896Z" fill="#FFBE9D"/>
<path d="M85.7361 95.784C85.7361 95.784 85.7361 95.8483 85.6835 95.9244C85.6399 95.9796 85.5836 96.0233 85.5194 96.0519C85.4552 96.0804 85.3849 96.0929 85.3148 96.0883C84.9403 96.0883 84.5775 95.6552 84.4487 95.1519C84.3875 94.908 84.3875 94.6527 84.4487 94.4088C84.4607 94.3023 84.4991 94.2005 84.5604 94.1126C84.6218 94.0247 84.704 93.9535 84.7998 93.9055C84.8785 93.873 84.9669 93.873 85.0456 93.9055C85.104 93.9345 85.1512 93.9817 85.1802 94.0401C85.2212 94.1396 85.1802 94.2039 85.1802 94.1981C85.1802 94.1922 85.1802 94.1396 85.1217 94.081C85.0911 94.0391 85.0461 94.01 84.9954 93.9992C84.9446 93.9884 84.8917 93.9967 84.8467 94.0225C84.7749 94.0659 84.7152 94.1268 84.6733 94.1994C84.6313 94.2721 84.6084 94.3541 84.6067 94.438C84.5575 94.6557 84.5575 94.8816 84.6067 95.0993C84.7238 95.5557 85.0398 95.9244 85.3207 95.9595C85.3756 95.967 85.4315 95.963 85.4849 95.9479C85.5382 95.9328 85.5879 95.9069 85.6308 95.8717C85.701 95.8249 85.7244 95.7781 85.7361 95.784Z" fill="#EB996E"/>
<path d="M90.7865 85.5899C90.3359 84.0567 88.7032 83.296 87.2168 82.8746C84.9521 82.2309 82.506 81.95 80.294 82.7634C78.0819 83.5769 75.4252 85.0047 75.4252 87.445C74.1202 87.3397 73.3711 88.4808 72.8562 89.8969C72.5269 90.7597 72.3296 91.6672 72.271 92.5888C72.1071 95.784 71.2118 100.196 69.1402 102.537C67.9698 103.842 66.3488 104.743 65.6817 106.37C65.0965 107.78 65.4008 109.454 64.8566 110.882C64.3709 112.14 63.3 113.035 62.5158 114.13C61.7169 115.371 61.2468 116.795 61.1495 118.268C61.0523 119.741 61.3311 121.215 61.9599 122.551C62.5932 123.852 63.4848 125.011 64.5804 125.957C65.676 126.902 66.9527 127.615 68.3326 128.051C71.0661 128.883 73.981 128.912 76.7302 128.133C78.7934 127.64 80.7181 126.686 82.3597 125.342C84.0394 123.97 85.1931 122.06 85.6251 119.935C86.0406 117.547 85.3734 115.119 84.876 112.743C83.3194 105.235 83.7642 104.843 85.7304 97.8731C85.7772 97.7502 85.8006 97.6215 85.8357 97.4986C85.8709 97.3757 85.8884 97.3172 85.9118 97.2236C85.9677 96.948 85.9971 96.6678 85.9996 96.3867C85.7124 96.4935 85.4007 96.5161 85.1011 96.4518C84.8015 96.3876 84.5265 96.2391 84.3084 96.0239C84.0898 95.7944 83.9373 95.5101 83.8673 95.201C83.7972 94.8919 83.8122 94.5696 83.9105 94.2683C84.0485 93.9388 84.2543 93.6419 84.5143 93.397C84.7744 93.152 85.0831 92.9644 85.4202 92.8463C86.0698 92.5771 86.7662 92.4367 87.4041 92.1382C88.7558 91.4945 89.6922 90.1603 90.33 88.7617C90.8544 87.7923 91.0163 86.6678 90.7865 85.5899Z" fill="#263238"/>
<path d="M85.9703 95.9419C86.094 96.1246 86.1961 96.3209 86.2746 96.5271C86.4502 96.8958 86.6842 97.4166 86.9417 98.0193L86.9885 98.1305H86.8657L86.2805 98.1832C85.8767 98.1832 85.5373 98.2593 85.1393 98.2534C85.1047 98.2456 85.0726 98.2292 85.046 98.2057C85.0194 98.1821 84.9991 98.1523 84.9872 98.1188C84.9698 98.0656 84.9698 98.0082 84.9872 97.955C85.0007 97.8761 85.0183 97.7979 85.0399 97.7209L85.1452 97.3054C85.1981 97.0282 85.2805 96.7575 85.391 96.4978C85.3801 96.7804 85.3389 97.0609 85.2681 97.3347L85.1862 97.7501C85.1569 97.8906 85.1042 98.1071 85.1862 98.0895C85.4787 98.0895 85.8942 98.0252 86.2805 98.0018L86.8657 97.9491L86.7896 98.0778C86.538 97.4927 86.3273 96.9426 86.2044 96.5622C86.0966 96.3679 86.0177 96.159 85.9703 95.9419Z" fill="#FF9933"/>
<path d="M65.9333 145.198L91.8866 144.408L103.181 188.496L101.103 239.068H87.3806L89.0601 189.573L79.024 158.88L80.569 241.029L66.6999 241.234L65.2428 164.017C65.1784 161.87 64.4762 157.03 64.7395 154.9L65.9333 145.198Z" fill="#263238"/>
<path d="M82.4765 159.506C82.0517 159.532 81.6252 159.507 81.2067 159.429C80.4225 159.336 79.3516 159.172 78.1754 158.938C76.9991 158.704 75.9458 158.435 75.185 158.218C74.7784 158.129 74.385 157.987 74.0146 157.797C74.0146 157.709 75.9224 158.165 78.2631 158.639C80.6039 159.113 82.4882 159.418 82.4765 159.506Z" fill="#455A64"/>
<path d="M100.963 236.294C100.963 236.376 97.8554 236.447 94.0224 236.447C90.1894 236.447 87.0762 236.376 87.0762 236.294C87.0762 236.213 90.1835 236.142 94.0224 236.142C97.8613 236.142 100.963 236.207 100.963 236.294Z" fill="#455A64"/>
<path d="M80.446 238.893C80.446 238.981 77.4264 239.045 73.7046 239.045C69.9827 239.045 66.969 238.981 66.969 238.893C66.969 238.805 69.9886 238.741 73.7046 238.741C77.4205 238.741 80.446 238.811 80.446 238.893Z" fill="#455A64"/>
<path d="M78.6553 238.682C78.5734 238.682 78.2106 220.734 77.8419 198.596C77.4732 176.459 77.2567 158.499 77.3328 158.499C77.4089 158.499 77.7834 176.441 78.1462 198.591C78.509 220.74 78.7431 238.682 78.6553 238.682Z" fill="#455A64"/>
<path d="M99.1197 236.295C99.1133 236.215 99.1133 236.135 99.1197 236.055V235.352C99.1197 234.72 99.1665 233.813 99.2016 232.661C99.2835 230.32 99.4006 226.92 99.5469 222.753C99.8629 214.373 100.308 202.822 100.793 190.07C100.793 189.947 100.793 189.83 100.793 189.725V189.766C97.7211 177.477 94.9414 166.323 92.9225 158.253L90.5817 148.709C90.3125 147.591 90.1077 146.719 89.9614 146.111C89.8912 145.824 89.8444 145.602 89.8034 145.432C89.7806 145.356 89.7669 145.277 89.7625 145.198C89.7928 145.272 89.8164 145.348 89.8327 145.426C89.8795 145.59 89.938 145.812 90.0199 146.093C90.1779 146.678 90.4062 147.568 90.6988 148.68C91.2839 150.938 92.1091 154.192 93.139 158.201C95.1755 166.265 97.9844 177.389 101.098 189.696V189.737C101.098 189.842 101.098 189.965 101.098 190.082C100.577 202.833 100.103 214.379 99.7575 222.759C99.5761 226.932 99.424 230.308 99.3186 232.661C99.2601 233.831 99.2133 234.72 99.184 235.352C99.184 235.651 99.1489 235.885 99.1431 236.055C99.144 236.135 99.1361 236.216 99.1197 236.295Z" fill="#455A64"/>
<path d="M94.6429 188.695C93.6573 189.019 92.6419 189.245 91.6116 189.368C90.3476 189.585 89.2709 189.737 88.7852 189.76V189.643C88.9432 189.69 89.0251 189.719 89.0251 189.743C89.0251 189.766 88.9256 189.743 88.7618 189.743H88.4106L88.7618 189.637C89.2182 189.503 90.295 189.28 91.559 189.052C92.5728 188.832 93.6057 188.713 94.6429 188.695Z" fill="#455A64"/>
<path d="M94.403 190.374C93.4902 190.416 92.5755 190.375 91.6701 190.252C90.756 190.233 89.8454 190.133 88.949 189.953C90.7778 189.804 92.6188 189.946 94.403 190.374Z" fill="#455A64"/>
<path opacity="0.2" d="M65.822 146.128C66.1294 146.523 66.5165 146.848 66.9582 147.083C67.3998 147.318 67.8861 147.457 68.3852 147.492C69.4304 147.615 70.4877 147.596 71.5276 147.433C78.2281 146.69 85.3265 146.005 91.8865 144.408C83.3953 144.882 74.4243 144.724 65.9332 145.198L65.8454 145.923" fill="black"/>
<g opacity="0.2">
<path opacity="0.2" d="M74.5708 158.095L79.3577 176.669L79.0241 158.879L74.5708 158.095Z" fill="black"/>
</g>
</svg>
