<svg width="301" height="151" viewBox="0 0 301 151" fill="none" xmlns="http://www.w3.org/2000/svg">
<path d="M299.81 81.7102L297.116 77.0208L292.904 77.6412L289.434 73.2685L291.225 68.9304L286.527 65.8114L283.018 69.3469L278.398 68.54L276.528 63.1045L270.91 63.6988L270.594 68.4489L266.407 70.5485L261.978 67.4121L257.484 70.6873L259.818 75.7151L257.146 79.7451L252.292 79.4848L251.021 85.4756L255.64 87.2542L256.04 92.2863L251.268 95.0409L253.558 100.247L258.517 99.4744L261.8 103.266L260.065 107.994L264.607 111.2L268.151 107.365L273.071 108.697L274.602 113.772L280.068 113.404L280.771 108.844L285.46 106.155L289.295 109.213L294.145 105.6L291.685 101.348L294.075 97.0668L298.995 97.4268L300.5 91.8525L296.279 89.5707L295.719 84.4909L299.81 81.7102ZM280.766 98.1123C278.871 99.2001 276.696 99.7015 274.516 99.5531C272.335 99.4047 270.248 98.6131 268.518 97.2784C266.787 95.9438 265.492 94.126 264.795 92.055C264.097 89.9839 264.03 87.7526 264.601 85.6433C265.172 83.5339 266.355 81.6412 268.002 80.2045C269.648 78.7678 271.684 77.8516 273.851 77.5717C276.018 77.2919 278.22 77.661 280.177 78.6324C282.135 79.6038 283.76 81.1338 284.848 83.029C286.306 85.5707 286.695 88.5873 285.929 91.4156C285.164 94.2439 283.307 96.6526 280.766 98.1123Z" fill="#F5F5F5"/>
<path d="M43.8026 137.059C52.1142 129.875 52.9471 118.054 51.5156 107.647C51.277 105.912 51.277 104.055 50.2922 102.611C49.3075 101.166 47.2556 100.325 45.7764 101.218C44.5444 101.96 44.1366 103.526 43.5423 104.845C42.7482 106.609 41.4715 108.113 39.8593 109.183C38.8052 109.873 37.4691 110.367 36.3108 109.877C34.7231 109.2 34.3327 107.144 34.1418 105.409L33.2265 95.709C33.0573 93.9738 32.8794 92.2082 32.1723 90.6162C31.4653 89.0241 30.1118 87.623 28.4156 87.3323C26.7195 87.0417 24.7804 88.1999 24.6069 89.9351C24.5331 90.6596 24.7543 91.3753 24.7804 92.1041C24.8064 92.8329 24.5548 93.6615 23.9128 93.9304C23.2707 94.1994 22.4986 93.7873 21.926 93.3318C19.9565 91.7657 18.5119 89.6358 17.1541 87.5102C15.7963 85.3845 14.4516 83.2069 12.6296 81.463C10.8076 79.7191 8.40871 78.4264 5.91002 78.5565C3.41132 78.6866 0.925643 80.4782 0.552574 82.9813C0.179504 85.4843 1.85398 87.8182 3.61087 89.6358C6.21442 92.3344 9.19523 94.6417 12.4604 96.4855C13.046 96.8152 13.6794 97.1753 13.957 97.7869C14.4516 98.9018 13.4755 100.164 12.3737 100.663C11.1243 101.223 9.71012 101.236 8.37401 101.531C7.0379 101.826 5.63672 102.576 5.25932 103.904C4.73008 105.752 6.40455 107.452 7.98793 108.519C11.1656 110.655 14.6875 112.229 18.3992 113.17C19.7006 113.504 21.1061 113.777 22.2253 114.566C23.3445 115.356 24.1253 116.848 23.6308 118.132C23.1363 119.416 21.5833 119.976 20.2211 119.867C18.859 119.759 17.5923 119.156 16.2692 118.809C13.7922 118.154 10.7339 118.635 9.41947 120.852C8.55187 122.31 8.66466 124.201 9.33705 125.763C10.0094 127.324 11.1807 128.608 12.4084 129.775C16.6856 133.862 21.952 136.964 27.6695 138.308C33.387 139.653 38.5666 139.644 43.8503 137.072" fill="#F5F5F5"/>
<path d="M44.7354 144.785C43.7535 139.993 42.3125 135.306 40.4321 130.791C38.112 125.282 35.4774 119.911 32.5412 114.705C31.7691 113.317 31.007 111.948 30.2551 110.597C29.5046 109.248 28.7585 107.912 27.9473 106.65C26.3851 104.231 24.6907 101.901 22.8718 99.6697C21.1366 97.5267 19.4361 95.5529 17.8223 93.7223C16.2086 91.8916 14.6599 90.2172 13.1937 88.7683C10.8845 86.4364 8.39545 84.2897 5.74965 82.348C4.81264 81.6669 4.07084 81.1594 3.58065 80.821C3.33772 80.6605 3.14685 80.5347 2.99935 80.4436C2.93652 80.3974 2.86975 80.3567 2.7998 80.3221C2.85427 80.3786 2.91546 80.4281 2.982 80.4696L3.54594 80.8731C4.04048 81.2288 4.76926 81.7407 5.71495 82.4521C8.33079 84.4199 10.7959 86.5804 13.0896 88.9157C14.5428 90.3863 16.0741 92.0695 17.6792 93.9001C19.2843 95.7308 20.9848 97.7132 22.6983 99.8562C24.504 102.085 26.1867 104.411 27.739 106.823C28.5416 108.077 29.2834 109.404 30.0382 110.753C30.793 112.102 31.5478 113.478 32.32 114.861C35.2495 120.06 37.8854 125.419 40.2152 130.912C42.0954 135.407 43.5478 140.069 44.5532 144.837" fill="#E0E0E0"/>
<path d="M27.8523 106.65C27.9123 106.401 27.9443 106.146 27.9477 105.89C27.9911 105.405 28.0258 104.693 28.0605 103.817C28.1256 102.082 28.1343 99.648 28.1386 96.9758C28.1429 94.3035 28.182 91.8916 28.2774 90.1477C28.3208 89.2801 28.3642 88.5687 28.3989 88.0785C28.4283 87.8263 28.4283 87.5715 28.3989 87.3193C28.3248 87.5623 28.2768 87.8124 28.2557 88.0655C28.182 88.5513 28.1039 89.2584 28.0345 90.1304C27.8783 91.8656 27.8002 94.3035 27.8002 96.9758C27.8002 99.648 27.8002 101.99 27.8002 103.812C27.8002 104.637 27.8002 105.331 27.8002 105.886C27.791 106.142 27.8085 106.398 27.8523 106.65Z" fill="#E0E0E0"/>
<path d="M5.1377 104.78C5.4376 104.812 5.7401 104.812 6.04 104.78C6.61696 104.78 7.44986 104.754 8.4823 104.78C10.5472 104.78 13.3973 104.906 16.538 105.166C19.6787 105.426 22.5071 105.799 24.546 106.12C25.5697 106.276 26.394 106.42 26.9622 106.519C27.2472 106.587 27.5375 106.629 27.8298 106.645C27.5501 106.533 27.2593 106.45 26.9622 106.398C26.3983 106.259 25.5784 106.077 24.559 105.895C22.5201 105.513 19.6874 105.114 16.538 104.845C13.8509 104.609 11.1534 104.511 8.45627 104.55C7.41949 104.55 6.58225 104.619 6.0053 104.667C5.71348 104.681 5.42329 104.718 5.1377 104.78Z" fill="#E0E0E0"/>
<path d="M40.1152 130.413C40.1685 130.323 40.2108 130.227 40.241 130.127C40.3191 129.897 40.4189 129.619 40.536 129.281C40.792 128.543 41.1347 127.472 41.5381 126.14C42.3536 123.477 43.3557 119.759 44.4099 115.647C45.464 111.534 46.4357 107.812 47.1905 105.136C47.5636 103.834 47.8673 102.763 48.0928 101.969C48.1926 101.622 48.2707 101.335 48.3358 101.101C48.373 101.003 48.3935 100.899 48.3965 100.793C48.3457 100.885 48.3049 100.983 48.275 101.084C48.1926 101.314 48.0928 101.591 47.9757 101.93C47.7198 102.663 47.3771 103.739 46.9736 105.07C46.1624 107.734 45.156 111.447 44.1019 115.564C43.0477 119.681 42.076 123.399 41.3212 126.075C40.9525 127.377 40.6445 128.448 40.4189 129.242L40.1803 130.109C40.1468 130.208 40.125 130.31 40.1152 130.413Z" fill="#E0E0E0"/>
<path d="M9.51953 123.906C9.61538 123.952 9.71784 123.983 9.82319 123.997L10.7168 124.197L13.992 124.9C16.7597 125.49 20.5728 126.353 24.7807 127.311C28.9885 128.27 32.819 129.094 35.5997 129.628C36.9878 129.897 38.1157 130.105 38.8966 130.231L39.7989 130.37C39.9027 130.393 40.0093 130.402 40.1155 130.396C40.017 130.353 39.9136 130.322 39.8075 130.305L38.9399 130.105L35.6257 129.42C32.858 128.825 29.0449 127.967 24.8327 127.008C20.6205 126.049 16.8161 125.208 14.0354 124.687C12.6472 124.418 11.5194 124.214 10.7385 124.088L9.83621 123.945C9.73242 123.92 9.62621 123.907 9.51953 123.906Z" fill="#E0E0E0"/>
<path d="M240.774 65.0393C241.217 64.7342 241.637 64.3979 242.032 64.0329C242.483 63.5938 242.864 63.0893 243.164 62.5363C243.901 61.2208 244.155 59.6898 243.885 58.2068C243.614 56.7238 242.835 55.3816 241.681 54.4112C241.208 54.0049 240.676 53.6742 240.102 53.4308C239.509 53.1662 238.878 52.9978 238.232 52.932C236.868 52.7751 235.489 53.0594 234.297 53.7433C233.106 54.4271 232.165 55.4745 231.612 56.732C231.095 57.9016 230.933 59.1977 231.148 60.4584C231.347 61.5981 231.845 62.6642 232.593 63.5471C233.189 64.2473 233.927 64.8137 234.757 65.2092C235.588 65.6046 236.493 65.8202 237.412 65.8419C238.042 65.8624 238.67 65.7878 239.278 65.6206C239.794 65.4666 240.297 65.2722 240.783 65.0393C240.783 65.0393 240.757 65.0654 240.696 65.1001L240.419 65.2519C240.272 65.3384 240.118 65.411 239.959 65.4688C239.747 65.5636 239.528 65.6419 239.304 65.7031C238.691 65.8893 238.053 65.9785 237.412 65.9677C236.469 65.9607 235.538 65.7519 234.682 65.3554C233.826 64.9588 233.065 64.3836 232.45 63.6685C231.673 62.7636 231.153 61.6671 230.944 60.4931C230.828 59.8606 230.809 59.214 230.888 58.5757C230.955 57.9082 231.131 57.2562 231.408 56.6453C231.978 55.3421 232.951 54.2565 234.184 53.5487C235.418 52.841 236.846 52.5487 238.258 52.7151C239.57 52.8641 240.807 53.3984 241.815 54.2507C242.725 55.0233 243.411 56.0254 243.802 57.1528C244.106 58.0451 244.218 58.9919 244.129 59.9304C244.04 60.8689 243.752 61.7778 243.286 62.597C242.973 63.1552 242.573 63.6603 242.102 64.0937C241.936 64.2527 241.758 64.3978 241.568 64.5275C241.434 64.6377 241.288 64.7336 241.134 64.8138L240.865 64.9743C240.813 65.0263 240.779 65.0437 240.774 65.0393Z" fill="#E0E0E0"/>
<path d="M252.092 55.2875L251.944 55.396L251.511 55.7127L249.702 56.962V56.9273C249.797 57.7472 249.914 58.7623 250.049 59.9639L250.023 59.9249L252.539 61.2783H252.578V61.3217C252.313 62.3195 252.014 63.4387 251.71 64.636V64.6924H251.658L248.734 64.4841L248.804 64.4451L247.32 66.9915V66.9134C247.776 67.6986 248.27 68.5619 248.782 69.4512L248.821 69.5162L248.76 69.5596L245.88 71.7286L245.828 71.7676L245.771 71.7243L243.49 69.9066H243.594L240.809 71.5117L240.856 71.4423C240.731 72.2795 240.587 73.2079 240.423 74.1536V74.2316H240.379L237.13 74.4572H237.048L237.022 74.3791L236.111 71.3425L236.184 71.4163L233.261 70.6267L233.369 70.5964L231.261 72.8738L231.196 72.9476L231.118 72.8912L228.415 70.9868L228.346 70.9347L228.376 70.8567C228.697 69.9891 229.044 69.013 229.395 68.0456L229.417 68.1584L227.465 65.9027L227.565 65.9417L224.619 66.4015H224.532L224.498 66.3191C224.064 65.3431 223.6 64.2889 223.136 63.2348L223.092 63.1393L223.183 63.0873L223.244 63.0526C224.177 62.519 225.109 61.9854 226.029 61.4519L225.973 61.5603C225.895 60.5539 225.817 59.5561 225.738 58.5671L225.812 58.6625L223.027 57.6387L222.94 57.604V57.5129C223.198 56.3128 223.449 55.1256 223.695 53.9514V53.8603H223.791L226.675 54.0122L226.58 54.0642L228.172 51.6696V51.7738C227.699 50.7587 227.239 49.7653 226.784 48.7805L226.749 48.7024L226.819 48.6547L229.491 46.7113L229.552 46.6679L229.612 46.7069L232.241 48.5766H232.141L234.627 47.3143L234.575 47.3967C234.64 46.425 234.705 45.488 234.766 44.5683V44.4902H234.844L238.18 44.1432H238.254V44.2126L239.364 47.4444L239.299 47.388L242.045 47.8739H241.971L244.062 45.7786L244.106 45.7352L244.158 45.7656L246.947 47.6266L246.99 47.657V47.709C246.587 48.6807 246.24 49.5136 245.919 50.3118V50.2511L247.979 52.8539H247.936L250.443 52.4982H250.465V52.5199L251.658 54.6412L251.944 55.1574C252.009 55.2702 252.035 55.3222 252.035 55.3222C252.035 55.3222 251.996 55.2658 251.927 55.1531C251.858 55.0403 251.758 54.8624 251.623 54.6412L250.404 52.5546H250.439L247.936 52.932H247.91V52.9103L245.832 50.3075V50.2815V50.2468C246.153 49.4703 246.492 48.633 246.891 47.644L246.917 47.722L244.119 45.8784H244.21C243.559 46.5421 242.878 47.2319 242.127 47.9867L242.101 48.017H242.058L239.347 47.5572H239.299V47.5095C238.939 46.477 238.57 45.4055 238.18 44.2777L238.275 44.3384L234.935 44.6941L235.022 44.6074C234.961 45.527 234.9 46.464 234.835 47.4357V47.4878L234.788 47.5138L232.302 48.7805L232.245 48.8066L232.198 48.7718L229.534 46.8805H229.656L226.988 48.8282L227.023 48.6981L228.411 51.687L228.437 51.7434L228.402 51.7911L226.814 54.19L226.78 54.2421H226.719L223.83 54.0902L223.943 54.0035C223.694 55.1748 223.444 56.3619 223.192 57.565L223.123 57.4349L225.869 58.4933L225.934 58.5194V58.5888C226.012 59.5778 226.09 60.5756 226.168 61.582V61.6514L226.103 61.6904L223.318 63.2868L223.257 63.3259L223.305 63.1827L224.663 66.2671L224.545 66.202L227.491 65.7465H227.552L227.595 65.7899C228.268 66.5664 228.931 67.3385 229.547 68.0456L229.591 68.0977V68.1584C229.235 69.1258 228.888 70.0845 228.567 70.9651L228.528 70.8393L231.226 72.748H231.083L233.191 70.4706L233.235 70.4229H233.3L236.223 71.2167H236.28V71.2731C236.592 72.3229 236.905 73.3554 237.186 74.3097L237.082 74.236L240.332 74.0191L240.24 74.1058C240.388 73.1601 240.531 72.2318 240.674 71.3946V71.3469L240.713 71.3252L243.503 69.7288L243.555 69.6984L243.607 69.7375L245.884 71.5594H245.776L248.661 69.4164V69.5249C248.149 68.6573 247.654 67.7897 247.207 66.9828L247.186 66.9438L247.207 66.9047L248.63 64.3627L248.656 64.3236H248.7L251.623 64.5449L251.554 64.5926C251.879 63.3953 252.187 62.2804 252.461 61.2827L252.487 61.3477L249.984 59.9813V59.9552L249.663 56.9186V56.8969L251.48 55.691L251.949 55.383L252.092 55.2875Z" fill="#E0E0E0"/>
<path d="M287.838 145.887C287.838 145.952 226.043 146 149.833 146C73.6224 146 11.8145 145.952 11.8145 145.887C11.8145 145.822 73.5964 145.774 149.833 145.774C226.069 145.774 287.838 145.826 287.838 145.887Z" fill="#263238"/>
<path d="M276.173 86.1177L252.314 145.796H185.287L206.587 85.2978C206.662 85.0839 206.802 84.8986 206.987 84.7674C207.171 84.6361 207.392 84.5653 207.619 84.5647L275.153 84.6081C275.333 84.6077 275.511 84.6516 275.67 84.7359C275.829 84.8202 275.964 84.9422 276.065 85.0914C276.166 85.2405 276.228 85.4121 276.247 85.5911C276.266 85.7701 276.24 85.9509 276.173 86.1177Z" fill="#263238"/>
<path d="M272.481 87.8398L250.579 141.306C250.531 141.421 250.45 141.519 250.347 141.588C250.243 141.656 250.122 141.693 249.997 141.692H188.966C188.867 141.694 188.769 141.672 188.68 141.628C188.592 141.584 188.515 141.519 188.457 141.439C188.399 141.359 188.361 141.266 188.347 141.168C188.333 141.07 188.343 140.97 188.376 140.876L207.797 87.4103C207.841 87.2904 207.921 87.1868 208.025 87.1138C208.13 87.0408 208.255 87.002 208.383 87.0026H271.917C272.017 87.0033 272.114 87.0283 272.202 87.0753C272.29 87.1224 272.364 87.19 272.42 87.2725C272.476 87.355 272.51 87.4497 272.521 87.5486C272.531 87.6474 272.518 87.7474 272.481 87.8398Z" fill="#455A64"/>
<path d="M252.301 145.891H251.707H161.246V141.692H249.828L252.301 145.891Z" fill="#263238"/>
<path d="M183.166 88.4342C183.166 88.4342 181.331 110.246 177.379 111.309C166.621 114.198 154.314 112.059 149.993 111.209C149.507 110.775 148.948 110.289 148.314 109.664C147.778 109.121 147.338 108.49 147.013 107.799C146.563 106.953 146.232 106.05 146.028 105.114C145.924 104.246 144.835 103.943 144.449 104.641C144.063 105.339 143.902 108.007 145.351 110.437C145.415 110.59 145.445 110.754 145.438 110.92C145.432 111.085 145.39 111.248 145.315 111.395C145.24 111.543 145.133 111.672 145.004 111.775C144.874 111.878 144.723 111.951 144.562 111.99C142.736 112.666 136.298 114.666 135.257 115.156C134.333 115.59 133.439 116.38 134.411 116.54C135.383 116.701 140.701 115.933 140.701 115.933C140.701 115.933 133.712 116.8 133.886 117.807C134.003 118.505 135.886 118.839 140.449 117.807C140.449 117.807 134.697 118.557 134.099 119.16C132.741 120.522 139.669 119.685 139.669 119.685C134.819 120.314 134.871 120.063 134.819 120.726C134.78 121.225 135.877 121.425 138.541 121.455C140.71 121.481 142.931 121.941 146.219 122.162C146.219 122.162 187.799 133.923 193.503 115.625C196.588 105.76 196.605 102.008 197.672 95.5442" fill="#FFBE9D"/>
<path d="M142.579 119.377C142.579 119.499 141.117 119.755 139.274 119.945C137.43 120.136 135.929 120.197 135.925 120.071C135.92 119.945 137.395 119.694 139.23 119.503C141.065 119.312 142.562 119.256 142.579 119.377Z" fill="#A36957"/>
<path d="M142.536 117.49C142.536 117.612 140.992 117.972 139.066 118.293C137.14 118.614 135.526 118.779 135.504 118.661C135.482 118.544 137.044 118.18 138.975 117.855C140.905 117.529 142.514 117.369 142.536 117.49Z" fill="#A36957"/>
<path d="M142.476 115.529C142.497 115.651 141.027 116.015 139.192 116.345C137.357 116.675 135.847 116.844 135.825 116.727C135.804 116.61 137.274 116.236 139.109 115.907C140.944 115.577 142.454 115.408 142.476 115.529Z" fill="#A36957"/>
<path d="M237.127 125.663L239.829 141.406H197.668L199.282 129.172L237.127 125.663Z" fill="#263238"/>
<path d="M187.456 71.594C187.456 71.594 181.327 90.0002 181.721 90.7333L195.208 93.861L187.456 71.594Z" fill="#FF9933"/>
<path opacity="0.2" d="M187.456 71.594C187.456 71.594 181.327 90.0002 181.721 90.7333L195.208 93.861L187.456 71.594Z" fill="black"/>
<path d="M198.991 106.168L197.69 132.513L238.419 127.901L232.047 102.437C232.047 102.437 227.665 72.9127 219.679 69.6418C216.911 68.5673 214.082 67.6562 211.207 66.9132C206.119 65.4691 200.792 65.0735 195.547 65.7506L194.727 65.8591C193.1 66.0382 191.555 66.6708 190.27 67.6847C188.984 68.6986 188.01 70.0531 187.456 71.594C187.456 71.594 187.313 80.6604 190.098 86.6642L198.991 106.168Z" fill="#FF9933"/>
<path d="M208.634 140.907C208.573 140.907 208.482 138.768 208.434 136.135C208.386 133.502 208.395 131.363 208.434 131.363C208.473 131.363 208.59 133.506 208.638 136.135C208.686 138.764 208.712 140.907 208.634 140.907Z" fill="#455A64"/>
<path d="M210.881 132.543C210.881 132.543 210.925 132.474 211.059 132.426C211.181 132.392 211.308 132.387 211.432 132.411C211.556 132.435 211.672 132.489 211.771 132.566C211.871 132.644 211.95 132.744 212.004 132.859C212.057 132.973 212.083 133.098 212.079 133.224C212.074 133.415 212.011 133.601 211.899 133.756C211.787 133.91 211.63 134.028 211.45 134.092C211.269 134.143 211.078 134.144 210.897 134.093C210.717 134.043 210.553 133.943 210.426 133.805C210.325 133.696 210.25 133.564 210.208 133.422C210.165 133.279 210.155 133.128 210.179 132.981C210.27 132.478 210.578 132.309 210.582 132.335C210.456 132.537 210.374 132.763 210.339 132.998C210.328 133.131 210.35 133.264 210.401 133.386C210.452 133.509 210.533 133.617 210.635 133.702C210.737 133.788 210.858 133.847 210.988 133.875C211.117 133.904 211.252 133.901 211.38 133.866C211.515 133.816 211.633 133.729 211.721 133.614C211.808 133.5 211.862 133.363 211.875 133.22C211.882 133.102 211.857 132.984 211.801 132.879C211.745 132.775 211.661 132.689 211.558 132.63C211.352 132.515 211.11 132.484 210.881 132.543Z" fill="#455A64"/>
<path d="M237.798 135.12C237.749 135.168 237.693 135.211 237.634 135.246C237.476 135.363 237.313 135.472 237.143 135.571C236.521 135.946 235.861 136.253 235.174 136.486C232.894 137.284 230.416 137.315 228.117 136.573C225.818 135.831 223.825 134.358 222.442 132.378C222.023 131.789 221.668 131.156 221.383 130.491C221.275 130.257 221.218 130.057 221.171 129.94C221.123 129.823 221.11 129.745 221.119 129.741C221.127 129.736 221.245 129.997 221.461 130.452C222.241 132.054 223.374 133.457 224.776 134.556C226.826 136.181 229.394 137.009 232.007 136.89C233.067 136.849 234.117 136.662 235.126 136.335C235.808 136.116 236.467 135.835 237.096 135.493C237.322 135.354 237.557 135.23 237.798 135.12Z" fill="#455A64"/>
<path d="M204.912 83.3023C204.764 83.474 204.602 83.6322 204.426 83.7751C203.969 84.189 203.483 84.5703 202.973 84.916C202.212 85.4513 201.335 85.7978 200.413 85.9268C199.276 85.9921 198.14 85.7635 197.117 85.2631C196.019 84.7815 195.034 84.2219 194.08 83.8749C193.245 83.5351 192.339 83.407 191.442 83.5018C190.839 83.5692 190.264 83.7919 189.772 84.1482C189.434 84.4085 189.291 84.608 189.273 84.582C189.297 84.5279 189.329 84.4781 189.369 84.4345C189.472 84.3007 189.59 84.1785 189.72 84.0701C190.208 83.6732 190.797 83.4194 191.421 83.337C192.344 83.2156 193.283 83.3305 194.149 83.671C195.134 84.0137 196.128 84.5733 197.208 85.0462C198.197 85.5341 199.294 85.7625 200.396 85.7099C201.289 85.5961 202.143 85.2753 202.89 84.7729C203.404 84.4413 203.899 84.0822 204.374 83.697C204.543 83.5518 204.723 83.4199 204.912 83.3023Z" fill="#FAFAFA"/>
<path d="M194.228 72.9995C194.013 73.2758 193.748 73.5097 193.447 73.6892C192.034 74.6494 190.304 75.0271 188.619 74.7434C188.27 74.706 187.932 74.6029 187.621 74.4397C187.621 74.405 188.016 74.5135 188.641 74.5872C190.285 74.7734 191.944 74.4104 193.36 73.5547C193.903 73.2294 194.202 72.9691 194.228 72.9995Z" fill="#FAFAFA"/>
<path d="M231.053 97.8172C230.965 97.9034 230.871 97.9832 230.771 98.0558C230.481 98.2637 230.168 98.4383 229.839 98.5763C228.599 99.0242 227.265 99.1452 225.965 98.9277C225.073 98.7945 224.19 98.612 223.319 98.3811C222.322 98.1117 221.307 97.9159 220.282 97.7955C219.157 97.6994 218.024 97.7814 216.924 98.0384C215.737 98.3234 214.576 98.7094 213.454 99.1923C211.142 100.151 208.955 101.196 206.795 101.643C204.885 102.043 202.908 101.992 201.021 101.496C199.757 101.18 198.515 100.781 197.304 100.303L196.315 99.9081C196.199 99.8662 196.088 99.8154 195.98 99.7563C196.1 99.7827 196.218 99.819 196.332 99.8647L197.334 100.22C198.552 100.666 199.794 101.04 201.056 101.34C202.922 101.806 204.87 101.84 206.752 101.439C208.877 101.006 211.046 99.9471 213.367 98.9798C214.497 98.4934 215.667 98.1059 216.864 97.8215C217.986 97.5627 219.143 97.4836 220.291 97.5873C221.317 97.7157 222.332 97.9201 223.327 98.1989C224.185 98.434 225.053 98.6251 225.93 98.7715C227.207 98.9995 228.521 98.9041 229.752 98.4939C230.211 98.3207 230.648 98.0935 231.053 97.8172Z" fill="#FAFAFA"/>
<path d="M198.774 113.929C198.774 113.929 198.774 113.898 198.831 113.846L199.017 113.608C199.274 113.321 199.566 113.068 199.885 112.853C200.392 112.511 200.95 112.25 201.538 112.081C202.317 111.858 203.127 111.759 203.937 111.786C205.75 111.812 207.793 112.562 209.936 113.521C211.051 114.034 212.194 114.486 213.359 114.874C214.6 115.299 215.91 115.483 217.22 115.417C218.522 115.276 219.779 114.859 220.907 114.193C222.03 113.586 223.054 112.892 224.091 112.324C225.065 111.754 226.121 111.341 227.223 111.1C228.408 110.89 229.624 110.947 230.784 111.266C231.944 111.584 233.019 112.158 233.93 112.944C234.327 113.278 234.678 113.663 234.975 114.089C234.947 114.069 234.922 114.044 234.901 114.015C234.845 113.959 234.78 113.885 234.702 113.799C234.597 113.675 234.484 113.559 234.363 113.451C234.209 113.297 234.046 113.152 233.873 113.018C232.79 112.13 231.499 111.533 230.121 111.282C229.174 111.111 228.204 111.111 227.258 111.282C226.179 111.525 225.146 111.936 224.195 112.501C223.167 113.07 222.148 113.768 221.015 114.384C219.861 115.069 218.572 115.496 217.237 115.638C215.899 115.703 214.561 115.515 213.294 115.083C212.123 114.687 210.975 114.228 209.854 113.707C207.719 112.744 205.707 111.994 203.928 111.942C203.134 111.909 202.34 111.997 201.572 112.202C200.993 112.358 200.442 112.602 199.937 112.927C199.508 113.209 199.117 113.546 198.774 113.929Z" fill="#FAFAFA"/>
<path d="M235.56 127.845C235.356 127.351 235.098 126.882 234.792 126.444C233.899 125.285 232.664 124.438 231.261 124.023C230.306 123.717 229.304 123.583 228.302 123.628C227.151 123.683 226.012 123.889 224.914 124.24C223.697 124.628 222.508 125.1 221.357 125.654C220.151 126.214 218.919 126.843 217.618 127.411C216.365 127.984 215.057 128.427 213.714 128.734C212.446 128.986 211.151 129.07 209.861 128.986C207.682 128.805 205.541 128.307 203.506 127.507C201.771 126.852 200.409 126.205 199.468 125.771L198.396 125.251L198.118 125.108L198.027 125.051C198.064 125.057 198.099 125.069 198.131 125.086L198.413 125.208L199.507 125.693C200.452 126.127 201.823 126.721 203.563 127.359C205.586 128.129 207.708 128.607 209.866 128.778C211.136 128.857 212.41 128.769 213.657 128.517C215 128.218 216.308 127.782 217.561 127.216C218.863 126.652 220.086 126.027 221.301 125.481C222.462 124.925 223.66 124.452 224.888 124.067C226.003 123.715 227.16 123.513 228.328 123.468C229.358 123.43 230.387 123.577 231.365 123.902C232.789 124.339 234.035 125.223 234.918 126.422C235.146 126.751 235.337 127.105 235.486 127.476C235.525 127.598 235.56 127.693 235.586 127.771C235.579 127.797 235.571 127.821 235.56 127.845Z" fill="#FAFAFA"/>
<g opacity="0.2">
<path opacity="0.2" d="M204.517 131.641C208.651 131.476 212.79 130.096 215.952 127.428C220.29 123.776 222.42 118.041 222.893 112.393C223.366 106.745 222.36 101.114 221.357 95.5181C217.486 100.942 214.34 106.848 212 113.087C210.465 117.182 209.116 121.655 205.715 124.401C204.5 125.381 203.051 126.114 202.101 127.35C201.151 128.587 200.947 130.626 202.209 131.545L203.329 131.91" fill="black"/>
</g>
<path d="M174.646 131.858C175.47 132.257 176.346 132.539 177.249 132.695C177.961 132.849 178.695 132.882 179.418 132.79C179.756 132.747 180.073 132.699 180.376 132.652C181.773 132.426 183.079 131.814 184.146 130.886C188.844 126.804 201.563 113.903 203.832 110.983C206.565 107.474 207.333 84.274 207.333 84.274L222.594 86.7727C222.594 86.7727 222.321 103.491 218.568 116.501C216.178 124.774 187.335 141.792 187.3 141.809C185.161 144.152 182.758 146.689 181.279 147.926C178.203 150.502 177.969 150.234 177.73 149.821C177.088 148.724 182.966 145.084 181.248 145.132C179.53 145.18 174.576 150.42 173.952 149.244C173.136 147.709 179.366 144.013 179.869 143.661C180.372 143.31 179.869 142.568 179.435 142.911C178.806 143.401 172.06 148.403 171.254 146.906C170.82 146.073 172.368 145.401 172.368 145.401C172.368 145.401 179.019 141.189 178.611 140.495C178.203 139.801 174.212 142.13 172.919 143.015C171.627 143.9 170.716 143.64 170.794 142.755C170.85 142.152 174.733 139.345 176.03 138.499C177.327 137.653 180.914 135.398 178.238 135.072C175.561 134.747 173.631 133.48 173.344 132.777C173.058 132.075 173.93 131.415 174.646 131.858Z" fill="#FFBE9D"/>
<path d="M213.081 69.156C214.517 68.8616 216.005 68.9333 217.407 69.3647C218.808 69.796 220.079 70.5731 221.102 71.6244C222.88 73.4767 224.668 76.5784 224.516 81.4934C224.216 91.0847 223.462 94.3556 223.462 94.3556L204.656 93.7049L205.394 77.5891C205.394 77.5891 206.847 70.4705 213.081 69.156Z" fill="#FF9933"/>
<path opacity="0.2" d="M213.081 69.156C214.517 68.8616 216.005 68.9333 217.407 69.3647C218.808 69.796 220.079 70.5731 221.102 71.6244C222.88 73.4767 224.694 76.83 224.542 81.7363C224.247 91.3276 223.462 94.3556 223.462 94.3556L204.656 93.7049L205.42 77.8364C205.42 77.8364 206.847 70.4705 213.081 69.156Z" fill="black"/>
<path d="M224.173 88.7682C224.173 88.7899 223.956 88.5774 223.54 88.2824C222.937 87.88 222.269 87.5864 221.566 87.4148C220.523 87.154 219.436 87.117 218.377 87.3063C217.093 87.6081 215.846 88.0518 214.66 88.6294C213.456 89.2103 212.203 89.6822 210.916 90.0393C209.847 90.2907 208.742 90.3436 207.654 90.1954C206.919 90.0995 206.209 89.8639 205.563 89.5014C205.389 89.401 205.223 89.2864 205.068 89.1586C205.011 89.1192 204.958 89.0725 204.912 89.0198C204.912 88.9981 205.146 89.1847 205.602 89.4233C206.253 89.7454 206.954 89.9537 207.675 90.0393C208.743 90.1607 209.824 90.0917 210.868 89.8354C212.14 89.4711 213.378 88.998 214.569 88.4212C215.773 87.839 217.039 87.3951 218.343 87.0981C219.429 86.9158 220.542 86.9721 221.605 87.2629C222.32 87.4538 222.993 87.7791 223.587 88.2216C223.743 88.3437 223.888 88.4787 224.021 88.6251C224.077 88.6673 224.127 88.7153 224.173 88.7682Z" fill="#FAFAFA"/>
<path d="M223.405 75.1902C223.206 75.2952 222.999 75.3837 222.785 75.4548C222.586 75.5372 222.351 75.6197 222.039 75.7108C221.727 75.8019 221.41 75.906 221.033 75.9884C220.15 76.2045 219.255 76.3625 218.352 76.4612C217.243 76.5719 216.129 76.6125 215.016 76.5827C213.904 76.5395 212.796 76.4177 211.701 76.2183C210.808 76.0497 209.929 75.8119 209.073 75.5069C208.741 75.3964 208.417 75.266 208.101 75.1164C207.856 75.0163 207.619 74.9004 207.389 74.7694C207.186 74.6737 206.992 74.5574 206.812 74.4224C207.025 74.4954 207.231 74.5854 207.429 74.6913C207.662 74.8076 207.903 74.9104 208.149 74.9993C208.467 75.1356 208.793 75.2544 209.125 75.355C209.976 75.6352 210.846 75.8555 211.727 76.0144C212.814 76.1996 213.91 76.314 215.011 76.3571C216.114 76.3879 217.218 76.3531 218.317 76.253C219.212 76.1606 220.102 76.0158 220.98 75.8192C221.362 75.7455 221.696 75.6587 221.991 75.5763C222.286 75.4939 222.542 75.4288 222.746 75.3594C222.96 75.2821 223.181 75.2255 223.405 75.1902Z" fill="#FAFAFA"/>
<path d="M203.16 48.2858C203.134 48.5318 203.178 48.78 203.288 49.0015C203.398 49.2231 203.569 49.4086 203.781 49.5365C203.993 49.6645 204.236 49.7294 204.484 49.7238C204.731 49.7182 204.971 49.6422 205.177 49.5048C205.949 48.9496 205.871 47.7696 205.563 46.902C205.255 46.0344 204.787 45.0714 205.038 44.156C205.233 43.4576 205.81 42.9414 206.231 42.3514C206.601 41.8359 206.846 41.2417 206.948 40.6156C207.049 39.9894 207.004 39.3482 206.817 38.7422C206.612 38.1422 206.246 37.6098 205.76 37.203C205.273 36.7961 204.685 36.5303 204.058 36.4344C202.778 36.2869 201.321 36.8986 200.271 36.1524C199.507 35.6145 199.299 34.5647 198.666 33.875C197.685 32.8078 195.972 32.8816 194.579 33.298C193.187 33.7145 191.816 34.3999 190.367 34.2697C189.161 34.1656 188.077 33.5019 186.897 33.1722C185.624 32.8207 184.273 32.8744 183.032 33.3258C181.791 33.7772 180.722 34.6039 179.972 35.6911C179.223 36.7783 178.831 38.072 178.85 39.3923C178.87 40.7126 179.3 41.994 180.082 43.0585C180.617 43.8478 181.415 44.4224 182.333 44.6809" fill="#263238"/>
<path d="M201.034 75.5025C199.154 75.8472 197.215 75.4325 195.64 74.3493C194.066 73.2662 192.985 71.6029 192.635 69.7243C192.202 67.4902 191.872 65.6032 191.872 65.6032C191.872 65.6032 186.063 65.6899 185.027 60.0418C183.99 54.3937 182.832 41.987 182.832 41.987L182.758 41.2365C188.831 37.302 196.639 37.5839 203.042 40.9719L203.233 42.1389L206.908 67.5943C207.112 69.4113 206.62 71.2382 205.529 72.7061C204.439 74.1739 202.832 75.1734 201.034 75.5025Z" fill="#FFBE9D"/>
<path d="M194.691 55.7472L191.061 57.5084C191.392 57.8761 191.838 58.1196 192.327 58.1985C192.815 58.2774 193.316 58.187 193.746 57.9422C195.333 57.0226 194.691 55.7472 194.691 55.7472Z" fill="white"/>
<path d="M191.846 65.525C194.467 65.1275 196.912 63.9604 198.869 62.1718C198.869 62.1718 197.819 66.5401 192.084 66.9913L191.846 65.525Z" fill="#EB996E"/>
<path d="M203.507 45.9476C203.624 45.8869 207.672 44.9152 207.806 49.7998C207.941 54.6844 202.96 53.2051 202.947 53.0663C202.934 52.9275 203.507 45.9476 203.507 45.9476Z" fill="#FFBE9D"/>
<path d="M204.414 51.3094C204.435 51.3094 204.5 51.3658 204.648 51.4308C204.853 51.5118 205.081 51.5118 205.285 51.4308C205.793 51.2269 206.205 50.394 206.205 49.5134C206.206 49.0937 206.114 48.679 205.936 48.2988C205.885 48.148 205.799 48.0116 205.684 47.9013C205.569 47.7911 205.43 47.7102 205.277 47.6654C205.178 47.6427 205.075 47.6549 204.985 47.7001C204.895 47.7452 204.823 47.8204 204.782 47.9127C204.717 48.0515 204.752 48.147 204.726 48.1556C204.7 48.1643 204.617 48.0775 204.652 47.8737C204.678 47.7518 204.744 47.642 204.839 47.5613C204.97 47.4573 205.136 47.409 205.303 47.4268C205.505 47.4602 205.695 47.5452 205.855 47.6736C206.014 47.8021 206.138 47.9696 206.214 48.16C206.433 48.5773 206.548 49.0419 206.548 49.5134C206.548 50.4982 206.062 51.4352 205.364 51.6564C205.234 51.6989 205.096 51.7112 204.961 51.6925C204.825 51.6737 204.696 51.6242 204.583 51.548C204.427 51.4265 204.396 51.318 204.414 51.3094Z" fill="#EB996E"/>
<path d="M181.852 44.5204C181.852 44.5204 185.509 45.709 189.66 42.872C192.389 41.0066 195.707 39.8354 196.54 40.3126C197.373 40.7897 197.946 43.783 200.969 44.2775C200.969 44.2775 201.555 50.0644 203.824 49.5438C206.093 49.0233 203.438 40.3039 203.438 40.3039L197.664 37.2326L191.374 36.9159L184.715 38.5947L181.192 41.4491L181.852 44.5204Z" fill="#263238"/>
<path d="M203.195 35.4106C202.331 35.5687 201.544 36.0116 200.961 36.6686C201.141 36.2411 201.459 35.8857 201.863 35.658C202.267 35.4303 202.736 35.3433 203.195 35.4106Z" fill="#263238"/>
<path d="M200.523 33.4889C200.798 34.0434 200.932 34.6573 200.913 35.2762C200.921 35.7196 200.848 36.1607 200.696 36.5776C200.648 36.7543 200.557 36.9165 200.432 37.0504C200.573 36.4729 200.659 35.8831 200.688 35.2892C200.67 34.3001 200.471 33.5062 200.523 33.4889Z" fill="#263238"/>
<path d="M184.566 50.212C184.577 50.4325 184.673 50.6402 184.836 50.7897C184.998 50.9392 185.213 51.0184 185.434 51.0102C185.54 51.0125 185.645 50.9937 185.744 50.9549C185.842 50.9161 185.932 50.858 186.008 50.7841C186.084 50.7102 186.144 50.622 186.186 50.5245C186.227 50.427 186.249 50.3222 186.25 50.2163C186.241 50.0004 186.147 49.7965 185.99 49.6482C185.833 49.4999 185.624 49.4189 185.408 49.4225C185.3 49.416 185.192 49.4315 185.091 49.4682C184.989 49.505 184.896 49.562 184.817 49.6359C184.738 49.7098 184.675 49.799 184.632 49.8981C184.589 49.9971 184.567 50.1039 184.566 50.212Z" fill="#263238"/>
<path d="M184.545 49.5743C184.654 49.6784 185.256 49.1795 186.15 49.1405C187.044 49.1015 187.72 49.5136 187.812 49.3964C187.855 49.3487 187.742 49.1579 187.447 48.9626C187.047 48.7154 186.581 48.5972 186.111 48.6243C185.647 48.6445 185.201 48.8133 184.84 49.1058C184.575 49.327 184.493 49.5266 184.545 49.5743Z" fill="#263238"/>
<path d="M193.356 49.7521C193.375 49.9658 193.476 50.1638 193.638 50.3046C193.8 50.4453 194.01 50.5179 194.224 50.5069C194.33 50.5053 194.435 50.4824 194.532 50.4396C194.629 50.3967 194.717 50.3349 194.79 50.2576C194.862 50.1804 194.919 50.0893 194.956 49.9898C194.993 49.8903 195.01 49.7844 195.005 49.6784C194.986 49.4647 194.885 49.2667 194.723 49.1259C194.562 48.9852 194.351 48.9126 194.137 48.9236C194.031 48.9246 193.926 48.9471 193.829 48.9897C193.731 49.0323 193.643 49.0942 193.57 49.1716C193.497 49.2489 193.441 49.3403 193.404 49.44C193.367 49.5398 193.351 49.6459 193.356 49.7521Z" fill="#263238"/>
<path d="M193.095 49.1057C193.208 49.2011 193.789 48.6719 194.679 48.5938C195.568 48.5157 196.266 48.8888 196.353 48.7717C196.44 48.6545 196.271 48.5331 195.967 48.3379C195.555 48.1082 195.083 48.0113 194.614 48.0602C194.152 48.1063 193.717 48.2959 193.369 48.6025C193.13 48.8584 193.052 49.0623 193.095 49.1057Z" fill="#263238"/>
<path d="M190.523 56.0161C190.039 55.9155 189.545 55.8761 189.052 55.899C188.822 55.899 188.618 55.873 188.549 55.7212C188.508 55.4877 188.538 55.2475 188.636 55.0314C188.796 54.4631 188.965 53.8645 189.139 53.2355C189.833 50.6847 190.31 48.5938 190.206 48.5634C190.102 48.5331 189.46 50.5936 188.757 53.14C188.592 53.7691 188.432 54.3677 188.284 54.9447C188.167 55.2322 188.156 55.5522 188.254 55.847C188.295 55.9228 188.353 55.9886 188.422 56.0396C188.492 56.0906 188.572 56.1256 188.657 56.1419C188.787 56.1585 188.918 56.1585 189.048 56.1419C189.543 56.1645 190.039 56.1222 190.523 56.0161Z" fill="#263238"/>
<path d="M192.558 46.4466C192.67 46.6808 193.547 46.4813 194.601 46.503C195.655 46.5247 196.531 46.7329 196.648 46.503C196.7 46.3945 196.531 46.182 196.167 45.9824C195.685 45.7388 195.154 45.6082 194.614 45.6007C194.075 45.5932 193.54 45.7089 193.052 45.939C192.683 46.1299 192.51 46.3381 192.558 46.4466Z" fill="#263238"/>
<path d="M184.419 47.184C184.597 47.3705 185.187 47.1015 185.924 47.0191C186.662 46.9367 187.3 47.0191 187.421 46.7979C187.473 46.6894 187.356 46.4942 187.065 46.3294C186.676 46.1377 186.239 46.0651 185.808 46.1207C185.377 46.1762 184.973 46.3575 184.645 46.6417C184.419 46.876 184.345 47.0929 184.419 47.184Z" fill="#263238"/>
<path d="M27.0742 87.7662L50.3217 145.896H115.574L94.8427 86.9853C94.7704 86.776 94.6345 86.5946 94.4541 86.4662C94.2737 86.3379 94.0577 86.2691 93.8363 86.2695L28.0633 86.3129C27.8903 86.3139 27.7202 86.3568 27.5675 86.4381C27.4148 86.5194 27.2842 86.6366 27.1869 86.7796C27.0896 86.9226 27.0285 87.0871 27.0088 87.259C26.9892 87.4308 27.0117 87.6049 27.0742 87.7662Z" fill="#263238"/>
<path d="M30.6531 89.3539L52.0005 141.41C52.0469 141.521 52.1253 141.616 52.2257 141.682C52.3261 141.749 52.444 141.784 52.5644 141.783H111.995C112.091 141.784 112.186 141.762 112.272 141.719C112.357 141.676 112.431 141.613 112.487 141.535C112.544 141.457 112.58 141.367 112.594 141.272C112.608 141.177 112.599 141.08 112.568 140.989L93.6541 88.9331C93.61 88.8169 93.5316 88.7169 93.4293 88.6464C93.327 88.5759 93.2057 88.5382 93.0815 88.5383H31.2171C31.1189 88.5363 31.0217 88.5586 30.9342 88.6033C30.8467 88.648 30.7717 88.7137 30.7158 88.7945C30.66 88.8753 30.625 88.9687 30.6141 89.0663C30.6031 89.1639 30.6165 89.2627 30.6531 89.3539Z" fill="#455A64"/>
<path d="M50.3213 145.891H50.9026H138.999V141.8H52.7332L50.3213 145.891Z" fill="#263238"/>
<path d="M152.317 89.28C152.317 89.28 153.944 87.1674 152.846 84.7338C151.749 82.3002 148.795 79.5282 148.795 79.5282C147.927 79.307 149.072 74.405 149.571 72.7782C150.07 71.1515 149.51 70.2709 148.621 70.6092C148.018 70.8522 146.374 75.7845 145.919 77.3982C145.671 78.2658 145.207 80.001 144.643 80.9641C144.175 81.7493 143.637 81.9965 143.095 80.7645C141.902 78.0489 139.984 76.4005 139.19 76.3094C138.396 76.2183 137.98 77.3462 138.661 77.9622C139.333 78.7027 139.901 79.5317 140.349 80.4262C140.739 81.1294 141.009 81.8935 141.147 82.6863C141.264 83.3717 141.346 83.9877 141.411 84.5343C141.56 85.8974 141.548 87.2732 141.377 88.6337L124.988 107.938L121.422 94.8674L121.092 93.861L107.028 99.0926C106.595 99.2011 110.065 109.439 112.234 115.798C112.767 117.355 113.627 118.78 114.756 119.977C115.885 121.174 117.257 122.116 118.78 122.739C121.173 123.719 123.826 123.867 126.313 123.159C128.801 122.451 130.978 120.928 132.497 118.835L149.992 93.4359L149.615 93.1799L149.97 93.3404L152.317 89.28Z" fill="#FFBF9D"/>
<path d="M150.122 80.7906C150.095 80.9547 150.049 81.1149 149.983 81.2678L149.519 82.5388L148.812 84.4302C148.694 84.8195 148.514 85.1872 148.279 85.519C148.125 85.7011 147.911 85.8226 147.676 85.8617C147.55 85.8781 147.422 85.862 147.304 85.8149C147.187 85.7678 147.083 85.6913 147.003 85.5928C146.85 85.4062 146.762 85.1747 146.752 84.9334C146.747 84.7142 146.772 84.4953 146.825 84.2827C146.925 83.8793 147.029 83.4975 147.133 83.1331C147.346 82.4044 147.567 81.7623 147.771 81.2287C147.975 80.6952 148.157 80.2657 148.292 79.9751C148.35 79.8207 148.429 79.6748 148.526 79.5413C148.491 79.7035 148.44 79.8619 148.374 80.0141C148.266 80.3134 148.105 80.7472 147.94 81.2851C147.775 81.8231 147.55 82.4694 147.35 83.1939C147.25 83.5583 147.151 83.94 147.06 84.3348C146.992 84.518 146.97 84.7146 146.993 84.9084C147.016 85.1021 147.085 85.2876 147.194 85.4496C147.249 85.5195 147.321 85.574 147.403 85.6082C147.485 85.6424 147.574 85.655 147.663 85.6448C147.844 85.6125 148.01 85.5192 148.131 85.3802C148.351 85.0671 148.521 84.7217 148.634 84.3565L149.389 82.4998L149.918 81.2548C149.97 81.0935 150.039 80.938 150.122 80.7906Z" fill="#AA6550"/>
<path d="M151.779 82.6951C151.76 82.8448 151.719 82.991 151.658 83.1289C151.567 83.3935 151.424 83.7709 151.224 84.2394C151.025 84.7079 150.834 85.2632 150.582 85.8792C150.459 86.2283 150.232 86.5311 149.931 86.7468C149.761 86.8641 149.557 86.9248 149.35 86.9203C149.132 86.9093 148.926 86.8164 148.773 86.66C148.635 86.5113 148.531 86.3338 148.47 86.1403C148.408 85.9468 148.39 85.7421 148.417 85.5408C148.456 85.1894 148.527 84.8423 148.63 84.504C148.786 83.9349 148.98 83.377 149.211 82.8339C149.407 82.3741 149.589 82.0097 149.719 81.7581C149.777 81.6243 149.853 81.4988 149.944 81.385C149.979 81.385 149.715 81.962 149.359 82.8946C149.152 83.4398 148.975 83.9959 148.83 84.5604C148.739 84.8872 148.675 85.2209 148.639 85.5582C148.616 85.7268 148.63 85.8983 148.68 86.0609C148.73 86.2235 148.815 86.3731 148.929 86.4995C149.044 86.6092 149.194 86.6753 149.352 86.6864C149.511 86.6975 149.668 86.6529 149.797 86.5603C150.061 86.369 150.262 86.1031 150.374 85.7968L151.059 84.1787C151.255 83.7189 151.419 83.3501 151.537 83.0942C151.598 82.9504 151.68 82.8161 151.779 82.6951Z" fill="#AA6550"/>
<path d="M152.69 84.6255C152.619 85.0472 152.509 85.4612 152.36 85.8618C152.243 86.2435 152.113 86.686 151.926 87.1849C151.84 87.4769 151.642 87.7231 151.375 87.8703C151.295 87.9048 151.209 87.9226 151.121 87.9226C151.034 87.9226 150.948 87.9048 150.868 87.8703C150.706 87.8059 150.57 87.692 150.477 87.5449C150.325 87.2654 150.264 86.9454 150.304 86.6296C150.337 85.8744 150.53 85.135 150.872 84.4606C151.014 84.1797 151.184 83.9138 151.379 83.6667C151.518 83.4932 151.609 83.4065 151.622 83.4151C151.635 83.4238 151.336 83.8186 151.015 84.53C150.832 84.9472 150.697 85.3838 150.612 85.8314C150.564 86.0937 150.535 86.3589 150.525 86.6253C150.495 86.8953 150.545 87.1681 150.668 87.4104C150.724 87.5182 150.818 87.6011 150.932 87.6429C151.046 87.6846 151.172 87.6822 151.284 87.636C151.494 87.5131 151.649 87.3144 151.718 87.0808C151.883 86.6079 152.039 86.1741 152.182 85.7794C152.318 85.381 152.488 84.995 152.69 84.6255Z" fill="#AA6550"/>
<path d="M147.111 88.8117C147.072 88.8117 147.111 88.469 147.068 87.9441C146.952 86.5304 146.291 85.2173 145.224 84.2828C144.816 83.9271 144.521 83.7579 144.539 83.7275C144.829 83.8127 145.097 83.9608 145.324 84.1613C145.903 84.6085 146.374 85.1795 146.704 85.8325C147.033 86.4856 147.213 87.2041 147.228 87.9354C147.251 88.2325 147.211 88.5309 147.111 88.8117Z" fill="#AA6550"/>
<path d="M56.0127 141.41L98.4298 141.627L98.959 134.144L65.8687 119.421C63.0023 122.891 61.0993 127.055 60.3507 131.493L56.0127 141.41Z" fill="#263238"/>
<path d="M76.0419 127.008C75.9311 127.166 75.8031 127.312 75.6601 127.442C75.5054 127.608 75.3402 127.765 75.1656 127.91C74.9451 128.114 74.7134 128.305 74.4715 128.483C74.1854 128.708 73.8855 128.915 73.5736 129.103C73.2216 129.329 72.8582 129.536 72.4847 129.723C70.7646 130.593 68.8757 131.077 66.9494 131.142C66.5318 131.164 66.1133 131.164 65.6957 131.142C65.3324 131.125 64.9703 131.087 64.6112 131.029C64.319 130.99 64.0292 130.933 63.7436 130.86C63.5198 130.819 63.2994 130.761 63.0842 130.687C62.8962 130.644 62.7141 130.578 62.542 130.491C62.542 130.444 63.3358 130.708 64.6503 130.873C64.9756 130.908 65.3357 130.951 65.7218 130.955C66.1078 130.96 66.5243 130.955 66.9581 130.955C68.8463 130.856 70.695 130.376 72.3936 129.546C72.7797 129.346 73.1484 129.164 73.4781 128.956C73.7872 128.773 74.0869 128.574 74.3761 128.361C75.4476 127.581 76.0072 126.973 76.0419 127.008Z" fill="#455A64"/>
<path d="M87.5762 140.781C87.7158 140.29 87.8868 139.809 88.0881 139.341C88.4481 138.404 88.8993 137.211 89.3895 135.896C89.8797 134.582 90.3612 133.398 90.7299 132.461C90.897 131.978 91.1 131.508 91.3372 131.055C91.2222 131.554 91.0684 132.042 90.8774 132.517C90.5651 133.385 90.1182 134.63 89.602 135.987C89.0858 137.345 88.5956 138.543 88.2225 139.41C88.036 139.844 87.8798 140.191 87.7627 140.43C87.7164 140.554 87.6536 140.673 87.5762 140.781Z" fill="#455A64"/>
<path d="M87.8148 130.708C87.5713 130.822 87.3718 131.013 87.2466 131.25C87.1868 131.373 87.159 131.508 87.1658 131.644C87.1726 131.78 87.2138 131.911 87.2856 132.027C87.3684 132.172 87.4935 132.289 87.6442 132.361C87.7949 132.434 87.964 132.459 88.1293 132.433C88.2945 132.407 88.4479 132.332 88.5692 132.217C88.6905 132.101 88.7738 131.952 88.8083 131.788C88.8412 131.657 88.8402 131.519 88.8053 131.387C88.7704 131.256 88.7028 131.136 88.6087 131.038C88.4157 130.853 88.1703 130.732 87.9059 130.691C87.9059 130.691 87.984 130.648 88.1359 130.656C88.3558 130.677 88.5622 130.772 88.7215 130.925C88.8465 131.038 88.9389 131.183 88.9893 131.344C89.0396 131.505 89.046 131.676 89.0078 131.84C88.969 132.048 88.8668 132.238 88.7154 132.385C88.5639 132.532 88.3706 132.628 88.1622 132.66C87.9537 132.693 87.7403 132.66 87.5515 132.566C87.3626 132.472 87.2076 132.321 87.1078 132.135C87.0219 131.99 86.9766 131.825 86.9766 131.656C86.9766 131.487 87.0219 131.322 87.1078 131.177C87.2122 130.983 87.3788 130.83 87.5806 130.743C87.7238 130.687 87.8105 130.695 87.8148 130.708Z" fill="#455A64"/>
<path d="M116.503 78.0924C116.503 78.0924 122.706 96.3381 122.355 97.0842L109.805 100.524L116.503 78.0924Z" fill="#FF9933"/>
<path opacity="0.2" d="M116.503 78.0924C116.503 78.0924 122.706 96.3381 122.355 97.0842L109.805 100.524L116.503 78.0924Z" fill="black"/>
<path d="M106.334 108.324L102.374 125.125L99.8014 134.526L65.8564 119.421L76.6321 102.069C76.6321 102.069 82.5318 77.9363 90.8564 73.4768C96.9079 70.232 102.048 71.3598 102.816 71.3598L110.048 72.3619C110.208 72.3836 110.364 72.4097 110.521 72.44C114.377 73.1992 116.993 76.8041 116.793 80.7256C116.637 83.8663 116.112 89.1804 114.381 93.154C112.061 98.4941 106.334 108.324 106.334 108.324Z" fill="#FF9933"/>
<path d="M101.06 130.756L100.812 130.643C100.57 130.531 100.335 130.403 100.109 130.261C99.2377 129.716 98.4755 129.013 97.8624 128.188C96.8754 126.88 96.2959 125.311 96.1966 123.676C96.1343 122.651 96.3328 121.628 96.7736 120.7C97.0131 120.192 97.349 119.736 97.7626 119.356C98.2058 118.954 98.753 118.685 99.3417 118.579C99.8271 118.53 100.318 118.577 100.785 118.718C101.252 118.858 101.687 119.09 102.065 119.399C102.442 119.708 102.755 120.089 102.985 120.519C103.216 120.949 103.359 121.421 103.406 121.906C103.46 122.611 103.332 123.317 103.033 123.958C102.725 124.63 102.272 125.226 101.707 125.702C101.141 126.179 100.477 126.524 99.7624 126.713C98.2394 127.096 96.6309 126.942 95.2075 126.279C93.7344 125.572 92.4455 124.532 91.4421 123.242C90.9121 122.594 90.4335 121.905 90.0106 121.182C89.5686 120.444 89.2382 119.644 89.0302 118.809C88.8182 117.955 88.8078 117.064 88.9998 116.206C89.1937 115.317 89.6701 114.515 90.3576 113.92C90.7187 113.626 91.1352 113.408 91.5823 113.278C92.0295 113.148 92.4981 113.11 92.9604 113.165C93.4284 113.217 93.8759 113.386 94.2618 113.655C94.6391 113.937 94.9378 114.31 95.1294 114.74C95.4937 115.61 95.5108 116.586 95.1772 117.468C94.8341 118.319 94.2583 119.056 93.5157 119.594C92.0885 120.584 90.4379 121.205 88.7119 121.402C86.9858 121.598 85.238 121.363 83.625 120.718C82.1198 120.072 80.8237 119.021 79.8813 117.681C78.9735 116.412 78.4618 114.903 78.4107 113.343C78.3903 112.594 78.511 111.848 78.7665 111.144C79.0149 110.455 79.4451 109.846 80.0115 109.382C80.5713 108.944 81.2535 108.691 81.9636 108.658C82.3072 108.636 82.6517 108.683 82.9771 108.796C83.3025 108.908 83.6023 109.084 83.8593 109.313C84.3362 109.773 84.6319 110.389 84.6922 111.048C84.76 111.67 84.6674 112.299 84.4232 112.875C83.9201 113.927 83.0198 114.737 81.9202 115.126C80.9664 115.487 79.9553 115.672 78.9356 115.673C77.3059 115.694 75.6906 115.365 74.1985 114.709C73.2605 114.298 72.3845 113.758 71.5957 113.104C71.3224 112.879 71.1272 112.697 71.0014 112.571C70.8756 112.445 70.8105 112.376 70.8105 112.376C70.8105 112.376 70.8843 112.432 71.0188 112.553C71.1532 112.675 71.3485 112.853 71.6218 113.07C73.7008 114.718 76.2874 115.593 78.94 115.547C79.943 115.541 80.9367 115.353 81.8725 114.991C82.3784 114.79 82.8497 114.51 83.2693 114.163C83.7103 113.802 84.0572 113.339 84.2801 112.814C84.5111 112.266 84.5977 111.669 84.5317 111.079C84.4725 110.46 84.194 109.883 83.7465 109.452C83.5055 109.24 83.225 109.079 82.9213 108.976C82.6175 108.873 82.2965 108.831 81.9766 108.853C81.3037 108.884 80.6574 109.126 80.1286 109.543C79.592 109.989 79.1846 110.57 78.9487 111.226C78.7039 111.907 78.5906 112.628 78.6146 113.352C78.666 114.874 79.1672 116.347 80.0549 117.586C80.9751 118.896 82.2432 119.924 83.7161 120.553C85.2925 121.183 87.0007 121.413 88.6876 121.22C90.3744 121.028 91.9872 120.42 93.3812 119.451C94.0902 118.938 94.6404 118.236 94.9689 117.425C95.2826 116.599 95.2671 115.685 94.9256 114.87C94.7498 114.472 94.4713 114.127 94.1187 113.872C93.761 113.632 93.3499 113.483 92.9214 113.438C92.4933 113.392 92.0602 113.43 91.647 113.552C91.2338 113.673 90.8487 113.875 90.5138 114.146C89.857 114.709 89.4004 115.47 89.2124 116.315C89.0257 117.142 89.0346 118.002 89.2384 118.826C89.6375 120.475 90.5962 121.902 91.607 123.164C92.5888 124.429 93.8491 125.45 95.2899 126.149C96.669 126.794 98.2277 126.948 99.706 126.583C100.394 126.403 101.033 126.073 101.578 125.616C102.123 125.159 102.559 124.587 102.855 123.941C103.146 123.332 103.271 122.657 103.22 121.984C103.176 121.522 103.042 121.072 102.825 120.661C102.607 120.251 102.311 119.887 101.953 119.591C101.594 119.294 101.181 119.072 100.737 118.935C100.293 118.799 99.826 118.752 99.3633 118.796C98.8028 118.894 98.2812 119.148 97.8581 119.529C97.4573 119.898 97.1304 120.339 96.895 120.83C96.4634 121.734 96.2651 122.732 96.3181 123.733C96.4058 125.348 96.967 126.902 97.9318 128.201C98.532 129.025 99.2773 129.734 100.131 130.292C100.353 130.435 100.581 130.567 100.817 130.686L101.06 130.756Z" fill="#FAFAFA"/>
<path d="M111.245 98.3466C111.245 98.3466 111.214 98.3163 111.162 98.2512L110.932 97.9649C110.652 97.5846 110.409 97.1778 110.208 96.7502C109.481 95.1498 109.29 93.3579 109.661 91.6401C109.902 90.446 110.454 89.337 111.262 88.4256C111.504 88.1775 111.801 87.9902 112.13 87.879C112.304 87.8231 112.487 87.8031 112.669 87.8202C112.851 87.8374 113.028 87.8913 113.188 87.9788C113.511 88.163 113.769 88.4435 113.926 88.7813C114.075 89.1233 114.154 89.4924 114.155 89.8658C114.142 91.4197 113.599 92.9224 112.615 94.1257C112.106 94.7652 111.484 95.3062 110.78 95.7221C110.054 96.1615 109.226 96.4065 108.377 96.4336C107.517 96.4407 106.683 96.132 106.035 95.566C105.408 95.028 104.935 94.3335 104.664 93.5531C104.408 92.8081 104.283 92.0243 104.295 91.2366C104.281 90.484 104.375 89.7332 104.573 89.0069C104.677 88.6517 104.845 88.3182 105.067 88.0222C105.289 87.7191 105.612 87.5064 105.978 87.4235C106.338 87.3537 106.711 87.4202 107.024 87.61C107.315 87.7918 107.564 88.0345 107.753 88.3215C107.929 88.5881 108.062 88.8809 108.147 89.1891C108.231 89.4903 108.276 89.8007 108.282 90.1131C108.294 90.6971 108.197 91.2782 107.995 91.8266C107.648 92.767 107.076 93.6084 106.33 94.2776C105.774 94.7779 105.172 95.2225 104.529 95.605C104 95.9217 103.579 96.1429 103.293 96.2904L102.968 96.4553C102.931 96.4775 102.892 96.495 102.851 96.5073L102.955 96.4379L103.271 96.2514C103.549 96.0909 103.965 95.8566 104.482 95.5313C105.111 95.1392 105.701 94.6874 106.243 94.1821C106.963 93.5202 107.512 92.6942 107.844 91.7745C108.032 91.243 108.122 90.6813 108.108 90.1174C108.101 89.8233 108.055 89.5315 107.969 89.2498C107.892 88.9534 107.766 88.6719 107.596 88.4169C107.425 88.1524 107.195 87.9312 106.924 87.7706C106.655 87.6039 106.332 87.5464 106.022 87.61C105.38 87.7402 104.972 88.3996 104.768 89.0589C104.583 89.7668 104.496 90.4965 104.508 91.228C104.5 91.9909 104.623 92.7494 104.872 93.4707C105.13 94.212 105.579 94.872 106.174 95.3838C106.782 95.9145 107.565 96.2031 108.373 96.195C109.182 96.1659 109.97 95.9315 110.663 95.5139C111.344 95.1123 111.947 94.5905 112.442 93.9739C113.392 92.8101 113.921 91.3594 113.943 89.8571C113.943 89.5123 113.873 89.1711 113.735 88.8551C113.598 88.5555 113.372 88.3055 113.088 88.1393C112.951 88.0648 112.8 88.0183 112.644 88.0027C112.488 87.987 112.331 88.0025 112.182 88.0482C111.887 88.1525 111.619 88.3232 111.401 88.5471C110.605 89.4324 110.054 90.5107 109.804 91.6748C109.586 92.6294 109.545 93.616 109.683 94.5856C109.784 95.3187 109.982 96.035 110.273 96.7155C110.468 97.1404 110.696 97.5494 110.954 97.9389L111.167 98.2382C111.227 98.3119 111.249 98.3423 111.245 98.3466Z" fill="#FAFAFA"/>
<path d="M100.856 93.2407C100.856 93.2407 100.856 108.667 104.717 110.129C115.219 114.102 127.782 113.187 132.203 112.77C132.732 112.402 133.343 111.951 134.037 111.387L135.499 110.168C135.499 110.168 142.44 111.491 142.336 111.855C142.232 112.22 139.629 113.061 136.948 112.458C136.869 112.606 136.824 112.769 136.814 112.936C136.804 113.103 136.83 113.27 136.892 113.426C136.953 113.582 137.047 113.723 137.167 113.839C137.288 113.955 137.432 114.043 137.59 114.098C139.356 114.966 145.611 117.607 146.605 118.206C147.472 118.74 148.305 119.616 147.316 119.677C146.327 119.737 141.065 118.44 141.065 118.44C141.065 118.44 148.006 120.002 147.72 121C147.529 121.689 145.607 121.837 141.13 120.349C141.13 120.349 146.826 121.676 147.368 122.344C148.596 123.845 141.729 122.31 141.729 122.31C146.531 123.429 146.501 123.177 146.501 123.841C146.501 124.344 145.368 124.435 142.696 124.201C140.527 124.01 138.241 124.249 134.918 124.14C134.918 124.14 92.0195 131.78 88.1153 112.853C86.007 102.646 86.3801 98.8802 85.9463 92.2864" fill="#FFBF9D"/>
<path d="M138.817 121.707C138.787 121.824 140.248 122.227 142.079 122.609C143.91 122.991 145.406 123.19 145.428 123.069C145.45 122.947 143.988 122.544 142.17 122.167C140.353 121.789 138.869 121.585 138.817 121.707Z" fill="#AA6550"/>
<path d="M139.051 119.815C139.021 119.937 140.552 120.453 142.47 120.974C144.387 121.494 145.975 121.815 146.005 121.694C146.035 121.572 144.508 121.056 142.587 120.54C140.665 120.024 139.086 119.698 139.051 119.815Z" fill="#AA6550"/>
<path d="M139.303 117.855C139.269 117.976 140.709 118.488 142.518 119.004C144.327 119.52 145.823 119.841 145.858 119.72C145.893 119.599 144.453 119.087 142.644 118.57C140.835 118.054 139.342 117.738 139.303 117.855Z" fill="#AA6550"/>
<path d="M92.9425 78.1488C91.553 78.0275 90.156 78.2734 88.8914 78.8619C87.6268 79.4504 86.539 80.3609 85.7371 81.5021C84.2795 83.541 82.9391 86.8205 83.5984 91.6834C84.8998 101.175 85.9366 104.342 85.9366 104.342L103.38 101.578L100.994 85.6579C100.994 85.6579 98.8899 78.7475 92.9425 78.1488Z" fill="#FF9933"/>
<path opacity="0.2" d="M92.9425 78.1488C91.553 78.0275 90.156 78.2734 88.8914 78.8619C87.6268 79.4504 86.539 80.3609 85.7371 81.5021C84.2795 83.541 82.9391 86.8205 83.5984 91.6834C84.8998 101.175 85.9366 104.342 85.9366 104.342L103.38 101.578L100.994 85.6579C100.994 85.6579 98.8899 78.7475 92.9425 78.1488Z" fill="black"/>
<path d="M136.891 110.458C136.766 110.453 136.641 110.437 136.518 110.411C136.275 110.372 135.911 110.298 135.455 110.233C135.208 110.253 134.972 110.347 134.779 110.502C134.528 110.672 134.289 110.859 134.063 111.061C133.511 111.559 132.988 112.087 132.497 112.645C131.146 113.041 129.748 113.254 128.341 113.278C126.684 113.297 125.028 113.229 123.378 113.074C119.379 112.792 115.743 112.571 113.132 112.207C111.831 112.033 110.776 111.851 110.056 111.699C109.692 111.63 109.419 111.556 109.228 111.512C109.13 111.494 109.034 111.466 108.941 111.43C109.041 111.431 109.14 111.444 109.236 111.469L110.069 111.612C110.794 111.738 111.848 111.894 113.154 112.046C115.756 112.367 119.387 112.567 123.396 112.849C125.131 112.983 126.801 113.105 128.337 113.065C129.726 113.049 131.107 112.851 132.445 112.475L132.406 112.502C132.907 111.945 133.443 111.42 134.011 110.931C134.244 110.726 134.494 110.541 134.757 110.376C134.973 110.21 135.235 110.116 135.507 110.107C135.976 110.194 136.323 110.28 136.566 110.333C136.678 110.364 136.787 110.406 136.891 110.458Z" fill="#AA6550"/>
<path d="M102.183 92.6942C102.14 92.7127 102.094 92.7258 102.048 92.7332L101.645 92.82L100.981 92.885C100.675 92.8921 100.37 92.8791 100.066 92.846C98.7039 92.6928 97.4202 92.1318 96.3826 91.2366C95.9304 90.8614 95.5345 90.4231 95.207 89.9352C94.833 89.4016 94.5582 88.805 94.3958 88.174C94.3116 87.8338 94.2838 87.4821 94.3134 87.1329C94.3401 86.7576 94.4826 86.3999 94.7212 86.1091C94.854 85.9643 95.0147 85.8479 95.1936 85.7666C95.3725 85.6854 95.5659 85.641 95.7623 85.6362C96.1571 85.636 96.5459 85.7328 96.8945 85.9182C97.6118 86.3116 98.1892 86.9179 98.5473 87.6534C98.9286 88.4145 99.0993 89.2637 99.0418 90.1131C98.9913 91.0024 98.6721 91.8555 98.1265 92.5597C97.5497 93.2905 96.7973 93.8635 95.9395 94.2253C95.0816 94.5871 94.1462 94.7259 93.2202 94.6289C92.2998 94.5069 91.4154 94.1923 90.6246 93.7058C89.8338 93.2192 89.1544 92.5715 88.6306 91.8049C88.1001 91.0943 87.7664 90.2564 87.6632 89.3756C87.6154 88.9362 87.6658 88.4917 87.8107 88.0742C87.958 87.672 88.1989 87.3107 88.5135 87.0201C88.8176 86.7273 89.2033 86.5337 89.6197 86.4648C90.0266 86.4011 90.4432 86.4695 90.8083 86.66C91.1501 86.8419 91.4481 87.0959 91.6819 87.4046C91.9156 87.7132 92.0793 88.069 92.1618 88.4473C92.3225 89.1394 92.3225 89.8591 92.1618 90.5512C92.0159 91.1855 91.7652 91.791 91.42 92.3428C90.9017 93.1763 90.1708 93.8568 89.3024 94.3142C88.434 94.7717 87.4595 94.9896 86.479 94.9456C85.9488 94.9289 85.424 94.8339 84.9216 94.6636C84.7465 94.6077 84.5767 94.5366 84.4141 94.4511C84.4141 94.4511 84.5919 94.5205 84.939 94.6203C85.439 94.7692 85.9573 94.848 86.479 94.8545C87.3044 94.8739 88.1239 94.7095 88.8779 94.373C89.8741 93.9217 90.7116 93.181 91.2811 92.2474C91.6147 91.7134 91.8553 91.1266 91.9926 90.5122C92.1444 89.8469 92.1444 89.1559 91.9926 88.4906C91.9156 88.1403 91.7631 87.8109 91.5459 87.5255C91.3286 87.24 91.0517 87.0054 90.7345 86.8379C90.4051 86.6669 90.0296 86.6061 89.6631 86.6643C89.2876 86.7313 88.9405 86.9079 88.6653 87.1719C88.378 87.4409 88.1581 87.7738 88.0233 88.1436C87.8935 88.527 87.8476 88.9339 87.8888 89.3366C87.9957 90.1786 88.3169 90.9792 88.8215 91.6617C89.325 92.4034 89.9787 93.031 90.7401 93.504C91.5016 93.9771 92.3539 94.2849 93.2419 94.4077C94.1296 94.5017 95.0267 94.3696 95.8496 94.0237C96.6725 93.6779 97.3946 93.1295 97.9487 92.4296C98.4471 91.7655 98.7499 90.9752 98.8227 90.148C98.8956 89.3209 98.7355 88.4898 98.3608 87.7488C98.1847 87.4016 97.9613 87.0804 97.6971 86.7945C97.4375 86.52 97.1358 86.2886 96.8034 86.1091C96.4854 85.9357 96.1289 85.8447 95.7666 85.8445C95.5966 85.846 95.4287 85.8827 95.2734 85.9521C95.1182 86.0215 94.9789 86.1222 94.8643 86.2479C94.6489 86.507 94.5199 86.8271 94.4956 87.1632C94.4662 87.4931 94.4896 87.8255 94.565 88.1479C94.7195 88.7588 94.9809 89.3375 95.3372 89.8571C95.6536 90.3418 96.0361 90.7798 96.4737 91.1585C96.8614 91.4952 97.2864 91.7863 97.7404 92.0261C98.4683 92.4157 99.2603 92.6714 100.079 92.7809C100.78 92.8613 101.49 92.832 102.183 92.6942Z" fill="#FAFAFA"/>
<path d="M93.0072 44.5725C92.6914 43.6811 92.1332 42.8954 91.3953 42.3038C90.6574 41.7122 89.7692 41.3381 88.8304 41.2237C87.8916 41.1092 86.9395 41.2588 86.081 41.6558C85.2226 42.0527 84.492 42.6813 83.9712 43.4707C83.3118 44.4684 83.0298 45.6397 82.6134 46.7893C82.1969 47.9388 81.5852 49.0537 80.5311 49.622C79.2991 50.29 77.6767 50.0558 76.5575 50.9234C75.3081 51.8561 75.2561 53.9166 76.3232 55.0705C77.3904 56.2244 79.1907 56.476 80.6613 55.8991C80.3059 56.8109 80.1051 57.7756 80.0669 58.7535C80.0523 59.2439 80.1587 59.7303 80.3766 60.1699C80.5945 60.6094 80.9172 60.9886 81.3163 61.2739C81.7536 61.508 82.2435 61.6261 82.7394 61.617C83.2353 61.6079 83.7206 61.4719 84.149 61.2218C85.0025 60.713 85.7352 60.0248 86.2963 59.2047C86.4368 59.8941 86.678 60.5592 87.0121 61.1785C87.1812 61.4867 87.4149 61.7548 87.6971 61.9644C87.9794 62.1741 88.3036 62.3203 88.6475 62.3931C89.0777 62.4302 89.5099 62.3492 89.8974 62.1589C90.285 61.9685 90.6133 61.676 90.8469 61.3129C91.3038 60.5776 91.5762 59.7426 91.6408 58.8793C91.8919 56.7595 91.7537 54.6116 91.233 52.5415C90.9076 51.214 90.4478 49.8562 90.7037 48.5158C90.9597 47.1754 92.2784 45.913 93.5842 46.3208" fill="#263238"/>
<path d="M75.9072 53.7215C75.9745 53.7686 76.0493 53.8039 76.1285 53.8256C76.3481 53.9053 76.5727 53.9705 76.8009 54.0208C77.8577 54.2449 78.9533 54.2079 79.9926 53.9131C81.032 53.6183 81.9838 53.0746 82.7656 52.329C83.3184 51.8005 83.7788 51.1832 84.1278 50.5027C84.4827 49.7689 84.7394 48.9915 84.8913 48.1905C85.0324 47.4136 85.2444 46.6513 85.5246 45.9131C85.7931 45.2453 86.2441 44.6665 86.826 44.2429C87.3213 43.8864 87.8882 43.6416 88.4873 43.5255C89.0865 43.4094 89.7038 43.4248 90.2964 43.5706C91.1043 43.7801 91.8489 44.1836 92.4654 44.7462C92.8992 45.1453 93.0988 45.4229 93.1248 45.4012C93.1508 45.3795 93.0944 45.3188 93.0077 45.1843C92.8781 44.9934 92.733 44.8134 92.5739 44.6464C91.9653 44.0257 91.2036 43.5768 90.3658 43.345C89.7348 43.1709 89.0731 43.1386 88.4281 43.2503C87.7831 43.3621 87.1708 43.6151 86.6351 43.9913C86.0008 44.4455 85.5076 45.0695 85.2123 45.7916C84.9173 46.5482 84.6951 47.3311 84.5485 48.1298C84.4037 48.9011 84.1603 49.6505 83.8241 50.3595C83.3786 51.2346 82.7443 51.9998 81.9671 52.6C81.19 53.2001 80.2892 53.6202 79.3299 53.83C78.5084 54.0054 77.6621 54.0318 76.8312 53.908C76.2369 53.7952 75.9159 53.6911 75.9072 53.7215Z" fill="#455A64"/>
<path d="M87.347 61.7337C87.347 61.7337 87.4121 61.7034 87.5206 61.6166C87.685 61.4933 87.831 61.3472 87.9544 61.1828C88.3958 60.583 88.663 59.873 88.7265 59.1309C88.8236 58.0427 88.6981 56.946 88.3578 55.9078C88.0281 54.7365 87.5206 53.4959 87.3253 52.1424C87.1275 50.8736 87.3792 49.5755 88.0368 48.4724C88.5695 47.5679 89.3572 46.8406 90.3012 46.3815C90.9408 46.0701 91.6317 45.8775 92.3401 45.8132C92.6041 45.8089 92.8677 45.7901 93.1296 45.7568C92.8709 45.6806 92.6003 45.6526 92.3314 45.6744C91.5946 45.6875 90.8682 45.8514 90.1971 46.1559C89.1845 46.606 88.3327 47.3534 87.7548 48.2989C87.0402 49.4667 86.7635 50.8503 86.974 52.2031C87.1779 53.6217 87.7028 54.8667 88.0455 56.0119C88.3901 57.0093 88.5374 58.0642 88.4793 59.1179C88.4458 59.8269 88.2275 60.5149 87.8459 61.1134C87.5466 61.5255 87.321 61.7077 87.347 61.7337Z" fill="#455A64"/>
<path d="M116.312 53.5132C119.713 45.6484 115.049 40.8592 112.013 39.1414C110.204 38.1176 108.052 37.9007 105.978 37.84C103.925 37.7409 101.868 37.9292 99.8661 38.3996C97.8569 38.8758 96.0227 39.9087 94.5737 41.3798C92.0881 44.0433 91.5371 47.9866 91.754 51.6218C92.0229 55.9207 93.2612 60.1029 95.3763 63.855C95.6106 64.3579 95.9781 64.787 96.4391 65.0957C96.6743 65.24 96.9545 65.2924 97.2259 65.2428C97.4973 65.1931 97.7408 65.045 97.9097 64.8268" fill="#263238"/>
<path d="M110.48 73.1514L110.355 69.0129C110.355 69.0129 115.191 68.2104 116.193 61.8986C116.692 58.7578 116.536 53.613 116.272 49.4051C116.215 48.5056 115.977 47.6269 115.572 46.822C115.166 46.0171 114.602 45.3028 113.913 44.7221C113.223 44.1415 112.423 43.7067 111.561 43.4438C110.699 43.181 109.793 43.0957 108.897 43.1931L97.9521 44.3513C97.3989 44.4089 96.8875 44.6723 96.5195 45.0894C96.1514 45.5064 95.9536 46.0466 95.9653 46.6027L97.4186 73.6936C97.5032 75.3616 98.2259 76.9332 99.4372 78.0831C100.648 79.233 102.255 79.8731 103.926 79.871C104.802 79.8778 105.671 79.7075 106.481 79.3702C107.29 79.0328 108.023 78.5354 108.635 77.9078C109.247 77.2802 109.726 76.5354 110.043 75.718C110.36 74.9007 110.509 74.0276 110.48 73.1514Z" fill="#FFBF9D"/>
<path d="M115.18 52.9709C115.181 53.1821 115.1 53.3855 114.955 53.5384C114.809 53.6913 114.61 53.7818 114.399 53.7908C114.295 53.7984 114.192 53.7855 114.093 53.7526C113.995 53.7198 113.905 53.6678 113.827 53.5995C113.749 53.5313 113.685 53.4483 113.64 53.3552C113.594 53.2622 113.568 53.161 113.562 53.0576C113.56 52.8469 113.641 52.644 113.787 52.4917C113.933 52.3395 114.132 52.25 114.342 52.2421C114.445 52.2338 114.549 52.2462 114.647 52.2786C114.746 52.3109 114.836 52.3625 114.914 52.4304C114.992 52.4983 115.056 52.5811 115.101 52.6739C115.147 52.7667 115.174 52.8677 115.18 52.9709Z" fill="#263238"/>
<path d="M115.158 52.0643C115.054 52.1684 114.442 51.713 113.57 51.7173C112.698 51.7216 112.061 52.1511 111.97 52.047C111.879 51.9429 112.022 51.8084 112.304 51.6132C112.685 51.3472 113.14 51.2076 113.605 51.2141C114.057 51.2131 114.498 51.3559 114.863 51.6219C115.115 51.8257 115.206 52.0166 115.158 52.0643Z" fill="#263238"/>
<path d="M106.451 53.1965C106.452 53.4077 106.372 53.6111 106.226 53.764C106.08 53.917 105.881 54.0074 105.67 54.0164C105.567 54.0241 105.463 54.0111 105.365 53.9783C105.267 53.9454 105.176 53.8934 105.098 53.8251C105.02 53.7569 104.957 53.6739 104.911 53.5809C104.866 53.4878 104.839 53.3867 104.833 53.2833C104.832 53.0725 104.913 52.8696 105.058 52.7174C105.204 52.5651 105.403 52.4756 105.614 52.4677C105.717 52.4601 105.82 52.4729 105.918 52.5054C106.016 52.538 106.107 52.5897 106.185 52.6574C106.262 52.7252 106.326 52.8078 106.372 52.9003C106.418 52.9928 106.444 53.0935 106.451 53.1965Z" fill="#263238"/>
<path d="M106.594 52.2248C106.494 52.3289 105.878 51.8778 105.011 51.8778C104.143 51.8778 103.501 52.3116 103.406 52.2118C103.31 52.112 103.462 51.9732 103.74 51.778C104.121 51.5136 104.577 51.3755 105.041 51.3832C105.494 51.384 105.935 51.5266 106.303 51.791C106.551 51.9862 106.642 52.1771 106.594 52.2248Z" fill="#263238"/>
<path d="M109.757 58.6842C110.215 58.5389 110.69 58.4529 111.171 58.4283C111.392 58.4066 111.605 58.3632 111.639 58.2114C111.659 57.9817 111.608 57.7515 111.492 57.552L110.833 55.8558C109.922 53.4439 109.258 51.4614 109.358 51.4267C109.457 51.392 110.273 53.3181 111.188 55.7257C111.405 56.3243 111.622 56.8883 111.817 57.4305C111.955 57.6975 111.997 58.0041 111.934 58.2981C111.903 58.3774 111.853 58.4481 111.789 58.5046C111.725 58.5611 111.648 58.6018 111.566 58.6235C111.443 58.6579 111.316 58.6755 111.188 58.6756C110.713 58.7373 110.232 58.7402 109.757 58.6842Z" fill="#263238"/>
<path d="M110.356 68.9912C107.384 69.0361 104.459 68.2552 101.905 66.7355C101.905 66.7355 103.957 71.0735 110.273 70.4792L110.356 68.9912Z" fill="#AA6550"/>
<path d="M109.37 60.7837C109.204 60.5745 108.988 60.411 108.741 60.3086C108.495 60.2061 108.226 60.1681 107.961 60.198C107.768 60.2164 107.582 60.2731 107.412 60.3647C107.242 60.4563 107.092 60.5811 106.971 60.7316C106.855 60.8765 106.786 61.0536 106.774 61.2391C106.761 61.4245 106.806 61.6093 106.902 61.7684C107.043 61.9247 107.227 62.0358 107.431 62.0875C107.634 62.1393 107.849 62.1294 108.047 62.059C108.458 61.9115 108.835 61.6845 109.158 61.391C109.257 61.3226 109.343 61.2357 109.409 61.1351C109.441 61.0868 109.458 61.0302 109.458 60.9724C109.458 60.9145 109.441 60.858 109.409 60.8097" fill="#AA6550"/>
<path d="M107.201 59.2698C107.34 59.2698 107.345 60.2068 108.151 60.8748C108.958 61.5429 109.969 61.4431 109.978 61.5776C109.978 61.634 109.752 61.7598 109.327 61.7728C108.772 61.7794 108.233 61.5905 107.804 61.2392C107.392 60.9049 107.127 60.422 107.067 59.8945C107.023 59.517 107.128 59.2698 107.201 59.2698Z" fill="#263238"/>
<path d="M106.985 50.6978C106.902 50.9364 106.031 50.8236 105.011 50.9494C103.992 51.0752 103.159 51.3485 103.024 51.136C102.964 51.0362 103.107 50.8106 103.458 50.585C103.9 50.2987 104.404 50.1217 104.929 50.0688C105.452 50.0042 105.983 50.0667 106.477 50.251C106.833 50.4028 107.024 50.5937 106.985 50.6978Z" fill="#263238"/>
<path d="M114.837 49.5396C114.68 49.7392 114.082 49.5396 113.362 49.5396C112.642 49.5396 112.03 49.6698 111.887 49.4615C111.826 49.3618 111.921 49.1665 112.19 48.9757C112.546 48.7457 112.965 48.6333 113.388 48.6547C113.811 48.6613 114.222 48.7992 114.563 49.0494C114.819 49.2403 114.902 49.4442 114.837 49.5396Z" fill="#263238"/>
<path d="M116.272 49.3834C115.17 44.0043 113.669 46.1342 111.973 43.5661C109.518 46.0518 103.865 48.9149 100.417 49.4788C100.059 49.5055 99.7121 49.617 99.4058 49.8042C98.8765 50.199 98.8332 50.9625 98.8332 51.6262C98.9022 53.496 98.7478 55.3673 98.3733 57.2005C97.996 59.0447 97.0546 60.726 95.6794 62.0114C93.5972 57.6256 93.389 52.5241 94.3216 47.7567C94.7034 45.8089 95.3454 43.77 96.8984 42.551C98.0089 41.6834 99.4405 41.3104 100.837 41.0544C104.286 40.4211 107.934 40.2692 111.218 41.4882C114.502 42.7072 117.053 44.2342 117.491 47.7133" fill="#263238"/>
<path d="M92.4219 45.605C92.6418 45.7608 92.8791 45.8903 93.129 45.9911C93.4086 46.1307 93.6987 46.2482 93.9966 46.3425L94.5518 46.5377L95.1939 46.6982C96.2526 46.9497 97.3338 47.095 98.4214 47.132C101.093 47.2321 103.756 46.7894 106.251 45.8306C106.815 45.579 107.362 45.3751 107.839 45.1018L108.533 44.7288L109.149 44.334C109.502 44.1088 109.838 43.8595 110.156 43.5879L110.555 43.2669L110.858 42.9589C111.056 42.7782 111.235 42.5775 111.392 42.3602C111.336 42.2995 110.568 43.1584 109.01 44.1214L108.399 44.4902L107.705 44.8372C107.232 45.0975 106.69 45.271 106.134 45.5226C104.903 45.9708 103.634 46.3076 102.343 46.529C101.052 46.7354 99.7458 46.8297 98.4387 46.811C97.3687 46.7865 96.3031 46.666 95.2546 46.451C93.4673 46.0779 92.4522 45.5356 92.4219 45.605Z" fill="#455A64"/>
<path d="M94.209 41.3538C94.3716 41.5197 94.5536 41.6654 94.7512 41.7876C94.9725 41.9522 95.2076 42.0973 95.454 42.2214L95.9095 42.4686L96.4431 42.6942C98.4191 43.4578 100.524 43.8334 102.642 43.8004C104.748 43.8048 106.848 43.5705 108.902 43.102C109.691 42.9241 110.32 42.7463 110.745 42.6031C110.974 42.5486 111.194 42.464 111.401 42.3515C111.401 42.2951 110.424 42.5597 108.854 42.8547C106.807 43.2461 104.727 43.4437 102.642 43.4447C100.564 43.4743 98.4973 43.141 96.5342 42.46C95.7408 42.131 94.9648 41.7617 94.209 41.3538Z" fill="#455A64"/>
<path d="M113.605 39.983C113.605 39.9439 113.388 39.9005 113.05 39.983C112.61 40.1128 112.219 40.3708 111.927 40.7239C111.635 41.0771 111.455 41.5093 111.41 41.9654C111.388 42.3125 111.471 42.5164 111.514 42.512C111.557 42.5077 111.575 41.6791 112.199 40.9503C112.824 40.2216 113.622 40.0827 113.605 39.983Z" fill="#455A64"/>
<path d="M80.9997 46.7807C80.9539 46.6933 80.8904 46.6165 80.8131 46.5551C80.5939 46.364 80.3214 46.2444 80.0323 46.2124C79.5769 46.1579 79.1167 46.2638 78.7309 46.5117C78.4665 46.6794 78.2543 46.9179 78.1186 47.2001C77.9829 47.4823 77.929 47.7968 77.9631 48.1081C78.0046 48.4824 78.1365 48.8411 78.3473 49.1532C78.5581 49.4652 78.8416 49.7214 79.1734 49.8997C79.5674 50.0836 80.004 50.1569 80.4365 50.1118C80.869 50.0667 81.2811 49.9049 81.6287 49.6438C82.0138 49.3768 82.3256 49.0173 82.5353 48.5983C82.7351 48.1614 82.8485 47.6901 82.8694 47.2101C82.9344 46.2558 82.7696 45.2927 82.9431 44.3557C83.1272 43.4723 83.5333 42.6503 84.123 41.9673C84.7127 41.2842 85.4666 40.7626 86.3137 40.4515C87.0115 40.2128 87.7543 40.1357 88.4862 40.2258C89.2181 40.316 89.92 40.5712 90.539 40.9721C91.3936 41.506 92.0842 42.2656 92.5345 43.1671C92.8468 43.8091 92.9119 44.2126 92.9683 44.2039C92.9732 44.1058 92.9615 44.0075 92.9336 43.9133C92.8777 43.6372 92.7918 43.3681 92.6776 43.1107C92.2582 42.1515 91.5677 41.3358 90.6908 40.7639C90.0864 40.3631 89.4079 40.0873 88.6953 39.9527C87.8684 39.8019 87.0166 39.8677 86.2226 40.1435C85.3151 40.464 84.5056 41.0133 83.8726 41.7384C83.2395 42.4634 82.8043 43.3395 82.6091 44.282C82.4269 45.3058 82.6091 46.2775 82.5397 47.1798C82.5245 47.6144 82.4243 48.0418 82.2447 48.4378C82.0654 48.8085 81.7953 49.1278 81.4595 49.3661C81.1598 49.5969 80.8038 49.7431 80.4285 49.7897C80.0531 49.8362 79.6722 49.7813 79.3252 49.6308C79.0317 49.4776 78.7792 49.2562 78.589 48.9852C78.3988 48.7142 78.2764 48.4015 78.232 48.0734C78.1958 47.8043 78.235 47.5303 78.3453 47.2822C78.4556 47.034 78.6326 46.8213 78.8567 46.6679C79.2053 46.426 79.6265 46.3111 80.0497 46.3425C80.4039 46.3874 80.7356 46.5404 80.9997 46.7807Z" fill="#263238"/>
<path d="M97.5752 49.6264C97.7897 49.6763 98.0105 49.6938 98.2302 49.6785C98.664 49.6785 99.267 49.6785 100.026 49.6785C102.013 49.6453 103.982 49.3059 105.865 48.672C107.769 48.0102 109.43 46.794 110.637 45.1799C110.99 44.6887 111.275 44.1516 111.483 43.5836C111.57 43.3793 111.626 43.1627 111.648 42.9415C111.309 43.6749 110.902 44.3749 110.433 45.0324C109.209 46.55 107.584 47.695 105.744 48.338C103.891 48.9576 101.964 49.3253 100.013 49.4312C99.1975 49.4515 98.3836 49.5166 97.5752 49.6264Z" fill="#263238"/>
<path d="M88.6182 65.0437C88.6182 65.0437 88.6399 65.2996 88.9175 65.6423C89.1216 65.8794 89.3719 66.0725 89.653 66.2097C89.9342 66.347 90.2404 66.4255 90.5529 66.4405C91.4884 66.4657 92.3964 66.123 93.082 65.4861C93.5148 65.1138 93.7906 64.5916 93.8541 64.0242C93.8883 63.7084 93.8283 63.3896 93.6817 63.1078C93.535 62.826 93.3082 62.594 93.0299 62.4408C92.7297 62.3014 92.3867 62.2851 92.0746 62.3954C91.7624 62.5056 91.5059 62.7337 91.3598 63.0308C91.3018 63.1793 91.2776 63.3389 91.2888 63.498C91.3001 63.657 91.3465 63.8116 91.4249 63.9505C91.5614 64.2109 91.7792 64.4196 92.0452 64.5448C92.5236 64.7458 93.061 64.7551 93.5461 64.5708C93.957 64.428 94.3275 64.1885 94.6263 63.8724C95.0647 63.4292 95.3465 62.8549 95.4288 62.237C95.4754 62.0162 95.4619 61.787 95.3898 61.5732C95.3594 61.5732 95.3898 61.8118 95.2944 62.2153C95.1657 62.7805 94.873 63.2952 94.4528 63.6945C94.1708 63.9695 93.8272 64.1732 93.4507 64.2888C93.04 64.4349 92.5893 64.4209 92.1883 64.2498C91.9864 64.1616 91.8235 64.0028 91.7301 63.8033C91.6367 63.6037 91.6191 63.3769 91.6808 63.1653C91.7934 62.959 91.9798 62.8029 92.2026 62.7281C92.4253 62.6533 92.6682 62.6653 92.8824 62.7619C93.0953 62.8862 93.2676 63.0695 93.3785 63.2897C93.4894 63.5099 93.534 63.7575 93.5071 64.0025C93.4497 64.4844 93.2183 64.9286 92.8564 65.2519C92.2368 65.8421 91.4173 66.1768 90.5616 66.1889C89.9846 66.1796 89.4327 65.9517 89.0173 65.5512C88.731 65.2562 88.6485 65.0306 88.6182 65.0437Z" fill="#263238"/>
<path d="M124.81 141.8C124.81 141.861 109.063 141.913 89.6414 141.913C70.2201 141.913 54.4688 141.861 54.4688 141.8C54.4688 141.74 70.2114 141.688 89.6414 141.688C109.071 141.688 124.81 141.74 124.81 141.8Z" fill="#455A64"/>
<path d="M32.6845 116.618C33.439 116.741 34.1607 117.016 34.8064 117.425C35.452 117.834 36.0081 118.37 36.4412 119C37.3005 120.265 37.8585 121.71 38.0723 123.225C38.5668 126.131 37.7903 129.437 36.7232 132.183C33.7517 130.803 32.1553 127.376 31.4655 125.55C30.3637 122.704 30.1034 116.874 32.6845 116.618Z" fill="#FF9933"/>
<path d="M40.8307 136.053C40.4353 135.295 40.2474 134.447 40.2863 133.593C40.3251 132.74 40.5893 131.912 41.052 131.194C41.5268 130.485 42.1374 129.878 42.8485 129.406C43.5596 128.935 44.357 128.609 45.1948 128.448C45.9669 128.287 46.8432 128.274 47.4549 128.769C47.7279 129.018 47.929 129.336 48.0374 129.689C48.1457 130.042 48.1573 130.418 48.0709 130.778C47.8905 131.495 47.5221 132.15 47.0037 132.678C45.3162 134.539 43.3468 136.053 40.8307 136.053Z" fill="#FF9933"/>
<path d="M40.2843 145.54C40.2367 145.342 40.2091 145.14 40.2018 144.937C40.1585 144.503 40.1021 143.956 40.0327 143.293C39.7934 141.475 39.8506 139.631 40.2018 137.831C40.5833 136.025 41.4382 134.353 42.6789 132.986C43.0601 132.58 43.4883 132.222 43.9542 131.918C44.0798 131.834 44.2102 131.757 44.3447 131.688C44.389 131.66 44.4372 131.638 44.4878 131.623C43.8747 132.054 43.3065 132.545 42.7916 133.09C41.6092 134.455 40.7901 136.096 40.4101 137.861C39.9286 139.931 40.1064 141.878 40.1845 143.262C40.2322 143.956 40.2669 144.525 40.2843 144.915C40.3022 145.123 40.3022 145.332 40.2843 145.54Z" fill="#263238"/>
<path d="M33.2783 121.026C33.318 121.104 33.3513 121.185 33.3781 121.268C33.4432 121.455 33.5299 121.702 33.634 121.98C33.8466 122.6 34.1503 123.503 34.5016 124.622C35.2261 126.856 36.1848 129.953 37.1695 133.402C38.1542 136.851 38.9698 139.991 39.5294 142.269C39.8114 143.41 40.0283 144.334 40.1714 144.976C40.2408 145.279 40.2929 145.522 40.3319 145.713C40.3563 145.799 40.3709 145.888 40.3753 145.978C40.3416 145.896 40.3141 145.812 40.2929 145.726L40.0933 144.997C39.9198 144.334 39.6595 143.423 39.3819 142.308C38.7876 140.039 37.946 136.907 36.9656 133.458C35.9852 130.01 35.0439 126.912 34.3628 124.665C34.0245 123.563 33.7512 122.661 33.5473 122.006C33.4605 121.711 33.3911 121.468 33.3347 121.281C33.3052 121.199 33.2863 121.113 33.2783 121.026Z" fill="#263238"/>
<path d="M37.2175 138.933C36.4388 137.311 35.285 135.898 33.8517 134.811C32.4184 133.724 30.7468 132.994 28.9753 132.682C28.0729 132.53 26.9668 132.582 26.4852 133.359C26.0037 134.135 26.4592 135.154 27.0145 135.883C28.2033 137.38 29.8084 138.492 31.6279 139.079C33.4474 139.666 35.3997 139.701 37.2392 139.18" fill="#FF9933"/>
<path d="M30.1251 135.237C30.3149 135.244 30.5037 135.269 30.689 135.311C30.9097 135.345 31.1283 135.392 31.344 135.449C31.5957 135.523 31.8906 135.575 32.2117 135.692C32.5553 135.803 32.8927 135.932 33.2224 136.079C33.6022 136.239 33.973 136.42 34.3329 136.621C35.159 137.089 35.9302 137.647 36.6321 138.287C37.3197 138.938 37.931 139.666 38.4541 140.456C38.68 140.803 38.8857 141.164 39.0701 141.536C39.236 141.854 39.3809 142.183 39.5039 142.52C39.6147 142.796 39.7102 143.076 39.7902 143.362C39.8604 143.574 39.9169 143.79 39.9593 144.008C40.0078 144.193 40.0398 144.382 40.0548 144.572C40.0071 144.572 39.8639 143.778 39.365 142.577C39.2299 142.248 39.0764 141.926 38.9052 141.614C38.718 141.253 38.5109 140.902 38.2849 140.564C37.2486 139.006 35.8608 137.713 34.2332 136.79C33.8805 136.585 33.5171 136.4 33.1443 136.235C32.8016 136.066 32.4633 135.948 32.1596 135.831C30.9233 135.402 30.1164 135.285 30.1251 135.237Z" fill="#263238"/>
<path d="M138.18 4.17701C134.871 3.95405 131.561 4.5893 128.57 6.02122C125.579 7.45314 123.009 9.6332 121.108 12.3503C119.206 15.0673 118.039 18.2293 117.719 21.5299C117.399 24.8305 117.936 28.1579 119.279 31.1898C121.518 36.2523 125.856 40.1825 127.769 45.3881C129.07 48.9366 129.183 52.8495 130.523 56.385C133.278 63.6555 141.69 68.2798 149.303 66.7138C153.875 65.7768 157.979 62.918 162.646 62.6274C167.644 62.3151 173.335 64.8571 177.296 61.7858C180.064 59.6385 180.532 55.5174 179.53 52.1641C178.528 48.8108 176.368 45.9477 174.593 42.9285C172.819 39.9092 171.375 36.4215 172.034 32.9814C172.628 29.8624 174.841 27.342 176.229 24.4832C177.538 21.7954 178.117 18.8102 177.906 15.8278C177.696 12.8454 176.703 9.97103 175.029 7.49376C173.356 5.01649 171.059 3.02367 168.37 1.71573C165.682 0.40778 162.696 -0.169174 159.714 0.0428885C155.74 0.324859 152.014 1.98198 148.192 3.0795C144.37 4.17701 142.457 4.32451 138.18 4.17701Z" fill="#F5F5F5"/>
<path d="M147.711 16.9264C147.711 16.9264 140.358 16.8527 137.829 23.2426C135.3 29.6325 138.198 32.7168 139.33 34.5951C140.462 36.4735 143.503 40.5599 143.529 44.4121L153.407 44.347C153.919 40.9372 155.098 37.6617 156.877 34.7079C159.831 29.7886 159.48 26.2011 158.673 24.0581C157.866 21.9151 155.233 16.6097 147.711 16.9264Z" fill="#FF9933"/>
<path d="M149.954 44.0867L149.928 43.9305C149.928 43.822 149.889 43.6746 149.859 43.4967C149.798 43.0889 149.716 42.5033 149.607 41.7615C149.403 40.2475 149.1 38.0482 148.909 35.3152C148.861 34.6298 148.822 33.914 148.8 33.1462C148.779 32.3784 148.761 31.6192 148.8 30.8123C148.834 29.9702 149.03 29.1425 149.377 28.3744C149.755 27.5488 150.424 26.891 151.256 26.5264C151.703 26.3502 152.191 26.3069 152.662 26.4015C153.133 26.4962 153.566 26.7248 153.91 27.06C154.089 27.2344 154.23 27.443 154.325 27.6734C154.421 27.9038 154.468 28.1511 154.466 28.4004C154.45 28.9077 154.271 29.3963 153.954 29.7929C153.642 30.1973 153.235 30.519 152.77 30.7299C152.307 30.9462 151.818 31.1036 151.316 31.1984C150.299 31.4004 149.265 31.5108 148.228 31.5281C147.192 31.5563 146.156 31.4968 145.13 31.3503C144.625 31.2704 144.132 31.1246 143.664 30.9165C143.202 30.7122 142.786 30.4172 142.441 30.0489C142.098 29.6842 141.859 29.2351 141.747 28.7475C141.644 28.2587 141.709 27.7495 141.933 27.3029C142.145 26.8591 142.512 26.5086 142.966 26.3182C143.19 26.237 143.429 26.2022 143.668 26.2156C143.906 26.229 144.14 26.2904 144.354 26.3962C144.768 26.6001 145.122 26.9081 145.382 27.2899C145.623 27.6492 145.798 28.0489 145.898 28.4698C146.043 29.292 146.117 30.125 146.119 30.9598C146.189 32.5692 146.254 34.0659 146.31 35.4367C146.423 38.1653 146.51 40.3777 146.575 41.9133C146.601 42.6768 146.623 43.2668 146.64 43.6746C146.64 43.8741 146.64 44.0259 146.64 44.1344C146.64 44.2428 146.64 44.2906 146.64 44.2906V44.1344C146.64 44.0259 146.64 43.8741 146.614 43.7006C146.614 43.2928 146.558 42.6985 146.518 41.9393C146.445 40.4037 146.341 38.1913 146.206 35.4627C146.145 34.0962 146.072 32.5953 145.998 30.9902C145.993 30.1625 145.917 29.3368 145.772 28.5219C145.683 28.1031 145.517 27.7045 145.282 27.3463C145.037 26.9847 144.7 26.6944 144.306 26.5047C144.109 26.4061 143.894 26.3488 143.674 26.3361C143.454 26.3234 143.234 26.3557 143.026 26.431C142.608 26.6084 142.269 26.9344 142.076 27.3463C141.866 27.763 141.805 28.2391 141.903 28.6954C142.009 29.1622 142.238 29.5921 142.567 29.9404C143.266 30.6468 144.183 31.0963 145.169 31.2158C146.185 31.3627 147.211 31.4222 148.236 31.3936C149.263 31.3761 150.287 31.2672 151.295 31.0683C151.786 30.9756 152.264 30.8226 152.718 30.6128C153.157 30.4159 153.545 30.1188 153.85 29.7452C154.145 29.3737 154.313 28.9178 154.331 28.4438C154.334 28.2131 154.291 27.9842 154.203 27.771C154.115 27.5577 153.984 27.3645 153.819 27.2031C153.495 26.8879 153.087 26.6728 152.644 26.5835C152.201 26.4943 151.741 26.5347 151.321 26.6999C150.52 27.0501 149.875 27.6812 149.507 28.4742C149.168 29.2276 148.975 30.0388 148.939 30.8644C148.887 31.6626 148.909 32.4391 148.939 33.1852C148.969 33.9314 148.995 34.6471 149.035 35.3282C149.212 38.0612 149.503 40.2562 149.69 41.7788L149.911 43.514C149.934 43.7078 149.951 43.8596 149.963 43.9695C149.962 44.0087 149.959 44.0478 149.954 44.0867Z" fill="#263238"/>
<path d="M143.525 44.269L153.438 44.1128L153.546 50.3769L150.666 53.8126L146.866 53.9731L143.647 50.1296L143.525 44.269Z" fill="#E0E0E0"/>
<path d="M150.665 53.8126C150.407 53.5488 150.097 53.341 149.756 53.2022C149.414 53.0634 149.047 52.9965 148.678 53.0057C148.314 53.0283 147.958 53.1272 147.635 53.2961C147.311 53.465 147.027 53.7001 146.8 53.9861L150.665 53.8126Z" fill="#455A64"/>
<path d="M153.28 49.8606C153.155 49.8241 153.034 49.7732 152.92 49.7088C152.695 49.6003 152.361 49.4572 151.94 49.3053C149.722 48.5154 147.291 48.5663 145.107 49.4485C144.695 49.6177 144.366 49.7738 144.144 49.8823C144.031 49.9465 143.914 50.0031 143.793 50.0515C143.891 49.9657 143.999 49.8915 144.114 49.8302C144.42 49.6449 144.739 49.4811 145.068 49.34C147.262 48.3876 149.743 48.3361 151.974 49.1969C152.307 49.3211 152.632 49.466 152.946 49.6307C153.064 49.6979 153.175 49.7748 153.28 49.8606Z" fill="#263238"/>
<path d="M153.294 48.3424C153.17 48.2985 153.05 48.2464 152.934 48.1862C152.708 48.0821 152.374 47.9346 151.953 47.7871C150.853 47.3998 149.693 47.2117 148.526 47.2318C147.359 47.2579 146.205 47.4945 145.121 47.9302C144.687 48.0951 144.379 48.2556 144.158 48.364C144.048 48.4339 143.93 48.4906 143.807 48.5332C143.908 48.451 144.015 48.377 144.128 48.312C144.435 48.1301 144.754 47.9679 145.082 47.8261C147.276 46.8736 149.757 46.8222 151.988 47.683C152.322 47.8035 152.647 47.9485 152.96 48.1168C153.08 48.1784 153.192 48.2541 153.294 48.3424Z" fill="#263238"/>
<path d="M153.216 46.8935C153.092 46.8555 152.973 46.8046 152.86 46.7416C152.63 46.6332 152.296 46.49 151.875 46.3382C150.775 45.9501 149.615 45.762 148.448 45.7829C147.282 45.8132 146.131 46.0496 145.047 46.4813C144.613 46.6505 144.305 46.8067 144.084 46.9151C143.97 46.9811 143.851 47.0376 143.729 47.0843C143.828 46.998 143.937 46.9237 144.054 46.8631C144.359 46.6785 144.677 46.5148 145.004 46.3729C147.2 45.422 149.681 45.3706 151.914 46.2297C152.247 46.3539 152.572 46.4988 152.886 46.6635C153.003 46.7298 153.113 46.8068 153.216 46.8935Z" fill="#263238"/>
<g opacity="0.2">
<path opacity="0.2" d="M142.34 34.6081C142.205 34.7599 141.862 34.7339 141.368 34.478C140.69 34.093 140.099 33.5715 139.633 32.9466C138.92 32.0201 138.402 30.9592 138.11 29.8276C137.73 28.4096 137.695 26.921 138.009 25.4869C138.323 24.0527 138.977 22.7148 139.915 21.5854C140.651 20.6775 141.565 19.9292 142.6 19.386C143.282 19.0125 144.034 18.785 144.808 18.718C145.359 18.6919 145.676 18.8091 145.745 19.0043C145.871 19.4381 144.947 20.0194 143.845 21.1386C143.209 21.772 142.649 22.4765 142.175 23.2382C141.617 24.1304 141.212 25.1099 140.978 26.136C140.764 27.166 140.722 28.2241 140.852 29.268C140.967 30.157 141.182 31.0302 141.494 31.8708C142.032 33.3501 142.626 34.2784 142.34 34.6081Z" fill="white"/>
</g>
<g opacity="0.2">
<path opacity="0.2" d="M145.507 38.1133C145.478 38.3808 145.372 38.6342 145.202 38.8428C145.032 39.0513 144.806 39.2059 144.549 39.2879C144.293 39.3698 144.019 39.3755 143.759 39.3043C143.5 39.2331 143.266 39.0881 143.088 38.8868C142.909 38.6856 142.793 38.4368 142.754 38.1707C142.714 37.9046 142.752 37.6327 142.864 37.3881C142.976 37.1434 143.157 36.9366 143.384 36.7927C143.611 36.6488 143.876 36.5741 144.145 36.5776C144.528 36.6033 144.886 36.7788 145.141 37.0662C145.395 37.3536 145.527 37.7297 145.507 38.1133Z" fill="white"/>
</g>
<path d="M135.854 19.243C135.828 19.2733 134.553 18.3754 133.043 17.2128C131.534 16.0502 130.302 15.0915 130.324 15.0438C130.345 14.9961 131.625 15.9114 133.135 17.074C134.644 18.2366 135.881 19.2083 135.854 19.243Z" fill="#263238"/>
<path d="M137.933 16.4882C137.504 16.0753 137.111 15.6269 136.757 15.1478C136.364 14.702 136.009 14.2246 135.694 13.7206C136.125 14.1328 136.52 14.5812 136.874 15.061C137.268 15.5052 137.622 15.9827 137.933 16.4882Z" fill="#263238"/>
<path d="M142.457 15.855C142.418 15.855 141.915 14.4712 141.333 12.736C140.752 11.0008 140.314 9.57792 140.353 9.56491C140.392 9.5519 140.895 10.9487 141.477 12.6839C142.058 14.4191 142.496 15.842 142.457 15.855Z" fill="#263238"/>
<path d="M148.015 14.6533C147.869 14.1369 147.77 13.6084 147.72 13.0742C147.62 12.5465 147.572 12.0105 147.576 11.4735C147.723 11.9897 147.822 12.5183 147.871 13.0525C147.971 13.5802 148.019 14.1163 148.015 14.6533Z" fill="#263238"/>
<path d="M153.468 16.536C153.425 16.536 153.845 14.8745 154.405 12.8487C154.965 10.8228 155.455 9.18738 155.494 9.20039C155.533 9.21341 155.112 10.8619 154.552 12.8877C153.993 14.9136 153.507 16.549 153.468 16.536Z" fill="#263238"/>
<path d="M158.062 18.8048C158.326 18.2654 158.635 17.7488 158.986 17.2604C159.292 16.7447 159.643 16.2569 160.035 15.8029C159.77 16.3423 159.461 16.8588 159.111 17.3472C158.805 17.863 158.454 18.3507 158.062 18.8048Z" fill="#263238"/>
<path d="M165.332 17.8547C165.354 17.8894 164.078 18.8525 162.478 20.0237C160.877 21.195 159.563 22.0886 159.537 22.0539C159.51 22.0192 160.79 21.0562 162.391 19.8849C163.992 18.7137 165.332 17.82 165.332 17.8547Z" fill="#263238"/>
</svg>
