<svg width="28" height="28" viewBox="0 0 28 28" fill="none" xmlns="http://www.w3.org/2000/svg">
<path d="M12.373 22.292C12.6133 22.292 12.8154 22.207 12.9795 22.0371L19.5186 15.6475C19.6182 15.5537 19.6899 15.4526 19.7339 15.3442C19.7778 15.2358 19.7998 15.1201 19.7998 14.9971C19.7998 14.874 19.7764 14.7583 19.7295 14.6499C19.6826 14.5415 19.6123 14.4404 19.5186 14.3467L12.9795 7.95703C12.8154 7.78711 12.6133 7.70215 12.373 7.70215C12.2031 7.70215 12.0537 7.74023 11.9248 7.81641C11.7959 7.89258 11.6919 7.99512 11.6128 8.12402C11.5337 8.25293 11.4941 8.40234 11.4941 8.57227C11.4941 8.80664 11.582 9.01172 11.7578 9.1875L17.6992 14.9971L11.7578 20.8066C11.582 20.9824 11.4941 21.1875 11.4941 21.4219C11.4941 21.5859 11.5337 21.7339 11.6128 21.8657C11.6919 21.9976 11.7959 22.1016 11.9248 22.1777C12.0537 22.2539 12.2031 22.292 12.373 22.292Z" fill="#858DA3"/>
</svg>
