<svg width="30" height="29" viewBox="0 0 30 29" fill="none" xmlns="http://www.w3.org/2000/svg">
<path d="M24.1155 28.3148C24.4009 28.1031 24.5736 27.8176 24.6334 27.4585C24.6933 27.0994 24.6403 26.6713 24.4746 26.1741L21.7676 18.122L28.6732 13.1637C29.106 12.8599 29.4052 12.5445 29.571 12.2177C29.7367 11.8908 29.7643 11.557 29.6539 11.2163C29.5434 10.8757 29.3224 10.6225 28.9909 10.4567C28.6594 10.291 28.2359 10.2127 27.7203 10.2219L19.2401 10.2772L16.6573 2.16989C16.5008 1.67268 16.2936 1.29517 16.0358 1.03735C15.778 0.779541 15.4696 0.650635 15.1105 0.650635C14.7514 0.650635 14.4429 0.779541 14.1851 1.03735C13.9273 1.29517 13.7155 1.67268 13.5498 2.16989L10.9809 10.2772L2.50067 10.2219C1.98505 10.2127 1.5615 10.291 1.23003 10.4567C0.898553 10.6225 0.677571 10.8757 0.56708 11.2163C0.447381 11.557 0.472702 11.8908 0.643043 12.2177C0.813383 12.5445 1.11493 12.8599 1.54769 13.1637L8.45338 18.122L5.74635 26.1741C5.58061 26.6713 5.52767 27.0994 5.58752 27.4585C5.64737 27.8176 5.82001 28.1031 6.10544 28.3148C6.39088 28.545 6.71545 28.6279 7.07915 28.5634C7.44285 28.499 7.83647 28.3102 8.26002 27.9972L15.1105 22.956L21.9609 27.9972C22.3845 28.3102 22.7781 28.499 23.1418 28.5634C23.5055 28.6279 23.8301 28.545 24.1155 28.3148Z" fill="#858DA3"/>
</svg>
