<svg width="30" height="29" viewBox="0 0 30 29" fill="none" xmlns="http://www.w3.org/2000/svg">
<path d="M24.1156 28.3146C24.401 28.1028 24.5736 27.8174 24.6335 27.4583C24.6933 27.0992 24.6404 26.671 24.4746 26.1738L21.7676 18.1218L28.6733 13.1635C29.1061 12.8597 29.4053 12.5443 29.571 12.2174C29.7368 11.8906 29.7644 11.5568 29.6539 11.2161C29.5434 10.8754 29.3224 10.6222 28.991 10.4565C28.6595 10.2907 28.2359 10.2125 27.7203 10.2217L19.2401 10.2769L16.6574 2.16964C16.5009 1.67243 16.2937 1.29492 16.0359 1.03711C15.7781 0.779297 15.4696 0.650391 15.1105 0.650391C14.7514 0.650391 14.443 0.779297 14.1852 1.03711C13.9274 1.29492 13.7156 1.67243 13.5498 2.16964L10.9809 10.2769L2.50074 10.2217C1.98511 10.2125 1.56156 10.2907 1.23009 10.4565C0.898614 10.6222 0.677632 10.8754 0.567141 11.2161C0.447443 11.5568 0.472763 11.8906 0.643104 12.2174C0.813444 12.5443 1.11499 12.8597 1.54775 13.1635L8.45344 18.1218L5.74641 26.1738C5.58067 26.671 5.52773 27.0992 5.58758 27.4583C5.64743 27.8174 5.82007 28.1028 6.10551 28.3146C6.39094 28.5448 6.71551 28.6277 7.07921 28.5632C7.44291 28.4987 7.83653 28.31 8.26008 27.9969L15.1105 22.9558L21.961 27.9969C22.3845 28.31 22.7781 28.4987 23.1418 28.5632C23.5055 28.6277 23.8301 28.5448 24.1156 28.3146Z" fill="#FF9933"/>
</svg>
