<svg width="93" height="100" viewBox="0 0 93 100" fill="none" xmlns="http://www.w3.org/2000/svg">
<path d="M77.6163 54.1708L61.4641 48.0635C61.1988 47.9632 60.9558 47.8115 60.7491 47.6172C60.5424 47.4229 60.376 47.1898 60.2595 46.9311C60.143 46.6725 60.0786 46.3934 60.07 46.1098C60.0614 45.8263 60.1087 45.5438 60.2094 45.2786L68.6619 22.9236C68.8646 22.3876 69.2718 21.9541 69.7941 21.7184C70.3163 21.4827 70.9108 21.4641 71.4468 21.6666L81.6916 25.5397L86.5285 36.7106L80.4013 52.9227C80.1968 53.457 79.7888 53.8885 79.2668 54.1224C78.7447 54.3564 78.1512 54.3738 77.6163 54.1708Z" fill="#F5F5F5"/>
<path d="M81.6915 25.5398L79.3108 31.8314C79.2173 32.0783 79.1733 32.3412 79.1814 32.6051C79.1895 32.8689 79.2495 33.1286 79.358 33.3693C79.4665 33.61 79.6213 33.8269 79.8136 34.0077C80.006 34.1886 80.2321 34.3297 80.479 34.4232L86.5285 36.7106L81.6915 25.5398Z" fill="#EBEBEB"/>
<path d="M79.1843 32.4153C79.1843 32.4153 78.5291 33.9121 80.0726 35.0803C80.1309 35.1238 80.1917 35.1639 80.2547 35.2002C80.992 35.6444 85.8423 38.5315 85.8868 38.4138L86.5264 36.7215L80.4768 34.434C80.4768 34.434 78.9888 33.8011 79.1843 32.4153Z" fill="#E0E0E0"/>
<path d="M78.0539 31.0629C78.0228 31.145 76.326 30.5765 74.2629 29.797C72.1997 29.0175 70.5519 28.3179 70.583 28.2424C70.614 28.1669 72.3108 28.7288 74.3739 29.5083C76.4371 30.2878 78.085 30.9762 78.0539 31.0629Z" fill="#E0E0E0"/>
<path d="M81.5339 36.4463C81.5028 36.5263 78.7267 35.558 75.3311 34.2677C71.9354 32.9774 69.206 31.8758 69.2371 31.7937C69.2682 31.7115 72.0442 32.682 75.4421 33.9745C78.84 35.2671 81.5583 36.3642 81.5339 36.4463Z" fill="#E0E0E0"/>
<path d="M81.5183 39.8351C81.4872 39.9151 78.4625 38.8469 74.7603 37.4455C71.0582 36.0442 68.0822 34.8449 68.1133 34.765C68.1444 34.685 71.1692 35.7532 74.8714 37.1546C78.5735 38.5559 81.5583 39.753 81.5183 39.8351Z" fill="#E0E0E0"/>
<path d="M80.459 42.638C80.4279 42.718 77.4031 41.6497 73.701 40.2484C69.9988 38.847 67.0229 37.6389 67.054 37.5678C67.0851 37.4968 70.1099 38.5561 73.812 39.9552C77.5142 41.3544 80.4901 42.5558 80.459 42.638Z" fill="#E0E0E0"/>
<path d="M79.3997 45.4406C79.3686 45.5206 76.3416 44.4523 72.6417 43.051C68.9417 41.6496 65.9636 40.4504 65.9925 40.3704C66.0213 40.2905 69.0483 41.3587 72.7527 42.7578C76.4571 44.157 79.4285 45.3584 79.3997 45.4406Z" fill="#E0E0E0"/>
<path d="M78.3381 48.2433C78.3092 48.3233 75.2822 47.2528 71.5823 45.8537C67.8824 44.4546 64.902 43.2531 64.9331 43.1732C64.9642 43.0932 67.989 44.1614 71.6911 45.5606C75.3933 46.9597 78.3692 48.1612 78.3381 48.2433Z" fill="#E0E0E0"/>
<path d="M23.7646 30.9622L2.47102 38.4191C1.73478 38.677 1.34695 39.4828 1.60478 40.2191L12.2884 70.7268C12.5463 71.463 13.3521 71.8509 14.0883 71.593L35.3819 64.1361C36.1182 63.8783 36.506 63.0725 36.2482 62.3362L25.5645 31.8285C25.3067 31.0922 24.5008 30.7044 23.7646 30.9622Z" fill="#EBEBEB"/>
<path d="M24.0376 32.8586L3.43988 40.0718L14.0288 70.3091L34.6265 63.0959L24.0376 32.8586Z" fill="#E0E0E0"/>
<path d="M23.669 32.7162L3.07129 39.9294L13.4584 69.5904L34.0561 62.3772L23.669 32.7162Z" fill="#FAFAFA"/>
<path d="M34.0523 62.3768L23.6388 32.7264L23.6766 32.7442L3.08271 39.9597L3.1027 39.9197C6.98473 51.0594 10.598 61.3486 13.4829 69.5812L13.4496 69.5657L34.0546 62.3768L13.4651 69.619H13.4407V69.5946C10.5536 61.3619 6.95142 51.0728 3.04718 39.9352V39.9042H3.07605L23.6721 32.6953H23.701V32.722L34.0523 62.3768Z" fill="#E0E0E0"/>
<path d="M26.748 64.9352C26.748 64.9352 31.334 61.0664 32.1291 57.0378C31.6689 57.6764 31.0841 58.2152 30.4101 58.6217C29.736 59.0282 28.9866 59.294 28.2071 59.403C28.2071 59.403 28.116 63.6226 26.748 64.9352Z" fill="#E0E0E0"/>
<path d="M10.1104 46.5387L9.02678 46.9182C8.63088 47.0568 8.42233 47.4901 8.56097 47.886L8.94046 48.9697C9.0791 49.3656 9.51244 49.5741 9.90834 49.4355L10.992 49.056C11.3879 48.9174 11.5964 48.484 11.4578 48.0881L11.0783 47.0045C10.9397 46.6086 10.5063 46.4 10.1104 46.5387Z" fill="#EBEBEB"/>
<path d="M9.97843 48.4055C9.97087 48.4094 9.9625 48.4115 9.954 48.4115C9.9455 48.4115 9.93712 48.4094 9.92957 48.4055L9.4321 48.1168C9.42005 48.1076 9.41178 48.0943 9.40884 48.0795C9.40589 48.0646 9.40849 48.0492 9.41613 48.0361C9.42376 48.023 9.43592 48.0131 9.45032 48.0084C9.46471 48.0036 9.48035 48.0043 9.49428 48.0102L9.93845 48.2634L10.4626 47.153C10.4702 47.1382 10.4831 47.1268 10.4987 47.1211C10.5143 47.1153 10.5316 47.1156 10.547 47.1219C10.5545 47.1254 10.5612 47.1305 10.5668 47.1367C10.5723 47.1429 10.5765 47.1501 10.5792 47.158C10.5819 47.1659 10.583 47.1742 10.5824 47.1825C10.5818 47.1908 10.5796 47.1989 10.5758 47.2063L10.0228 48.3878C10.0171 48.3937 10.0102 48.3984 10.0026 48.4015C9.9949 48.4045 9.98667 48.4059 9.97843 48.4055Z" fill="white"/>
<path d="M24.2007 41.9472C24.2007 41.965 21.5356 42.9177 18.2288 44.0748C14.922 45.2318 12.2325 46.1557 12.2325 46.1402C12.2325 46.1246 14.8976 45.1697 18.2066 44.0126C21.5157 42.8555 24.1962 41.9317 24.2007 41.9472Z" fill="#E0E0E0"/>
<path d="M17.9202 46.2156C17.9202 46.2156 17.8513 46.2467 17.7269 46.2955L17.1895 46.4954C16.7453 46.6597 16.1057 46.884 15.4128 47.1283C14.7199 47.3726 14.0803 47.5903 13.6362 47.7435L13.092 47.9234C13.0262 47.9476 12.9586 47.9669 12.89 47.9811C12.9521 47.9486 13.0167 47.9212 13.0832 47.899L13.6206 47.7013C14.0648 47.5348 14.7044 47.3105 15.3973 47.0662C16.0902 46.8219 16.7298 46.6064 17.174 46.451L17.7181 46.2711C17.7837 46.2468 17.8513 46.2282 17.9202 46.2156Z" fill="#E0E0E0"/>
<path d="M24.4827 42.7644C24.4827 42.78 21.8177 43.7327 18.5087 44.8898C15.1996 46.0468 12.5124 46.9729 12.5124 46.9551C12.5124 46.9374 15.1774 45.9869 18.4887 44.8298C21.7999 43.6727 24.4827 42.7466 24.4827 42.7644Z" fill="#E0E0E0"/>
<path d="M11.6574 50.9579L10.5737 51.3373C10.1778 51.476 9.96926 51.9093 10.1079 52.3052L10.4874 53.3889C10.626 53.7848 11.0594 53.9933 11.4553 53.8547L12.5389 53.4752C12.9348 53.3365 13.1434 52.9032 13.0047 52.5073L12.6252 51.4237C12.4866 51.0278 12.0533 50.8192 11.6574 50.9579Z" fill="#EBEBEB"/>
<path d="M11.5263 52.825C11.5184 52.8289 11.5097 52.8309 11.5008 52.8309C11.492 52.8309 11.4832 52.8289 11.4753 52.825L10.98 52.5362C10.9728 52.5323 10.9665 52.527 10.9615 52.5206C10.9565 52.5141 10.9528 52.5067 10.9507 52.4988C10.9486 52.4909 10.9482 52.4827 10.9494 52.4746C10.9506 52.4665 10.9535 52.4588 10.9578 52.4519C10.9617 52.4447 10.9671 52.4384 10.9735 52.4333C10.9799 52.4283 10.9873 52.4246 10.9952 52.4225C11.0031 52.4205 11.0114 52.42 11.0194 52.4212C11.0275 52.4225 11.0353 52.4253 11.0422 52.4296L11.4864 52.6828L12.0105 51.5613C12.0177 51.5467 12.0302 51.5353 12.0455 51.5296C12.0607 51.5238 12.0776 51.524 12.0927 51.5302C12.1077 51.537 12.1194 51.5495 12.1252 51.5649C12.131 51.5803 12.1305 51.5974 12.1238 51.6124L11.5708 52.7961C11.5658 52.8038 11.5593 52.8103 11.5517 52.8153C11.544 52.8203 11.5354 52.8236 11.5263 52.825Z" fill="white"/>
<path d="M25.7486 46.3666C25.7486 46.3844 23.0836 47.3349 19.7745 48.4942C16.4655 49.6535 13.7783 50.5751 13.7783 50.5596C13.7783 50.544 16.4433 49.5891 19.7523 48.432C23.0614 47.275 25.7441 46.3511 25.7486 46.3666Z" fill="#E0E0E0"/>
<path d="M19.4681 50.6353C19.4681 50.6353 19.3992 50.6663 19.2726 50.7152L18.7374 50.9151C18.2932 51.0794 17.6536 51.3037 16.9607 51.548C16.2678 51.7923 15.6282 52.01 15.1841 52.1632L14.64 52.3431C14.5741 52.3672 14.5066 52.3865 14.4379 52.4008C14.4997 52.3678 14.5644 52.3403 14.6311 52.3187L15.1685 52.121C15.6127 51.9544 16.2523 51.7301 16.9452 51.4858C17.6381 51.2415 18.2777 51.0261 18.7219 50.8707L19.266 50.6908C19.3316 50.6665 19.3992 50.6479 19.4681 50.6353Z" fill="#E0E0E0"/>
<path d="M26.0373 47.1884C26.0373 47.2039 23.3723 48.1567 20.0632 49.3137C16.7542 50.4708 14.067 51.3969 14.067 51.3791C14.067 51.3613 16.732 50.4108 20.041 49.2538C23.3501 48.0967 26.0373 47.1662 26.0373 47.1884Z" fill="#E0E0E0"/>
<path d="M13.2065 55.3768L12.1228 55.7563C11.7269 55.8949 11.5184 56.3283 11.657 56.7242L12.0365 57.8078C12.1752 58.2037 12.6085 58.4123 13.0044 58.2736L14.0881 57.8941C14.484 57.7555 14.6925 57.3222 14.5539 56.9263L14.1744 55.8426C14.0357 55.4467 13.6024 55.2382 13.2065 55.3768Z" fill="#EBEBEB"/>
<path d="M13.0743 57.2444C13.0663 57.2483 13.0576 57.2503 13.0487 57.2503C13.0399 57.2503 13.0311 57.2483 13.0232 57.2444L12.5257 56.9601C12.5176 56.9566 12.5103 56.9515 12.5044 56.945C12.4984 56.9385 12.4939 56.9308 12.4911 56.9225C12.4884 56.9141 12.4874 56.9052 12.4883 56.8965C12.4892 56.8877 12.492 56.8792 12.4964 56.8716C12.5009 56.864 12.5069 56.8574 12.5141 56.8523C12.5213 56.8472 12.5294 56.8436 12.5381 56.8419C12.5467 56.8402 12.5557 56.8404 12.5642 56.8424C12.5728 56.8444 12.5809 56.8482 12.5879 56.8535L13.0321 57.1067L13.5562 55.9852C13.5593 55.9774 13.564 55.9703 13.5699 55.9643C13.5758 55.9584 13.5829 55.9537 13.5907 55.9506C13.5984 55.9474 13.6068 55.9459 13.6152 55.9461C13.6236 55.9462 13.6318 55.9481 13.6395 55.9515C13.6472 55.955 13.654 55.96 13.6597 55.9661C13.6654 55.9723 13.6698 55.9796 13.6726 55.9875C13.6754 55.9954 13.6765 56.0038 13.676 56.0122C13.6755 56.0206 13.6732 56.0288 13.6694 56.0362L13.1165 57.22C13.1056 57.2327 13.0907 57.2413 13.0743 57.2444Z" fill="white"/>
<path d="M27.2965 50.7861C27.2965 50.8038 24.6315 51.7544 21.3224 52.9136C18.0134 54.0729 15.3262 54.9946 15.3262 54.9768C15.3262 54.959 17.9912 54.0085 21.3025 52.8515C24.6137 51.6944 27.2898 50.7705 27.2965 50.7861Z" fill="#E0E0E0"/>
<path d="M21.016 55.0525C20.953 55.0847 20.8877 55.1121 20.8206 55.1347L20.2831 55.3345C19.839 55.4989 19.2016 55.7232 18.5065 55.9675C17.8113 56.2118 17.174 56.4272 16.7298 56.5826L16.1857 56.7625C16.1197 56.7864 16.0522 56.8057 15.9836 56.8203C16.0454 56.7872 16.1101 56.7597 16.1768 56.7381L16.7142 56.5382C17.1584 56.3739 17.798 56.1496 18.4909 55.9053C19.1838 55.661 19.8234 55.4456 20.2676 55.2901L20.8095 55.1102C20.8772 55.0871 20.9461 55.0678 21.016 55.0525Z" fill="#E0E0E0"/>
<path d="M27.5919 51.6035C27.5919 51.6191 24.9269 52.5718 21.6179 53.7289C18.3088 54.8859 15.6216 55.812 15.6216 55.7942C15.6216 55.7765 18.2866 54.826 21.5956 53.6667C24.9047 52.5074 27.5764 51.5858 27.5919 51.6035Z" fill="#E0E0E0"/>
<path d="M14.7534 59.7957L13.6698 60.1752C13.2739 60.3139 13.0653 60.7472 13.204 61.1431L13.5835 62.2268C13.7221 62.6227 14.1554 62.8312 14.5513 62.6926L15.635 62.3131C16.0309 62.1744 16.2394 61.7411 16.1008 61.3452L15.7213 60.2616C15.5827 59.8657 15.1493 59.6571 14.7534 59.7957Z" fill="#EBEBEB"/>
<path d="M14.62 61.6639C14.6123 61.6672 14.6039 61.6689 14.5955 61.6689C14.5872 61.6689 14.5788 61.6672 14.5711 61.6639L14.0736 61.3752C14.0595 61.3666 14.0493 61.3528 14.0454 61.3368C14.0414 61.3208 14.044 61.3038 14.0526 61.2897C14.0611 61.2755 14.0749 61.2654 14.0909 61.2614C14.107 61.2575 14.1239 61.26 14.1381 61.2686L14.5822 61.5217L15.1063 60.4113C15.1131 60.3963 15.1256 60.3846 15.141 60.3788C15.1564 60.373 15.1735 60.3735 15.1885 60.3802C15.2031 60.3874 15.2145 60.3999 15.2202 60.4152C15.226 60.4304 15.2258 60.4473 15.2196 60.4624L14.6644 61.6461C14.6524 61.6575 14.6365 61.6639 14.62 61.6639Z" fill="white"/>
<path d="M28.8445 55.2057C28.8445 55.2235 26.1795 56.174 22.8704 57.3311C19.5614 58.4881 16.8741 59.4142 16.8741 59.3964C16.8741 59.3787 19.5392 58.4281 22.8482 57.2711C26.1573 56.114 28.8378 55.1835 28.8445 55.2057Z" fill="#E0E0E0"/>
<path d="M22.5617 59.4719C22.4999 59.505 22.4352 59.5325 22.3685 59.5541L21.831 59.754C21.3869 59.9183 20.7473 60.1426 20.0544 60.3869C19.3615 60.6312 18.7219 60.8466 18.2777 61.0021L17.7336 61.182C17.6048 61.2219 17.5315 61.2419 17.5315 61.2397C17.5933 61.2066 17.658 61.1791 17.7247 61.1575L18.2622 60.9577C18.7063 60.7933 19.3459 60.569 20.0388 60.3247C20.7317 60.0804 21.3713 59.865 21.8155 59.7096L22.3596 59.5297C22.4256 59.5058 22.4931 59.4865 22.5617 59.4719Z" fill="#E0E0E0"/>
<path d="M29.131 56.023C29.131 56.0385 26.466 56.9912 23.1569 58.1483C19.8479 59.3054 17.1606 60.2292 17.1606 60.2137C17.1606 60.1981 19.8257 59.2454 23.1347 58.0861C26.4438 56.9268 29.1243 56.0052 29.131 56.023Z" fill="#E0E0E0"/>
<path d="M5.4035 37.0391L5.94539 38.5937C6.09694 39.0265 6.41412 39.3814 6.82722 39.5805C7.24031 39.7795 7.71554 39.8064 8.14846 39.6553L19.5414 35.6578C19.7556 35.583 19.9529 35.4667 20.1221 35.3156C20.2913 35.1645 20.429 34.9815 20.5274 34.777C20.6258 34.5726 20.6829 34.3508 20.6955 34.1243C20.7081 33.8978 20.6759 33.671 20.6007 33.4569L20.0588 31.9023L5.4035 37.0391Z" fill="#E0E0E0"/>
<path d="M12.8833 34.9337C12.5806 35.0402 12.2532 35.0545 11.9424 34.9748C11.6317 34.8951 11.3515 34.725 11.1375 34.4859C10.9234 34.2469 10.7851 33.9498 10.7401 33.6321C10.695 33.3145 10.7452 32.9906 10.8843 32.7015C11.0234 32.4124 11.2452 32.171 11.5215 32.008C11.7979 31.845 12.1164 31.7677 12.4367 31.7858C12.757 31.8039 13.0648 31.9166 13.321 32.1097C13.5772 32.3028 13.7704 32.5676 13.876 32.8706C14.0173 33.2758 13.9922 33.7206 13.8061 34.1073C13.62 34.4941 13.2882 34.7913 12.8833 34.9337ZM12.0172 32.4619C11.8305 32.5271 11.6674 32.6462 11.5484 32.8041C11.4294 32.962 11.36 33.1516 11.3488 33.349C11.3376 33.5464 11.3853 33.7427 11.4857 33.913C11.5861 34.0833 11.7348 34.22 11.9129 34.3058C12.091 34.3916 12.2906 34.4227 12.4864 34.395C12.6821 34.3674 12.8653 34.2823 13.0127 34.1505C13.1601 34.0187 13.2651 33.8462 13.3144 33.6547C13.3637 33.4633 13.3551 33.2615 13.2897 33.0749C13.2021 32.825 13.0189 32.62 12.7803 32.5051C12.5417 32.3902 12.2672 32.3746 12.0172 32.4619Z" fill="#E0E0E0"/>
<path d="M21.9887 38.9712C21.9887 39.0001 18.995 40.0816 15.2795 41.3808C11.5641 42.68 8.54373 43.7127 8.53262 43.6838C8.52152 43.655 11.5263 42.5734 15.2418 41.2742C18.9572 39.975 21.9776 38.9335 21.9887 38.9712Z" fill="#E0E0E0"/>
<path d="M18.14 39.5155C18.14 39.5444 16.8297 40.0352 15.1885 40.6104C13.5473 41.1856 12.2081 41.6364 12.197 41.5964C12.1859 41.5565 13.5095 41.0768 15.1507 40.5016C16.7919 39.9264 18.1311 39.4866 18.14 39.5155Z" fill="#E0E0E0"/>
<path d="M77.3387 84.5162C78.1565 84.1323 79.0758 84.021 79.9615 84.1986C80.4368 84.2763 80.9343 84.4207 81.2563 84.776C81.5783 85.1313 81.6427 85.7621 81.2696 86.0685C81.0287 86.2323 80.7376 86.3055 80.4479 86.2751C79.7528 86.2751 78.9844 86.144 78.4314 86.5616C78.1138 86.7992 77.905 87.1945 77.5275 87.3122C77.3375 87.3565 77.1382 87.337 76.9604 87.2567C76.7826 87.1764 76.6361 87.0398 76.5437 86.868C76.3642 86.5207 76.3244 86.1178 76.4326 85.7421C76.4792 85.4818 76.5852 85.2358 76.7423 85.0232C76.8995 84.8106 77.1036 84.6371 77.3387 84.5162Z" fill="#FF9933"/>
<path d="M75.4999 80.9895C75.9885 81.6846 76.9368 81.4559 77.3765 81.0295C77.8162 80.6031 78.0005 79.9879 78.1693 79.4016C78.5558 78.058 78.9466 76.65 78.6601 75.2819C78.5888 74.8708 78.4069 74.487 78.1338 74.1715C77.9945 74.015 77.8167 73.8977 77.6179 73.8315C77.4192 73.7652 77.2065 73.7523 77.0012 73.794C76.5215 73.9205 76.2261 74.3891 76.0107 74.8333C75.3773 76.1502 75.0458 77.5917 75.0402 79.0529C75.0402 79.7325 75.1179 80.4432 75.4999 81.005" fill="#FF9933"/>
<path d="M74.1607 81.989C74.4116 81.6616 74.5788 81.2778 74.6477 80.871C74.7165 80.4642 74.6851 80.0468 74.556 79.6549C74.2875 78.8746 73.8096 78.1832 73.1746 77.6562C72.4526 77.0137 71.6122 76.5181 70.7006 76.1971C70.3484 76.0548 69.9696 75.9904 69.5902 76.0083C69.4005 76.019 69.2163 76.0761 69.0537 76.1744C68.8911 76.2727 68.755 76.4094 68.6574 76.5724C68.3954 77.0699 68.6574 77.6717 68.915 78.1625C69.3904 79.029 69.934 79.8563 70.5407 80.6365C71.0271 81.265 71.5845 81.8847 72.3285 82.1689C73.0725 82.4532 73.8409 82.4177 74.234 81.9046" fill="#FF9933"/>
<path d="M75.4687 91.4965C75.4931 91.393 75.5073 91.2874 75.5109 91.1811C75.5354 90.959 75.562 90.6614 75.5953 90.3172C75.638 89.8913 75.7032 89.468 75.7908 89.0491C75.9036 88.5393 76.0573 88.0395 76.2505 87.5545C76.4401 87.0699 76.6973 86.6146 77.0144 86.202C77.2728 85.8656 77.6028 85.591 77.9805 85.398C78.2363 85.271 78.5107 85.1855 78.7933 85.1449C78.8997 85.1411 79.0054 85.1262 79.1087 85.1004C79.0017 85.0889 78.8937 85.0889 78.7867 85.1004C78.4938 85.1241 78.2073 85.1993 77.9405 85.3225C77.5428 85.5095 77.1938 85.7862 76.9212 86.1309C76.5912 86.55 76.3248 87.0155 76.1305 87.5123C75.9335 88.0041 75.7804 88.5125 75.6731 89.0313C75.5913 89.4555 75.5349 89.8841 75.5043 90.315C75.4754 90.6814 75.4665 90.9812 75.4621 91.1833C75.452 91.2876 75.4542 91.3927 75.4687 91.4965Z" fill="#263238"/>
<path d="M75.5265 90.8323C75.5331 90.7837 75.5331 90.7343 75.5265 90.6857V90.2726C75.5265 89.9084 75.5265 89.3843 75.5443 88.7181C75.5776 87.4144 75.6886 86.0131 75.9063 84.0365C76.1106 82.1777 76.386 80.0146 76.6769 78.6088C76.7391 78.289 76.8013 78.0003 76.8612 77.7493C76.9212 77.4984 76.9656 77.2785 77.0122 77.1031C77.0589 76.9276 77.0833 76.801 77.11 76.6944C77.1221 76.6462 77.131 76.5973 77.1366 76.5479C77.1143 76.5916 77.0972 76.6378 77.0855 76.6855C77.0522 76.7921 77.0122 76.9254 76.9634 77.0897C76.9145 77.2541 76.8523 77.4806 76.7902 77.7316C76.728 77.9825 76.6547 78.269 76.5858 78.5888C76.2299 80.2539 75.9623 81.9367 75.7841 83.6301C75.562 85.6111 75.4688 87.4055 75.4621 88.7203C75.4621 89.3732 75.4621 89.9018 75.4843 90.2749C75.4843 90.4459 75.5021 90.5858 75.5087 90.6946C75.5106 90.7409 75.5165 90.787 75.5265 90.8323Z" fill="#263238"/>
<path d="M75.5354 87.3546C75.5478 87.2068 75.5478 87.0582 75.5354 86.9104C75.5102 86.5124 75.465 86.1158 75.3999 85.7223C75.3047 85.1379 75.1757 84.5595 75.0135 83.99C74.8256 83.2891 74.5835 82.6037 74.2895 81.9402C73.787 80.7171 73.0669 79.5952 72.1642 78.6289C72.0068 78.4638 71.8392 78.3088 71.6623 78.1648C71.5868 78.0982 71.5179 78.0338 71.4402 77.9827L71.247 77.8494C71.1306 77.7601 71.0064 77.6814 70.8761 77.614C71.3025 77.9472 71.7068 78.3077 72.0865 78.6933C72.962 79.6663 73.6636 80.7827 74.1607 81.9935C74.4487 82.6531 74.692 83.3312 74.8892 84.0234C75.0563 84.5872 75.1934 85.1595 75.3 85.7378C75.3911 86.2331 75.4444 86.6262 75.4755 86.9149C75.4846 87.0627 75.5047 87.2097 75.5354 87.3546Z" fill="#263238"/>
<path d="M72.173 93.4907L72.5217 98.2655H78.6579L79.0043 93.4907H72.173Z" fill="#263238"/>
<path d="M79.7394 91.6074H71.5823V93.4907H79.7394V91.6074Z" fill="#263238"/>
<path d="M71.5823 98.0835V98.6032H71.9643H79.6017V98.0835H71.5823Z" fill="#455A64"/>
<path d="M72.3396 99.5225L71.9643 98.603H79.3108L78.8711 99.5225H72.3396Z" fill="#455A64"/>
<path d="M78.8933 95.0498C78.8933 95.0498 78.8933 95.0676 78.8644 95.0942L78.7734 95.2164L78.4158 95.6739L78.4003 95.6938L78.3847 95.6716L77.5075 94.4591H77.5608L76.6947 95.6827L76.668 95.7205L76.6369 95.685L75.6131 94.4635H75.6709L75.6153 94.5346L74.6981 95.6827L74.6693 95.7227L74.6404 95.6827C74.3295 95.2386 74.0385 94.8299 73.7743 94.4591H73.8253L72.7616 95.6716L72.7416 95.6938L72.726 95.6694C72.5861 95.434 72.4751 95.2452 72.3929 95.1098L72.3085 94.961C72.2973 94.9445 72.2883 94.9265 72.2819 94.9077C72.2819 94.9077 72.2952 94.921 72.3174 94.9543L72.4129 95.0987L72.7616 95.6472H72.7282L73.7765 94.4191L73.8031 94.388L73.8276 94.4213L74.7004 95.6405H74.6404L75.562 94.4924L75.6198 94.4213L75.6487 94.3835L75.6775 94.4191L76.7013 95.6428H76.6436L77.5164 94.4235L77.5408 94.388L77.5675 94.4235C77.9117 94.9188 78.2071 95.3385 78.4269 95.6516H78.3936L78.7667 95.2075L78.8667 95.092L78.8933 95.0498Z" fill="#E0E0E0"/>
<path d="M79.091 93.4574C79.091 93.4796 77.5541 93.4974 75.6575 93.4974C73.7609 93.4974 72.2241 93.4796 72.2241 93.4574C72.2241 93.4352 73.7609 93.4197 75.6575 93.4197C77.5541 93.4197 79.091 93.4374 79.091 93.4574Z" fill="#455A64"/>
<path d="M79.4019 98.6564C79.4019 98.6764 77.7296 98.6942 75.6709 98.6942C73.6122 98.6942 71.9399 98.6764 71.9399 98.6564C71.9399 98.6364 73.6099 98.6165 75.6709 98.6165C77.7318 98.6165 79.4019 98.6342 79.4019 98.6564Z" fill="#263238"/>
<path d="M18.8862 83.4214C18.8684 83.4414 18.7285 83.357 18.573 83.2326C18.4176 83.1082 18.3043 82.9905 18.3221 82.9683C18.3399 82.9461 18.4775 83.0327 18.633 83.1571C18.7885 83.2815 18.9017 83.3992 18.8862 83.4214Z" fill="#263238"/>
<path d="M23.1502 77.0611C23.2107 76.4687 23.1618 75.8702 23.0059 75.2955C22.8193 74.7292 22.384 74.2117 21.8022 74.0896C21.1359 73.9519 20.4564 74.3716 20.0833 74.9401C19.7102 75.5087 19.5836 76.1971 19.4725 76.8656C18.7148 81.4846 18.4357 86.1695 18.6397 90.8458L21.358 91.2278C22.5417 86.3486 22.9281 82.0824 23.1502 77.0611Z" fill="#455A64"/>
<path d="M21.4135 74.0605L21.4002 74.105L21.3558 74.2271L21.1737 74.6979C21.1359 74.8001 21.0849 74.92 21.0449 75.0377L20.9139 75.4486L20.7606 75.9216L20.6207 76.4613C20.3925 77.3526 20.2168 78.2566 20.0944 79.1685C19.9478 80.1901 19.8523 81.3227 19.7746 82.5131C19.6369 84.896 19.6147 87.0591 19.5525 88.6226C19.5236 89.4066 19.497 90.0395 19.4681 90.4748C19.4525 90.6969 19.4414 90.8545 19.4326 90.9789C19.4326 91.03 19.4326 91.0744 19.4326 91.1077C19.4326 91.141 19.4326 91.1521 19.4326 91.1521C19.4326 91.1521 19.4326 91.1388 19.4326 91.1077C19.4326 91.0766 19.4326 91.03 19.4326 90.9767C19.4326 90.8545 19.4326 90.6858 19.4481 90.4726C19.4659 90.0284 19.4814 89.4043 19.5014 88.6204C19.5458 87.0658 19.5569 84.8938 19.6968 82.5086C19.7723 81.316 19.8723 80.1812 20.0233 79.1552C20.1507 78.2461 20.3339 77.3456 20.5718 76.4591L20.7184 75.9194C20.7762 75.7536 20.8295 75.5959 20.8783 75.4463L21.0205 75.0355C21.0627 74.9111 21.116 74.8001 21.1559 74.6979L21.3558 74.236C21.3765 74.1871 21.3943 74.1472 21.4091 74.1161C21.4075 74.0974 21.409 74.0787 21.4135 74.0605Z" fill="#263238"/>
<path d="M21.6645 74.0718C21.8062 74.2391 21.9188 74.4291 21.9976 74.6336C22.2055 75.1954 22.2895 75.7953 22.2441 76.3926C22.1731 77.8961 22.0376 79.9659 21.8599 82.2534C21.6823 84.5408 21.4802 86.6062 21.3203 88.1008C21.2381 88.847 21.1692 89.4511 21.1182 89.8775C21.0915 90.0796 21.0715 90.2395 21.056 90.3572L21.0382 90.4816C21.0392 90.4956 21.0392 90.5097 21.0382 90.5238C21.0382 90.5238 21.0382 90.5104 21.0382 90.4816C21.0382 90.4527 21.0382 90.4061 21.0382 90.355C21.0382 90.2373 21.0626 90.0774 21.0804 89.8731C21.1226 89.4467 21.1803 88.8448 21.2514 88.0964C21.3935 86.5995 21.5823 84.543 21.7622 82.2467C21.9421 79.9503 22.0864 77.8916 22.1753 76.3926C22.2236 75.8023 22.148 75.2085 21.9532 74.6492C21.8742 74.4486 21.7776 74.2553 21.6645 74.0718Z" fill="#263238"/>
<path d="M23.55 81.1095C23.3716 81.0965 23.197 81.0514 23.0347 80.9762C22.8622 80.9313 22.699 80.8561 22.5528 80.7542C22.7314 80.7658 22.9062 80.811 23.068 80.8874C23.2407 80.9318 23.404 81.007 23.55 81.1095Z" fill="#263238"/>
<path d="M23.8786 78.3379C23.7314 78.4556 23.5655 78.5479 23.3878 78.611C23.2228 78.7025 23.0432 78.7648 22.8571 78.7954C23.1685 78.5848 23.5142 78.43 23.8786 78.3379Z" fill="#263238"/>
<path d="M23.7076 76.0748C23.4392 76.1233 23.1629 76.1042 22.9037 76.0193C23.0351 75.9816 23.1734 75.9748 23.3079 75.9993C23.4452 75.9932 23.582 76.019 23.7076 76.0748Z" fill="#263238"/>
<path d="M20.9005 74.6268C20.8783 74.6402 20.7584 74.4914 20.6362 74.2959C20.5473 74.183 20.4844 74.0518 20.4519 73.9117C20.4741 73.8984 20.594 74.045 20.7184 74.2426C20.8428 74.4403 20.9294 74.6113 20.9005 74.6268Z" fill="#263238"/>
<path d="M19.9744 75.995C19.8508 76.0394 19.7181 76.0532 19.588 76.035C19.4571 76.0475 19.3252 76.0277 19.2038 75.9772C19.3275 75.9328 19.4601 75.9191 19.5902 75.9373C19.7211 75.9247 19.853 75.9445 19.9744 75.995Z" fill="#263238"/>
<path d="M19.3082 78.7243C19.166 78.7186 19.0271 78.6806 18.9018 78.6132C18.7647 78.5743 18.638 78.5052 18.5309 78.4111C18.673 78.4168 18.812 78.4548 18.9373 78.5222C19.0744 78.5612 19.2011 78.6302 19.3082 78.7243Z" fill="#263238"/>
<path d="M19.2371 81.0319C19.2371 81.0586 19.0883 81.1141 18.8906 81.154C18.693 81.194 18.5309 81.2096 18.5242 81.1829C18.5175 81.1563 18.6752 81.1007 18.8706 81.0608C18.9885 81.0209 19.1144 81.011 19.2371 81.0319Z" fill="#263238"/>
<path d="M18.9306 84.7984C18.9306 84.8251 18.7707 84.8762 18.5619 84.9139C18.4372 84.951 18.3053 84.9571 18.1777 84.9317C18.2898 84.8649 18.4162 84.8261 18.5464 84.8184C18.6708 84.78 18.8029 84.7731 18.9306 84.7984Z" fill="#263238"/>
<path d="M18.7085 86.877C18.7219 86.8992 18.5842 86.9969 18.4021 87.0991C18.22 87.2012 18.0623 87.2545 18.0512 87.2301C18.0401 87.2057 18.1755 87.1102 18.3576 87.008C18.5398 86.9058 18.7085 86.8525 18.7085 86.877Z" fill="#263238"/>
<path d="M20.4119 89.2357C20.3897 89.249 20.2698 89.0846 20.1454 88.867C20.0555 88.7425 19.9934 88.6001 19.9633 88.4495C19.9855 88.4362 20.1055 88.6005 20.2298 88.8181C20.3198 88.9426 20.3819 89.085 20.4119 89.2357Z" fill="#263238"/>
<path d="M20.9027 85.3158C20.9205 85.3335 20.7873 85.4957 20.6051 85.6755C20.423 85.8554 20.2587 85.9842 20.2387 85.9643C20.2187 85.9443 20.3542 85.7844 20.5363 85.6045C20.7184 85.4246 20.8828 85.2958 20.9027 85.3158Z" fill="#263238"/>
<path d="M20.7939 83.257C20.7739 83.277 20.6518 83.1749 20.5185 83.0349C20.3853 82.895 20.2964 82.7596 20.3142 82.7418C20.332 82.724 20.4563 82.824 20.5896 82.9639C20.7228 83.1038 20.8139 83.2393 20.7939 83.257Z" fill="#263238"/>
<path d="M21.1315 80.6298C21.1515 80.6476 21.0404 80.8053 20.8827 80.9785C20.7251 81.1517 20.5829 81.2828 20.5629 81.265C20.5429 81.2472 20.654 81.0896 20.8094 80.9141C20.9649 80.7387 21.1115 80.6121 21.1315 80.6298Z" fill="#263238"/>
<path d="M21.3202 78.7242C21.3002 78.7442 21.147 78.6221 20.9738 78.4533C20.8006 78.2845 20.6784 78.1313 20.6962 78.1113C20.7139 78.0913 20.8694 78.2134 21.0426 78.3844C21.2158 78.5554 21.338 78.7042 21.3202 78.7242Z" fill="#263238"/>
<path d="M21.6933 76.1436C21.6639 76.2838 21.604 76.4157 21.5179 76.5301C21.4002 76.7299 21.2847 76.881 21.2625 76.8676C21.2403 76.8543 21.3158 76.6811 21.4357 76.4812C21.5556 76.2813 21.6689 76.1303 21.6933 76.1436Z" fill="#263238"/>
<path d="M22.3929 73.754C22.4173 73.7673 22.3485 73.9405 22.2397 74.1404C22.1308 74.3403 22.0176 74.4935 21.9998 74.4824C22.021 74.3437 22.0733 74.2115 22.1531 74.096C22.2619 73.8939 22.3685 73.7429 22.3929 73.754Z" fill="#263238"/>
<path d="M23.188 74.8402C23.1991 74.8646 23.0903 74.9401 22.9437 75.0112C22.7971 75.0823 22.6705 75.1178 22.6594 75.0934C22.6483 75.0689 22.7571 74.9934 22.9037 74.9224C23.0503 74.8513 23.1769 74.8158 23.188 74.8402Z" fill="#263238"/>
<path d="M23.2057 83.4215C22.8368 83.3946 22.4875 83.2453 22.213 82.9973C22.3859 83.0497 22.5533 83.1188 22.7127 83.2039C22.884 83.2594 23.0493 83.3323 23.2057 83.4215Z" fill="#263238"/>
<path d="M22.8815 85.2382C22.8815 85.2648 22.7238 85.3181 22.5151 85.3581C22.391 85.3979 22.259 85.4062 22.1309 85.3825C22.2419 85.3144 22.3675 85.2734 22.4973 85.2626C22.7061 85.2226 22.8771 85.2115 22.8815 85.2382Z" fill="#263238"/>
<path d="M22.4839 88.354C22.4684 88.3762 22.2619 88.2318 22.0709 87.992C21.9437 87.855 21.8542 87.6875 21.811 87.5056C21.9351 87.6376 22.0474 87.7803 22.1464 87.932C22.2716 88.062 22.3846 88.2032 22.4839 88.354Z" fill="#263238"/>
<path d="M18.1111 89.7796C18.0934 89.7596 18.2044 89.6353 18.3576 89.5042C18.5109 89.3732 18.6508 89.2822 18.6686 89.3044C18.6863 89.3266 18.5753 89.4465 18.422 89.5797C18.2688 89.713 18.1289 89.7996 18.1111 89.7796Z" fill="#263238"/>
<path d="M16.8542 82.9796C16.6765 82.4266 16.3456 81.7826 15.766 81.7737C15.5932 81.783 15.4262 81.8387 15.2824 81.9348C15.1386 82.0309 15.0234 82.164 14.9487 82.32C14.7892 82.6282 14.7126 82.9726 14.7266 83.3194C14.7982 85.7809 15.2176 88.2198 15.9725 90.5638H18.0978C18.0721 87.9871 17.6527 85.4295 16.8542 82.9796Z" fill="#455A64"/>
<path d="M13.0143 79.4995C12.9092 78.9815 12.6331 78.5139 12.2304 78.1716C11.8277 77.8292 11.3216 77.6321 10.7935 77.6118C9.85406 77.7762 9.48984 78.7 9.3788 79.6461C9.26775 80.5922 9.56091 81.5338 9.85184 82.4421C10.7816 85.3559 11.7129 88.2704 12.6457 91.1856L15.2885 90.8969C14.4623 86.9926 13.9826 83.3727 13.0143 79.4995Z" fill="#455A64"/>
<path d="M15.7659 81.7737C15.6972 81.8681 15.637 81.9684 15.586 82.0735C15.4765 82.3738 15.4422 82.6963 15.4861 83.0129C15.5261 83.4171 15.5727 83.9012 15.6416 84.4342C15.7104 84.9672 15.8059 85.5447 15.9258 86.1621C16.1657 87.3835 16.4366 88.4762 16.6076 89.2712C16.6942 89.6688 16.7609 89.993 16.8008 90.2173C16.8186 90.3217 16.8341 90.4061 16.8453 90.4772C16.8564 90.5482 16.8586 90.5682 16.8453 90.5682C16.8337 90.5402 16.8248 90.5112 16.8186 90.4816L16.7564 90.2262C16.6987 89.9886 16.6232 89.671 16.5343 89.2868C16.3456 88.4917 16.0635 87.4013 15.8237 86.1776C15.7037 85.5647 15.6016 84.9783 15.5461 84.4409C15.5105 84.1744 15.4883 83.9168 15.4661 83.6792C15.4439 83.4415 15.4217 83.2172 15.4106 83.0129C15.3726 82.687 15.4185 82.3568 15.5438 82.0535C15.5967 81.9452 15.6725 81.8497 15.7659 81.7737Z" fill="#263238"/>
<path d="M10.8423 77.5361C10.7246 77.6703 10.6176 77.8137 10.5225 77.9648C10.2793 78.3869 10.1414 78.8615 10.1205 79.3483C10.1095 80.0701 10.2199 80.7885 10.447 81.4737C10.6691 82.2599 10.9334 83.1238 11.2021 84.0277C11.7284 85.8399 12.2037 87.4788 12.5524 88.6759L12.9521 90.0883C12.9965 90.2482 13.0298 90.3748 13.0565 90.4725C13.071 90.5165 13.0807 90.5619 13.0854 90.608C13.065 90.5667 13.0486 90.5236 13.0365 90.4792C13.0076 90.3815 12.9654 90.2571 12.9166 90.0972C12.8122 89.7574 12.6656 89.2799 12.488 88.6959L11.1088 84.0543C10.8423 83.146 10.5914 82.2776 10.3604 81.4959C10.1342 80.801 10.0297 80.0722 10.0517 79.3417C10.0803 78.8455 10.233 78.3644 10.4959 77.9426C10.5881 77.7889 10.7052 77.6516 10.8423 77.5361Z" fill="#263238"/>
<path d="M14.7222 90.6146C14.6998 90.5736 14.6798 90.5313 14.6622 90.488C14.6289 90.4014 14.5734 90.2792 14.5134 90.1149C14.3868 89.7907 14.2247 89.3132 14.0692 88.7135C13.9138 88.1139 13.7361 87.381 13.5762 86.5815C13.4163 85.782 13.2564 84.887 13.0787 83.9543C12.9011 83.0215 12.6923 82.1443 12.4547 81.3603C12.2485 80.6634 11.9909 79.9827 11.684 79.3238C11.4754 78.8805 11.2372 78.4516 10.9712 78.0402C10.8801 77.8936 10.7979 77.7848 10.7491 77.7093C10.7213 77.6715 10.6967 77.6314 10.6758 77.5894C10.7084 77.6223 10.7381 77.658 10.7646 77.696C10.8201 77.7715 10.9067 77.8736 11.0022 78.0202C11.2831 78.4251 11.5319 78.8513 11.7462 79.295C12.0648 79.9522 12.3299 80.6339 12.5391 81.3337C12.7899 82.19 12.996 83.0588 13.1565 83.9365C13.3319 84.867 13.4962 85.7554 13.6473 86.566C13.7983 87.3766 13.9582 88.0939 14.1181 88.6958C14.278 89.2976 14.4268 89.7751 14.5423 90.1016C14.5956 90.2681 14.6466 90.3925 14.6755 90.4791C14.6961 90.5224 14.7117 90.5678 14.7222 90.6146Z" fill="#263238"/>
<path d="M9.90956 82.0067C9.90956 82.0312 9.77186 82.0889 9.58753 82.1333C9.40321 82.1777 9.24997 82.1933 9.24553 82.1666C9.24108 82.14 9.381 82.0845 9.56533 82.04C9.74966 81.9956 9.90289 81.9801 9.90956 82.0067Z" fill="#263238"/>
<path d="M9.62973 80.2034C9.48537 80.244 9.3353 80.2605 9.18556 80.2523C9.03782 80.2731 8.88762 80.2686 8.74139 80.2389C8.87969 80.173 9.03271 80.1439 9.18556 80.1545C9.33536 80.1327 9.48826 80.1495 9.62973 80.2034Z" fill="#263238"/>
<path d="M9.92734 78.5555C9.90957 78.5777 9.76522 78.4845 9.60754 78.349C9.44986 78.2135 9.33215 78.0869 9.34992 78.067C9.36769 78.047 9.50982 78.138 9.66972 78.2735C9.82962 78.409 9.9451 78.5356 9.92734 78.5555Z" fill="#263238"/>
<path d="M10.7335 77.032C10.7601 77.032 10.7513 77.1675 10.749 77.3207C10.7468 77.4739 10.749 77.605 10.7157 77.6094C10.6824 77.6139 10.6469 77.485 10.6513 77.3185C10.6558 77.1519 10.7135 77.0253 10.7335 77.032Z" fill="#263238"/>
<path d="M12.3791 77.7493C12.4014 77.7649 12.3369 77.8959 12.2348 78.0403C12.1326 78.1846 12.0327 78.2912 12.0127 78.2757C11.9927 78.2601 12.0549 78.1313 12.1548 77.9848C12.2548 77.8382 12.3569 77.7338 12.3791 77.7493Z" fill="#263238"/>
<path d="M13.4473 79.6126C13.4473 79.6392 13.3207 79.7169 13.1431 79.7902C12.9654 79.8635 12.81 79.9013 12.8011 79.8769C12.7922 79.8524 12.9277 79.7725 13.1053 79.7014C13.283 79.6303 13.4385 79.5815 13.4473 79.6126Z" fill="#263238"/>
<path d="M14.0958 81.5159C13.9783 81.6178 13.8328 81.682 13.6783 81.7002C13.5303 81.7481 13.3718 81.7535 13.2208 81.7157C13.3633 81.6592 13.5127 81.6219 13.665 81.6047C13.8045 81.5577 13.9491 81.5279 14.0958 81.5159Z" fill="#263238"/>
<path d="M11.1199 80.9739C11.0955 80.9739 11.1199 80.834 11.1621 80.6786C11.2043 80.5231 11.271 80.4054 11.2954 80.4143C11.3198 80.4232 11.2954 80.5542 11.2532 80.7097C11.211 80.8651 11.1577 80.9828 11.1199 80.9739Z" fill="#263238"/>
<path d="M11.5352 83.3726C11.5442 83.2326 11.5852 83.0966 11.6551 82.975C11.7462 82.7663 11.8395 82.6064 11.8639 82.6175C11.8549 82.7574 11.8139 82.8935 11.744 83.015C11.6529 83.2238 11.5596 83.3881 11.5352 83.3726Z" fill="#263238"/>
<path d="M10.5092 84.03C10.3783 84.0268 10.2493 83.9981 10.1294 83.9456C9.92735 83.8812 9.763 83.8234 9.76967 83.7968C9.90185 83.7798 10.0362 83.799 10.1583 83.8523C10.3649 83.9167 10.5203 84.0055 10.5092 84.03Z" fill="#263238"/>
<path d="M11.0999 85.9843C11.1155 86.0065 11.0022 86.1131 10.849 86.2241C10.6957 86.3352 10.5536 86.4062 10.538 86.3863C10.5225 86.3663 10.6358 86.2552 10.7912 86.1442C10.9467 86.0331 11.0844 85.9621 11.0999 85.9843Z" fill="#263238"/>
<path d="M11.5752 87.9341C11.5752 87.9585 11.442 88.0163 11.2621 88.0585C11.0822 88.1006 10.9334 88.1162 10.9267 88.0918C10.9201 88.0673 11.06 88.0096 11.2399 87.9652C11.4198 87.9208 11.5686 87.9074 11.5752 87.9341Z" fill="#263238"/>
<path d="M14.1491 83.1461C14.1625 83.1683 14.0425 83.2638 13.8693 83.3282C13.6961 83.3926 13.5406 83.4015 13.5362 83.3771C13.5317 83.3527 13.6694 83.3016 13.8338 83.2372C13.9981 83.1728 14.1358 83.1217 14.1491 83.1461Z" fill="#263238"/>
<path d="M14.5156 86.1774C14.5045 86.2019 14.3624 86.1597 14.198 86.0819C14.0337 86.0042 13.9093 85.922 13.9204 85.8976C13.9315 85.8732 14.0759 85.9176 14.2402 85.9931C14.4046 86.0686 14.5289 86.153 14.5156 86.1774Z" fill="#263238"/>
<path d="M15.1663 88.3496C15.0192 88.3421 14.8754 88.3035 14.7443 88.2363C14.5223 88.1497 14.3512 88.0586 14.3601 88.032C14.5065 88.0395 14.6496 88.0781 14.7799 88.1452C15.002 88.2319 15.1752 88.3229 15.1663 88.3496Z" fill="#263238"/>
<path d="M11.6796 90.0507C11.6662 90.0263 11.8395 89.9108 12.0393 89.7531C12.2392 89.5955 12.3947 89.4533 12.4147 89.4733C12.4346 89.4933 12.3081 89.6643 12.0993 89.8287C11.9832 89.9408 11.8376 90.0178 11.6796 90.0507Z" fill="#263238"/>
<path d="M13.3941 88.9402C13.3674 88.9402 13.3297 88.7981 13.263 88.6293C13.1964 88.4605 13.1298 88.325 13.152 88.3095C13.1742 88.294 13.2852 88.4094 13.3541 88.5938C13.4229 88.7781 13.4207 88.9402 13.3941 88.9402Z" fill="#263238"/>
<path d="M12.9344 86.3353C12.9188 86.3575 12.8078 86.3042 12.6856 86.2176C12.5635 86.131 12.4791 86.0421 12.4946 86.0199C12.5102 85.9977 12.6212 86.051 12.7434 86.1376C12.8655 86.2243 12.9566 86.3131 12.9344 86.3353Z" fill="#263238"/>
<path d="M16.9319 82.2443C16.9474 82.2665 16.8386 82.3731 16.6898 82.4819C16.541 82.5907 16.4077 82.664 16.3922 82.6418C16.3766 82.6196 16.4832 82.5152 16.632 82.4042C16.7808 82.2932 16.9319 82.2221 16.9319 82.2443Z" fill="#263238"/>
<path d="M17.5426 83.8922C17.5426 83.9188 17.376 83.9543 17.1673 83.9321C16.9585 83.9099 16.8009 83.8389 16.8075 83.8144C16.8142 83.79 16.9785 83.8144 17.1784 83.8344C17.3783 83.8544 17.5404 83.8655 17.5426 83.8922Z" fill="#263238"/>
<path d="M14.9509 84.2631C14.9509 84.2875 14.8021 84.3431 14.5977 84.3564C14.3934 84.3697 14.2335 84.3364 14.2357 84.3097C14.238 84.2831 14.3979 84.2742 14.5933 84.2609C14.7887 84.2476 14.9464 84.2365 14.9509 84.2631Z" fill="#263238"/>
<path d="M15.1751 82.704C15.1751 82.7307 15.0152 82.7351 14.842 82.6529C14.6688 82.5708 14.5689 82.4531 14.5866 82.4309C14.6044 82.4087 14.7243 82.4931 14.882 82.5641C15.0397 82.6352 15.1774 82.6774 15.1751 82.704Z" fill="#263238"/>
<path d="M17.7647 85.6623C17.7513 85.6845 17.5892 85.609 17.4027 85.4912C17.2161 85.3735 17.0784 85.2692 17.094 85.2381C17.1095 85.207 17.2694 85.2936 17.456 85.4091C17.6425 85.5246 17.7802 85.64 17.7647 85.6623Z" fill="#263238"/>
<path d="M24.0874 90.2861H10.2627V92.7357H24.0874V90.2861Z" fill="#FF9933"/>
<path d="M11.2953 92.2515L12.9765 99.5736H21.2158L23.0547 92.2515H11.2953Z" fill="#FF9933"/>
<path d="M24.0807 92.74C24.0807 92.7667 20.9715 92.7889 17.1162 92.7889C13.2608 92.7889 10.1516 92.7667 10.1516 92.74C10.1516 92.7134 13.2608 92.6912 17.1162 92.6912C20.9715 92.6912 24.0807 92.7156 24.0807 92.74Z" fill="#263238"/>
<path d="M16.3922 84.3164C16.37 84.3298 16.2745 84.221 16.1812 84.0699C16.088 83.9189 16.0302 83.7857 16.0524 83.7723C16.0746 83.759 16.1701 83.8678 16.2634 84.0189C16.3567 84.1699 16.4144 84.3009 16.3922 84.3164Z" fill="#263238"/>
<path d="M16.3966 86.2863C16.39 86.1585 16.4151 86.031 16.4699 85.9154C16.5343 85.7177 16.6098 85.5645 16.6342 85.5734C16.6411 85.7019 16.6159 85.8301 16.561 85.9465C16.4877 86.1419 16.4233 86.2951 16.3966 86.2863Z" fill="#263238"/>
<path d="M17.0718 88.3562C17.0474 88.3695 16.9452 88.203 16.8497 87.9875C16.7731 87.8625 16.7246 87.7223 16.7076 87.5767C16.732 87.5633 16.8342 87.7299 16.9297 87.9453C17.0063 88.0704 17.0548 88.2105 17.0718 88.3562Z" fill="#263238"/>
<path d="M15.6127 90.0216C15.5927 90.0039 15.6749 89.8773 15.797 89.7352C15.9192 89.593 16.0324 89.4953 16.0546 89.5131C16.0768 89.5308 15.9924 89.6596 15.8703 89.7996C15.7481 89.9395 15.6327 90.0505 15.6127 90.0216Z" fill="#263238"/>
<path d="M15.3062 86.9992C15.3062 87.0259 15.1685 87.0236 15.0086 86.9992C14.8487 86.9748 14.7243 86.9281 14.7288 86.9015C14.7332 86.8748 14.8664 86.8771 15.0241 86.9015C15.1818 86.9259 15.3106 86.9726 15.3062 86.9992Z" fill="#263238"/>
<path d="M28.3233 73.4478H61.1074V99.5915H28.3233V73.4478Z" fill="#E0E0E0"/>
<g opacity="0.3">
<path opacity="0.3" d="M58.72 73.501C54.8602 74.8779 50.6028 75.1733 46.4609 75.251C45.6015 75.2665 44.7331 75.2643 43.9025 75.4731C43.0719 75.6818 42.2702 76.1549 41.8438 76.8989C41.3797 77.7095 41.4285 78.7244 41.6928 79.6194C41.9571 80.5144 42.4123 81.3428 42.741 82.2155C43.323 83.7597 43.5011 85.4269 43.2585 87.0592C43.1838 87.7546 42.9497 88.4233 42.5745 89.0135C42.3843 89.3068 42.1283 89.5514 41.8267 89.7281C41.5252 89.9047 41.1865 90.0083 40.8378 90.0307C39.5919 90.0484 38.7391 88.8248 38.1217 87.741C35.5877 83.2993 32.8472 78.258 31.226 73.4099L58.72 73.501Z" fill="black"/>
</g>
<path d="M49.9365 99.4515C49.9698 99.4515 49.9943 93.6573 49.9943 86.5107C49.9943 79.364 49.9698 73.5676 49.9365 73.5676C49.9032 73.5676 49.8788 79.3618 49.8788 86.5107C49.8788 93.6596 49.9054 99.4515 49.9365 99.4515Z" fill="#455A64"/>
<path d="M36.5027 54.1264C36.6004 53.4735 38.5503 51.3193 38.5503 51.3193C38.5503 51.3193 39.523 47.4084 39.8162 46.2558C39.9137 45.9225 40.0565 45.6042 40.2403 45.3097C40.9298 44.161 41.9105 43.2149 43.083 42.5669L45.7813 41.0501L46.4254 39.6154L52.9058 36.2842L54.6625 39.3934C54.6625 39.3934 58.9287 40.7481 59.4928 41.7097C60.0569 42.6713 59.213 55.6566 59.213 55.6566C59.213 55.6566 60.9897 63.1452 61.3739 64.6954C61.7581 66.2455 61.2539 68.0933 61.2539 68.0933L58.0759 64.1069C57.0876 62.8676 54.9201 62.2969 53.3633 62.3191L40.0582 62.3791L40.5935 58.6525L29.829 60.7356C29.829 60.7356 27.9791 57.1245 27.8303 57.0535C27.6815 56.9824 36.5027 54.1264 36.5027 54.1264Z" fill="#FF9933"/>
<path d="M53.1812 40.6036C53.2745 40.5082 52.4305 43.3619 51.369 46.269C50.7979 47.8399 50.507 49.4989 50.5095 51.1704V61.6972L44.1313 61.2641L45.084 54.3307C45.084 54.3307 45.8613 49.8579 46.0789 48.1567C46.2788 46.6021 46.9673 42.3825 46.9673 42.3825C46.9673 42.3825 50.5095 43.3242 53.1812 40.6036Z" fill="white"/>
<path d="M39.0256 56.738C39.0355 56.6845 39.0355 56.6295 39.0256 56.5759C39.0109 56.4307 38.9827 56.2872 38.9412 56.1473C38.8064 55.6802 38.5558 55.2547 38.2127 54.9103C37.8678 54.5669 37.4426 54.315 36.9757 54.1774C36.8358 54.1359 36.6923 54.1077 36.5471 54.093C36.4943 54.0829 36.44 54.0829 36.3872 54.093C36.3872 54.113 36.6093 54.1374 36.9513 54.2551C37.3952 54.4074 37.7983 54.6593 38.1297 54.9916C38.4612 55.3238 38.7122 55.7275 38.8634 56.1717C38.9811 56.516 39.0056 56.738 39.0256 56.738Z" fill="#263238"/>
<path d="M38.6968 54.2152C38.4005 54.0413 38.0653 53.9443 37.7219 53.9332C37.3818 53.8861 37.0353 53.9274 36.7159 54.0531C36.7159 54.0887 37.16 54.002 37.713 54.0531C38.266 54.1042 38.6835 54.2486 38.6968 54.2152Z" fill="#263238"/>
<g opacity="0.3">
<path opacity="0.3" d="M59.8548 59.9604L60.41 60.5867C59.8311 61.3014 59.0465 61.8208 58.1625 62.0747C57.2716 62.2638 56.3613 62.3458 55.4509 62.319C55.0821 62.3368 54.7126 62.3017 54.3538 62.2146C53.9918 62.1102 53.6565 61.9059 53.2811 61.8837C53.0294 61.8849 52.7791 61.9207 52.5372 61.9903C52.2937 62.0593 52.0364 62.0632 51.791 62.0014C51.6695 61.9686 51.5617 61.8975 51.4838 61.7987C51.4058 61.6999 51.3616 61.5787 51.3579 61.4529C54.1265 60.6437 56.9762 60.1432 59.8548 59.9604Z" fill="black"/>
</g>
<path d="M41.6439 60.7645L43.1985 59.1033L46.4298 58.2927C46.4298 58.2927 49.3791 59.1811 49.4502 59.1811C49.5212 59.1811 52.0175 58.497 52.0175 58.497L52.8903 61.6995L48.3931 62.0082L43.2585 61.8016C43.2585 61.8016 42.9898 61.5529 43.1497 61.3819C43.3096 61.2109 42.2902 61.6706 42.1703 61.6751C42.0503 61.6795 41.8194 61.7728 41.6595 61.5818C41.5506 61.4397 41.4041 61.0199 41.6439 60.7645Z" fill="#FFBE9D"/>
<path d="M43.1497 61.3706C43.3241 61.3377 43.4951 61.2886 43.6604 61.224C43.9714 61.1263 44.4044 61.0019 44.8863 60.8687C45.3683 60.7354 45.8124 60.6466 46.1345 60.5911C46.3106 60.5681 46.484 60.5271 46.6519 60.4689C46.474 60.4612 46.2959 60.4746 46.1211 60.5089C45.6963 60.5682 45.2752 60.6513 44.8597 60.7576C44.4436 60.8632 44.0342 60.9937 43.6338 61.1485C43.4636 61.2016 43.3009 61.2763 43.1497 61.3706Z" fill="#EB996E"/>
<path d="M41.6439 60.7645C41.8861 60.7032 42.1248 60.6291 42.359 60.5424C42.8032 60.3958 43.4095 60.2137 44.0913 60.0249C44.7731 59.8362 45.3771 59.6207 45.8369 59.5941C46.0845 59.5814 46.3327 59.591 46.5786 59.623C46.5185 59.5899 46.4531 59.5674 46.3854 59.5563C46.2038 59.5171 46.0179 59.5022 45.8324 59.5119C45.3572 59.5119 44.722 59.714 44.0557 59.9139C43.3895 60.1138 42.7632 60.2981 42.3279 60.4669C42.1058 60.5491 41.9393 60.6246 41.8194 60.6779C41.7569 60.6979 41.6978 60.7271 41.6439 60.7645Z" fill="#EB996E"/>
<path d="M59.4928 41.7097C59.4928 41.7097 61.8136 43.3243 62.3799 45.6473C62.9462 47.9703 65.3914 57.4644 64.8895 58.8835C64.3875 60.3026 54.6292 61.6973 54.6292 61.6973L53.4721 56.8114L58.429 55.4545C58.429 55.4545 58.3646 50.9351 58.3024 49.0629C58.2403 47.1908 59.4928 41.7097 59.4928 41.7097Z" fill="#FF9933"/>
<path d="M53.5343 57.5464L51.9375 57.9395L52.8991 61.6216L54.467 61.3707L53.5343 57.5464Z" fill="white"/>
<path d="M64.925 58.3815C64.925 58.3815 64.925 58.4637 64.9006 58.6036C64.8466 58.8184 64.728 59.0114 64.5608 59.1566C64.1366 59.5519 63.326 59.8806 62.2999 60.0649C61.8314 60.2204 61.2961 60.3426 60.7254 60.4714C60.1546 60.6002 59.5372 60.7312 58.8887 60.8622C57.5895 61.1287 56.1527 61.4086 54.6292 61.6928L54.6958 61.735C54.587 61.2909 54.4737 60.8045 54.3516 60.3181C54.0784 59.2077 53.8119 58.1151 53.5609 57.0868L53.521 57.1534L57.916 55.9075C58.5228 55.652 59.1795 55.5367 59.837 55.57C60.3368 55.5978 60.8277 55.7136 61.2872 55.912C61.5793 56.0383 61.8582 56.193 62.1201 56.3739L62.3222 56.5205C62.3442 56.5383 62.3681 56.554 62.3932 56.5671C62.3932 56.5671 62.3732 56.5449 62.331 56.5094C62.2888 56.4738 62.2244 56.4183 62.1356 56.3517C61.8777 56.1604 61.6 55.9974 61.3072 55.8653C60.8448 55.6557 60.3482 55.5316 59.8415 55.4989C59.1724 55.4562 58.5024 55.5671 57.8827 55.8231L53.4743 57.0579L53.421 57.0713L53.4344 57.1246C53.6853 58.1528 53.9496 59.2366 54.2205 60.3581C54.3405 60.8422 54.4559 61.3219 54.567 61.7728L54.5803 61.8261H54.6336C56.1571 61.5396 57.5918 61.2553 58.891 60.9844C59.5394 60.8489 60.1546 60.7134 60.7276 60.5802C61.3006 60.4469 61.838 60.3203 62.3088 60.1582C63.3482 59.9606 64.1588 59.6186 64.5874 59.2033C64.7574 59.0505 64.8741 58.8474 64.9205 58.6236C64.9365 58.5439 64.9381 58.4619 64.925 58.3815Z" fill="#263238"/>
<path d="M58.1581 55.7854C58.1714 55.8009 58.338 55.6477 58.6356 55.45C59.415 54.9281 60.3362 54.659 61.274 54.6794C61.6337 54.6794 61.8536 54.7282 61.858 54.7083C61.672 54.6409 61.4762 54.6042 61.2784 54.5994C60.3148 54.5296 59.3582 54.8078 58.5823 55.3834C58.4197 55.493 58.2763 55.6289 58.1581 55.7854Z" fill="#263238"/>
<path d="M57.5074 47.8347C57.4992 47.9337 57.4992 48.0333 57.5074 48.1323C57.5074 48.3255 57.5274 48.6009 57.554 48.9429C57.6095 49.6247 57.7095 50.5641 57.8894 51.5946C58.0299 52.4762 58.2356 53.3462 58.5045 54.1974C58.5578 54.3595 58.6156 54.5061 58.6622 54.6416L58.8043 54.9614C58.846 55.0525 58.8974 55.1389 58.9576 55.219C58.9297 55.1238 58.8925 55.0315 58.8465 54.9436C58.8088 54.8481 58.7688 54.7393 58.7222 54.6194C58.6755 54.4995 58.6311 54.344 58.5823 54.1752C58.3395 53.3209 58.146 52.4533 58.0026 51.5768C57.825 50.5508 57.7117 49.6158 57.6362 48.9363C57.6029 48.6142 57.574 48.3455 57.5518 48.1323C57.5489 48.0317 57.534 47.9318 57.5074 47.8347Z" fill="#263238"/>
<path d="M51.8487 45.3186C51.8487 45.3186 51.8709 45.2586 51.9242 45.1543C52.0032 45.0063 52.1186 44.881 52.2596 44.79C52.3638 44.7185 52.483 44.6717 52.6081 44.6533C52.7332 44.6348 52.8608 44.6451 52.9813 44.6834C53.1341 44.7357 53.2705 44.8269 53.3772 44.9481C53.4839 45.0692 53.5572 45.216 53.5898 45.3741L53.6209 45.5318L53.6898 45.3852C53.9495 44.8278 54.1757 44.2552 54.3671 43.6707C54.7064 42.6971 54.8762 41.6725 54.869 40.6415C54.869 40.4439 54.8424 40.2662 54.8313 40.1085C54.8202 39.9508 54.7847 39.8198 54.7602 39.7132C54.7368 39.6011 54.7041 39.4912 54.6625 39.3845C54.7383 39.7995 54.7806 40.2198 54.7891 40.6415C54.7708 41.6611 54.5917 42.6715 54.2583 43.6352C54.0668 44.2152 53.8443 44.7845 53.5921 45.3408L53.692 45.3541C53.6537 45.1795 53.5701 45.018 53.4497 44.8858C53.3292 44.7537 53.1761 44.6556 53.0058 44.6013C52.8735 44.5614 52.7339 44.5528 52.5978 44.5763C52.4617 44.5999 52.333 44.6548 52.2218 44.7367C52.0775 44.8381 51.9638 44.9772 51.8931 45.1387C51.8737 45.1813 51.8595 45.226 51.8509 45.272C51.8465 45.3008 51.8443 45.3186 51.8487 45.3186Z" fill="#263238"/>
<path d="M46.4343 45.8183C46.4581 45.7316 46.4751 45.6433 46.4854 45.554C46.5339 45.3092 46.5496 45.059 46.532 44.81C46.482 44.427 46.2912 44.0762 45.9968 43.8262C45.8146 43.6763 45.5864 43.594 45.3505 43.593C45.222 43.5915 45.0946 43.618 44.9773 43.6705C44.86 43.723 44.7554 43.8004 44.6709 43.8973L44.7687 43.955L44.9796 43.4242C45.3949 42.3782 45.7636 41.4255 46.0256 40.7392L46.3299 39.9197C46.3722 39.8219 46.4042 39.7199 46.4254 39.6155C46.3707 39.7073 46.3246 39.8039 46.2877 39.9042C46.1989 40.1263 46.0856 40.3861 45.9479 40.7104C45.6659 41.3922 45.2817 42.336 44.8708 43.3754L44.6621 43.9084L44.5266 44.2504L44.7487 43.9639C44.822 43.8788 44.9131 43.8109 45.0156 43.7648C45.118 43.7188 45.2293 43.6958 45.3416 43.6974C45.553 43.696 45.7585 43.7674 45.9235 43.8995C46.201 44.1315 46.3862 44.4554 46.4454 44.8122C46.4693 45.0555 46.4648 45.3007 46.4321 45.5429C46.4215 45.6344 46.4223 45.7269 46.4343 45.8183Z" fill="#263238"/>
<path d="M42.3146 46.3689C42.2835 46.3689 41.7816 49.7401 41.1931 53.9087C40.6045 58.0772 40.1559 61.4595 40.187 61.4595C40.2181 61.4595 40.72 58.0883 41.3085 53.9087C41.8971 49.729 42.3457 46.3733 42.3146 46.3689Z" fill="#263238"/>
<g opacity="0.3">
<path opacity="0.3" d="M54.3005 43.7061C54.2735 44.5696 54.0859 45.4206 53.7475 46.2156C53.5054 45.9158 53.2367 45.6004 52.8591 45.5116C52.4017 45.4028 51.9375 45.6848 51.6066 46.0313C51.6639 45.6849 51.8008 45.3565 52.0063 45.0719C52.109 44.932 52.2426 44.8177 52.3967 44.738C52.5508 44.6582 52.7212 44.6152 52.8947 44.6122C53.0676 44.6162 53.2342 44.6778 53.3681 44.7872C53.5021 44.8967 53.5957 45.0476 53.6342 45.2162L54.2716 43.7216" fill="black"/>
</g>
<path d="M58.0515 46.1469C58.0715 46.1469 58.0648 45.9137 58.1315 45.5517C58.2227 45.08 58.4061 44.631 58.6711 44.2303C58.8203 44.0133 58.9907 43.8117 59.1797 43.6284C59.3363 43.4802 59.5066 43.3471 59.6883 43.2309C60.0014 43.0332 60.2213 42.9577 60.2124 42.9377C60.1579 42.9417 60.1045 42.9552 60.0547 42.9777C59.9925 42.9944 59.9323 43.0175 59.8748 43.0466C59.7981 43.0796 59.7238 43.1182 59.6527 43.162C59.4596 43.2712 59.2787 43.4008 59.1131 43.5485C58.9139 43.734 58.7359 43.9411 58.5823 44.1659C58.307 44.5783 58.1279 45.0474 58.0582 45.5383C58.0361 45.6853 58.0286 45.8341 58.036 45.9825C58.036 46.0891 58.0426 46.1469 58.0515 46.1469Z" fill="#263238"/>
<path d="M45.1595 30.3101C45.2864 29.121 45.8563 28.0231 46.7559 27.235C47.6554 26.447 48.8187 26.0265 50.0143 26.0572H50.2608C52.9147 26.2793 54.2072 28.6578 53.9096 31.3029L53.1812 40.6082L52.8725 40.9857C52.1795 41.8371 51.2243 42.4354 50.1557 42.6872C49.0872 42.9391 47.9654 42.8304 46.9651 42.3782L47.1694 39.3845C47.1694 39.3845 44.6243 38.9226 44.6598 36.3686C44.6754 35.1294 44.9152 32.5932 45.1595 30.3101Z" fill="#FFBE9D"/>
<path d="M47.1494 39.3778C48.3343 39.4108 49.5037 39.1025 50.5184 38.4895C50.5184 38.4895 49.6856 40.3084 47.1427 40.013L47.1494 39.3778Z" fill="#EB996E"/>
<path d="M45.9679 32.4111C45.9653 32.5059 45.9995 32.5981 46.0632 32.6684C46.1269 32.7387 46.2152 32.7818 46.3099 32.7886C46.3562 32.7932 46.4029 32.7885 46.4474 32.7749C46.4918 32.7612 46.5332 32.7389 46.5689 32.7091C46.6047 32.6794 46.6341 32.6428 46.6556 32.6015C46.6771 32.5603 46.6902 32.5152 46.6941 32.4688C46.6972 32.3738 46.6632 32.2813 46.5994 32.2109C46.5356 32.1405 46.4469 32.0976 46.3521 32.0913C46.3057 32.0864 46.2589 32.0908 46.2143 32.1044C46.1697 32.1179 46.1282 32.1402 46.0924 32.17C46.0566 32.1999 46.0271 32.2365 46.0057 32.2779C45.9843 32.3193 45.9715 32.3646 45.9679 32.4111Z" fill="#263238"/>
<path d="M45.8058 31.0229C45.8347 31.0674 46.1234 31.0984 46.472 31.285C46.8207 31.4715 47.025 31.7047 47.0717 31.7003C47.1183 31.6959 47.0717 31.6359 46.985 31.5315C46.8522 31.3842 46.6943 31.2616 46.5187 31.1695C46.351 31.0758 46.1672 31.0148 45.9768 30.9896C45.8458 30.9763 45.7902 31.0007 45.8058 31.0229Z" fill="#263238"/>
<path d="M49.6544 32.6042C49.6502 32.6995 49.6838 32.7926 49.7478 32.8633C49.8118 32.934 49.9012 32.9766 49.9965 32.9817C50.0428 32.9866 50.0897 32.9822 50.1343 32.9686C50.1788 32.9551 50.2203 32.9328 50.2561 32.903C50.2919 32.8732 50.3214 32.8365 50.3428 32.7951C50.3642 32.7537 50.3771 32.7084 50.3807 32.6619C50.3838 32.5669 50.3498 32.4745 50.286 32.404C50.2222 32.3336 50.1335 32.2907 50.0387 32.2844C49.9923 32.2795 49.9455 32.284 49.9009 32.2975C49.8563 32.311 49.8148 32.3333 49.779 32.3632C49.7432 32.393 49.7137 32.4297 49.6923 32.4711C49.6709 32.5125 49.6581 32.5577 49.6544 32.6042Z" fill="#263238"/>
<path d="M49.6989 31.5581C49.75 31.5581 49.9876 31.4093 50.3652 31.316C50.7427 31.2228 51.0559 31.2427 51.0892 31.2116C51.1225 31.1806 51.0492 31.1672 50.9137 31.1561C50.7159 31.1436 50.5173 31.1623 50.3252 31.2116C50.1393 31.2558 49.9621 31.3309 49.8011 31.4337C49.7123 31.5048 49.6856 31.5537 49.6989 31.5581Z" fill="#263238"/>
<path d="M48.171 34.6074C47.9652 34.5386 47.752 34.4947 47.5358 34.4763C47.4359 34.4763 47.3426 34.4408 47.327 34.3719C47.3208 34.269 47.3464 34.1667 47.4003 34.0788L47.7179 33.3215C48.1621 32.2466 48.4774 31.3605 48.433 31.3449C48.3886 31.3294 47.9889 32.1844 47.5602 33.2593C47.4536 33.5258 47.3515 33.779 47.256 34.021C47.1904 34.1401 47.1684 34.2784 47.1938 34.4119C47.2076 34.4477 47.2294 34.4799 47.2575 34.5061C47.2855 34.5323 47.3192 34.5517 47.3559 34.5629C47.4106 34.5801 47.4674 34.5898 47.5247 34.5918C47.7386 34.6247 47.9558 34.6299 48.171 34.6074Z" fill="#263238"/>
<path d="M49.6989 30.0435C49.7433 30.1479 50.132 30.0791 50.5873 30.1102C51.0425 30.1413 51.429 30.2523 51.4756 30.1524C51.5022 30.1057 51.4312 30.008 51.2779 29.9125C51.0718 29.7952 50.8415 29.7266 50.6048 29.7119C50.3681 29.6973 50.1311 29.7371 49.9121 29.8281C49.7655 29.9058 49.6856 29.9925 49.6989 30.0435Z" fill="#263238"/>
<path d="M45.8146 30.1301C45.9013 30.2212 46.2388 30.1301 46.643 30.1301C47.0472 30.1301 47.3914 30.199 47.4714 30.1057C47.5069 30.0613 47.4536 29.9702 47.3048 29.8836C47.0996 29.776 46.8701 29.7233 46.6386 29.7304C46.4051 29.7288 46.1754 29.7885 45.9723 29.9036C45.8257 29.9947 45.7769 30.0879 45.8146 30.1301Z" fill="#263238"/>
<path d="M44.4155 28.0404C44.438 27.9238 44.5023 27.8195 44.5964 27.7471C44.6905 27.6746 44.8078 27.6392 44.9263 27.6473C44.7987 27.6109 44.6794 27.5498 44.5754 27.4674C44.5237 27.4257 44.4847 27.3702 44.4631 27.3073C44.4415 27.2444 44.4381 27.1768 44.4533 27.112C44.5199 26.9144 44.7731 26.8722 44.9729 26.8167C45.2353 26.7404 45.4679 26.5854 45.6392 26.3725C45.8813 26.066 45.9745 25.6663 46.1855 25.3354C46.3218 25.1218 46.5042 24.9414 46.7194 24.8076C46.9346 24.6738 47.177 24.59 47.4289 24.5623C47.6807 24.5346 47.9356 24.5637 48.1747 24.6475C48.4138 24.7314 48.6311 24.8678 48.8105 25.0467C49.0065 24.8452 49.2477 24.6935 49.5141 24.604C49.7805 24.5146 50.0644 24.49 50.3422 24.5324C50.62 24.5747 50.8837 24.6828 51.1113 24.8476C51.339 25.0123 51.524 25.2291 51.651 25.4797C51.9917 25.3376 52.3643 25.2898 52.7298 25.3411C53.0954 25.3925 53.4404 25.5412 53.7287 25.7716C54.0171 26.0021 54.2381 26.3058 54.3688 26.651C54.4995 26.9963 54.5349 27.3703 54.4715 27.7339L52.8813 28.7088C52.8684 28.5879 52.83 28.4711 52.7686 28.3661C52.7072 28.2611 52.6242 28.1704 52.5252 28.0998C52.4261 28.0293 52.3132 27.9806 52.1939 27.9569C52.0746 27.9333 51.9516 27.9352 51.8331 27.9626C51.3534 28.1025 51.0469 28.6577 50.5495 28.6955C50.1608 28.7244 49.8299 28.4246 49.4546 28.3246C48.9993 28.2025 48.5174 28.3846 48.1065 28.6156C47.6957 28.8465 47.3026 29.1352 46.8451 29.2507C46.2986 29.3603 45.7315 29.2926 45.2261 29.0575C45.0017 28.9788 44.7971 28.8522 44.6265 28.6866C44.5423 28.6035 44.4793 28.5015 44.4426 28.3891C44.4059 28.2767 44.3966 28.1571 44.4155 28.0404Z" fill="#263238"/>
<path d="M52.6127 27.9582L45.3283 27.9182C45.5911 27.4287 45.973 27.0132 46.4387 26.7101C47.4061 26.0033 48.5719 25.6201 49.77 25.6152C50.9581 25.6152 53.3344 27.141 54.1717 27.9827C54.8379 28.6489 54.8202 29.2241 54.8202 29.2241C54.9046 30.1702 54.3471 31.2229 54.1095 32.1489C53.9896 32.6242 53.7386 34.0633 53.7386 34.0633C53.3389 34.0522 53.199 33.728 53.27 33.3327L53.3877 31.7781C52.9947 31.4501 52.7193 31.0029 52.6035 30.5043C52.4877 30.0057 52.5377 29.4829 52.7459 29.0153C52.8459 28.8776 53.0857 28.2358 52.6127 27.9582Z" fill="#263238"/>
<path d="M53.4921 31.6757C53.863 30.3877 54.205 29.0107 53.8097 27.7227H54.0318L54.1206 27.7871C54.326 27.7181 54.548 27.7163 54.7544 27.782C54.9608 27.8476 55.141 27.9774 55.2687 28.1524C55.3964 28.3274 55.4651 28.5385 55.4647 28.7551C55.4643 28.9718 55.3949 29.1827 55.2666 29.3572C55.4831 29.3553 55.6929 29.4326 55.8565 29.5745C56.0201 29.7164 56.1262 29.9132 56.1549 30.1278C56.1542 30.4269 56.072 30.7202 55.9173 30.9762C55.7622 31.2329 55.6673 31.5214 55.6397 31.8201C55.6303 31.9688 55.6738 32.1161 55.7623 32.2359C55.8509 32.3558 55.9789 32.4405 56.1238 32.4753C56.0536 32.6268 55.9334 32.7495 55.7833 32.8227C55.6332 32.8959 55.4625 32.9152 55.2999 32.8772C55.4036 33.1304 55.5768 33.349 55.7996 33.5079C55.3243 33.8322 54.6736 33.73 54.1584 33.4702C53.8387 33.3416 53.5778 33.0996 53.4255 32.7906C53.2834 32.4331 53.39 32.04 53.4921 31.6757Z" fill="#263238"/>
<path d="M53.612 33.1795C53.6564 33.1617 55.3887 32.7064 55.2799 34.4498C55.171 36.1931 53.4477 35.7334 53.4477 35.6823C53.4477 35.6313 53.612 33.1795 53.612 33.1795Z" fill="#FFBE9D"/>
<path d="M53.8652 35.0494C53.8652 35.0494 53.8941 35.0716 53.9452 35.0982C54.0142 35.1325 54.0937 35.1388 54.1673 35.116C54.356 35.0583 54.527 34.7762 54.5537 34.4609C54.5671 34.3102 54.5466 34.1584 54.4937 34.0167C54.4796 33.9606 54.4519 33.9089 54.4132 33.8659C54.3745 33.823 54.3259 33.7901 54.2716 33.7702C54.2372 33.7595 54.2001 33.7609 54.1665 33.7742C54.133 33.7875 54.105 33.812 54.0873 33.8435C54.0607 33.8901 54.0718 33.9256 54.0607 33.9301C54.0496 33.9345 54.0251 33.8968 54.0429 33.8257C54.0572 33.7842 54.0835 33.7479 54.1184 33.7213C54.143 33.7042 54.1709 33.6921 54.2003 33.686C54.2297 33.6799 54.26 33.6798 54.2894 33.6858C54.3601 33.7043 54.4249 33.7406 54.4778 33.7911C54.5306 33.8416 54.5697 33.9047 54.5914 33.9745C54.6555 34.1305 54.6821 34.2994 54.6692 34.4675C54.6359 34.8184 54.4471 35.1338 54.1806 35.196C54.1333 35.2064 54.0843 35.2062 54.037 35.1954C53.9898 35.1847 53.9456 35.1636 53.9074 35.1338C53.8652 35.0916 53.8586 35.0516 53.8652 35.0494Z" fill="#EB996E"/>
<path d="M55.422 31.7336C55.422 31.7336 55.4709 31.667 55.4553 31.5293C55.4367 31.4359 55.3979 31.3477 55.3414 31.2709C55.285 31.1942 55.2125 31.1307 55.1289 31.0851C54.8786 30.966 54.6064 30.9002 54.3294 30.8919C54.1744 30.8919 54.0216 30.8553 53.8834 30.7851C53.7452 30.7148 53.6256 30.6129 53.5343 30.4877C53.3892 30.2053 53.3409 29.8831 53.3966 29.5705C53.4388 29.2773 53.5165 29.0131 53.5543 28.7843C53.6246 28.5392 53.6207 28.2788 53.5432 28.0359C53.5416 28.2809 53.5141 28.5251 53.461 28.7643C53.4121 28.9864 53.3255 29.2462 53.2722 29.5549C53.2052 29.8965 53.2569 30.2507 53.4188 30.5588C53.5151 30.718 53.661 30.8413 53.8341 30.9097C53.9891 30.9672 54.1513 31.003 54.316 31.0163C54.5787 31.0178 54.8386 31.069 55.0822 31.1673C55.1585 31.2065 55.2262 31.2604 55.2815 31.326C55.3368 31.3916 55.3785 31.4675 55.4042 31.5493C55.4142 31.6102 55.4201 31.6718 55.422 31.7336Z" fill="#455A64"/>
<path d="M55.8439 30.9762C55.8439 30.9762 55.8817 30.9273 55.8972 30.8185C55.9152 30.6651 55.8849 30.5098 55.8106 30.3744C55.7597 30.2781 55.6893 30.1934 55.6041 30.1256C55.5044 30.0509 55.3902 29.9979 55.2687 29.9702C55.1509 29.9449 55.0388 29.8982 54.9378 29.8325C54.8932 29.7926 54.8582 29.743 54.8355 29.6876C54.8128 29.6323 54.803 29.5724 54.8068 29.5127C54.8068 29.3816 54.8224 29.2417 54.8179 29.1018C54.8161 28.9682 54.8012 28.835 54.7735 28.7043C54.7287 28.4834 54.6436 28.2726 54.5225 28.0825C54.484 28.0127 54.4287 27.9536 54.3616 27.9106C54.2946 27.8675 54.2178 27.8419 54.1383 27.8359C54.0229 27.8359 53.974 27.8892 53.9784 27.8937C53.9829 27.8981 54.0362 27.8737 54.1339 27.8937C54.2007 27.9079 54.2632 27.9374 54.3168 27.9798C54.3703 28.0221 54.4134 28.0763 54.4426 28.138C54.5428 28.3242 54.6133 28.5251 54.6514 28.7332C54.6729 28.8564 54.684 28.9812 54.6847 29.1063C54.6847 29.2351 54.6647 29.3728 54.6713 29.5238C54.6681 29.6028 54.683 29.6816 54.715 29.754C54.7469 29.8263 54.7951 29.8904 54.8557 29.9413C54.9703 30.018 55.0996 30.0702 55.2354 30.0945C55.3366 30.1118 55.4329 30.1505 55.5179 30.2079C55.6029 30.2654 55.6747 30.3403 55.7285 30.4277C55.8197 30.5953 55.8598 30.786 55.8439 30.9762Z" fill="#455A64"/>
<path d="M45.637 26.3726C45.6259 26.3726 45.768 26.4681 45.9968 26.3615C46.1256 26.2916 46.2383 26.1955 46.3277 26.0794C46.4378 25.935 46.5751 25.8135 46.7319 25.7218C46.9358 25.6072 47.1687 25.5543 47.4021 25.5697C47.6355 25.5851 47.8595 25.6681 48.0466 25.8085C48.2687 25.9639 48.453 26.1838 48.7128 26.3659C48.845 26.4639 48.9963 26.5328 49.157 26.568C49.3233 26.5971 49.4943 26.581 49.6523 26.5214C49.9676 26.4081 50.2164 26.2149 50.4873 26.1172C50.7488 26.0168 51.0267 25.9663 51.3068 25.9684C51.7892 25.9678 52.2581 26.128 52.6393 26.4236C52.8939 26.6226 53.1055 26.8711 53.2611 27.1543C53.37 27.3564 53.4099 27.4808 53.421 27.4763C53.4321 27.4719 53.421 27.443 53.4033 27.383C53.3781 27.2966 53.3469 27.212 53.31 27.1299C53.1665 26.8274 52.958 26.5605 52.6993 26.3481C52.3095 26.0295 51.8235 25.8519 51.3201 25.844C51.0237 25.8363 50.7287 25.8868 50.4518 25.9928C50.1586 26.0994 49.9054 26.2926 49.619 26.3925C49.4832 26.4448 49.3359 26.4594 49.1926 26.4347C49.0535 26.4029 48.9227 26.3424 48.8083 26.2571C48.5752 26.0905 48.3797 25.8706 48.1421 25.7063C47.9224 25.5417 47.6549 25.4536 47.3803 25.4553C47.1462 25.4571 46.9166 25.5198 46.7141 25.6375C46.5519 25.7409 46.411 25.8743 46.2988 26.0305C46.221 26.1447 46.1204 26.2414 46.0034 26.3148C45.8932 26.3804 45.762 26.401 45.637 26.3726Z" fill="#455A64"/>
<path d="M49.1393 35.0649C49.0837 35.0649 49.0216 35.4247 48.6573 35.6357C48.2931 35.8467 47.9045 35.7401 47.8912 35.7912C47.8778 35.8422 47.9689 35.88 48.1354 35.9111C48.3531 35.9515 48.5781 35.9137 48.7706 35.8045C48.955 35.6978 49.0917 35.5245 49.1526 35.3203C49.1926 35.1671 49.1659 35.0672 49.1393 35.0649Z" fill="#263238"/>
<path d="M26.158 69.7656C26.8342 69.1847 27.7115 68.8928 28.6009 68.9528L30.1022 73.7209C29.0029 73.7698 27.9058 74.3361 26.8443 74.0452C26.4203 73.9144 26.0426 73.6651 25.7557 73.3267C25.4689 72.9883 25.2848 72.5749 25.2253 72.1352C25.1791 71.6944 25.2397 71.2489 25.4021 70.8364C25.5644 70.424 25.8237 70.0567 26.158 69.7656Z" fill="#FF9933"/>
<path d="M28.5831 68.8438C28.5831 68.8061 28.421 68.775 28.139 68.7772C27.7193 68.7849 27.3041 68.8637 26.9108 69.0104C26.31 69.2445 25.79 69.648 25.414 70.1719C25.1843 70.4826 25.0148 70.8337 24.9143 71.2068C24.8056 71.6152 24.7934 72.0433 24.8788 72.4571C24.9615 72.8766 25.1486 73.2685 25.4229 73.5964C25.6856 73.8952 26.0183 74.1241 26.3912 74.2627C26.997 74.4769 27.6504 74.5192 28.2789 74.3848C28.6833 74.3056 29.078 74.1827 29.4559 74.0184C29.7202 73.9051 29.8601 73.8207 29.8468 73.783C29.8335 73.7452 29.6736 73.7563 29.4026 73.803C29.1317 73.8496 28.7208 73.9362 28.2322 73.9806C27.6781 74.0421 27.1175 73.9658 26.5999 73.7586C26.3161 73.6386 26.0649 73.4529 25.867 73.2167C25.6595 72.9584 25.5177 72.6535 25.454 72.3283C25.393 72.006 25.3976 71.6747 25.4674 71.3542C25.5372 71.0337 25.6709 70.7306 25.8604 70.4628C26.1664 69.9993 26.5872 69.6229 27.0818 69.3702C27.4324 69.2048 27.7994 69.0767 28.1767 68.9882C28.4321 68.9305 28.5876 68.8838 28.5831 68.8438Z" fill="#F5F5F5"/>
<path d="M42.4923 86.7327L45.7569 95.8803L34.3973 100C34.0686 98.8895 39.1566 94.5811 39.1566 94.5811L36.8247 88.8069L42.4923 86.7327Z" fill="#FF9933"/>
<g opacity="0.6">
<path opacity="0.6" d="M42.4901 92.8155C42.6115 92.809 42.731 92.8476 42.8257 92.9239C42.9204 93.0001 42.9836 93.1086 43.0031 93.2286C43.014 93.3493 42.9781 93.4696 42.9029 93.5647C42.8277 93.6597 42.7189 93.7223 42.5989 93.7394C42.4694 93.7463 42.3421 93.7046 42.2418 93.6224C42.1416 93.5402 42.0757 93.4235 42.057 93.2952C42.057 93.0532 42.2969 92.7756 42.5367 92.8089" fill="white"/>
</g>
<path d="M45.7569 95.8804L45.426 94.9587L34.6371 99.2627C34.6371 99.2627 34.2108 99.6647 34.3973 100L45.7569 95.8804Z" fill="white"/>
<path d="M38.9501 94.59C38.9723 94.6455 39.2588 94.57 39.5963 94.6499C39.9339 94.7299 40.1649 94.9098 40.2071 94.872C40.2493 94.8343 40.0516 94.5411 39.6407 94.4523C39.2299 94.3634 38.9212 94.5433 38.9501 94.59Z" fill="#263238"/>
<path d="M37.9284 95.5162C37.9284 95.574 38.2105 95.5806 38.4836 95.7383C38.7568 95.896 38.9012 96.1336 38.9567 96.1114C39.0122 96.0892 38.9323 95.7627 38.588 95.5606C38.2438 95.3585 37.9284 95.4629 37.9284 95.5162Z" fill="#263238"/>
<path d="M37.7797 97.1862C37.833 97.1862 37.8108 96.8753 37.5576 96.6221C37.3044 96.369 37.0024 96.3445 36.9957 96.4001C36.9891 96.4556 37.2067 96.5577 37.411 96.7687C37.6153 96.9797 37.7219 97.2018 37.7797 97.1862Z" fill="#263238"/>
<path d="M38.5658 93.2152C38.608 93.2574 38.8345 93.0887 39.1543 92.9932C39.4741 92.8977 39.7562 92.911 39.7673 92.8532C39.7784 92.7955 39.4741 92.6822 39.101 92.7977C38.7279 92.9132 38.5214 93.1819 38.5658 93.2152Z" fill="#263238"/>
<path d="M38.3482 91.7694C38.5522 91.7515 38.7477 91.6794 38.9145 91.5607C39.107 91.4505 39.2846 91.3161 39.4431 91.1609C39.5379 91.0703 39.6262 90.973 39.7073 90.87C39.7585 90.8116 39.8005 90.7457 39.8317 90.6746C39.854 90.622 39.8581 90.5634 39.8432 90.5083C39.8283 90.4531 39.7953 90.4045 39.7495 90.3703C39.7078 90.3417 39.66 90.3233 39.6099 90.3163C39.5598 90.3094 39.5088 90.3142 39.4608 90.3303C39.3888 90.3562 39.3208 90.3921 39.2587 90.4369C39.1478 90.5111 39.0437 90.5951 38.9478 90.6879C38.7873 90.8434 38.6524 91.0233 38.5481 91.2209C38.434 91.3939 38.3758 91.5978 38.3815 91.805C38.4126 91.805 38.4792 91.594 38.6724 91.2942C38.7871 91.1217 38.9229 90.9643 39.0766 90.8256C39.1676 90.744 39.2649 90.6697 39.3676 90.6035C39.4764 90.528 39.5785 90.4902 39.6274 90.5324C39.6763 90.5746 39.6518 90.5569 39.6385 90.6013C39.6154 90.6536 39.5847 90.7023 39.5474 90.7456C39.4747 90.8442 39.3953 90.9377 39.3098 91.0255C39.1657 91.1773 39.0073 91.3149 38.8368 91.4363C38.5436 91.6473 38.3349 91.7406 38.3482 91.7694Z" fill="#263238"/>
<path d="M38.4481 91.8273C38.4963 91.6259 38.4792 91.4144 38.3993 91.2233C38.332 91.0092 38.2291 90.808 38.095 90.6281C38.0146 90.5224 37.9246 90.4243 37.8263 90.3349C37.7678 90.2714 37.6941 90.2237 37.6121 90.1965C37.5302 90.1693 37.4426 90.1635 37.3577 90.1795C37.3075 90.1994 37.264 90.2332 37.2322 90.2768C37.2004 90.3204 37.1815 90.3721 37.1778 90.426C37.1737 90.5005 37.1797 90.5752 37.1956 90.6481C37.2306 90.8283 37.3012 90.9998 37.4034 91.1524C37.5057 91.3049 37.6373 91.4355 37.7908 91.5364C38.1195 91.7585 38.3749 91.7318 38.3726 91.7119C38.3704 91.6919 38.1506 91.6408 37.8752 91.4187C37.7185 91.2912 37.5913 91.1313 37.5021 90.9501C37.4503 90.8447 37.4137 90.7326 37.3932 90.617C37.3666 90.4904 37.3777 90.3749 37.4266 90.3727C37.4766 90.3708 37.5264 90.3799 37.5725 90.3995C37.6186 90.4191 37.6597 90.4486 37.6931 90.4859C37.7852 90.5639 37.8699 90.6501 37.9462 90.7436C38.0764 90.9027 38.1827 91.08 38.2616 91.2699C38.3993 91.6053 38.4148 91.8273 38.4481 91.8273Z" fill="#263238"/>
<path d="M53.4965 62.3034C55.2199 62.3434 56.8544 62.5854 58.0426 63.8358C59.6172 65.4947 61.5626 67.8555 61.6737 69.4922C61.838 71.9352 60.3612 72.668 59.284 73.2677C58.8076 73.5254 58.2707 73.6504 57.7295 73.6297L37.813 73.4787L37.1889 70.1052L50.0698 66.9294L49.5346 62.0813L53.4965 62.3034Z" fill="#263238"/>
<path d="M49.5234 62.0792L43.2584 61.7905C43.2584 61.7905 32.4341 62.3924 30.1266 64.5088C27.8192 66.6253 28.1056 69.0305 28.8763 71.3379C29.6469 73.6454 36.4271 88.4117 36.4271 88.4117C36.4271 88.4117 35.8764 89.3512 36.1851 90.2884C36.31 90.6988 36.5394 91.0698 36.8509 91.3649C37.1623 91.66 37.5451 91.8691 37.9617 91.9717L43.9846 89.7509C43.9846 89.7509 44.8019 89.4622 44.2245 88.6916C43.6471 87.9209 43.2629 87.7788 43.2629 87.7788V86.2398C43.2629 86.2398 41.1464 82.391 40.9554 81.8625C40.7644 81.3339 38.7346 73.5032 38.7346 73.5032L37.3865 71.1869C37.3865 71.1869 40.6445 69.6545 43.4694 68.5441L50.0653 66.9184L49.5234 62.0792Z" fill="#263238"/>
<path d="M39.3609 89.4799C39.5431 89.3739 39.7196 89.2583 39.8895 89.1334C40.7404 88.5821 41.6987 88.218 42.7011 88.0652C42.9113 88.0448 43.1203 88.0137 43.3273 87.972C43.1161 87.9475 42.9025 87.9513 42.6922 87.9831C41.6649 88.0928 40.6834 88.4661 39.8428 89.0668C39.6647 89.1827 39.5027 89.3216 39.3609 89.4799Z" fill="#455A64"/>
<path d="M36.3517 88.4228C36.483 88.3152 36.6002 88.1913 36.7004 88.0542C36.9047 87.8166 37.1756 87.479 37.4577 87.0926C37.7397 86.7061 37.984 86.3486 38.1506 86.0843C38.2498 85.946 38.3333 85.797 38.3993 85.6401C38.28 85.7608 38.1743 85.8941 38.0839 86.0377L37.3644 87.0237C37.0957 87.3879 36.8491 87.7166 36.6359 88.0031C36.5262 88.1323 36.4309 88.273 36.3517 88.4228Z" fill="#455A64"/>
<path d="M34.153 69.0815C34.153 69.0993 34.3751 69.1482 34.7238 69.2637C35.6368 69.5649 36.464 70.0814 37.1356 70.7694C37.2667 70.9206 37.4053 71.0651 37.5509 71.2024C37.457 71.0231 37.3373 70.8585 37.1956 70.7139C36.8725 70.349 36.4985 70.0326 36.0852 69.7745C35.672 69.5144 35.2231 69.3161 34.7527 69.1859C34.5592 69.121 34.357 69.0858 34.153 69.0815Z" fill="#455A64"/>
<path d="M40.3047 79.5371C40.3022 79.4926 40.294 79.4485 40.2803 79.4061L40.187 79.0396L39.8273 77.696L38.5947 73.2743C38.3437 72.4104 38.1305 71.5887 37.8885 70.8425C37.6329 70.1941 37.2466 69.6052 36.7536 69.1125C36.4282 68.7787 36.0678 68.4809 35.6787 68.2241C35.5388 68.1353 35.43 68.0687 35.3523 68.0287C35.315 68.0051 35.2756 67.985 35.2346 67.9688C35.2346 67.9688 35.3856 68.0709 35.6521 68.2597C36.0283 68.5283 36.3779 68.8325 36.6959 69.168C37.1714 69.6587 37.5431 70.2403 37.7885 70.8781C38.0106 71.6132 38.2327 72.446 38.4837 73.3054L39.7473 77.716C39.9117 78.269 40.0471 78.7198 40.1448 79.0485C40.1915 79.1951 40.227 79.315 40.2581 79.4083C40.2678 79.4531 40.2835 79.4965 40.3047 79.5371Z" fill="#455A64"/>
<path d="M45.8457 68.2576C45.879 68.2576 46.0101 67.0894 46.1411 65.6414C46.2721 64.1934 46.3632 63.0164 46.3188 63.0142C46.2743 63.0119 46.1566 64.1823 46.0256 65.6303C45.8946 67.0783 45.8146 68.2553 45.8457 68.2576Z" fill="#455A64"/>
<path d="M56.2748 71.3955C56.2926 71.3955 56.3881 71.2156 56.5857 70.938C56.8409 70.577 57.1468 70.2546 57.4941 69.9809C57.844 69.7106 58.2306 69.4915 58.6422 69.3302C58.9598 69.2058 59.1664 69.1591 59.1619 69.1392C58.975 69.1479 58.7906 69.1861 58.6156 69.2524C57.7471 69.5388 57.0052 70.1182 56.5169 70.8914C56.4091 71.045 56.3273 71.2153 56.2748 71.3955Z" fill="#455A64"/>
<path d="M52.4372 67.1315C52.4372 67.1493 52.7126 66.9805 53.1723 66.7695C54.3785 66.2216 55.7163 66.0305 57.0277 66.2188C57.5274 66.2898 57.8316 66.3787 57.8361 66.3587C57.7714 66.3222 57.7019 66.2952 57.6295 66.2787C57.4365 66.219 57.24 66.1716 57.041 66.1366C55.7146 65.9038 54.3486 66.0999 53.1412 66.6962C52.9602 66.7856 52.7851 66.8865 52.6171 66.9983C52.5512 67.0341 52.4907 67.079 52.4372 67.1315Z" fill="#455A64"/>
<path d="M37.4332 70.0986C37.4866 70.0959 37.5395 70.087 37.5909 70.0719L38.035 69.9764L39.6563 69.6189C41.0265 69.3124 42.9231 68.8993 45.0263 68.484C47.1294 68.0688 49.0393 67.7245 50.4229 67.4869L52.0641 67.2048L52.5083 67.1271C52.5607 67.1209 52.6122 67.1083 52.6615 67.0894C52.6087 67.0908 52.5561 67.0953 52.5038 67.1027L52.0597 67.1604C51.671 67.2137 51.1091 67.2981 50.414 67.4069C49.026 67.629 47.1116 67.9533 45.0063 68.3708C42.9009 68.7883 41.0087 69.2125 39.6407 69.5389C38.9589 69.7033 38.4059 69.841 38.0262 69.9409L37.582 70.0564C37.5312 70.066 37.4814 70.0801 37.4332 70.0986Z" fill="#455A64"/>
<path d="M50.0587 67.4981C50.0809 67.4981 50.1275 67.236 50.3341 66.8629C50.4549 66.6476 50.6043 66.4497 50.7782 66.2744C50.9976 66.0584 51.2305 65.8566 51.4756 65.6703C51.9272 65.3367 52.4047 65.0396 52.9036 64.782C53.1146 64.6816 53.318 64.5658 53.5121 64.4355C53.2886 64.5062 53.0722 64.5977 52.8658 64.7087C52.3504 64.9477 51.8608 65.2386 51.4045 65.5771C51.1561 65.7666 50.9216 65.9736 50.7027 66.1967C50.5244 66.3814 50.3747 66.5917 50.2586 66.8207C50.1788 66.9756 50.1183 67.1397 50.0787 67.3093C50.0604 67.3705 50.0536 67.4345 50.0587 67.4981Z" fill="#455A64"/>
<path d="M27.8747 70.5073C27.8503 70.534 28.1834 70.8693 28.4433 71.3823C28.7031 71.8953 28.7875 72.3573 28.8208 72.3506C28.8216 71.9916 28.7265 71.639 28.5454 71.329C28.3982 71.0008 28.1668 70.7173 27.8747 70.5073Z" fill="#263238"/>
<g opacity="0.3">
<path opacity="0.3" d="M42.1302 47.7524L40.7045 57.7951L40.6334 57.955C40.299 54.4831 40.8127 50.982 42.1302 47.7524Z" fill="black"/>
</g>
<path d="M34.4528 53.5223L39.0877 61.6239L50.5095 61.8727L50.5384 62.3901L39.4786 62.308L39.1277 62.2946L27.4505 62.3191L25.0898 58.2483L22.0739 53.9265C22.0302 53.8624 22.0049 53.7876 22.0007 53.7101C21.9964 53.6327 22.0133 53.5555 22.0497 53.487C22.086 53.4184 22.1403 53.3611 22.2068 53.3212C22.2733 53.2812 22.3494 53.2602 22.427 53.2603L34.0842 53.3047C34.1594 53.3052 34.2331 53.3257 34.2978 53.3639C34.3626 53.4021 34.416 53.4568 34.4528 53.5223Z" fill="#E0E0E0"/>
<path d="M25.0897 58.2549C25.0897 58.2549 24.4901 58.8057 24.5834 59.272C24.6767 59.7384 24.6478 60.0871 25.0897 60.1182C25.0815 60.2888 25.1391 60.4561 25.2507 60.5855C25.3623 60.7149 25.5194 60.7964 25.6894 60.8133C25.6894 60.8133 25.5539 61.5462 26.4067 61.6728C26.4067 61.6728 26.6688 62.4567 27.2062 62.2657C27.516 62.1604 27.8137 62.0227 28.0945 61.8549L28.2522 61.5706C28.2522 61.5706 29.0451 61.273 28.8496 60.8266C28.7297 60.5557 28.3211 60.4846 28.3211 60.4846C28.3681 60.3733 28.388 60.2525 28.3791 60.132C28.3702 60.0115 28.3328 59.8949 28.27 59.7917C28.0812 59.5363 27.4638 59.7473 27.4638 59.7473C27.4766 59.5286 27.4069 59.313 27.2684 59.1432C27.0463 58.8923 26.0736 59.5696 26.0736 59.5696L25.5384 58.93L25.0897 58.2549Z" fill="#FFBE9D"/>
<path d="M26.4067 61.6728C26.753 61.5253 27.0834 61.343 27.3928 61.1287C27.7223 60.9467 28.032 60.7309 28.3167 60.4846C27.9706 60.6335 27.6403 60.8165 27.3306 61.0309C27.0018 61.2133 26.6923 61.4283 26.4067 61.6728Z" fill="#EB996E"/>
<path d="M25.6894 60.8133C26.0116 60.6867 26.3185 60.5243 26.6044 60.3292C26.91 60.1673 27.1967 59.9721 27.4594 59.7473C27.1368 59.8728 26.8297 60.0353 26.5444 60.2315C26.2389 60.3934 25.9521 60.5885 25.6894 60.8133Z" fill="#EB996E"/>
<path d="M26.6666 59.2054C26.6488 59.1721 26.2824 59.3653 25.856 59.6362C25.5916 59.7888 25.3372 59.958 25.0942 60.1426C25.1098 60.1803 25.4917 60.0071 25.9181 59.734C26.1855 59.5846 26.4364 59.4074 26.6666 59.2054Z" fill="#EB996E"/>
<path d="M22.0739 53.571C22.0923 53.574 22.111 53.574 22.1294 53.571H22.2937H22.9245L25.243 53.5888L32.8938 53.6066H33.4512C33.5334 53.5987 33.6161 53.6132 33.6907 53.6484C33.7654 53.6835 33.8292 53.7381 33.8754 53.8064C34.0531 54.1233 34.2263 54.4357 34.3951 54.7436L35.3812 56.5203L37.0535 59.5251C37.5287 60.3735 37.9174 61.0619 38.1905 61.5483C38.3215 61.7704 38.4282 61.9614 38.5037 62.0946L38.5881 62.2345L38.6191 62.2812C38.6191 62.2812 38.6191 62.2612 38.5992 62.2279L38.5236 62.0813L38.2283 61.5261L37.1179 59.4851L35.4656 56.467C35.1546 55.9007 34.826 55.3055 34.4884 54.6903L33.9665 53.7465C33.9096 53.662 33.8313 53.5941 33.7396 53.5496C33.648 53.5051 33.5462 53.4857 33.4446 53.4933H32.8872L25.2364 53.5088L22.9178 53.5288L22.2871 53.5399H22.1227C22.1048 53.5475 22.0883 53.558 22.0739 53.571Z" fill="#263238"/>
<path d="M30.291 57.6464C30.3449 57.7245 30.3751 57.8164 30.3781 57.9112C30.3811 58.006 30.3567 58.0996 30.3077 58.1809C30.2588 58.2621 30.1875 58.3276 30.1024 58.3693C30.0172 58.4111 29.9218 58.4274 29.8276 58.4163C29.7334 58.4052 29.6445 58.3672 29.5713 58.3068C29.4982 58.2464 29.4441 58.1662 29.4154 58.0758C29.3867 57.9854 29.3847 57.8886 29.4096 57.7971C29.4345 57.7056 29.4853 57.6232 29.5559 57.5598C29.6652 57.4746 29.8036 57.4359 29.9412 57.4521C30.0789 57.4683 30.2045 57.5381 30.291 57.6464Z" fill="white"/>
<g opacity="0.3">
<path opacity="0.3" d="M62.7152 54.5173C62.8129 54.5573 62.9262 54.6239 62.9262 54.7394C62.9227 54.7823 62.9047 54.8228 62.8753 54.8542C62.8459 54.8857 62.8067 54.9063 62.7641 54.9126C62.6012 54.8895 62.4416 54.847 62.2888 54.786C61.0874 54.5218 60.0991 54.7749 58.9576 55.2302L58.9198 55.1924C59.3729 54.2086 61.4227 53.991 62.7152 54.5173Z" fill="black"/>
</g>
<path d="M90.8858 99.6002C90.8858 99.6313 70.7983 99.658 46.0249 99.658C21.2514 99.658 1.16388 99.6224 1.16388 99.6002C1.16388 99.578 21.2469 99.5425 46.0249 99.5425C70.8028 99.5425 90.8858 99.558 90.8858 99.6002Z" fill="#263238"/>
<path d="M22.7994 28.8021C22.8371 28.8399 30.2125 26.3059 30.2125 26.3059L27.3698 19.7988L20.8117 22.315L24.4228 24.3893L22.7994 28.8021Z" fill="#455A64"/>
<path d="M26.2594 21.7575V12.8986C26.2594 12.8986 36.4331 11.0375 43.7641 11.1486C51.0951 11.2596 58.6437 12.4611 58.6437 12.4611V20.9669C58.6437 20.9669 35.6669 18.9149 26.2594 21.7575Z" fill="#455A64"/>
<path d="M26.2061 21.7665L30.2036 26.3437V20.967C30.2036 20.967 26.8613 21.3668 26.2061 21.7665Z" fill="#263238"/>
<path d="M26.2594 12.8965C26.2927 12.8965 26.306 14.8952 26.2927 17.3382C26.2794 19.7811 26.2394 21.7798 26.2083 21.7798C26.1772 21.7798 26.1617 19.7944 26.175 17.3382C26.1883 14.8819 26.2261 12.8965 26.2594 12.8965Z" fill="#263238"/>
<path d="M62.086 28.1224C62.0483 28.1602 54.6729 25.6262 54.6729 25.6262L57.5089 19.1169L64.0737 21.6287L60.4604 23.703L62.086 28.1224Z" fill="#455A64"/>
<path d="M58.6837 21.0869L54.6862 25.664V20.676C56.0265 20.7219 57.3621 20.8592 58.6837 21.0869Z" fill="#263238"/>
<path d="M58.6393 12.4612C58.6704 12.4612 58.7059 14.3911 58.717 16.7741C58.7281 19.157 58.717 21.0869 58.6792 21.0869C58.6415 21.0869 58.6126 19.157 58.6015 16.7741C58.5904 14.3911 58.606 12.4612 58.6393 12.4612Z" fill="#263238"/>
<path d="M31.9959 16.7828C31.9749 16.5278 32.0296 16.2722 32.1531 16.0481C32.2766 15.8239 32.4634 15.6412 32.6902 15.5227C32.9171 15.4042 33.1738 15.3552 33.4283 15.3818C33.6828 15.4084 33.9238 15.5095 34.1212 15.6724L33.8103 16.0455C33.7266 15.9691 33.6271 15.9122 33.5188 15.8788C33.4105 15.8454 33.2962 15.8363 33.184 15.8523C32.9849 15.88 32.805 15.9856 32.6838 16.1459C32.5626 16.3063 32.5101 16.5082 32.5377 16.7073C32.5654 16.9064 32.6711 17.0863 32.8314 17.2075C32.9918 17.3287 33.1937 17.3812 33.3928 17.3536C33.5057 17.3387 33.6138 17.2987 33.7091 17.2364C33.8045 17.1741 33.8846 17.0912 33.9435 16.9938L34.3344 17.2669C34.1896 17.4776 33.9858 17.6409 33.7487 17.7363C33.5115 17.8317 33.2515 17.8551 33.0011 17.8034C32.7507 17.7517 32.5212 17.6273 32.3412 17.4457C32.1612 17.2642 32.0387 17.0336 31.9892 16.7828H31.9959Z" fill="white"/>
<path d="M34.4188 16.4497C34.3774 16.1933 34.414 15.9304 34.5238 15.695C34.6336 15.4597 34.8115 15.2627 35.0345 15.1296C35.2575 14.9965 35.5153 14.9334 35.7746 14.9485C36.0339 14.9636 36.2827 15.0562 36.4887 15.2143C36.6948 15.3724 36.8486 15.5887 36.9303 15.8352C37.012 16.0818 37.0178 16.3471 36.947 16.597C36.8761 16.8469 36.7319 17.0697 36.533 17.2367C36.3341 17.4037 36.0896 17.5071 35.8312 17.5335C35.6667 17.5597 35.4985 17.5522 35.337 17.5113C35.1755 17.4703 35.024 17.3969 34.8918 17.2955C34.7596 17.1941 34.6495 17.0668 34.5682 16.9213C34.4868 16.7759 34.436 16.6154 34.4188 16.4497ZM36.4419 16.241C36.4239 16.0969 36.3638 15.9613 36.2692 15.8511C36.1746 15.7409 36.0496 15.661 35.9099 15.6214C35.7702 15.5818 35.6219 15.5842 35.4836 15.6283C35.3452 15.6724 35.2229 15.7562 35.1319 15.8694C35.0409 15.9826 34.9852 16.12 34.9718 16.2646C34.9584 16.4092 34.9878 16.5546 35.0565 16.6825C35.1251 16.8105 35.23 16.9154 35.3579 16.9842C35.4858 17.053 35.6311 17.0826 35.7757 17.0693C35.8754 17.0628 35.9727 17.0356 36.0613 16.9895C36.15 16.9434 36.2281 16.8794 36.2908 16.8015C36.3534 16.7236 36.3992 16.6336 36.4252 16.5371C36.4512 16.4406 36.4569 16.3398 36.4419 16.241Z" fill="white"/>
<path d="M39.6533 17.1892L39.5578 15.7723L38.9382 16.9849L38.6939 17.0004L37.9277 15.9078L38.0187 17.2936L37.5057 17.3269L37.3636 14.9661L37.8078 14.9373L38.7849 16.3475L39.56 14.8262L40.0042 14.7974L40.1641 17.1559L39.6533 17.1892Z" fill="white"/>
<path d="M42.7114 15.5725C42.7247 16.1011 42.3383 16.4387 41.7076 16.4609L41.2301 16.4742L41.2501 17.1271L40.7015 17.1427L40.6349 14.7642L41.6587 14.7353C42.2916 14.7264 42.6936 15.044 42.7114 15.5725ZM42.1562 15.5881C42.1562 15.3283 41.9763 15.1817 41.6409 15.1906L41.1968 15.2039L41.2212 16.0256L41.6654 16.0123C41.9985 16.0034 42.1628 15.8457 42.1562 15.5881Z" fill="white"/>
<path d="M43.1378 14.7131H43.6841V16.6319H44.87V17.0761H43.1378V14.7131Z" fill="white"/>
<path d="M46.9909 16.7006V17.1448L45.1588 17.0915L45.2276 14.7263L47.0043 14.7796L46.9909 15.2238L45.7473 15.186L45.7339 15.7013L46.831 15.7324L46.8177 16.1588L45.7206 16.1254L45.7051 16.674L46.9909 16.7006Z" fill="white"/>
<path d="M48.0036 15.275L47.2485 15.2305L47.2752 14.7864L49.3317 14.9107L49.305 15.3549L48.5499 15.3083L48.4345 17.2249L47.8881 17.1915L48.0036 15.275Z" fill="white"/>
<path d="M51.3238 17.025L51.2838 17.4692L49.4583 17.3004L49.6804 14.9463L51.4571 15.1106L51.4171 15.5548L50.1779 15.4304L50.1312 15.9434L51.2239 16.0434L51.1861 16.4676L50.0913 16.3676L50.0424 16.9117L51.3238 17.025Z" fill="white"/>
<path d="M52.0078 15.1616L53.0716 15.3038C53.8378 15.4059 54.302 15.9367 54.2087 16.6363C54.1154 17.3358 53.5247 17.7467 52.7585 17.6356L51.6947 17.4935L52.0078 15.1616ZM52.7918 17.1981C52.8885 17.2136 52.9873 17.2096 53.0823 17.1863C53.1774 17.163 53.2669 17.1209 53.3454 17.0625C53.424 17.004 53.49 16.9305 53.5397 16.8461C53.5893 16.7617 53.6215 16.6682 53.6344 16.5712C53.6473 16.4741 53.6407 16.3755 53.6148 16.281C53.589 16.1866 53.5445 16.0983 53.4839 16.0214C53.4234 15.9444 53.3481 15.8804 53.2624 15.833C53.1767 15.7857 53.0824 15.756 52.985 15.7457L52.4898 15.6791L52.2965 17.1315L52.7918 17.1981Z" fill="white"/>
<path d="M63.1898 13.2674L63.7716 13.9492L65.4106 13.2674L64.9309 12.55L63.1898 13.2674Z" fill="#455A64"/>
<path d="M62.4391 10.0227C62.4391 10.1914 62.3891 10.3563 62.2954 10.4965C62.2017 10.6368 62.0685 10.7461 61.9127 10.8106C61.7568 10.8752 61.5854 10.892 61.42 10.8591C61.2545 10.8262 61.1026 10.745 60.9833 10.6257C60.864 10.5065 60.7828 10.3545 60.7499 10.1891C60.717 10.0237 60.7339 9.8522 60.7984 9.69637C60.863 9.54054 60.9723 9.40735 61.1125 9.31364C61.2528 9.21994 61.4177 9.16992 61.5863 9.16992C61.8123 9.17051 62.0289 9.26055 62.1887 9.42035C62.3485 9.58016 62.4385 9.79673 62.4391 10.0227Z" fill="#FF9933"/>
<path d="M43.3354 22.7436C43.335 22.8281 43.3094 22.9106 43.262 22.9806C43.2146 23.0505 43.1474 23.1048 43.0691 23.1366C42.9907 23.1683 42.9047 23.176 42.822 23.1588C42.7392 23.1415 42.6635 23.1001 42.6044 23.0397C42.5452 22.9793 42.5054 22.9027 42.4898 22.8196C42.4743 22.7365 42.4839 22.6507 42.5172 22.573C42.5506 22.4954 42.6063 22.4294 42.6772 22.3834C42.7482 22.3375 42.8312 22.3137 42.9157 22.315C43.028 22.3167 43.1351 22.3627 43.2137 22.443C43.2923 22.5233 43.336 22.6313 43.3354 22.7436Z" fill="#FF9933"/>
<path d="M23.47 16.3343C23.47 16.3986 23.4509 16.4615 23.4151 16.5149C23.3792 16.5683 23.3283 16.6098 23.2688 16.6342C23.2093 16.6587 23.1439 16.6648 23.0809 16.6519C23.0179 16.6391 22.9601 16.6077 22.9149 16.5619C22.8698 16.5161 22.8392 16.458 22.8272 16.3948C22.8152 16.3316 22.8223 16.2663 22.8475 16.2071C22.8727 16.1479 22.915 16.0976 22.9689 16.0625C23.0228 16.0274 23.0859 16.0092 23.1502 16.01C23.2354 16.0112 23.3168 16.0459 23.3766 16.1066C23.4365 16.1672 23.47 16.2491 23.47 16.3343Z" fill="#FF9933"/>
<path d="M22.2663 12.7654L23.2213 12.8232L23.6743 10.9443L22.7815 10.9821L22.2663 12.7654Z" fill="#455A64"/>
<path d="M52.1144 27.7626L52.4365 28.6643L54.3419 28.3445L53.9577 27.5383L52.1144 27.7626Z" fill="#FF9933"/>
<path d="M32.8419 22.5593L32.2534 23.3144L33.5437 24.7513L34.019 23.994L32.8419 22.5593Z" fill="#455A64"/>
<path d="M30.5612 4.82153L32.8153 7.1201L35.9889 5.92085L36.1155 6.70925L34.7408 9.52305L36.0089 11.624L35.9023 12.2525L32.8309 11.735L31.0142 13.7271L30.5878 13.4051L30.2125 10.8711L27.3476 9.3787L27.221 8.79906L30.1059 8.01066L30.5612 4.82153Z" fill="#FF9933"/>
<g opacity="0.3">
<path opacity="0.3" d="M30.5612 4.82153L32.8153 7.1201L35.9889 5.92085L36.1155 6.70925L34.7408 9.52305L36.0089 11.624L35.9023 12.2525L32.8309 11.735L31.0142 13.7271L30.5878 13.4051L30.2125 10.8711L27.3476 9.3787L27.221 8.79906L30.1059 8.01066L30.5612 4.82153Z" fill="black"/>
</g>
<path d="M30.5612 4.17529L32.8153 6.47608L35.9889 5.92087L34.4987 8.77687L36.0089 11.624L32.8308 11.091L30.5878 13.4051L30.1148 10.2182L27.221 8.79908L30.1059 7.36442L30.5612 4.17529Z" fill="#FF9933"/>
<path d="M53.9355 4.82153L51.6791 7.1201L48.5056 5.92085L48.379 6.70925L49.7537 9.52305L48.4856 11.624L48.5922 12.2525L51.6636 11.735L53.4802 13.7271L53.9066 13.4051L54.282 10.8711L57.1468 9.3787L57.2734 8.79906L54.3886 8.01066L53.9355 4.82153Z" fill="#FF9933"/>
<g opacity="0.3">
<path opacity="0.3" d="M53.9355 4.82153L51.6791 7.1201L48.5056 5.92085L48.379 6.70925L49.7537 9.52305L48.4856 11.624L48.5922 12.2525L51.6636 11.735L53.4802 13.7271L53.9066 13.4051L54.282 10.8711L57.1468 9.3787L57.2734 8.79906L54.3886 8.01066L53.9355 4.82153Z" fill="black"/>
</g>
<path d="M53.9355 4.17529L51.6791 6.47608L48.5055 5.92087L49.9957 8.77687L48.4855 11.624L51.6636 11.091L53.9066 13.4051L54.3796 10.2182L57.2734 8.79908L54.3885 7.36442L53.9355 4.17529Z" fill="#FF9933"/>
<path d="M42.1739 0.786133L44.0505 4.45274L48.379 4.19734L48.2324 5.20561L45.483 8.11713L46.227 11.1619L45.8605 11.8881L42.3094 10.087L39.3357 11.8282L38.9382 11.2707L39.4445 8.03496L36.5175 5.12343L36.5841 4.37057L40.4039 4.50604L42.1739 0.786133Z" fill="#FF9933"/>
<g opacity="0.3">
<path opacity="0.3" d="M42.1739 0.786133L44.0505 4.45274L48.379 4.19734L48.2324 5.20561L45.483 8.11713L46.227 11.1619L45.8605 11.8881L42.3094 10.087L39.3357 11.8282L38.9382 11.2707L39.4445 8.03496L36.5175 5.12343L36.5841 4.37057L40.4039 4.50604L42.1739 0.786133Z" fill="black"/>
</g>
<path d="M42.4182 0L44.2948 3.66439L48.3789 4.19739L45.4718 7.11557L46.2269 11.1619L42.5559 9.30088L38.9381 11.2708L39.5755 7.20219L36.584 4.37061L40.6504 3.71769L42.4182 0Z" fill="#FF9933"/>
<path d="M38.532 32.8928L35.3962 33.2393C34.3375 31.7405 32.7565 30.6918 30.9639 30.2994C29.1713 29.9071 27.2968 30.1993 25.7088 31.1187C24.1207 32.0382 22.934 33.5183 22.3818 35.2682C21.8296 37.0182 21.9518 38.9114 22.7245 40.5758C23.4972 42.2402 24.8645 43.5554 26.5576 44.2629C28.2507 44.9705 30.1472 45.0192 31.8744 44.3995C33.6016 43.7799 35.0346 42.5366 35.8918 40.9141C36.7489 39.2915 36.9682 37.4071 36.5066 35.6311L38.532 32.8928Z" fill="#FAFAFA"/>
<path d="M38.532 32.8929C38.4098 33.0572 37.7747 33.8967 36.4777 35.6179H36.5243C36.5228 35.6142 36.5204 35.611 36.5174 35.6084C36.5144 35.6057 36.5108 35.6038 36.507 35.6028C36.5032 35.6017 36.4991 35.6015 36.4952 35.6022C36.4913 35.6029 36.4876 35.6045 36.4844 35.6068C36.4792 35.6099 36.4751 35.6146 36.4727 35.6202C36.4703 35.6257 36.4697 35.6319 36.471 35.6379C36.7889 36.8838 36.7721 38.1915 36.4222 39.4288C36.3195 39.8001 36.1834 40.1613 36.0158 40.5082C35.9269 40.6858 35.8425 40.8679 35.747 41.0478L35.4161 41.5742C34.3594 43.106 32.761 44.1798 30.9434 44.579C29.9372 44.8001 28.8955 44.8046 27.8875 44.5923C26.8249 44.3611 25.8262 43.8985 24.9626 43.2376C24.0581 42.5507 23.331 41.6575 22.8417 40.6325C22.3352 39.5903 22.0854 38.442 22.1133 37.2835C22.1457 36.1753 22.4265 35.0885 22.935 34.1033C23.4133 33.1693 24.0911 32.352 24.9205 31.7092C26.4143 30.5545 28.2943 30.0172 30.1727 30.2079C30.9664 30.3032 31.7413 30.5173 32.4713 30.8431C33.6328 31.3798 34.6335 32.2114 35.3739 33.2549C35.3763 33.2592 35.3799 33.2626 35.3843 33.2646C35.3887 33.2666 35.3936 33.2671 35.3984 33.266L38.532 32.8929L35.3917 33.2105L35.4184 33.2238C34.6803 32.1661 33.6748 31.3231 32.5046 30.7809C31.771 30.4428 30.9898 30.2196 30.1883 30.1191C28.2841 29.9175 26.3755 30.4567 24.8583 31.6248C24.0146 32.2752 23.3252 33.1041 22.8395 34.0522C22.3203 35.0515 22.034 36.1555 22.0023 37.2813C21.973 38.458 22.2258 39.6246 22.7396 40.6836C23.2375 41.7244 23.9768 42.6313 24.896 43.3286C25.7738 43.9987 26.7883 44.4673 27.8675 44.7011C28.8934 44.9169 29.9536 44.9101 30.9767 44.6811C32.8136 44.2762 34.4278 43.1876 35.4917 41.6364L35.8248 41.1034C35.9203 40.9212 36.0047 40.7347 36.0957 40.5548C36.2628 40.2034 36.3981 39.8377 36.4999 39.4622C36.8483 38.2116 36.8575 36.8909 36.5266 35.6356L36.4733 35.6556C36.4774 35.6621 36.4837 35.6668 36.4911 35.6688C36.4985 35.6709 36.5064 35.6701 36.5132 35.6667L38.532 32.8929Z" fill="#263238"/>
<path d="M32.0982 34.8495C32.0957 34.8835 32.0957 34.9177 32.0982 34.9517C32.0982 35.025 32.0982 35.1183 32.0982 35.236C32.0982 35.4936 32.0983 35.8511 32.0849 36.3042C32.0849 37.2258 32.0694 38.525 32.0583 40.0796L32.1094 40.0285H26.8837C26.8704 40.0152 26.9925 40.1374 26.9415 40.0841V39.3734C26.9415 39.1402 26.9415 38.907 26.9415 38.676V37.3235C26.9415 36.4485 26.9415 35.6202 26.9415 34.8584L26.8926 34.9095L30.668 34.8828L31.7363 34.8717H32.0205H32.1227H32.0316H31.7562L30.7013 34.8584L26.897 34.834H26.846V34.8828C26.846 35.6446 26.846 36.473 26.846 37.348V40.0818C26.7927 40.0308 26.9148 40.1551 26.9037 40.1418H32.1293H32.1804V40.0818C32.1804 38.5139 32.1626 37.2058 32.156 36.2775C32.156 35.8334 32.156 35.4736 32.1427 35.2204C32.1427 35.1071 32.1427 35.0161 32.1427 34.945C32.1322 34.9113 32.1173 34.8792 32.0982 34.8495Z" fill="#263238"/>
<path d="M31.103 35.7133C31.1785 35.7732 30.4767 36.7859 29.5328 37.9763C29.3463 38.2139 29.162 38.4405 28.991 38.6426L28.8799 38.778L28.7556 38.6648C27.9383 37.9297 27.3853 37.3656 27.4342 37.3078C27.483 37.2501 28.1248 37.7165 28.971 38.4183L28.7333 38.4405C28.8955 38.2184 29.0731 37.9963 29.2619 37.7609C30.2035 36.5705 31.0297 35.6555 31.103 35.7133Z" fill="#FF9933"/>
</svg>
