<svg width="51" height="48" viewBox="0 0 51 48" fill="none" xmlns="http://www.w3.org/2000/svg">
<path fill-rule="evenodd" clip-rule="evenodd" d="M25.2502 8.00732C18.0188 8.00732 10.8613 11.8921 7.93912 19.9077C7.73568 20.4526 7.16234 20.6284 6.73696 20.4702C6.29309 20.2944 6.03416 19.8022 6.29309 19.1167C9.56666 10.5386 17.168 6.37256 25.2502 6.37256C28.9307 6.37256 31.7789 7.12842 34.2942 8.65771C34.7011 8.90381 34.9785 9.22021 34.7381 9.72998C34.5346 10.2046 33.9428 10.2573 33.4434 9.9585C31.372 8.74561 28.7273 8.00732 25.2502 8.00732ZM45.428 25.6733C45.4835 26.1831 45.1136 26.5698 44.6328 26.5698C44.1334 26.5698 43.819 26.1831 43.782 25.7085C43.1717 19.5034 40.5824 15.2671 36.828 12.0151C36.3841 11.646 36.4026 11.1362 36.717 10.8374C36.9944 10.5386 37.5308 10.4858 37.9562 10.8374C42.099 14.1948 44.6882 18.9058 45.428 25.6733ZM39.7317 38.0835C40.5269 35.9741 41.2297 32.8979 41.2297 29.0132C41.2297 18.2026 34.9785 10.7319 25.0283 10.7319C16.9461 10.7319 10.1585 17.1831 10.1585 24.8296C10.1585 26.465 10.5187 27.8023 10.8386 28.9899C11.0895 29.9213 11.3156 30.7606 11.3237 31.5796C11.3237 32.7573 10.8243 33.9351 9.93657 34.6733C9.56668 34.9722 9.51119 35.4819 9.75162 35.8335C10.029 36.2202 10.6209 36.3081 11.0463 35.9565C12.3409 34.937 12.9882 33.2319 12.9697 31.5796C12.9611 30.4312 12.7189 29.5661 12.463 28.6521C12.1705 27.6072 11.86 26.4985 11.86 24.8296C11.86 18.062 17.8893 12.3315 25.0283 12.3315C33.9428 12.3315 39.4912 19.1343 39.5282 29.0308C39.5467 32.7046 38.9364 35.5347 38.1596 37.4155C37.9562 37.8901 38.1596 38.3647 38.5665 38.5405C38.9734 38.7163 39.5467 38.5757 39.7317 38.0835ZM17.6859 29.8745C17.8708 30.3491 17.6859 30.8237 17.242 30.9995C16.7241 31.1929 16.2618 30.9819 16.0398 30.4897C15.3 28.7671 14.7452 26.9741 14.7452 25.0581C14.7452 19.3276 19.2394 15.0562 25.2502 15.0562C27.0997 15.0562 28.9307 15.5483 30.2438 16.3218C30.8357 16.6558 30.8911 17.1655 30.6692 17.5347C30.4843 17.8511 30.0404 17.9917 29.5595 17.7632C28.0429 16.9722 27.0812 16.6733 25.2502 16.6733C20.1827 16.6733 16.4467 20.2241 16.4467 25.0581C16.4467 26.8275 17.0733 28.3678 17.5777 29.6079L17.578 29.6086C17.6147 29.6989 17.6507 29.7875 17.6859 29.8745ZM33.0181 42.1089C35.2929 39.1733 36.6615 34.6558 36.6615 29.9976C36.6615 25.1636 35.5518 21.771 33.8503 19.2046C33.5174 18.6948 32.9811 18.5893 32.5742 18.8003C32.1303 19.0288 32.0008 19.5561 32.3337 20.0483C34.1092 22.5093 34.9785 26.0425 34.9785 30.0503C34.9785 34.3218 33.7578 38.4351 31.7049 40.9839C31.4275 41.3354 31.372 41.8452 31.7049 42.1616C32.0563 42.4956 32.7036 42.4956 33.0181 42.1089ZM31.8899 29.7163C31.9083 35.5347 29.5965 40.8608 26.6743 43.3921C26.2674 43.7437 25.6756 43.6558 25.3982 43.2866C25.1393 42.9351 25.2132 42.4956 25.5646 42.1968C28.3019 39.8589 30.3918 35.3413 30.2808 29.8218C30.2068 24.7065 28.7827 21.0327 25.1578 21.0327C22.7349 21.0327 21.0334 22.562 21.0334 24.8472C21.0334 25.5991 21.2484 26.3811 21.4937 27.2737C21.8104 28.4261 22.1777 29.7627 22.1986 31.4565C22.2171 35.4644 20.5895 39.0503 17.6489 41.3003C17.2235 41.6519 16.6687 41.5815 16.3727 41.1772C16.1138 40.8257 16.1508 40.3511 16.5947 40.0171C19.11 38.0659 20.5156 34.9722 20.4971 31.4565C20.4777 30.1774 20.1694 28.9127 19.88 27.7256C19.6166 26.645 19.3689 25.6287 19.3689 24.7241C19.3689 21.5425 21.8657 19.4331 25.1578 19.4331C29.9664 19.4331 31.8714 23.6519 31.8899 29.7163ZM7.42128 30.7534C7.86515 30.6128 8.10558 30.1909 7.95763 29.6636C7.47676 27.9585 7.25482 25.814 7.31031 23.4585C7.31031 22.9487 7.01439 22.6499 6.55202 22.6323C5.96019 22.5972 5.64578 22.9487 5.60879 23.3882C5.49782 25.4097 5.68277 27.9233 6.31159 30.1206C6.47804 30.648 6.95891 30.8765 7.42128 30.7534ZM26.249 25.3745C27.1922 27.853 27.4326 31.0171 26.8963 33.2671C26.7668 33.7944 26.3229 34.0757 25.8236 33.9878C25.3057 33.8999 25.1208 33.4956 25.2132 33.0562C25.6941 30.9468 25.4907 28.2222 24.5659 25.814C24.3995 25.3218 24.6584 24.8999 25.1023 24.7593C25.5831 24.6187 26.027 24.7944 26.249 25.3745ZM13.8205 39.0151C15.1706 38.3472 17.0386 36.0972 17.5194 34.2515C17.6489 33.812 17.4085 33.355 16.9461 33.2143C16.5207 33.0913 16.0768 33.3198 15.9104 33.7944C15.411 35.4819 14.3753 36.6948 13.0437 37.5561C12.4888 37.9253 12.4334 38.3999 12.6183 38.7339C12.8033 39.0854 13.2841 39.2788 13.8205 39.0151ZM25.8606 37.1343C24.9913 39.6304 23.3083 41.687 21.8472 42.7065C21.4033 43.0229 20.83 42.9702 20.5711 42.5483C20.3121 42.1792 20.4231 41.687 20.8115 41.4058C22.0876 40.4917 23.3083 39.0503 24.307 36.5542C24.455 36.1499 24.9173 35.939 25.3982 36.0972C25.8791 36.2378 25.9715 36.7476 25.8606 37.1343Z" fill="#FF9933"/>
</svg>
